<svg width="100" height="100" viewBox="0 0 100 100" fill="none" xmlns="http://www.w3.org/2000/svg">
<g filter="url(#filter0_b_1146_23811)">
<rect width="100" height="100" rx="50" fill="white" fill-opacity="0.3"/>
<path d="M56.0252 41.7546C56.9018 41.4441 59.2924 41.8527 59.6076 43.6373M83.1383 30.453C83.0822 29.2679 82.6475 28.1296 81.895 27.1975C81.1426 26.2653 80.1101 25.586 78.9421 25.2546C69.8548 22.6832 61.0499 19.2438 52.6553 14.9861C51.8349 14.5711 50.9243 14.3545 50.0001 14.3545C49.0759 14.3545 48.1652 14.5711 47.3448 14.9861C38.9496 19.2442 30.1438 22.6837 21.0556 25.2546C19.888 25.5866 18.856 26.2662 18.1036 27.1982C17.3513 28.1302 16.9162 29.2681 16.8593 30.453C16.8114 31.421 16.7874 32.389 16.7874 33.3571C16.7787 43.7703 19.5668 54.0042 24.874 63.0401C30.1812 72.076 37.8225 79.5986 47.0372 84.8594C47.9351 85.3738 48.9575 85.6451 49.9989 85.6451C51.0403 85.6451 52.0626 85.3738 52.9605 84.8594C62.1726 79.601 69.8125 72.0819 75.1199 63.0501C80.4274 54.0184 83.2175 43.7887 83.2127 33.3789C83.2127 32.3931 83.188 31.4178 83.1383 30.453ZM65.743 44.2059C65.494 42.2044 64.5693 40.3422 63.1163 38.9159C61.6632 37.4895 59.7652 36.5809 57.7247 36.3349C56.308 36.1694 54.8715 36.3311 53.53 36.8074C52.1886 37.2836 50.9793 38.0613 49.9989 39.0778C49.0196 38.0619 47.8115 37.2846 46.4712 36.8084C45.131 36.3322 43.6957 36.1699 42.2801 36.3349C40.2393 36.5818 38.3411 37.4905 36.887 38.9165C35.433 40.3426 34.5064 42.2043 34.2547 44.2059C34.0865 45.5942 34.2518 47.0018 34.7374 48.3163C35.223 49.6308 36.0153 50.8158 37.0512 51.7763L48.6791 63.1875C48.8533 63.3584 49.0602 63.494 49.2879 63.5865C49.5155 63.679 49.7595 63.7266 50.0059 63.7266C50.2524 63.7266 50.4964 63.679 50.7241 63.5865C50.9518 63.494 51.1587 63.3584 51.3329 63.1875L62.968 51.7763C63.9991 50.8131 64.7868 49.6271 65.2686 48.3129C65.7503 46.9987 65.9127 45.5925 65.743 44.2059Z" stroke="white" stroke-linecap="round"/>
</g>
<defs>
<filter id="filter0_b_1146_23811" x="-100" y="-100" width="300" height="300" filterUnits="userSpaceOnUse" color-interpolation-filters="sRGB">
<feFlood flood-opacity="0" result="BackgroundImageFix"/>
<feGaussianBlur in="BackgroundImageFix" stdDeviation="50"/>
<feComposite in2="SourceAlpha" operator="in" result="effect1_backgroundBlur_1146_23811"/>
<feBlend mode="normal" in="SourceGraphic" in2="effect1_backgroundBlur_1146_23811" result="shape"/>
</filter>
</defs>
</svg>
