<svg width="17" height="18" viewBox="0 0 17 18" fill="none" xmlns="http://www.w3.org/2000/svg">
<path fill-rule="evenodd" clip-rule="evenodd" d="M1.18292 7.05257C1.83623 7.05257 2.36584 7.58218 2.36584 8.23549V9.37426C2.36584 10.0276 1.83623 10.5572 1.18292 10.5572C0.529612 10.5572 0 10.0276 0 9.37426V8.23549C0 7.58218 0.529612 7.05257 1.18292 7.05257Z" fill="#555555"/>
<path fill-rule="evenodd" clip-rule="evenodd" d="M15.817 7.05257C16.4703 7.05257 16.9999 7.58218 16.9999 8.23549V9.37426C16.9999 10.0276 16.4703 10.5572 15.817 10.5572C15.1637 10.5572 14.6341 10.0276 14.6341 9.37426V8.23549C14.6341 7.58218 15.1637 7.05257 15.817 7.05257Z" fill="#555555"/>
<path fill-rule="evenodd" clip-rule="evenodd" d="M4.84144 3.63637C5.49475 3.63637 6.02436 4.16598 6.02436 4.81929V8.54401C6.02436 9.19732 5.49475 9.72693 4.84144 9.72693C4.18813 9.72693 3.65852 9.19732 3.65852 8.54401V4.81929C3.65852 4.16598 4.18813 3.63637 4.84144 3.63637ZM4.84144 10.469C5.49475 10.469 6.02436 10.9986 6.02436 11.6519V12.7907C6.02436 13.444 5.49475 13.9736 4.84144 13.9736C4.18813 13.9736 3.65852 13.444 3.65852 12.7907V11.6519C3.65852 10.9986 4.18813 10.469 4.84144 10.469Z" fill="#555555"/>
<path fill-rule="evenodd" clip-rule="evenodd" d="M12.1585 3.63595C12.8118 3.63595 13.3414 4.16556 13.3414 4.81887V5.95765C13.3414 6.61096 12.8118 7.14057 12.1585 7.14057C11.5052 7.14057 10.9756 6.61096 10.9756 5.95765V4.81887C10.9756 4.16556 11.5052 3.63595 12.1585 3.63595ZM12.1585 7.88278C12.8118 7.88278 13.3414 8.41239 13.3414 9.0657V12.7904C13.3414 13.4437 12.8118 13.9733 12.1585 13.9733C11.5052 13.9733 10.9756 13.4437 10.9756 12.7904V9.0657C10.9756 8.41239 11.5052 7.88278 12.1585 7.88278Z" fill="#555555"/>
<path fill-rule="evenodd" clip-rule="evenodd" d="M8.49996 0.304688C9.15327 0.304688 9.68288 0.834299 9.68288 1.48761V2.62638C9.68288 3.27969 9.15327 3.8093 8.49996 3.8093C7.84665 3.8093 7.31704 3.27969 7.31704 2.62638V1.48761C7.31704 0.834299 7.84665 0.304688 8.49996 0.304688ZM8.49996 4.58524C9.15327 4.58524 9.68288 5.11485 9.68288 5.76816V11.8415C9.68288 12.4949 9.15327 13.0245 8.49996 13.0245C7.84665 13.0245 7.31704 12.4949 7.31704 11.8415V5.76816C7.31704 5.11485 7.84665 4.58524 8.49996 4.58524ZM8.49996 13.8001C9.15327 13.8001 9.68288 14.3297 9.68288 14.983V16.1218C9.68288 16.7751 9.15327 17.3047 8.49996 17.3047C7.84665 17.3047 7.31704 16.7751 7.31704 16.1218V14.983C7.31704 14.3297 7.84665 13.8001 8.49996 13.8001Z" fill="#555555"/>
</svg>
