<svg width="100" height="100" viewBox="0 0 100 100" fill="none" xmlns="http://www.w3.org/2000/svg">
<g filter="url(#filter0_b_1146_23873)">
<rect width="100" height="100" rx="50" fill="white" fill-opacity="0.3"/>
<path d="M46.6805 30.8668C47.7306 27.6473 52.2853 27.6473 53.3354 30.8668L55.6079 37.834C56.2118 39.6857 57.9384 40.9386 59.8861 40.9386H67.2073C70.601 40.9386 72.0086 45.2841 69.2593 47.2739L63.3628 51.5416C61.7796 52.6875 61.117 54.7243 61.723 56.5824L63.9815 63.5067C65.0325 66.7289 61.3476 69.4145 58.602 67.4273L52.6463 63.1169C51.072 61.9774 48.9439 61.9774 47.3696 63.1169L41.4139 67.4273C38.6683 69.4145 34.9834 66.7289 36.0344 63.5067L38.2929 56.5824C38.8989 54.7243 38.2363 52.6875 36.6531 51.5416L30.7566 47.2739C28.0073 45.2841 29.4149 40.9386 32.8086 40.9386H40.1298C42.0774 40.9386 43.804 39.6857 44.408 37.834L46.6805 30.8668Z" stroke="white"/>
<path d="M86.9809 49.9999C86.9809 70.3428 70.4258 86.8372 50 86.8372C29.5743 86.8372 13.0192 70.3428 13.0192 49.9999C13.0192 29.657 29.5743 13.1626 50 13.1626C70.4258 13.1626 86.9809 29.657 86.9809 49.9999Z" stroke="white"/>
</g>
<defs>
<filter id="filter0_b_1146_23873" x="-100" y="-100" width="300" height="300" filterUnits="userSpaceOnUse" color-interpolation-filters="sRGB">
<feFlood flood-opacity="0" result="BackgroundImageFix"/>
<feGaussianBlur in="BackgroundImageFix" stdDeviation="50"/>
<feComposite in2="SourceAlpha" operator="in" result="effect1_backgroundBlur_1146_23873"/>
<feBlend mode="normal" in="SourceGraphic" in2="effect1_backgroundBlur_1146_23873" result="shape"/>
</filter>
</defs>
</svg>
