<svg width="18" height="18" viewBox="0 0 18 18" fill="none" xmlns="http://www.w3.org/2000/svg">
<path fill-rule="evenodd" clip-rule="evenodd" d="M16.8609 15.0379C16.6966 15.4573 16.3169 16.0466 15.7729 16.4659C15.4612 16.7039 15.0872 16.9363 14.5772 17.0893C14.0332 17.2536 13.3589 17.3046 12.5203 17.3046H4.87029C4.03163 17.3046 3.36296 17.2479 2.8133 17.0893C2.3033 16.9363 1.9293 16.7096 1.61764 16.4659C1.07931 16.0523 0.693977 15.4573 0.529644 15.0379C0.200979 14.1936 0.195312 13.236 0.195312 12.6296V4.97966C0.195312 4.37333 0.200979 3.41567 0.529644 2.57134C0.693977 2.15201 1.07364 1.56268 1.61764 1.14335C1.9293 0.905351 2.3033 0.673019 2.8133 0.52002C3.36296 0.361354 4.03163 0.304688 4.87029 0.304688H12.5203C13.3589 0.304688 14.0276 0.361354 14.5772 0.52002C15.0872 0.673019 15.4612 0.899685 15.7729 1.14335C16.3112 1.55701 16.6966 2.15201 16.8609 2.57134C17.1952 3.41567 17.1952 4.379 17.1952 4.97966V12.6296C17.1952 13.236 17.1896 14.1936 16.8609 15.0379Z" fill="#555555"/>
<path d="M10.1517 10.566C10.129 10.362 10.061 10.2147 9.92501 10.0787C9.67002 9.81238 9.22235 9.63672 8.69535 9.63672C8.16836 9.63672 7.72069 9.80672 7.46569 10.0787C7.33536 10.2204 7.26169 10.362 7.23903 10.566C7.1937 10.9627 7.22203 11.3027 7.26736 11.8524C7.31269 12.3737 7.39769 13.0707 7.50536 13.7734C7.58469 14.2777 7.64703 14.5497 7.70369 14.7424C7.80003 15.0597 8.14569 15.3317 8.69535 15.3317C9.24502 15.3317 9.59635 15.054 9.68702 14.7424C9.74368 14.5497 9.80602 14.2777 9.88535 13.7734C9.99301 13.065 10.078 12.3737 10.1233 11.8524C10.1743 11.3027 10.197 10.9627 10.1517 10.566Z" fill="white"/>
<path d="M10.0893 7.6772C10.0893 8.44786 9.46593 9.07119 8.69526 9.07119C7.9246 9.07119 7.30127 8.44786 7.30127 7.6772C7.30127 6.90653 7.9246 6.2832 8.69526 6.2832C9.46593 6.2832 10.0893 6.9122 10.0893 7.6772Z" fill="white"/>
<path d="M8.67836 2.18556C5.42571 2.19689 2.76239 4.83754 2.71706 8.09019C2.68306 10.7252 4.36605 12.9805 6.71771 13.8078C6.77437 13.8305 6.83104 13.7795 6.82537 13.7228C6.79704 13.5188 6.76304 13.3148 6.74037 13.1108C6.72904 13.0372 6.68371 12.9805 6.62137 12.9465C4.76272 12.1362 3.46506 10.2718 3.48772 8.11286C3.51605 5.27954 5.82804 2.97322 8.6557 2.95055C11.5513 2.92789 13.9143 5.27387 13.9143 8.16386C13.9143 10.3002 12.6223 12.1362 10.7807 12.9465C10.7127 12.9748 10.6674 13.0372 10.6617 13.1108C10.6334 13.3148 10.605 13.5188 10.5767 13.7228C10.5654 13.7852 10.6277 13.8305 10.6844 13.8078C13.0133 12.9918 14.685 10.7705 14.685 8.16386C14.6737 4.86588 11.982 2.17989 8.67836 2.18556Z" fill="white"/>
<path d="M8.54229 4.16924C6.42297 4.24858 4.72297 5.99957 4.69464 8.11889C4.67764 9.51289 5.37464 10.7482 6.44563 11.4792C6.49663 11.5132 6.5703 11.4735 6.5703 11.4112C6.5533 11.1675 6.5533 10.9522 6.56463 10.7255C6.5703 10.6519 6.54196 10.5839 6.4853 10.5329C5.83363 9.92088 5.43697 9.04822 5.45964 8.08489C5.50497 6.3849 6.87063 5.00224 8.57062 4.93424C10.4179 4.86058 11.9366 6.34524 11.9366 8.16989C11.9366 9.09922 11.5399 9.93788 10.9109 10.5329C10.8599 10.5839 10.8316 10.6519 10.8316 10.7255C10.8429 10.9465 10.8373 11.1619 10.8259 11.4055C10.8203 11.4679 10.8939 11.5132 10.9506 11.4735C12.0046 10.7539 12.7016 9.53555 12.7016 8.16423C12.7073 5.9089 10.8203 4.07858 8.54229 4.16924Z" fill="white"/>
</svg>
