<svg width="84" height="21" viewBox="0 0 84 21" fill="none" xmlns="http://www.w3.org/2000/svg">
<g id="raily logo small">
<g id="Group 1948757473">
<path id="Vector 1554 (Stroke)" fill-rule="evenodd" clip-rule="evenodd" d="M0.135742 4.36454C0.135742 2.22914 1.86683 0.498047 4.00224 0.498047H14.9724C17.1078 0.498047 18.8389 2.22914 18.8389 4.36454C18.8389 6.49995 17.1078 8.23104 14.9724 8.23104H7.86873V16.0877C7.86873 18.2231 6.13764 19.9542 4.00224 19.9542C1.86683 19.9542 0.135742 18.2231 0.135742 16.0877V4.36454Z" fill="#9B9B9B"/>
<path id="Vector 1561 (Stroke)" fill-rule="evenodd" clip-rule="evenodd" d="M47.1197 16.0877C47.1197 18.2603 48.8809 20.0215 51.0535 20.0215L62.2146 20.0215C64.3872 20.0215 66.1484 18.2603 66.1484 16.0877C66.1484 13.9151 64.3872 12.1539 62.2146 12.1539L54.9873 12.1539L54.9873 4.16049C54.9873 1.98791 53.2261 0.226695 51.0535 0.226696C48.8809 0.226696 47.1197 1.98791 47.1197 4.16049L47.1197 16.0877Z" fill="#9B9B9B"/>
<path id="Vector 1556 (Stroke)" fill-rule="evenodd" clip-rule="evenodd" d="M41.5973 0.396484C43.7327 0.396484 45.4638 2.12757 45.4638 4.26298V15.9861C45.4638 18.1216 43.7327 19.8526 41.5973 19.8526C39.4619 19.8526 37.7308 18.1216 37.7308 15.9861V4.26298C37.7308 2.12757 39.4619 0.396484 41.5973 0.396484Z" fill="#9B9B9B"/>
<path id="Vector 1560 (Stroke)" fill-rule="evenodd" clip-rule="evenodd" d="M24.3631 0.529297C26.4985 0.529297 28.2296 2.26039 28.2296 4.39579V6.19553L35.2134 13.1794C36.7234 14.6894 36.7234 17.1375 35.2134 18.6475C33.7035 20.1574 31.2553 20.1574 29.7454 18.6475L24.3631 13.2651L18.8076 18.8206C17.2976 20.3306 14.8495 20.3306 13.3395 18.8206C11.8295 17.3107 11.8295 14.8626 13.3395 13.3526L20.4966 6.19553V4.39579C20.4966 2.26039 22.2277 0.529297 24.3631 0.529297Z" fill="#9B9B9B"/>
<path id="Vector 1559 (Stroke)" fill-rule="evenodd" clip-rule="evenodd" d="M61.2866 1.42759C62.8229 -0.10866 65.3136 -0.108679 66.8498 1.42755L71.6255 6.20311L76.3965 1.43212C77.9328 -0.104113 80.4235 -0.104099 81.9597 1.43215C83.496 2.9684 83.4959 5.45914 81.9597 6.99537L75.5593 13.3957V16.0874C75.5593 18.26 73.798 20.0212 71.6255 20.0212C69.4529 20.0212 67.6917 18.26 67.6917 16.0874V13.3957L61.2867 6.99081C59.7504 5.45458 59.7504 2.96384 61.2866 1.42759Z" fill="#9B9B9B"/>
</g>
</g>
</svg>
