<svg width="18" height="18" viewBox="0 0 18 18" fill="none" xmlns="http://www.w3.org/2000/svg">
<path fill-rule="evenodd" clip-rule="evenodd" d="M16.8613 15.0379C16.697 15.4572 16.3173 16.0466 15.7733 16.4659C15.4617 16.7039 15.0877 16.9362 14.5777 17.0892C14.0337 17.2535 13.3593 17.3045 12.5207 17.3045H4.87068C4.03201 17.3045 3.36335 17.2479 2.81368 17.0892C2.30368 16.9362 1.92968 16.7095 1.61801 16.4659C1.07968 16.0522 0.694345 15.4572 0.530012 15.0379C0.201345 14.1936 0.195679 13.2359 0.195679 12.6296V4.97965C0.195679 4.37332 0.201345 3.41566 0.530012 2.57133C0.694345 2.152 1.07401 1.56268 1.61801 1.14335C1.92968 0.905349 2.30368 0.673018 2.81368 0.520019C3.36335 0.361354 4.03201 0.304688 4.87068 0.304688H12.5207C13.3593 0.304688 14.028 0.361354 14.5777 0.520019C15.0877 0.673018 15.4617 0.899682 15.7733 1.14335C16.3117 1.55701 16.697 2.152 16.8613 2.57133C17.1957 3.41566 17.1957 4.37899 17.1957 4.97965V12.6296C17.1957 13.2359 17.19 14.1936 16.8613 15.0379Z" fill="url(#paint0_linear_1055_30792)"/>
<path d="M10.1534 10.568C10.1307 10.364 10.0627 10.2167 9.92674 10.0807C9.67174 9.81434 9.22407 9.63867 8.69707 9.63867C8.17007 9.63867 7.7224 9.80867 7.4674 10.0807C7.33707 10.2223 7.2634 10.364 7.24074 10.568C7.1954 10.9647 7.22374 11.3047 7.26907 11.8543C7.3144 12.3756 7.3994 13.0726 7.50707 13.7753C7.5864 14.2796 7.64874 14.5516 7.7054 14.7443C7.80174 15.0616 8.1474 15.3336 8.69707 15.3336C9.24674 15.3336 9.59807 15.056 9.68874 14.7443C9.7454 14.5516 9.80774 14.2796 9.88707 13.7753C9.99474 13.067 10.0797 12.3756 10.1251 11.8543C10.1761 11.3047 10.1987 10.9647 10.1534 10.568Z" fill="white"/>
<path d="M10.0904 7.67914C10.0904 8.4498 9.46707 9.07313 8.6964 9.07313C7.92573 9.07313 7.3024 8.4498 7.3024 7.67914C7.3024 6.90848 7.92573 6.28516 8.6964 6.28516C9.46707 6.28516 10.0904 6.91415 10.0904 7.67914Z" fill="white"/>
<path d="M8.67964 2.18751C5.42698 2.19884 2.76364 4.83949 2.71831 8.09212C2.68431 10.7271 4.36731 12.9824 6.71898 13.8097C6.77564 13.8324 6.83231 13.7814 6.82664 13.7247C6.79831 13.5207 6.76431 13.3167 6.74164 13.1127C6.73031 13.0391 6.68498 12.9824 6.62264 12.9484C4.76398 12.1381 3.46631 10.2738 3.48898 8.11479C3.51731 5.28148 5.82931 2.97517 8.65698 2.9525C11.5526 2.92984 13.9156 5.27582 13.9156 8.16579C13.9156 10.3021 12.6236 12.1381 10.782 12.9484C10.714 12.9768 10.6686 13.0391 10.663 13.1127C10.6346 13.3167 10.6063 13.5207 10.578 13.7247C10.5666 13.7871 10.629 13.8324 10.6856 13.8097C13.0146 12.9937 14.6863 10.7724 14.6863 8.16579C14.675 4.86782 11.9833 2.18184 8.67964 2.18751Z" fill="white"/>
<path d="M8.54435 4.1712C6.42502 4.25053 4.72502 6.00152 4.69668 8.12083C4.67968 9.51482 5.37668 10.7501 6.44769 11.4811C6.49869 11.5151 6.57235 11.4755 6.57235 11.4131C6.55535 11.1695 6.55535 10.9541 6.56668 10.7275C6.57235 10.6538 6.54402 10.5858 6.48735 10.5348C5.83568 9.92282 5.43902 9.05016 5.46168 8.08683C5.50702 6.38685 6.87269 5.00419 8.57269 4.93619C10.42 4.86253 11.9387 6.34718 11.9387 8.17183C11.9387 9.10116 11.542 9.93982 10.913 10.5348C10.862 10.5858 10.8337 10.6538 10.8337 10.7275C10.845 10.9485 10.8394 11.1638 10.828 11.4075C10.8224 11.4698 10.896 11.5151 10.9527 11.4755C12.0067 10.7558 12.7037 9.53749 12.7037 8.16616C12.7094 5.91085 10.8224 4.08053 8.54435 4.1712Z" fill="white"/>
<defs>
<linearGradient id="paint0_linear_1055_30792" x1="8.69568" y1="0.304688" x2="8.69568" y2="17.3045" gradientUnits="userSpaceOnUse">
<stop stop-color="#F452FF"/>
<stop offset="1" stop-color="#832BC1"/>
</linearGradient>
</defs>
</svg>
