<svg width="100" height="100" viewBox="0 0 100 100" fill="none" xmlns="http://www.w3.org/2000/svg">
<g filter="url(#filter0_b_1146_23819)">
<rect width="100" height="100" rx="50" fill="white" fill-opacity="0.3"/>
<path d="M30.3399 75.5754C30.3399 79.1527 27.4399 82.0527 23.8626 82.0527C20.2853 82.0527 17.3854 79.1527 17.3854 75.5754C17.3854 71.9982 20.2853 69.0982 23.8626 69.0982C27.4399 69.0982 30.3399 71.9982 30.3399 75.5754ZM30.3399 75.5754L43.5691 75.5753M43.5691 75.5753C43.5691 79.1526 46.469 82.0528 50.0463 82.0528C53.6236 82.0528 56.5235 79.1528 56.5235 75.5755M43.5691 75.5753C43.5691 71.998 46.469 69.0983 50.0463 69.0983C53.6236 69.0983 56.5235 71.9983 56.5235 75.5755M56.5235 75.5755L69.66 75.5753M69.66 75.5753C69.66 79.1526 72.56 82.0527 76.1373 82.0527C79.7146 82.0527 82.6145 79.1527 82.6145 75.5754C82.6145 71.9982 79.7146 69.0982 76.1373 69.0982C72.56 69.0982 69.66 71.998 69.66 75.5753ZM55.4533 31.0361C55.4533 34.0478 53.0118 36.4893 50.0001 36.4893C46.9884 36.4893 44.5469 34.0478 44.5469 31.0361C44.5469 28.0244 46.9884 25.583 50.0001 25.583C53.0118 25.583 55.4533 28.0244 55.4533 31.0361ZM62.7011 30.6484C62.7011 43.856 51.8644 57.2164 50 57.2164C47.9338 57.2164 37.2989 44.7918 37.2989 30.6484C37.2989 23.6338 42.9854 17.9473 50 17.9473C57.0146 17.9473 62.7011 23.6338 62.7011 30.6484Z" stroke="white"/>
</g>
<defs>
<filter id="filter0_b_1146_23819" x="-100" y="-100" width="300" height="300" filterUnits="userSpaceOnUse" color-interpolation-filters="sRGB">
<feFlood flood-opacity="0" result="BackgroundImageFix"/>
<feGaussianBlur in="BackgroundImageFix" stdDeviation="50"/>
<feComposite in2="SourceAlpha" operator="in" result="effect1_backgroundBlur_1146_23819"/>
<feBlend mode="normal" in="SourceGraphic" in2="effect1_backgroundBlur_1146_23819" result="shape"/>
</filter>
</defs>
</svg>
