<svg width="17" height="18" viewBox="0 0 17 18" fill="none" xmlns="http://www.w3.org/2000/svg">
<path fill-rule="evenodd" clip-rule="evenodd" d="M1.18293 7.05254C1.83624 7.05254 2.36585 7.58215 2.36585 8.23546V9.37423C2.36585 10.0275 1.83624 10.5571 1.18293 10.5571C0.529614 10.5571 0 10.0275 0 9.37423V8.23546C0 7.58215 0.529614 7.05254 1.18293 7.05254Z" fill="#0066D9"/>
<path fill-rule="evenodd" clip-rule="evenodd" d="M15.8171 7.05254C16.4704 7.05254 17 7.58215 17 8.23546V9.37423C17 10.0275 16.4704 10.5571 15.8171 10.5571C15.1638 10.5571 14.6341 10.0275 14.6341 9.37423V8.23546C14.6341 7.58215 15.1638 7.05254 15.8171 7.05254Z" fill="#4285F4"/>
<path fill-rule="evenodd" clip-rule="evenodd" d="M4.84146 3.63635C5.49478 3.63635 6.02439 4.16596 6.02439 4.81927V8.54398C6.02439 9.19728 5.49478 9.72689 4.84146 9.72689C4.18815 9.72689 3.65854 9.19728 3.65854 8.54398V4.81927C3.65854 4.16596 4.18815 3.63635 4.84146 3.63635ZM4.84146 10.4689C5.49478 10.4689 6.02439 10.9985 6.02439 11.6519V12.7906C6.02439 13.4439 5.49478 13.9735 4.84146 13.9735C4.18815 13.9735 3.65854 13.4439 3.65854 12.7906V11.6519C3.65854 10.9985 4.18815 10.4689 4.84146 10.4689Z" fill="#EA4335"/>
<path fill-rule="evenodd" clip-rule="evenodd" d="M12.1585 3.63594C12.8118 3.63594 13.3415 4.16555 13.3415 4.81886V5.95763C13.3415 6.61093 12.8118 7.14054 12.1585 7.14054C11.5052 7.14054 10.9756 6.61093 10.9756 5.95763V4.81886C10.9756 4.16555 11.5052 3.63594 12.1585 3.63594ZM12.1585 7.88275C12.8118 7.88275 13.3415 8.41236 13.3415 9.06567V12.7904C13.3415 13.4437 12.8118 13.9733 12.1585 13.9733C11.5052 13.9733 10.9756 13.4437 10.9756 12.7904V9.06567C10.9756 8.41236 11.5052 7.88275 12.1585 7.88275Z" fill="#34A853"/>
<path fill-rule="evenodd" clip-rule="evenodd" d="M8.5 0.304688C9.15331 0.304688 9.68293 0.834297 9.68293 1.4876V2.62637C9.68293 3.27968 9.15331 3.80929 8.5 3.80929C7.84669 3.80929 7.31707 3.27968 7.31707 2.62637V1.4876C7.31707 0.834297 7.84669 0.304688 8.5 0.304688ZM8.5 4.58523C9.15331 4.58523 9.68293 5.11484 9.68293 5.76814V11.8415C9.68293 12.4948 9.15331 13.0244 8.5 13.0244C7.84669 13.0244 7.31707 12.4948 7.31707 11.8415V5.76814C7.31707 5.11484 7.84669 4.58523 8.5 4.58523ZM8.5 13.8C9.15331 13.8 9.68293 14.3296 9.68293 14.9829V16.1217C9.68293 16.775 9.15331 17.3046 8.5 17.3046C7.84669 17.3046 7.31707 16.775 7.31707 16.1217V14.9829C7.31707 14.3296 7.84669 13.8 8.5 13.8Z" fill="#FAB908"/>
</svg>
