<svg width="18" height="18" viewBox="0 0 18 18" fill="none" xmlns="http://www.w3.org/2000/svg">
<path d="M13.6275 7.84007C10.8877 6.2129 6.36827 6.06331 3.75269 6.85714C3.33256 6.98457 2.88845 6.74752 2.76124 6.32746C2.63396 5.90718 2.87079 5.46329 3.29107 5.33563C6.29367 4.42426 11.2848 4.60027 14.439 6.47264C14.8169 6.69698 14.9407 7.18486 14.7168 7.56198C14.4927 7.93979 14.0044 8.06441 13.6275 7.84007M13.5378 10.25C13.3456 10.562 12.9377 10.6598 12.6262 10.4683C10.3421 9.06423 6.85882 8.65742 4.15638 9.47774C3.80598 9.58356 3.43578 9.38609 3.32936 9.03622C3.27863 8.86803 3.29666 8.68659 3.37949 8.53167C3.46233 8.37675 3.60322 8.26101 3.77127 8.20981C6.85836 7.27294 10.6962 7.72664 13.3198 9.33897C13.6313 9.5308 13.7293 9.93883 13.5378 10.25ZM12.4977 12.5645C12.4615 12.624 12.4139 12.6757 12.3577 12.7168C12.3015 12.7578 12.2377 12.7874 12.17 12.8038C12.1024 12.8202 12.0322 12.823 11.9634 12.8122C11.8946 12.8014 11.8286 12.7772 11.7693 12.7408C9.77326 11.5209 7.26091 11.2454 4.30216 11.9213C4.23437 11.9368 4.16418 11.9388 4.09562 11.9271C4.02705 11.9155 3.96145 11.8905 3.90256 11.8535C3.84366 11.8165 3.79263 11.7683 3.75238 11.7116C3.71213 11.6549 3.68344 11.5908 3.66797 11.523C3.65238 11.4552 3.65032 11.3849 3.66192 11.3163C3.67351 11.2477 3.69852 11.1821 3.73553 11.1231C3.77253 11.0642 3.8208 11.0131 3.87756 10.9729C3.93433 10.9326 3.99847 10.904 4.06633 10.8886C7.30415 10.1485 10.0815 10.467 12.3219 11.836C12.3813 11.8723 12.433 11.9199 12.474 11.9762C12.5149 12.0324 12.5444 12.0962 12.5608 12.1638C12.5771 12.2315 12.5799 12.3017 12.5691 12.3705C12.5583 12.4392 12.5341 12.5052 12.4978 12.5645M8.59942 0.304688C3.90525 0.304688 0.0996094 4.11017 0.0996094 8.80449C0.0996094 13.4993 3.90525 17.3046 8.59949 17.3046C13.294 17.3046 17.0995 13.4993 17.0995 8.80449C17.0995 4.11025 13.294 0.304688 8.59949 0.304688" fill="#555555"/>
</svg>
