<svg width="940" height="230" viewBox="0 0 940 230" fill="none" xmlns="http://www.w3.org/2000/svg">
<path fill-rule="evenodd" clip-rule="evenodd" d="M0 45.2247C0 20.3934 20.1297 0.263672 44.961 0.263672H175.104C199.935 0.263672 220.065 20.3934 220.065 45.2247C220.065 70.056 199.935 90.1857 175.104 90.1857H89.922V184.3C89.922 209.131 69.7923 229.261 44.961 229.261C20.1297 229.261 0 209.131 0 184.3V45.2247Z" fill="white"/>
<path fill-rule="evenodd" clip-rule="evenodd" d="M530.115 184.305C530.115 209.136 550.244 229.266 575.076 229.266L705.218 229.266C730.05 229.266 750.179 209.136 750.179 184.305C750.179 159.473 730.05 139.344 705.218 139.344L620.037 139.344L620.037 45.2291C620.037 20.3978 599.907 0.268076 575.076 0.268078C550.244 0.26808 530.115 20.3978 530.115 45.2291L530.115 184.305Z" fill="white"/>
<path fill-rule="evenodd" clip-rule="evenodd" d="M472.356 0.263672C497.187 0.263672 517.317 20.3934 517.317 45.2247V184.3C517.317 209.131 497.187 229.261 472.356 229.261C447.525 229.261 427.395 209.131 427.395 184.3V45.2247C427.395 20.3934 447.525 0.263672 472.356 0.263672Z" fill="white"/>
<path fill-rule="evenodd" clip-rule="evenodd" d="M275.859 0.648438C300.69 0.648438 320.82 20.7782 320.82 45.6095V67.3365L403.938 150.454C421.496 168.013 421.496 196.48 403.938 214.039C386.38 231.597 357.912 231.597 340.354 214.039L275.859 149.544L209.31 216.093C191.752 233.652 163.284 233.652 145.726 216.093C128.167 198.535 128.167 170.067 145.726 152.509L230.898 67.3365V45.6095C230.898 20.7782 251.028 0.648438 275.859 0.648438Z" fill="white"/>
<path fill-rule="evenodd" clip-rule="evenodd" d="M687.06 14.003C704.618 -3.5555 733.086 -3.55571 750.645 14.0025L806.972 70.3295L863.247 14.0558C880.805 -3.50248 909.273 -3.50231 926.831 14.0562C944.39 31.6146 944.389 60.0824 926.831 77.6406L851.933 152.537V184.299C851.933 209.13 831.804 229.26 806.972 229.26C782.141 229.26 762.011 209.13 762.011 184.299V152.537L687.061 77.5875C669.502 60.0292 669.502 31.5615 687.06 14.003Z" fill="white"/>
</svg>
