<svg width="18" height="18" viewBox="0 0 18 18" fill="none" xmlns="http://www.w3.org/2000/svg">
<path d="M13.6276 7.8401C10.8876 6.21293 6.36824 6.06334 3.75265 6.85717C3.33251 6.98461 2.8884 6.74755 2.76119 6.32749C2.63391 5.90721 2.87074 5.46332 3.29103 5.33566C6.29364 4.42428 11.2848 4.60029 14.439 6.47267C14.8169 6.69701 14.9407 7.18489 14.7168 7.56202C14.4927 7.93983 14.0044 8.06445 13.6275 7.8401M13.5378 10.2501C13.3456 10.562 12.9377 10.6599 12.6262 10.4683C10.3421 9.06427 6.85879 8.65746 4.15634 9.47779C3.80594 9.5836 3.43574 9.38613 3.32932 9.03626C3.27858 8.86807 3.29661 8.68663 3.37945 8.53171C3.46229 8.37679 3.60318 8.26105 3.77122 8.20985C6.85833 7.27297 10.6962 7.72668 13.3198 9.33901C13.6313 9.53085 13.7293 9.93888 13.5378 10.2501ZM12.4977 12.5646C12.4615 12.6241 12.4139 12.6758 12.3577 12.7169C12.3015 12.7579 12.2377 12.7875 12.17 12.8038C12.1024 12.8202 12.0322 12.8231 11.9634 12.8123C11.8946 12.8015 11.8286 12.7772 11.7693 12.7409C9.77325 11.521 7.26089 11.2455 4.30212 11.9213C4.23433 11.9368 4.16414 11.9388 4.09558 11.9272C4.02701 11.9156 3.96141 11.8906 3.90251 11.8536C3.84362 11.8166 3.79259 11.7684 3.75234 11.7116C3.71209 11.6549 3.6834 11.5908 3.66792 11.523C3.65233 11.4552 3.65028 11.385 3.66187 11.3164C3.67346 11.2478 3.69848 11.1821 3.73548 11.1232C3.77249 11.0643 3.82075 11.0132 3.87752 10.973C3.93428 10.9327 3.99843 10.904 4.06629 10.8886C7.30412 10.1485 10.0815 10.467 12.3219 11.8361C12.3813 11.8724 12.433 11.92 12.474 11.9762C12.5149 12.0325 12.5444 12.0963 12.5608 12.1639C12.5771 12.2316 12.5799 12.3018 12.5691 12.3705C12.5583 12.4393 12.5341 12.5052 12.4978 12.5646M8.5994 0.304688C3.90521 0.304688 0.0995483 4.11019 0.0995483 8.80454C0.0995483 13.4993 3.90521 17.3047 8.59947 17.3047C13.294 17.3047 17.0995 13.4993 17.0995 8.80454C17.0995 4.11027 13.294 0.304688 8.59947 0.304688" fill="#1ED760"/>
</svg>
