<svg width="146" height="145" viewBox="0 0 146 145" fill="none" xmlns="http://www.w3.org/2000/svg">
<g id="Group 1948757441">
<path id="Star 7" d="M67.4339 45.8105C69.106 40.6841 76.3583 40.6841 78.0304 45.8105L80.6786 53.9298C81.695 57.0459 84.6006 59.1544 87.8783 59.1544H96.3944C101.798 59.1544 104.039 66.0737 99.6619 69.242L92.8156 74.197C90.1512 76.1254 89.0362 79.5532 90.0561 82.6801L92.6813 90.7289C94.3548 95.8595 88.4874 100.136 84.1156 96.9716L77.1722 91.9462C74.5227 90.0286 70.9415 90.0286 68.292 91.9462L61.3486 96.9716C56.9768 100.136 51.1094 95.8595 52.7829 90.7289L55.4082 82.6801C56.4281 79.5532 55.313 76.1254 52.6486 74.197L45.8024 69.242C41.4248 66.0737 43.666 59.1544 49.0698 59.1544H57.5859C60.8636 59.1544 63.7692 57.0459 64.7856 53.9298L67.4339 45.8105Z" stroke="black" stroke-width="2"/>
<path id="Ellipse 621" d="M144.059 72.3777C144.059 111.622 112.122 143.443 72.7168 143.443C33.3119 143.443 1.37451 111.622 1.37451 72.3777C1.37451 33.1331 33.3119 1.3125 72.7168 1.3125C112.122 1.3125 144.059 33.1331 144.059 72.3777Z" stroke="black" stroke-width="2"/>
</g>
</svg>
