<svg width="300" height="245" viewBox="0 0 300 245" fill="none" xmlns="http://www.w3.org/2000/svg">
<rect x="65.5427" y="38.041" width="168.915" height="168.918" rx="29" fill="black"/>
<rect x="65.5427" y="38.041" width="168.915" height="168.918" rx="29" stroke="white" stroke-width="2"/>
<rect x="65.5427" y="38.041" width="168.915" height="168.918" rx="29" stroke="url(#paint0_linear_1458_21779)" stroke-width="2"/>
<path d="M159.475 149.305C164.183 149.023 175.06 149.435 176.869 153.052C178.679 156.669 178.672 163.183 178.672 166.103C175.888 164.524 172.208 162.318 161.132 165.03M161.132 165.03C159.095 154.858 159.063 143.633 160.477 142.314M161.132 165.03C152.015 171.325 141.142 173.225 132.362 173.466C128.947 173.56 126.06 171.074 125.565 167.694C125.107 164.565 124.743 161.024 124.873 158.421M113.206 127.783C112.193 125.797 99.6326 126.097 100.52 121.852C100.592 121.509 100.795 121.209 101.009 120.931L103.41 117.826C105.302 115.379 103.994 112.48 100.942 111.976C99.1045 111.672 97.2982 111.182 96.1312 110.324C93.7853 108.597 95.6741 104.504 96.7652 101.987C97.1782 101.035 98.0048 100.215 98.2544 99.2068C98.6038 97.796 97.7186 95.8755 97.1547 94.0224C97.0769 93.7666 96.9805 93.5129 96.8667 93.2709C96.3461 92.1634 95.9961 91.2107 95.7594 90.3961C95.055 87.9715 94.5246 84.0004 94.4209 81.4777C94.3522 79.8083 95.2631 78.2522 96.7522 77.4946L100.292 75.6939C101.666 74.995 102.568 73.6229 102.666 72.0848L102.741 70.9179C102.787 70.1836 103.019 69.4731 103.415 68.8525L104.641 66.927C105.399 65.7375 106.685 64.9879 108.093 64.9151L110.856 64.7723C111.361 64.7463 111.856 64.6329 112.322 64.4372L117.975 62.0598C119.316 61.4958 120.288 60.2998 120.565 58.8714L120.914 57.0747C121.179 55.7079 122.081 54.5499 123.342 53.9584L133.94 48.9847C134.824 48.5699 135.822 48.4638 136.773 48.6834L140.165 49.4665C140.366 49.5129 140.57 49.545 140.775 49.5625L146.568 50.0567C147.151 50.1065 147.738 50.0384 148.294 49.8565L153.939 48.01C154.468 47.8371 155.025 47.767 155.58 47.8032L156.991 47.8955C158.432 47.9898 159.733 48.7915 160.465 50.0365L162.131 52.8697C163.142 54.5895 165.191 55.4036 167.107 54.8467L171.452 53.5831C171.848 53.4681 172.258 53.4098 172.67 53.4098H176.072C177.37 53.4098 178.602 53.9888 179.43 54.9892L181.334 57.289C181.814 57.8681 182.455 58.2908 183.176 58.5032L185.385 59.1533C186.749 59.5547 187.326 61.1678 186.527 62.3436C185.509 63.843 186.744 65.8412 188.54 65.6008L189.966 65.4101C190.365 65.3566 190.772 65.392 191.156 65.5136L196.186 67.1058C198.176 67.7355 199.124 70.0008 198.177 71.8602L197.267 73.645C196.785 74.5907 197.276 75.7421 198.293 76.0489C199.324 76.3605 199.811 77.5398 199.299 78.4883L197.651 81.5436M197.651 81.5436L197.557 81.7176C197.582 81.6609 197.613 81.6024 197.651 81.5436ZM197.651 81.5436C198.078 80.8812 199.354 80.1851 201.808 81.7176C203.715 82.9079 204.189 84.9774 204.157 86.607C204.136 87.6913 203.415 88.58 202.559 89.2455C200.682 90.7041 198.744 92.797 200.29 93.9347C202.719 95.7226 206.363 94.8287 209.097 96.6165C210.805 97.7341 212.254 104.928 212.902 108.731C213.136 110.104 212.653 111.49 211.649 112.455L203.647 120.147C203.434 120.352 203.201 120.534 202.951 120.692L201.156 121.824C199.936 122.594 199.403 124.1 199.867 125.466C200.137 126.263 200.109 127.148 199.885 127.959C199.088 130.844 197.583 137.346 195.371 138.333C193.701 139.078 191.311 141.336 189.285 143.506C187.578 145.334 184.698 145.568 182.84 143.895L181.894 143.043C180.539 141.824 178.569 141.576 176.955 142.421L172.943 144.52C171.477 145.287 169.697 145.114 168.407 144.078L168.213 143.922C167.553 143.393 166.724 143.12 165.879 143.155L164.58 143.208C162.487 143.293 159.526 144.18 160.477 142.314M160.477 142.314C156.239 147.118 146.631 156.725 138.437 158.421C130.242 160.116 125.156 160.116 121.2 154.182C117.244 148.248 111.027 125.925 113.854 117.73C116.115 111.175 116.303 107.464 116.114 106.428M160.477 142.314C164.716 137.51 164.999 136.38 169.52 133.554C174.041 130.729 178.562 118.578 174.041 119.426C170.424 120.104 166.317 124.23 164.716 126.208L168.038 115.451C168.381 114.506 167.045 113.774 166.4 114.546C164.813 116.445 163.66 117.548 164.434 115.713C166.13 111.694 165.733 102.704 163.875 105.256C163.681 105.523 163.4 105.632 163.086 105.639C161.395 105.68 160.607 103.612 159.86 102.093C159.098 100.545 158.266 99.5534 156.997 100.757C155.51 102.166 151.445 100.912 150.939 98.927C150.76 98.2251 150.618 96.7738 151.154 96.1527C153.697 93.2052 151.553 90.0009 149.009 93.7522C146.466 97.5035 147.198 95.0809 144.654 97.2245C144.028 97.7528 142.091 97.2458 142.314 96.4571C142.61 95.4126 143.083 94.3034 143.807 93.2052C146.117 89.6996 142.004 86.3809 138.091 87.9043C137.354 88.1912 136.547 88.4997 135.643 88.8427C134.515 89.2706 133.645 89.6907 132.974 90.0999C130.298 91.7329 129.558 95.7394 127.637 98.2167C126.282 99.9625 124.509 102.097 122.256 104.234C119.771 105.735 117.007 104.893 116.346 106.412" stroke="white" stroke-width="2"/>
<path d="M159.475 149.305C164.183 149.023 175.06 149.435 176.869 153.052C178.679 156.669 178.672 163.183 178.672 166.103C175.888 164.524 172.208 162.318 161.132 165.03M161.132 165.03C159.095 154.858 159.063 143.633 160.477 142.314M161.132 165.03C152.015 171.325 141.142 173.225 132.362 173.466C128.947 173.56 126.06 171.074 125.565 167.694C125.107 164.565 124.743 161.024 124.873 158.421M113.206 127.783C112.193 125.797 99.6326 126.097 100.52 121.852C100.592 121.509 100.795 121.209 101.009 120.931L103.41 117.826C105.302 115.379 103.994 112.48 100.942 111.976C99.1045 111.672 97.2982 111.182 96.1312 110.324C93.7853 108.597 95.6741 104.504 96.7652 101.987C97.1782 101.035 98.0048 100.215 98.2544 99.2068C98.6038 97.796 97.7186 95.8755 97.1547 94.0224C97.0769 93.7666 96.9805 93.5129 96.8667 93.2709C96.3461 92.1634 95.9961 91.2107 95.7594 90.3961C95.055 87.9715 94.5246 84.0004 94.4209 81.4777C94.3522 79.8083 95.2631 78.2522 96.7522 77.4946L100.292 75.6939C101.666 74.995 102.568 73.6229 102.666 72.0848L102.741 70.9179C102.787 70.1836 103.019 69.4731 103.415 68.8525L104.641 66.927C105.399 65.7375 106.685 64.9879 108.093 64.9151L110.856 64.7723C111.361 64.7463 111.856 64.6329 112.322 64.4372L117.975 62.0598C119.316 61.4958 120.288 60.2998 120.565 58.8714L120.914 57.0747C121.179 55.7079 122.081 54.5499 123.342 53.9584L133.94 48.9847C134.824 48.5699 135.822 48.4638 136.773 48.6834L140.165 49.4665C140.366 49.5129 140.57 49.545 140.775 49.5625L146.568 50.0567C147.151 50.1065 147.738 50.0384 148.294 49.8565L153.939 48.01C154.468 47.8371 155.025 47.767 155.58 47.8032L156.991 47.8955C158.432 47.9898 159.733 48.7915 160.465 50.0365L162.131 52.8697C163.142 54.5895 165.191 55.4036 167.107 54.8467L171.452 53.5831C171.848 53.4681 172.258 53.4098 172.67 53.4098H176.072C177.37 53.4098 178.602 53.9888 179.43 54.9892L181.334 57.289C181.814 57.8681 182.455 58.2908 183.176 58.5032L185.385 59.1533C186.749 59.5547 187.326 61.1678 186.527 62.3436C185.509 63.843 186.744 65.8412 188.54 65.6008L189.966 65.4101C190.365 65.3566 190.772 65.392 191.156 65.5136L196.186 67.1058C198.176 67.7355 199.124 70.0008 198.177 71.8602L197.267 73.645C196.785 74.5907 197.276 75.7421 198.293 76.0489C199.324 76.3605 199.811 77.5398 199.299 78.4883L197.651 81.5436M197.651 81.5436L197.557 81.7176C197.582 81.6609 197.613 81.6024 197.651 81.5436ZM197.651 81.5436C198.078 80.8812 199.354 80.1851 201.808 81.7176C203.715 82.9079 204.189 84.9774 204.157 86.607C204.136 87.6913 203.415 88.58 202.559 89.2455C200.682 90.7041 198.744 92.797 200.29 93.9347C202.719 95.7226 206.363 94.8287 209.097 96.6165C210.805 97.7341 212.254 104.928 212.902 108.731C213.136 110.104 212.653 111.49 211.649 112.455L203.647 120.147C203.434 120.352 203.201 120.534 202.951 120.692L201.156 121.824C199.936 122.594 199.403 124.1 199.867 125.466C200.137 126.263 200.109 127.148 199.885 127.959C199.088 130.844 197.583 137.346 195.371 138.333C193.701 139.078 191.311 141.336 189.285 143.506C187.578 145.334 184.698 145.568 182.84 143.895L181.894 143.043C180.539 141.824 178.569 141.576 176.955 142.421L172.943 144.52C171.477 145.287 169.697 145.114 168.407 144.078L168.213 143.922C167.553 143.393 166.724 143.12 165.879 143.155L164.58 143.208C162.487 143.293 159.526 144.18 160.477 142.314M160.477 142.314C156.239 147.118 146.631 156.725 138.437 158.421C130.242 160.116 125.156 160.116 121.2 154.182C117.244 148.248 111.027 125.925 113.854 117.73C116.115 111.175 116.303 107.464 116.114 106.428M160.477 142.314C164.716 137.51 164.999 136.38 169.52 133.554C174.041 130.729 178.562 118.578 174.041 119.426C170.424 120.104 166.317 124.23 164.716 126.208L168.038 115.451C168.381 114.506 167.045 113.774 166.4 114.546C164.813 116.445 163.66 117.548 164.434 115.713C166.13 111.694 165.733 102.704 163.875 105.256C163.681 105.523 163.4 105.632 163.086 105.639C161.395 105.68 160.607 103.612 159.86 102.093C159.098 100.545 158.266 99.5534 156.997 100.757C155.51 102.166 151.445 100.912 150.939 98.927C150.76 98.2251 150.618 96.7738 151.154 96.1527C153.697 93.2052 151.553 90.0009 149.009 93.7522C146.466 97.5035 147.198 95.0809 144.654 97.2245C144.028 97.7528 142.091 97.2458 142.314 96.4571C142.61 95.4126 143.083 94.3034 143.807 93.2052C146.117 89.6996 142.004 86.3809 138.091 87.9043C137.354 88.1912 136.547 88.4997 135.643 88.8427C134.515 89.2706 133.645 89.6907 132.974 90.0999C130.298 91.7329 129.558 95.7394 127.637 98.2167C126.282 99.9625 124.509 102.097 122.256 104.234C119.771 105.735 117.007 104.893 116.346 106.412" stroke="url(#paint1_linear_1458_21779)" stroke-width="2"/>
<path d="M65.5427 140.627H234.457V177.959C234.457 193.975 221.473 206.959 205.457 206.959H94.5427C78.5265 206.959 65.5427 193.975 65.5427 177.959V140.627Z" fill="#131313"/>
<path d="M65.5427 140.627H234.457V177.959C234.457 193.975 221.473 206.959 205.457 206.959H94.5427C78.5265 206.959 65.5427 193.975 65.5427 177.959V140.627Z" stroke="white" stroke-width="2"/>
<path d="M65.5427 140.627H234.457V177.959C234.457 193.975 221.473 206.959 205.457 206.959H94.5427C78.5265 206.959 65.5427 193.975 65.5427 177.959V140.627Z" stroke="url(#paint2_linear_1458_21779)" stroke-width="2"/>
<circle cx="115.07" cy="172.435" r="16.5701" stroke="white" stroke-width="2"/>
<circle cx="115.07" cy="172.435" r="16.5701" stroke="url(#paint3_linear_1458_21779)" stroke-width="2"/>
<path d="M107.256 172.619H110.779H116.658C118.47 172.619 119.939 171.15 119.939 169.338V169.338C119.939 167.526 118.47 166.057 116.658 166.057H114.654H110.779V178.815H114.302M115.007 172.619V172.619C116.283 172.619 117.43 173.397 117.902 174.582L119.586 178.815H120.996" stroke="white" stroke-width="2" stroke-linecap="square"/>
<path d="M107.256 172.619H110.779H116.658C118.47 172.619 119.939 171.15 119.939 169.338V169.338C119.939 167.526 118.47 166.057 116.658 166.057H114.654H110.779V178.815H114.302M115.007 172.619V172.619C116.283 172.619 117.43 173.397 117.902 174.582L119.586 178.815H120.996" stroke="url(#paint4_linear_1458_21779)" stroke-width="2" stroke-linecap="square"/>
<path d="M148.275 164.854V172.863H153.271C155.951 172.863 157.471 171.414 157.471 168.851C157.471 166.345 155.849 164.854 153.155 164.854H148.275ZM148.275 175.165V183.435H145.668V162.536H153.503C157.529 162.536 160.165 164.998 160.165 168.764C160.165 171.675 158.586 173.934 155.965 174.76L160.802 183.435H157.746L153.271 175.165H148.275ZM176.14 181.089V183.435H163.453V162.536H166.06V181.089H176.14ZM185.886 183.435H183.309L175.604 162.536H178.341L184.554 180.263H184.641L190.854 162.536H193.591L185.886 183.435Z" fill="white"/>
<path d="M148.275 164.854V172.863H153.271C155.951 172.863 157.471 171.414 157.471 168.851C157.471 166.345 155.849 164.854 153.155 164.854H148.275ZM148.275 175.165V183.435H145.668V162.536H153.503C157.529 162.536 160.165 164.998 160.165 168.764C160.165 171.675 158.586 173.934 155.965 174.76L160.802 183.435H157.746L153.271 175.165H148.275ZM176.14 181.089V183.435H163.453V162.536H166.06V181.089H176.14ZM185.886 183.435H183.309L175.604 162.536H178.341L184.554 180.263H184.641L190.854 162.536H193.591L185.886 183.435Z" fill="url(#paint5_linear_1458_21779)"/>
<defs>
<linearGradient id="paint0_linear_1458_21779" x1="73.6041" y1="215.17" x2="251.245" y2="50.2214" gradientUnits="userSpaceOnUse">
<stop stop-color="#6630FF" stop-opacity="0"/>
<stop offset="0.494792" stop-color="#A7F9C3"/>
<stop offset="1" stop-color="#6630FF" stop-opacity="0.37"/>
</linearGradient>
<linearGradient id="paint1_linear_1458_21779" x1="100.702" y1="178.797" x2="230.559" y2="65.0801" gradientUnits="userSpaceOnUse">
<stop stop-color="#6630FF" stop-opacity="0"/>
<stop offset="0.494792" stop-color="#A7F9C3"/>
<stop offset="1" stop-color="#6630FF" stop-opacity="0.37"/>
</linearGradient>
<linearGradient id="paint2_linear_1458_21779" x1="73.6041" y1="210.842" x2="125.338" y2="90.6863" gradientUnits="userSpaceOnUse">
<stop stop-color="#6630FF" stop-opacity="0"/>
<stop offset="0.494792" stop-color="#A7F9C3"/>
<stop offset="1" stop-color="#6630FF" stop-opacity="0.37"/>
</linearGradient>
<linearGradient id="paint3_linear_1458_21779" x1="101.151" y1="189.319" x2="133.516" y2="159.266" gradientUnits="userSpaceOnUse">
<stop stop-color="#6630FF" stop-opacity="0"/>
<stop offset="0.494792" stop-color="#A7F9C3"/>
<stop offset="1" stop-color="#6630FF" stop-opacity="0.37"/>
</linearGradient>
<linearGradient id="paint4_linear_1458_21779" x1="107.985" y1="179.353" x2="121.281" y2="166.057" gradientUnits="userSpaceOnUse">
<stop stop-color="#6630FF" stop-opacity="0"/>
<stop offset="0.494792" stop-color="#A7F9C3"/>
<stop offset="1" stop-color="#6630FF" stop-opacity="0.37"/>
</linearGradient>
<linearGradient id="paint5_linear_1458_21779" x1="146.344" y1="188.701" x2="174.612" y2="144.077" gradientUnits="userSpaceOnUse">
<stop stop-color="#6630FF" stop-opacity="0"/>
<stop offset="0.494792" stop-color="#A7F9C3"/>
<stop offset="1" stop-color="#6630FF" stop-opacity="0.37"/>
</linearGradient>
</defs>
</svg>
