<svg width="101" height="27" viewBox="0 0 101 27" fill="none" xmlns="http://www.w3.org/2000/svg">
<g clip-path="url(#clip0_1480_24219)">
<path d="M94.0739 12.3778L90.4419 8.7635C89.5841 7.84071 89.1523 6.66947 89.1346 5.49824L89.1168 0.523438L94.0502 5.42725L94.068 10.3488V12.3778H94.0739Z" fill="#9B9B9B"/>
<path d="M95.2952 1.95924C95.2952 2.6338 94.7509 3.1841 94.0704 3.1841C93.3899 3.1841 92.8455 2.6338 92.8455 1.95924C92.8455 1.28467 93.3958 0.734375 94.0704 0.734375C94.7449 0.734375 95.2952 1.27876 95.2952 1.95924Z" fill="#9B9B9B"/>
<path d="M94.0684 8.89427L92.3234 10.6393C91.4716 11.568 91.0398 12.7333 91.028 13.9105V18.8912L95.9495 13.9696L97.6945 12.2187C98.5463 11.2959 98.9782 10.1247 98.99 8.94751V3.9668L94.0684 8.88836V8.89427Z" fill="#9B9B9B"/>
<path d="M93.4348 23.7385C93.4348 24.419 92.8904 24.9634 92.2099 24.9634C91.5294 24.9634 90.985 24.4131 90.985 23.7385C90.985 23.064 91.5354 22.5137 92.2099 22.5137C92.8845 22.5137 93.4348 23.064 93.4348 23.7385Z" fill="#9B9B9B"/>
<path d="M90.9986 16.3789C89.7386 16.4321 88.6088 16.9527 87.7688 17.7808L84.2492 21.3005H93.6783C94.9323 21.2472 96.0681 20.7267 96.908 19.8985L100.428 16.3789H90.9986Z" fill="#9B9B9B"/>
<path d="M91.2052 26.2008H86.0826C84.8285 26.1476 83.6928 25.627 82.8528 24.7989L81.7939 23.74L84.2488 21.2852H86.2896L89.7737 24.7575L91.2112 26.1949L91.2052 26.2008Z" fill="#9B9B9B"/>
<path d="M45.2125 11.5132C43.7455 11.5132 42.5092 11.8858 41.5805 12.3117C40.912 11.6196 39.8473 11.5132 39.1848 11.5132C37.7119 11.5132 36.4756 11.8858 35.5468 12.3117C34.8784 11.6196 33.8136 11.5132 33.1511 11.5132C31.6841 11.5132 30.4478 11.8858 29.5191 12.3117C28.8507 11.6196 27.7859 11.5132 27.1234 11.5132C23.7103 11.5132 21.5689 13.5185 21.5689 13.5185L20.0546 21.2912H22.8762L24.1302 14.4117C24.8519 13.8793 25.757 13.6841 26.2184 13.6841C26.526 13.6841 26.8927 13.7255 27.1471 14.0508C27.3837 14.3584 27.3719 14.6424 27.3364 14.8612L26.0823 21.2912H28.9039L30.158 14.4117C30.8796 13.8793 31.7847 13.6841 32.2461 13.6841C32.5537 13.6841 32.9204 13.7255 33.1748 14.0508C33.4824 14.459 33.37 14.8198 33.3286 15.0505L32.11 21.2912H34.9376L36.1857 14.4117C36.9133 13.8793 37.8124 13.6841 38.2797 13.6841C38.5873 13.6841 38.96 13.7255 39.2084 14.0508C39.445 14.3584 39.4332 14.6424 39.3977 14.8672L38.1437 21.2971H40.9653L42.2193 14.4176C42.941 13.8852 43.8461 13.69 44.3134 13.69C44.621 13.69 44.9877 13.7314 45.2421 14.0568C45.5497 14.4649 45.4314 14.8257 45.39 15.0564L44.1714 21.2971H46.993L48.1524 15.2871C48.324 14.4176 48.4955 13.3765 47.7088 12.4241C47.0522 11.6315 45.9046 11.5132 45.2066 11.5132H45.2125ZM17.6825 11.7261L16.4344 18.6056C15.7127 19.138 14.8077 19.3332 14.3404 19.3332C14.0328 19.3332 13.666 19.2918 13.4117 18.9665C13.1041 18.5642 13.2165 18.1975 13.2579 17.9668L14.4764 11.7261H11.6548L10.4954 17.7361C10.3179 18.6056 10.1464 19.6467 10.939 20.5932C11.5956 21.3859 12.7432 21.5042 13.4353 21.5042C16.8485 21.5042 18.9898 19.4989 18.9898 19.4989L20.5041 11.7261H17.6825ZM5.43187 13.7728C5.76313 13.5776 6.12396 13.5421 6.41973 13.5421C7.6797 13.5421 8.61432 14.2165 8.86276 14.4117L10.247 12.8264C9.86246 12.501 9.35965 12.1698 8.93375 11.9746C8.14109 11.6078 7.27154 11.5309 6.52029 11.5309C5.49694 11.5309 4.68654 11.667 3.81698 12.2053C2.44462 13.0571 2.07787 14.252 2.07787 15.086C2.07787 15.6894 2.29674 16.9967 4.62738 17.4877C5.51468 17.671 6.27185 17.7834 6.43156 18.3513C6.68592 19.2327 5.52651 19.4752 4.75752 19.4042C4.08317 19.3451 2.977 19.0138 2.07196 18.3809L0.433411 20.0963C1.42719 21.0901 3.38516 21.5456 4.44992 21.5456C5.56792 21.5456 6.98169 21.374 8.12335 20.4453C9.01065 19.7296 9.4957 18.7476 9.4957 17.8544C9.4957 16.1035 7.91631 15.6302 6.7924 15.4232C5.982 15.2753 5.43778 15.228 5.17159 14.9973C5.03554 14.8849 4.97639 14.7311 4.97639 14.5182C4.97639 14.2875 5.09469 13.9976 5.4437 13.7847L5.43187 13.7728ZM80.0716 15.4173C79.2612 15.2694 78.7229 15.2221 78.4508 14.9914C78.3147 14.879 78.2615 14.7252 78.2615 14.5122C78.2615 14.2815 78.3798 13.9917 78.7229 13.7787C79.0482 13.5835 79.415 13.548 79.7048 13.548C80.9648 13.548 81.8994 14.2224 82.1479 14.4176L83.5321 12.8323C83.1416 12.5069 82.6447 12.1757 82.2188 11.9805C81.4262 11.6137 80.5566 11.5368 79.8054 11.5368C78.782 11.5368 77.9716 11.6729 77.1021 12.2112C75.7297 13.063 75.363 14.2579 75.363 15.0919C75.363 15.6953 75.5818 17.0026 77.9184 17.4936C78.8057 17.6769 79.5569 17.7893 79.7226 18.3572C79.9769 19.2386 78.8175 19.4811 78.0485 19.4101C77.3742 19.351 76.268 19.0197 75.363 18.3868L73.7244 20.1022C74.7182 21.096 76.6762 21.5515 77.7409 21.5515C78.8648 21.5515 80.2727 21.3799 81.4144 20.4512C82.3017 19.7355 82.7867 18.7535 82.7867 17.8603C82.7867 16.1094 81.2073 15.6362 80.0834 15.4291L80.0716 15.4173ZM71.5476 11.7261L70.2935 18.6056C69.5719 19.138 68.6668 19.3332 68.1995 19.3332C67.8919 19.3332 67.5251 19.2918 67.2708 18.9665C66.9632 18.5642 67.0756 18.1975 67.117 17.9668L68.3355 11.7261H65.5139L64.3545 17.7361C64.183 18.6056 64.0055 19.6467 64.7982 20.5932C65.4548 21.3859 66.5964 21.5042 67.2944 21.5042C70.7076 21.5042 72.8489 19.4989 72.8489 19.4989L74.3633 11.7261H71.5417H71.5476ZM62.432 13.903H63.8162L64.248 11.7261H62.852L63.2365 9.70898L60.338 10.0994L58.8888 17.7361C58.7172 18.6056 58.5397 19.6467 59.3324 20.5932C59.989 21.3859 61.1366 21.5042 61.8287 21.5042C61.9943 21.5042 62.1481 21.5042 62.3137 21.4923L62.7337 19.3392C62.4261 19.3392 62.0594 19.2977 61.805 18.9724C61.4915 18.5702 61.6098 18.2034 61.6512 17.9727L62.432 13.9089V13.903ZM55.0911 11.5132C53.0444 11.5132 51.3644 11.9982 50.0867 12.5779L51.2935 14.4117C52.5061 13.8083 53.6241 13.6782 54.192 13.6782C54.4996 13.6782 54.8722 13.7196 55.1207 14.0449C55.4342 14.4531 55.3159 14.8139 55.2745 15.0446L55.2094 15.364C54.6593 15.2931 54.2275 15.228 53.5945 15.2221C52.2044 15.2221 49.158 15.5947 48.6611 18.3276C48.5606 19.0552 48.5902 19.8479 49.2113 20.5873C49.8679 21.3799 51.0154 21.4982 51.7135 21.4982C55.1207 21.4982 57.2679 19.493 57.2679 19.493L58.0369 15.2753C58.2085 14.4058 58.386 13.3647 57.5933 12.4123C56.9308 11.6196 55.7891 11.5013 55.0911 11.5013V11.5132ZM54.5528 18.7121C53.8607 19.1676 53.0444 19.3392 52.6126 19.3392C51.6306 19.3392 51.1692 19.0197 51.1692 18.369C51.1692 17.7775 51.9441 16.902 53.9554 16.902C54.3044 16.902 54.8249 16.973 54.8959 17.0026L54.5587 18.7062L54.5528 18.7121Z" fill="#9B9B9B"/>
</g>
<defs>
<clipPath id="clip0_1480_24219">
<rect width="99.9988" height="25.6785" fill="white" transform="translate(0.427734 0.523438)"/>
</clipPath>
</defs>
</svg>
