<svg width="101" height="27" viewBox="0 0 101 27" fill="none" xmlns="http://www.w3.org/2000/svg">
<g clip-path="url(#clip0_1480_24275)">
<path d="M94.3915 12.3778L90.7595 8.7635C89.9018 7.84071 89.4699 6.66947 89.4522 5.49824L89.4344 0.523438L94.3678 5.42725L94.3856 10.3488V12.3778H94.3915Z" fill="#007360"/>
<path d="M95.6128 1.95924C95.6128 2.6338 95.0684 3.1841 94.388 3.1841C93.7075 3.1841 93.1631 2.6338 93.1631 1.95924C93.1631 1.28467 93.7134 0.734375 94.388 0.734375C95.0625 0.734375 95.6128 1.27876 95.6128 1.95924Z" fill="#007360"/>
<path d="M94.388 8.89226L92.643 10.6373C91.7912 11.566 91.3594 12.7313 91.3475 13.9085V18.8892L96.2691 13.9676L98.0141 12.2226C98.8659 11.2939 99.2977 10.1286 99.3096 8.95142V3.9707L94.388 8.89226Z" fill="url(#paint0_linear_1480_24275)"/>
<path d="M93.7543 23.7385C93.7543 24.419 93.2099 24.9634 92.5294 24.9634C91.849 24.9634 91.3046 24.4131 91.3046 23.7385C91.3046 23.064 91.8549 22.5137 92.5294 22.5137C93.204 22.5137 93.7543 23.064 93.7543 23.7385Z" fill="#007360"/>
<path d="M91.3181 16.377C90.0582 16.4302 88.9283 16.9508 88.0883 17.773L84.5687 21.2927H93.9978C95.2518 21.2394 96.3876 20.7189 97.2276 19.8907L100.747 16.3711H91.3181V16.377Z" fill="url(#paint1_linear_1480_24275)"/>
<path d="M91.5248 26.2008H86.4021C85.1481 26.1476 84.0123 25.627 83.1724 24.7989L82.1135 23.74L84.5684 21.2852H86.6092L90.0933 24.7575L91.5307 26.1949L91.5248 26.2008Z" fill="#007360"/>
<path d="M45.532 11.5132C44.065 11.5132 42.8287 11.8858 41.9 12.3117C41.2316 11.6196 40.1668 11.5132 39.5043 11.5132C38.0314 11.5132 36.7951 11.8858 35.8664 12.3117C35.1979 11.6196 34.1332 11.5132 33.4706 11.5132C32.0036 11.5132 30.7673 11.8858 29.8386 12.3117C29.1702 11.6196 28.1054 11.5132 27.4429 11.5132C24.0298 11.5132 21.8884 13.5185 21.8884 13.5185L20.3741 21.2912H23.1957L24.4498 14.4117C25.1714 13.8793 26.0765 13.6841 26.5379 13.6841C26.8455 13.6841 27.2122 13.7255 27.4666 14.0508C27.7032 14.3584 27.6914 14.6424 27.6559 14.8612L26.4018 21.2912H29.2234L30.4775 14.4117C31.1992 13.8793 32.1042 13.6841 32.5656 13.6841C32.8732 13.6841 33.24 13.7255 33.4943 14.0508C33.8019 14.459 33.6895 14.8198 33.6481 15.0505L32.4296 21.2912H35.2571L36.5052 14.4117C37.2328 13.8793 38.1319 13.6841 38.5992 13.6841C38.9068 13.6841 39.2795 13.7255 39.528 14.0508C39.7646 14.3584 39.7527 14.6424 39.7172 14.8672L38.4632 21.2971H41.2848L42.5389 14.4176C43.2605 13.8852 44.1656 13.69 44.6329 13.69C44.9405 13.69 45.3072 13.7314 45.5616 14.0568C45.8692 14.4649 45.7509 14.8257 45.7095 15.0564L44.4909 21.2971H47.3125L48.4719 15.2871C48.6435 14.4176 48.815 13.3765 48.0283 12.43C47.3717 11.6374 46.2241 11.5191 45.5261 11.5191L45.532 11.5132ZM18.002 11.7261L16.7539 18.6056C16.0322 19.138 15.1272 19.3332 14.6599 19.3332C14.3523 19.3332 13.9855 19.2918 13.7312 18.9665C13.4236 18.5642 13.536 18.1975 13.5774 17.9668L14.7959 11.7261H11.9743L10.8149 17.7361C10.6375 18.6056 10.4659 19.6467 11.2586 20.5932C11.9152 21.3859 13.0627 21.4982 13.7548 21.4982C17.168 21.4982 19.3093 19.493 19.3093 19.493L20.8237 11.7202H18.002V11.7261ZM5.75139 13.7728C6.08265 13.5776 6.44348 13.5421 6.73925 13.5421C7.99922 13.5421 8.93384 14.2165 9.18228 14.4117L10.5665 12.8264C10.182 12.501 9.67917 12.1698 9.25327 11.9746C8.46061 11.6078 7.59106 11.5309 6.83981 11.5309C5.81646 11.5309 5.00606 11.667 4.1365 12.2053C2.76414 13.0571 2.39739 14.2579 2.39739 15.086C2.39739 15.6894 2.61626 16.9967 4.9469 17.4877C5.8342 17.671 6.59137 17.7834 6.75108 18.3513C7.00544 19.2327 5.84603 19.4752 5.07704 19.4042C4.40269 19.3451 3.29652 19.0138 2.39148 18.3809L0.75293 20.0963C1.74671 21.0901 3.70468 21.5456 4.76944 21.5456C5.88744 21.5456 7.30121 21.374 8.44287 20.4453C9.33017 19.7296 9.81522 18.7476 9.81522 17.8544C9.81522 16.1035 8.23583 15.6243 7.11192 15.4232C6.30151 15.2753 5.7573 15.228 5.49111 14.9973C5.35506 14.8849 5.29591 14.7311 5.29591 14.5182C5.29591 14.2875 5.41421 13.9976 5.76322 13.7847L5.75139 13.7728ZM80.3911 15.4173C79.5807 15.2694 79.0424 15.2221 78.7703 14.9914C78.6342 14.879 78.581 14.7252 78.581 14.5122C78.581 14.2815 78.6993 13.9917 79.0424 13.7787C79.3677 13.5835 79.7345 13.548 80.0243 13.548C81.2843 13.548 82.2189 14.2224 82.4674 14.4176L83.8516 12.8323C83.4612 12.5069 82.9643 12.1757 82.5384 11.9805C81.7457 11.6137 80.8762 11.5368 80.1249 11.5368C79.1016 11.5368 78.2911 11.6729 77.4216 12.2112C76.0492 13.063 75.6825 14.2638 75.6825 15.0919C75.6825 15.6953 75.9014 17.0026 78.2379 17.4936C79.1252 17.6769 79.8765 17.7893 80.0421 18.3572C80.2964 19.2386 79.137 19.4811 78.368 19.4101C77.6937 19.351 76.5875 19.0197 75.6825 18.3868L74.0439 20.1022C75.0377 21.096 76.9957 21.5515 78.0604 21.5515C79.1844 21.5515 80.5922 21.3799 81.7339 20.4512C82.6212 19.7355 83.1062 18.7535 83.1062 17.8603C83.1062 16.1094 81.5268 15.6302 80.4029 15.4291L80.3911 15.4173ZM71.8671 11.7261L70.613 18.6056C69.8914 19.138 68.9863 19.3332 68.519 19.3332C68.2114 19.3332 67.8447 19.2918 67.5903 18.9665C67.2827 18.5642 67.3951 18.1975 67.4365 17.9668L68.6551 11.7261H65.8335L64.674 17.7361C64.5025 18.6056 64.325 19.6467 65.1177 20.5932C65.7743 21.3859 66.916 21.4982 67.614 21.4982C71.0271 21.4982 73.1685 19.493 73.1685 19.493L74.6828 11.7202H71.8612L71.8671 11.7261ZM62.7516 13.903H64.1357L64.5676 11.7261H63.1715L63.556 9.70898L60.6575 10.0994L59.2083 17.7361C59.0367 18.6056 58.8593 19.6467 59.6519 20.5932C60.3085 21.3859 61.4561 21.4982 62.1482 21.4982C62.3138 21.4982 62.4676 21.4982 62.6333 21.4864L63.0532 19.3332C62.7456 19.3332 62.3789 19.2918 62.1245 18.9665C61.811 18.5642 61.9293 18.1975 61.9707 17.9668L62.7516 13.903ZM55.4106 11.5132C53.3639 11.5132 51.684 11.9982 50.4063 12.5779L51.613 14.4117C52.8256 13.8083 53.9436 13.6782 54.5115 13.6782C54.8191 13.6782 55.1918 13.7196 55.4402 14.0449C55.7537 14.4531 55.6354 14.8139 55.594 15.0446L55.5289 15.37C54.9788 15.299 54.547 15.2339 53.914 15.228C52.5239 15.228 49.4775 15.6007 48.9807 18.3335C48.8801 19.0611 48.9097 19.8538 49.5308 20.5932C50.1874 21.3859 51.335 21.4982 52.033 21.4982C55.4402 21.4982 57.5875 19.493 57.5875 19.493L58.3565 15.2753C58.528 14.4058 58.7055 13.3647 57.9128 12.4182C57.2503 11.6256 56.1086 11.5072 55.4106 11.5072V11.5132ZM54.8723 18.7121C54.1802 19.1676 53.3639 19.3392 52.9321 19.3392C51.9502 19.3392 51.4888 19.0197 51.4888 18.369C51.4888 17.7775 52.2637 16.902 54.2749 16.902C54.6239 16.902 55.1444 16.9789 55.2154 17.0026L54.8783 18.7062L54.8723 18.7121Z" fill="white"/>
</g>
<defs>
<linearGradient id="paint0_linear_1480_24275" x1="99.0848" y1="7.6737" x2="91.9154" y2="14.8431" gradientUnits="userSpaceOnUse">
<stop stop-color="#007360"/>
<stop offset="1" stop-color="#00B27D"/>
</linearGradient>
<linearGradient id="paint1_linear_1480_24275" x1="99.0376" y1="18.8319" x2="85.9529" y2="18.8319" gradientUnits="userSpaceOnUse">
<stop stop-color="#007360"/>
<stop offset="1" stop-color="#00B27D"/>
</linearGradient>
<clipPath id="clip0_1480_24275">
<rect width="99.9988" height="25.6785" fill="white" transform="translate(0.74707 0.523438)"/>
</clipPath>
</defs>
</svg>
