<svg width="77" height="76" viewBox="0 0 77 76" fill="none" xmlns="http://www.w3.org/2000/svg">
<g id="SIGN">
<path d="M38.2557 64.7049L32.8388 70.1219C25.4377 77.5229 13.4382 77.5229 6.03713 70.1219C-1.35374 62.731 -1.36541 50.7516 6.01102 43.3464L11.4774 37.8587L38.2557 64.7049Z" fill="#5B77FF"/>
<path d="M38.2385 37.8633L38.2499 64.7053L11.4625 37.862L38.2385 37.8633Z" fill="#6D86FF"/>
<path d="M38.2545 11.0843L43.738 5.6195C51.1419 -1.75906 63.1223 -1.74881 70.5135 5.64243C77.9137 13.0426 77.9137 25.0407 70.5135 32.4409L65.095 37.8594L38.2545 11.0843Z" fill="#9AABFF"/>
<path d="M38.2396 37.8743L38.251 11.0781L65.0987 37.8591L38.2396 37.8743Z" fill="#8CA0FF"/>
<path d="M65.0916 37.8569L70.5492 43.3347C77.9335 50.7464 77.9224 62.7375 70.5244 70.1355C63.1266 77.5333 51.1359 77.5446 43.7241 70.1609L38.2461 64.7035L65.0916 37.8569Z" fill="#8599FF"/>
<path d="M38.2317 37.8718L65.0997 37.8563L38.2506 64.7079L38.2317 37.8718Z" fill="#7E94FF"/>
<path d="M11.4735 37.859L6.04353 32.429C-1.35033 25.0352 -1.35032 13.0474 6.04354 5.65351C13.4374 -1.74035 25.4252 -1.74035 32.8191 5.65351L38.2501 11.0845L11.4735 37.859Z" fill="#738AFF"/>
<path d="M38.238 37.8718L11.4592 37.8662L38.2501 11.0845L38.238 37.8718Z" fill="#778EFF"/>
<path d="M0.539957 20.475H0.557826C0.886416 24.832 2.71798 29.0972 6.04955 32.4293L11.4678 37.8476L11.4855 37.8648L11.4678 37.8783L6.07175 43.3157C2.67168 46.7157 0.812955 51.0684 0.539957 55.518V20.475Z" fill="#6881FE"/>
<path d="M55.6863 0.144367V0.162236C51.3293 0.490826 47.064 2.32239 43.732 5.65396L38.2832 11.0646L38.2557 11.0919L38.2501 11.0845L32.8376 5.67594C29.4375 2.27587 25.101 0.463873 20.6433 0.144365L55.6863 0.144367Z" fill="#8398FF"/>
</g>
</svg>
