<svg width="36" height="35" viewBox="0 0 36 35" fill="none" xmlns="http://www.w3.org/2000/svg">
<path d="M29.4431 10.0953L29.5503 8.64742C29.5852 8.17577 29.2545 7.7554 28.7879 7.67831L27.0863 7.39719C25.493 7.13395 23.9551 6.60557 22.5364 5.834L22.3976 5.75855C19.5907 4.23196 16.1985 4.24466 13.403 5.79222V5.79222C11.9604 6.59086 10.3883 7.1288 8.75879 7.38135L7.06584 7.64373C6.43025 7.74224 5.95928 8.2862 5.95274 8.92934L5.94758 9.4362C5.86612 17.4437 9.96529 24.9145 16.7631 29.1474L17.7499 29.7619C18.0042 29.9203 18.3282 29.9128 18.5749 29.7428V29.7428C20.981 28.0856 23.2225 26.2012 25.2686 24.1158L25.6194 23.7582" stroke="white"/>
<path d="M30.1839 15.1423V15.1423C30.1839 14.1516 29.3841 13.3466 28.3934 13.3402L26.8955 13.3304C26.0424 13.3249 25.3508 14.0205 25.3613 14.8735V14.8735C25.3716 15.708 26.051 16.3791 26.8855 16.3791H28.5561C29.4431 16.3791 30.1621 17.0981 30.1621 17.9851V17.9851C30.1621 18.8721 29.4431 19.5911 28.5561 19.5911H27.0161C26.0884 19.5911 25.3363 18.839 25.3363 17.9113V17.9113" stroke="white"/>
<path d="M11.4178 13.3203H16.7901" stroke="white" stroke-linecap="square"/>
<path d="M14.1041 13.3203L14.1041 19.732" stroke="white" stroke-linecap="square"/>
<path d="M18.9748 13.3203L18.9748 19.5909L23.1512 19.5909" stroke="white" stroke-linecap="square"/>
</svg>
