<svg width="36" height="35" viewBox="0 0 36 35" fill="none" xmlns="http://www.w3.org/2000/svg">
<path d="M17.4246 16.6061L13.2336 18.126C12.4458 18.4117 11.9196 19.1583 11.9155 19.9963L11.9057 21.9674C11.8929 24.5314 13.1099 26.9462 15.1785 28.4612L16.8096 29.6559C17.4998 30.1614 18.435 30.172 19.1364 29.6822L20.6937 28.5949C22.8368 27.0985 24.1138 24.6495 24.1138 22.0357L24.1138 20.1068C24.1139 19.2918 23.6193 18.5582 22.8636 18.2527L18.8562 16.6322C18.3986 16.4471 17.8886 16.4378 17.4246 16.6061Z" stroke="white"/>
<path d="M14.7473 22.7566L17.2344 25.2436L21.3227 21.1553" stroke="white"/>
<path d="M15.0516 13.9702V10.9092L15.8888 10.9127C16.7281 10.9163 17.4076 11.5959 17.4111 12.4353C17.4145 13.282 16.729 13.9702 15.8823 13.9702H15.0516Z" stroke="white"/>
<path d="M19.2166 13.9702V10.9092L20.7031 10.9155C21.1834 10.9175 21.5726 11.3056 21.576 11.7859V11.7859C21.5795 12.2725 21.186 12.6688 20.6994 12.6688H19.2936" stroke="white" stroke-linecap="square"/>
<path d="M23.381 13.9702V10.9092L24.8676 10.9155C25.3479 10.9175 25.7371 11.3056 25.7405 11.7859V11.7859C25.744 12.2725 25.3505 12.6688 24.8639 12.6688H24.5015M23.4581 12.6688H24.5015M24.5015 12.6688L25.5551 13.8961" stroke="white" stroke-linecap="square"/>
<path d="M11.7136 12.5243H13.253V12.6273C13.1751 13.3807 12.5382 13.969 11.7634 13.969C10.9362 13.969 10.2657 13.2835 10.2657 12.4564C10.2657 11.6105 10.9549 10.9103 11.8008 10.9131C12.294 10.9147 12.7299 11.1616 12.9924 11.538" stroke="white"/>
<path d="M14.5413 30.1964H9.6582C8.55363 30.1964 7.6582 29.301 7.6582 28.1964V11.6768C7.6582 10.8318 8.01454 10.0261 8.63962 9.45751L12.7526 5.71648C13.3115 5.20817 14.0416 4.92941 14.797 4.9359L26.3588 5.03517C27.4566 5.0446 28.3416 5.93723 28.3416 7.0351V28.1961C28.3416 29.3007 27.4462 30.1961 26.3416 30.1961H21.8609" stroke="white"/>
</svg>
