<svg width="36" height="35" viewBox="0 0 36 35" fill="none" xmlns="http://www.w3.org/2000/svg">
<g clip-path="url(#clip0_1797_28201)">
<path d="M5.2569 14.3489L5.53711 14.2647L5.60093 13.9791C6.63773 9.34016 10.7798 5.87402 15.7304 5.87402C20.5775 5.87402 24.6498 9.19676 25.791 13.6899L25.8867 14.0668H26.2756H28.7595C32.4516 14.0668 35.4448 17.0596 35.4448 20.7522C35.4448 24.4447 32.4516 27.4375 28.7595 27.4375H7.1851C3.49299 27.4375 0.499756 24.4447 0.499756 20.7522C0.499756 17.7303 2.50442 15.1763 5.2569 14.3489Z" stroke="white"/>
<circle cx="15.8045" cy="16.0083" r="2.01904" stroke="white"/>
<line x1="15.9127" y1="17.7148" x2="15.9127" y2="22.2338" stroke="white"/>
</g>
<defs>
<clipPath id="clip0_1797_28201">
<rect width="36" height="34" fill="white" transform="translate(0 0.713867)"/>
</clipPath>
</defs>
</svg>
