<svg width="181" height="171" viewBox="0 0 181 171" fill="none" xmlns="http://www.w3.org/2000/svg">
<path d="M34.7332 86.5113C26.2715 94.9727 12.5526 94.9727 4.09094 86.5113L19.4169 71.1852C19.8365 37.5067 47.2685 10.334 81.0469 10.334C102.636 10.334 121.633 21.4331 132.641 38.238L143.737 31.8319C146.95 29.9771 150.595 29.0003 154.306 29.0003H166.525C172.62 29.0003 177.561 33.9417 177.561 40.0368C177.561 46.1318 172.62 51.0725 166.525 51.0725H157.024C155.148 51.0725 153.305 51.5723 151.686 52.5203L130.413 64.9699L108.872 86.5113C100.41 94.9727 86.6912 94.9727 78.2296 86.5113L92.7719 71.9688H82.2533H49.2754H34.7567" stroke="black" stroke-width="4" stroke-linecap="round"/>
<path d="M61.1889 145.851L85.0256 145.851H92.1426L82.3031 155.691C88.0283 161.416 97.3107 161.416 103.036 155.691L117.611 141.116L132.004 132.692C133.1 132.051 134.347 131.713 135.616 131.713H142.045C146.169 131.713 149.512 128.37 149.512 124.246C149.512 120.122 146.169 116.778 142.045 116.778H133.777C131.267 116.778 128.8 117.439 126.626 118.694L119.118 123.029C111.67 111.658 98.8167 104.148 84.2093 104.148C61.3544 104.148 42.7937 122.534 42.5097 145.321L32.14 155.691C37.8652 161.416 47.1477 161.416 52.8729 155.691" stroke="black" stroke-width="4" stroke-linecap="round"/>
</svg>
