<svg width="181" height="171" viewBox="0 0 181 171" fill="none" xmlns="http://www.w3.org/2000/svg">
<path d="M122.435 93.7715L162.649 53.5571C171.423 44.7839 171.423 30.5597 162.649 21.7864C153.876 13.0132 139.652 13.0132 130.879 21.7864L112.438 40.2273V26.7485C112.438 14.3413 102.38 4.2832 89.9724 4.2832C77.5651 4.2832 67.5071 14.3413 67.5071 26.7485V71.9035M112.438 106.826V143.573C112.438 155.98 102.38 166.038 89.9724 166.038C77.5651 166.038 67.5071 155.98 67.5071 143.573M57.8206 125.759L18.1742 86.1121C9.40092 77.3389 9.40094 63.1146 18.1742 54.3414C26.9474 45.5682 41.1717 45.5682 49.9449 54.3414L57.5206 61.9171" stroke="black" stroke-width="4.05071" stroke-linecap="round"/>
</svg>
