<svg width="181" height="170" viewBox="0 0 181 170" fill="none" xmlns="http://www.w3.org/2000/svg">
<path d="M153.273 8.67578H155.273C155.273 7.57121 154.378 6.67578 153.273 6.67578V8.67578ZM87.9848 160.122L86.8899 161.796L87.9848 160.122ZM65.1443 145.181L64.0495 146.855L65.1443 145.181ZM28.7488 6.67578C27.6443 6.67578 26.7488 7.57121 26.7488 8.67578C26.7488 9.78035 27.6443 10.6758 28.7488 10.6758V6.67578ZM28.4635 77.0162L30.4635 77.0246L30.4635 77.0227L28.4635 77.0162ZM97.075 161.842C98.0048 161.246 98.2752 160.009 97.679 159.079C97.0828 158.149 95.8456 157.879 94.9158 158.475L97.075 161.842ZM114.894 145.664C113.964 146.26 113.694 147.497 114.29 148.427C114.886 149.357 116.124 149.627 117.053 149.031L114.894 145.664ZM30.6061 32.6383C30.6097 31.5338 29.7171 30.6355 28.6126 30.6319C27.508 30.6284 26.6097 31.5209 26.6062 32.6255L30.6061 32.6383ZM132.932 93.413L134.18 94.9761C134.656 94.5966 134.932 94.0213 134.932 93.413C134.932 92.8047 134.656 92.2294 134.18 91.8499L132.932 93.413ZM69.7701 93.413L68.5224 91.8499C68.0469 92.2294 67.7701 92.8047 67.7701 93.413C67.7701 94.0213 68.0469 94.5966 68.5224 94.9761L69.7701 93.413ZM66.2049 93.414L67.2049 95.146L70.2049 93.414L67.2049 91.6819L66.2049 93.414ZM47.8033 101.729C46.8468 102.281 46.519 103.504 47.0713 104.461C47.6236 105.417 48.8468 105.745 49.8033 105.193L47.8033 101.729ZM49.8033 81.6351C48.8468 81.0828 47.6236 81.4106 47.0713 82.3672C46.519 83.3238 46.8468 84.5469 47.8033 85.0992L49.8033 81.6351ZM68.9704 34.3952L67.4148 33.1381L68.9704 34.3952ZM48.5759 34.5441L47.0511 35.8384L48.5759 34.5441ZM100.798 34.7012L102.29 36.0337L100.798 34.7012ZM80.5407 34.3952L78.9852 35.6523L80.5407 34.3952ZM134.235 34.0189L132.605 32.8599L134.235 34.0189ZM113.692 34.7012L112.201 36.0337V36.0337L113.692 34.7012ZM139.262 32.4458C140.367 32.4458 141.262 31.5504 141.262 30.4458C141.262 29.3413 140.367 28.4458 139.262 28.4458V32.4458ZM42.4738 28.4458C41.3693 28.4458 40.4738 29.3413 40.4738 30.4458C40.4738 31.5504 41.3693 32.4458 42.4738 32.4458V28.4458ZM86.4069 57.1644L87.9625 58.4214L86.4069 57.1644ZM65.5387 57.3168L64.0139 58.611L65.5387 57.3168ZM119.126 57.3031L120.653 58.5941L120.653 58.5941L119.126 57.3031ZM98.246 57.1644L99.8016 55.9073L98.246 57.1644ZM125.34 55.1233C126.445 55.1233 127.34 54.2278 127.34 53.1233C127.34 52.0187 126.445 51.1233 125.34 51.1233V55.1233ZM59.2949 51.1233C58.1903 51.1233 57.2949 52.0187 57.2949 53.1233C57.2949 54.2278 58.1903 55.1233 59.2949 55.1233V51.1233ZM151.273 8.67578V79.1206H155.273V8.67578H151.273ZM89.0796 158.448L66.2392 143.508L64.0495 146.855L86.8899 161.796L89.0796 158.448ZM28.7488 10.6758H153.273V6.67578H28.7488V10.6758ZM66.2392 143.508C43.8179 128.841 30.3516 103.816 30.4635 77.0246L26.4635 77.0079C26.346 105.155 40.4937 131.447 64.0495 146.855L66.2392 143.508ZM94.9158 158.475C93.1351 159.617 90.8499 159.606 89.0796 158.448L86.8899 161.796C89.9793 163.817 93.9674 163.835 97.075 161.842L94.9158 158.475ZM151.273 79.1206C151.273 106.05 137.564 131.127 114.894 145.664L117.053 149.031C140.87 133.759 155.273 107.413 155.273 79.1206H151.273ZM30.4635 77.0227L30.6061 32.6383L26.6062 32.6255L26.4635 77.0098L30.4635 77.0227ZM131.685 91.8499C123.366 98.4904 112.825 102.459 101.351 102.459V106.459C113.764 106.459 125.178 102.162 134.18 94.9761L131.685 91.8499ZM101.351 102.459C89.8779 102.459 79.3368 98.4904 71.0178 91.8499L68.5224 94.9761C77.5245 102.162 88.9388 106.459 101.351 106.459V102.459ZM71.0178 94.9761C79.3368 88.3356 89.8779 84.3674 101.351 84.3674V80.3674C88.9388 80.3674 77.5245 84.6642 68.5224 91.8499L71.0178 94.9761ZM101.351 84.3674C112.825 84.3674 123.366 88.3356 131.685 94.9761L134.18 91.8499C125.178 84.6642 113.764 80.3674 101.351 80.3674V84.3674ZM65.2049 91.6819L47.8033 101.729L49.8033 105.193L67.2049 95.146L65.2049 91.6819ZM47.8033 85.0992L65.2049 95.146L67.2049 91.6819L49.8033 81.6351L47.8033 85.0992ZM67.4148 33.1381C65.8798 35.0377 62.6814 36.5587 58.7115 36.5587V40.5587C63.561 40.5587 68.0466 38.7205 70.526 35.6523L67.4148 33.1381ZM58.7115 36.5587C54.8257 36.5587 51.6709 35.0999 50.1007 33.2499L47.0511 35.8384C49.5582 38.7921 53.9551 40.5587 58.7115 40.5587V36.5587ZM99.3069 33.3688C97.7023 35.1649 94.5957 36.5587 90.7997 36.5587V40.5587C95.4559 40.5587 99.7586 38.8672 102.29 36.0337L99.3069 33.3688ZM90.7997 36.5587C86.8297 36.5587 83.6313 35.0377 82.0963 33.1381L78.9852 35.6523C81.4646 38.7205 85.9502 40.5587 90.7997 40.5587V36.5587ZM132.605 32.8599C131.17 34.878 127.871 36.5587 123.691 36.5587V40.5587C128.769 40.5587 133.476 38.5379 135.865 35.178L132.605 32.8599ZM123.691 36.5587C119.895 36.5587 116.788 35.1649 115.184 33.3688L112.201 36.0337C114.732 38.8672 119.035 40.5587 123.691 40.5587V36.5587ZM115.184 33.3688C114.334 32.4174 113.253 31.2135 112.012 30.2604C110.762 29.3018 109.16 28.4458 107.245 28.4458V32.4458C107.928 32.4458 108.684 32.7489 109.576 33.4336C110.476 34.1238 111.32 35.0476 112.201 36.0337L115.184 33.3688ZM135.865 35.178C136.437 34.3745 137.041 33.6517 137.672 33.1418C138.298 32.6366 138.816 32.4458 139.262 32.4458V28.4458C137.593 28.4458 136.211 29.1797 135.159 30.0301C134.112 30.8759 133.26 31.9396 132.605 32.8599L135.865 35.178ZM102.29 36.0337C103.171 35.0476 104.015 34.1238 104.914 33.4336C105.807 32.7489 106.562 32.4458 107.245 32.4458V28.4458C105.331 28.4458 103.728 29.3018 102.479 30.2604C101.237 31.2135 100.157 32.4174 99.3069 33.3688L102.29 36.0337ZM50.1007 33.2499C49.2976 32.3037 48.2754 31.134 47.0804 30.2057C45.8795 29.2727 44.3305 28.4458 42.4738 28.4458V32.4458C43.1002 32.4458 43.7989 32.7216 44.6265 33.3645C45.4601 34.0121 46.2474 34.8915 47.0511 35.8384L50.1007 33.2499ZM82.0963 33.1381C81.3367 32.1981 80.3663 31.0596 79.2148 30.1548C78.0578 29.2457 76.5581 28.4458 74.7556 28.4458V32.4458C75.3292 32.4458 75.9753 32.6965 76.7435 33.3001C77.5172 33.908 78.2513 34.7441 78.9852 35.6523L82.0963 33.1381ZM70.526 35.6523C71.2598 34.7441 71.9939 33.908 72.7676 33.3001C73.5358 32.6965 74.1819 32.4458 74.7556 32.4458V28.4458C72.953 28.4458 71.4533 29.2457 70.2963 30.1548C69.1448 31.0596 68.1744 32.1981 67.4148 33.1381L70.526 35.6523ZM84.8513 55.9073C83.2697 57.8646 79.9821 59.4246 75.9097 59.4246V63.4246C80.8617 63.4246 85.4365 61.5473 87.9625 58.4214L84.8513 55.9073ZM75.9097 59.4246C71.9236 59.4246 68.6811 57.9284 67.0635 56.0225L64.0139 58.611C66.5683 61.6205 71.053 63.4246 75.9097 63.4246V59.4246ZM117.598 56.0122C115.984 57.9227 112.737 59.4246 108.743 59.4246V63.4246C113.609 63.4246 118.101 61.614 120.653 58.5941L117.598 56.0122ZM108.743 59.4246C104.671 59.4246 101.383 57.8646 99.8016 55.9073L96.6905 58.4214C99.2165 61.5473 103.791 63.4246 108.743 63.4246V59.4246ZM120.653 58.5941C121.469 57.6287 122.273 56.7294 123.124 56.0671C123.97 55.4095 124.69 55.1233 125.34 55.1233V51.1233C123.46 51.1233 121.889 51.9604 120.669 52.9095C119.454 53.8539 118.416 55.0446 117.598 56.0122L120.653 58.5941ZM67.0635 56.0225C66.2417 55.0544 65.1985 53.8608 63.98 52.9142C62.7555 51.9629 61.1804 51.1233 59.2949 51.1233V55.1233C59.9501 55.1233 60.6749 55.4118 61.526 56.073C62.3832 56.7389 63.1915 57.6421 64.0139 58.611L67.0635 56.0225ZM99.8016 55.9073C99.0247 54.9459 98.0345 53.7844 96.8606 52.862C95.6813 51.9354 94.1566 51.1233 92.3265 51.1233V55.1233C92.9277 55.1233 93.5988 55.3862 94.3893 56.0073C95.1853 56.6328 95.9392 57.4918 96.6905 58.4214L99.8016 55.9073ZM87.9625 58.4214C88.7137 57.4918 89.4676 56.6328 90.2637 56.0073C91.0542 55.3862 91.7252 55.1233 92.3265 55.1233V51.1233C90.4964 51.1233 88.9717 51.9354 87.7924 52.862C86.6185 53.7844 85.6283 54.9459 84.8513 55.9073L87.9625 58.4214Z" fill="black"/>
</svg>
