<svg width="180" height="170" viewBox="0 0 180 170" fill="none" xmlns="http://www.w3.org/2000/svg">
<path d="M56.8847 86.0975L46.4672 70.4732C41.8263 63.5127 40.3053 54.9296 42.2718 46.7983L44.4267 37.8878C44.5853 37.2318 44.4445 36.5392 44.0421 35.9973L30.6732 17.9897C29.9041 16.9537 30.1498 15.4862 31.2144 14.7572L49.2259 2.42281C50.2219 1.74072 51.5773 1.95557 52.3136 2.91226L66.2431 21.012C66.621 21.5031 67.1829 21.8187 67.7989 21.8859L76.8348 22.8716C85.1834 23.7824 92.767 28.1537 97.7397 34.9214L140.845 93.5864" stroke="black" stroke-width="4" stroke-linecap="round"/>
<path d="M37.4539 27.9114L60.7798 12.0332" stroke="black" stroke-width="4"/>
<path d="M80.2744 117.301L111.112 161.081C114.182 165.438 120.081 166.711 124.674 164.006L128.467 161.772C130.818 160.388 132.519 158.122 133.192 155.478L134.974 148.481C135.599 146.025 137.855 144.339 140.388 144.434L149.201 144.765C151.769 144.861 154.279 143.988 156.233 142.319L159.692 139.364C163.68 135.958 164.448 130.088 161.47 125.771L158.598 121.606" stroke="black" stroke-width="4" stroke-linecap="round"/>
<path d="M5.10181 103.034L31.8922 92.0756C49.9908 84.6726 70.2773 84.6979 88.3574 92.1461V92.1461C105.37 99.1544 124.376 99.6054 141.702 93.4119L174.898 81.545" stroke="black" stroke-width="4" stroke-linecap="round"/>
</svg>
