<svg width="181" height="171" viewBox="0 0 181 171" fill="none" xmlns="http://www.w3.org/2000/svg">
<mask id="path-1-inside-1_144_3100" fill="white">
<path fill-rule="evenodd" clip-rule="evenodd" d="M51.5819 45.2112C51.9548 44.9789 52.0827 44.4948 51.8772 44.1065C49.7991 40.1792 48.6317 35.7594 48.6317 31.0858C48.6317 14.7881 62.8274 1.57617 80.3387 1.57617C92.5264 1.57617 103.108 7.97609 108.415 17.362C108.583 17.6579 108.913 17.8241 109.25 17.7806C110.848 17.5741 112.48 17.4673 114.139 17.4673C133.596 17.4673 149.369 32.1472 149.369 50.2558C149.369 57.4164 146.903 64.0408 142.718 69.4336C142.484 69.7353 142.484 70.1584 142.718 70.4601C146.903 75.8528 149.369 82.4773 149.369 89.6379C149.369 107.747 133.596 122.426 114.139 122.426C107.936 122.426 102.107 120.934 97.0449 118.315C96.821 118.199 96.5565 118.191 96.3263 118.294C90.401 120.941 83.7614 122.423 76.7497 122.423C51.7335 122.423 31.454 103.549 31.454 80.2668C31.454 65.6519 39.4448 52.7741 51.5819 45.2112Z"/>
</mask>
<path d="M97.0449 118.315L95.2066 121.867L97.0449 118.315ZM96.3263 118.294L97.9578 121.946L96.3263 118.294ZM142.718 69.4336L139.558 66.9812L142.718 69.4336ZM142.718 70.4601L139.558 72.9125L142.718 70.4601ZM108.415 17.362L111.897 15.3931L108.415 17.362ZM109.25 17.7806L108.737 13.8136L109.25 17.7806ZM51.8772 44.1065L48.3417 45.9774L51.8772 44.1065ZM51.5819 45.2112L49.4666 41.8164L51.5819 45.2112ZM55.4128 42.2357C53.628 38.8629 52.6317 35.0829 52.6317 31.0858H44.6317C44.6317 36.4359 45.9701 41.4956 48.3417 45.9774L55.4128 42.2357ZM52.6317 31.0858C52.6317 17.2629 64.7612 5.57617 80.3387 5.57617V-2.42383C60.8937 -2.42383 44.6317 12.3132 44.6317 31.0858H52.6317ZM80.3387 5.57617C91.1285 5.57617 100.357 11.2379 104.934 19.3309L111.897 15.3931C105.859 4.71429 93.9243 -2.42383 80.3387 -2.42383V5.57617ZM114.139 13.4673C112.308 13.4673 110.505 13.5851 108.737 13.8136L109.762 21.7476C111.191 21.563 112.652 21.4673 114.139 21.4673V13.4673ZM153.369 50.2558C153.369 29.6724 135.53 13.4673 114.139 13.4673V21.4673C131.663 21.4673 145.369 34.6221 145.369 50.2558H153.369ZM145.878 71.8859C150.574 65.8354 153.369 58.3582 153.369 50.2558H145.369C145.369 56.4745 143.232 62.2463 139.558 66.9812L145.878 71.8859ZM153.369 89.6379C153.369 81.5355 150.574 74.0583 145.878 68.0077L139.558 72.9125C143.233 77.6474 145.369 83.4192 145.369 89.6379H153.369ZM114.139 126.426C135.53 126.426 153.369 110.221 153.369 89.6379H145.369C145.369 105.272 131.663 118.426 114.139 118.426V126.426ZM95.2066 121.867C100.832 124.778 107.291 126.426 114.139 126.426V118.426C108.581 118.426 103.382 117.09 98.8832 114.762L95.2066 121.867ZM76.7497 126.423C84.3282 126.423 91.5234 124.82 97.9578 121.946L94.6947 114.641C89.2787 117.061 83.1946 118.423 76.7497 118.423V126.423ZM27.454 80.2668C27.454 106.024 49.7998 126.423 76.7497 126.423V118.423C53.6673 118.423 35.454 101.074 35.454 80.2668H27.454ZM49.4666 41.8164C36.2828 50.0313 27.454 64.1291 27.454 80.2668H35.454C35.454 67.1747 42.6068 55.5168 53.6973 48.6061L49.4666 41.8164ZM98.8832 114.762C97.583 114.089 96.0416 114.04 94.6947 114.641L97.9578 121.946C97.0714 122.342 96.0589 122.308 95.2066 121.867L98.8832 114.762ZM139.558 66.9812C138.204 68.726 138.204 71.1677 139.558 72.9125L145.878 68.0077C146.764 69.1491 146.764 70.7445 145.878 71.8859L139.558 66.9812ZM104.934 19.3309C105.896 21.0338 107.8 22.0011 109.762 21.7476L108.737 13.8136C110.025 13.6471 111.269 14.282 111.897 15.3931L104.934 19.3309ZM48.3417 45.9774C47.5757 44.5298 48.0381 42.7064 49.4666 41.8164L53.6973 48.6061C55.8714 47.2514 56.5897 44.4598 55.4128 42.2357L48.3417 45.9774Z" fill="black" mask="url(#path-1-inside-1_144_3100)"/>
<path d="M90.4117 130.933L90.4117 166.719" stroke="black" stroke-width="4.05071" stroke-linecap="round"/>
<path d="M66.5441 166.719H114.279" stroke="black" stroke-width="4.05071" stroke-linecap="round"/>
</svg>
