<svg width="181" height="170" viewBox="0 0 181 170" fill="none" xmlns="http://www.w3.org/2000/svg">
<path d="M47.6815 81.9918C47.6815 94.5763 37.4798 104.778 24.8953 104.778C12.3109 104.778 2.10913 94.5763 2.10913 81.9918C2.10913 69.4073 12.3109 59.2056 24.8953 59.2056C37.4798 59.2056 47.6815 69.4073 47.6815 81.9918Z" stroke="black" stroke-width="4.05071"/>
<path d="M178.724 81.9918C178.724 94.5763 168.523 104.778 155.938 104.778C143.354 104.778 133.152 94.5763 133.152 81.9918C133.152 69.4073 143.354 59.2056 155.938 59.2056C168.523 59.2056 178.724 69.4073 178.724 81.9918Z" stroke="black" stroke-width="4.05071"/>
<path d="M84.392 36.4151C84.392 48.9996 74.1903 59.2013 61.6058 59.2013C49.0213 59.2013 38.8196 48.9996 38.8196 36.4151C38.8196 23.8306 49.0213 13.6289 61.6058 13.6289C74.1903 13.6289 84.392 23.8306 84.392 36.4151Z" stroke="black" stroke-width="4.05071"/>
<path d="M144.822 36.4151C144.822 48.9996 134.62 59.2013 122.036 59.2013C109.451 59.2013 99.2497 48.9996 99.2497 36.4151C99.2497 23.8306 109.451 13.6289 122.036 13.6289C134.62 13.6289 144.822 23.8306 144.822 36.4151Z" stroke="black" stroke-width="4.05071"/>
<path d="M120.471 106.282C118.573 105.602 117.27 103.758 117.27 101.743C117.27 87.4964 105.721 75.9472 91.4739 75.9472C77.2272 75.9472 65.678 87.4964 65.678 101.743C65.678 103.53 64.4293 105.13 62.6969 105.569C51.5281 108.403 43.2654 118.524 43.2654 130.574C43.2654 144.821 54.8146 156.37 69.0613 156.37C73.5676 156.37 77.8039 155.215 81.4903 153.184C86.6109 150.363 94.2226 150.363 99.3431 153.184C103.03 155.215 107.266 156.37 111.772 156.37C126.019 156.37 137.568 144.821 137.568 130.574C137.568 119.38 130.437 109.851 120.471 106.282Z" stroke="black" stroke-width="4.05071"/>
</svg>
