<svg width="43" height="31" viewBox="0 0 43 31" fill="none" xmlns="http://www.w3.org/2000/svg">
<path d="M23.4253 17.8899C23.4253 23.1794 19.2469 27.4676 14.0925 27.4676C8.9381 27.4676 4.76007 23.1807 4.76007 17.8899C4.76007 12.5991 8.93842 8.3125 14.0925 8.3125C19.2466 8.3125 23.4253 12.6004 23.4253 17.8899ZM33.6634 17.8899C33.6634 22.8693 31.5741 26.9055 28.997 26.9055C26.42 26.9055 24.3307 22.868 24.3307 17.8899C24.3307 12.9117 26.42 8.8742 28.997 8.8742C31.5741 8.8742 33.6634 12.9117 33.6634 17.8899ZM37.851 17.8899C37.851 22.3512 37.1161 25.9675 36.2097 25.9675C35.3034 25.9675 34.5685 22.3499 34.5685 17.8899C34.5685 13.4298 35.3034 9.8122 36.21 9.8122C37.1167 9.8122 37.851 13.4289 37.851 17.8899Z" fill="#555555"/>
</svg>
