<svg width="31" height="31" viewBox="0 0 31 31" fill="none" xmlns="http://www.w3.org/2000/svg">
<path d="M4.91998 17.0918C4.93563 12.1029 8.2136 7.98328 12.8176 7.09756C17.7307 6.15416 22.5772 9.2233 23.8642 14.2657C24.8812 18.2577 23.9189 21.7429 20.9695 24.5484C20.903 24.6102 20.8405 24.672 20.77 24.7255C20.6175 24.8368 20.5979 24.9521 20.7153 25.1169C21.0478 25.5824 21.392 26.0273 21.8536 26.361C22.3308 26.7071 22.8589 26.8348 23.4182 26.7112C24.0558 26.567 24.4353 26.1139 24.5839 25.463C24.6426 25.2117 24.7404 25.1457 24.9594 25.1581C25.2567 25.1746 25.5579 25.1705 25.8591 25.1581C26.043 25.154 26.0977 25.2364 26.0899 25.4176C25.996 27.3539 25.0142 29.5908 22.3621 29.8875C20.1872 30.1264 18.5952 29.1871 17.4295 27.3127C17.3747 27.2262 17.3121 27.1397 17.273 27.0449C17.1557 26.7606 16.9757 26.7359 16.7019 26.8018C11.6989 28.0583 6.49247 24.7461 5.20944 19.5018C5.00995 18.6903 4.90433 17.8581 4.91998 17.0918ZM19.0372 22.1961C19.3971 21.4545 19.5574 20.7171 19.6787 19.9673C19.9408 18.3401 19.9486 16.7005 19.8078 15.0608C19.7178 14.0144 19.534 12.9804 19.1467 12.0041C18.5482 10.488 17.5429 9.45812 15.9939 9.09147C15.059 8.86901 14.1124 8.86077 13.1736 9.08323C11.8984 9.38808 10.9479 10.1585 10.322 11.3655C9.9895 12.0041 9.77044 12.6838 9.6218 13.3924C9.24237 15.1803 9.24628 16.9888 9.35972 18.8015C9.43795 20.0374 9.66483 21.2444 10.1694 22.3815C11.3664 25.0881 13.9285 25.4053 15.9626 24.9398C16.1504 24.8986 16.1465 24.8079 16.0721 24.6679C15.6888 23.914 15.2976 23.1683 14.707 22.5627C14.1046 21.9448 13.3809 21.6523 12.536 21.7017C12.2778 21.7141 11.9923 21.9654 11.7928 21.7965C11.5972 21.6317 11.5307 21.3021 11.4094 21.0426C11.2334 20.6636 11.2295 20.6636 11.5698 20.4246C12.5438 19.7449 13.6234 19.5389 14.7735 19.5513C16.4007 19.5719 17.6759 20.2846 18.6421 21.644C18.7595 21.8088 18.8807 21.9777 19.0372 22.2002V22.1961Z" fill="#555555"/>
</svg>
