<svg width="34" height="34" viewBox="0 0 34 34" fill="none" xmlns="http://www.w3.org/2000/svg">
<path d="M16.9848 28.1132L14.6444 30.4536C11.4467 33.6512 6.26236 33.6512 3.06473 30.4536C-0.128496 27.2603 -0.133541 22.0846 3.05345 18.8852L5.41518 16.5142L16.9848 28.1132Z" fill="#7E7E7E"/>
<path d="M16.9773 16.5162L16.9823 28.1133L5.40874 16.5157L16.9773 16.5162Z" fill="#8C8C8C"/>
<path d="M16.9842 4.94636L19.3534 2.5853C22.5522 -0.602607 27.7284 -0.598178 30.9218 2.5952C34.119 5.79246 34.119 10.9762 30.9218 14.1735L28.5807 16.5146L16.9842 4.94636Z" fill="#AFAFAF"/>
<path d="M16.9778 16.521L16.9827 4.94369L28.5823 16.5144L16.9778 16.521Z" fill="#A4A4A4"/>
<path d="M28.5792 16.5135L30.9372 18.8801C34.1276 22.0824 34.1228 27.2631 30.9264 30.4594C27.7302 33.6557 22.5496 33.6606 19.3474 30.4704L16.9806 28.1125L28.5792 16.5135Z" fill="#9E9E9E"/>
<path d="M16.9744 16.5199L28.5827 16.5132L16.9826 28.1144L16.9744 16.5199Z" fill="#999999"/>
<path d="M5.41352 16.5144L3.0675 14.1684C-0.127023 10.9738 -0.127022 5.79451 3.0675 2.59999C6.26201 -0.594524 11.4414 -0.594523 14.6359 2.59999L16.9823 4.94647L5.41352 16.5144Z" fill="#909090"/>
<path d="M16.9771 16.5199L5.40732 16.5175L16.9823 4.94647L16.9771 16.5199Z" fill="#939393"/>
<path d="M0.689674 9.0036H0.697394C0.839362 10.8861 1.63069 12.7289 3.0701 14.1685L5.41106 16.5094L5.41868 16.5169L5.41106 16.5227L3.07968 18.8719C1.61069 20.3409 0.807623 22.2215 0.689674 24.1439V9.0036Z" fill="#878787"/>
<path d="M24.5157 0.219767V0.227488C22.6332 0.369455 20.7904 1.16078 19.3508 2.60019L16.9966 4.93784L16.9848 4.94964L16.9823 4.94647L14.6439 2.60968C13.1749 1.14068 11.3013 0.35781 9.37532 0.219767L24.5157 0.219767Z" fill="#9D9D9D"/>
</svg>
