<svg width="33" height="34" viewBox="0 0 33 34" fill="none" xmlns="http://www.w3.org/2000/svg">
<path d="M16.3183 28.1874L13.9779 30.5278C10.7802 33.7254 5.59585 33.7254 2.39822 30.5278C-0.795 27.3345 -0.800045 22.1589 2.38695 18.9594L4.74868 16.5885L16.3183 28.1874Z" fill="#5B77FF"/>
<path d="M16.3108 16.5904L16.3158 28.1875L4.74224 16.5899L16.3108 16.5904Z" fill="#6D86FF"/>
<path d="M16.3177 5.02058L18.6869 2.65952C21.8857 -0.528389 27.0619 -0.523959 30.2553 2.66942C33.4525 5.86668 33.4525 11.0504 30.2553 14.2477L27.9142 16.5888L16.3177 5.02058Z" fill="#9AABFF"/>
<path d="M16.3113 16.5952L16.3162 5.01791L27.9158 16.5886L16.3113 16.5952Z" fill="#8CA0FF"/>
<path d="M27.9127 16.5877L30.2707 18.9544C33.4611 22.1566 33.4563 27.3374 30.2599 30.5337C27.0637 33.7299 21.8831 33.7348 18.6809 30.5446L16.3141 28.1868L27.9127 16.5877Z" fill="#8599FF"/>
<path d="M16.3079 16.5941L27.9162 16.5874L16.3161 28.1887L16.3079 16.5941Z" fill="#7E94FF"/>
<path d="M4.74702 16.5886L2.40099 14.2426C-0.793526 11.0481 -0.793526 5.86873 2.40099 2.67421C5.59551 -0.520305 10.7748 -0.520304 13.9694 2.67421L16.3158 5.02068L4.74702 16.5886Z" fill="#738AFF"/>
<path d="M16.3106 16.5941L4.74082 16.5917L16.3158 5.02068L16.3106 16.5941Z" fill="#778EFF"/>
<path d="M0.0231702 9.07782H0.0308905C0.172858 10.9603 0.964187 12.8031 2.40359 14.2427L4.74455 16.5837L4.75218 16.5911L4.74455 16.597L2.41318 18.9462C0.944181 20.4152 0.141119 22.2957 0.0231702 24.2182V9.07782Z" fill="#6881FE"/>
<path d="M23.8492 0.293986V0.301707C21.9667 0.443674 20.1239 1.235 18.6843 2.67441L16.3301 5.01205L16.3183 5.02386L16.3158 5.02068L13.9774 2.6839C12.5084 1.2149 10.6348 0.432029 8.70881 0.293986L23.8492 0.293986Z" fill="#8398FF"/>
</svg>
