<svg width="99" height="60" viewBox="0 0 99 60" fill="none" xmlns="http://www.w3.org/2000/svg">
<g clip-path="url(#clip0_1938_4512)">
<path d="M12.6822 0.826172C12.8699 0.87143 13.0557 0.929488 13.2457 0.959203C14.4742 1.15121 15.5429 1.67647 16.4698 2.50072C16.6165 2.63101 16.7828 2.74575 16.9017 2.89799C17.0351 3.0685 17.1782 3.10142 17.3759 3.06119C17.9831 2.93776 18.593 2.95559 19.2089 3.0109C20.0252 3.0845 20.8005 3.29068 21.532 3.65092C22.9847 4.36544 24.0515 5.46764 24.7457 6.93053C25.0719 7.61762 25.2873 8.33901 25.3374 9.10154C25.3652 9.52349 25.4131 9.95093 25.3739 10.3683C25.3274 10.8652 25.193 11.3535 25.1069 11.8472C25.0942 11.9208 25.1147 12.0237 25.1602 12.0803C25.562 12.58 25.9187 13.1071 26.1811 13.6945C26.4749 14.3519 26.7022 15.0294 26.7486 15.7536C26.7787 16.2208 26.8261 16.6926 26.7892 17.1566C26.7022 18.2405 26.3806 19.2576 25.8057 20.1893C25.2299 21.1228 24.4806 21.8771 23.55 22.4563C22.9455 22.8326 22.2877 23.0735 21.6122 23.2746C21.5498 23.2934 21.4769 23.2769 21.4482 23.2769C21.1904 23.7917 20.9594 24.2918 20.6943 24.7732C20.2475 25.5833 19.6093 26.2297 18.8709 26.7718C18.0245 27.3931 17.0739 27.8055 16.0403 27.9668C15.4199 28.0638 14.7735 28.1182 14.1522 28.0564C12.8485 27.9271 11.6541 27.4571 10.6255 26.6219C10.3467 26.3956 10.1053 26.1231 9.82517 25.8987C9.74273 25.8329 9.58694 25.8406 9.46577 25.8447C8.80481 25.8671 8.13429 25.9833 7.48517 25.9087C6.32496 25.7757 5.25267 25.3455 4.29881 24.647C3.06116 23.74 2.21481 22.5491 1.7397 21.0949C1.46457 20.2533 1.3762 19.3788 1.44726 18.5006C1.48507 18.0338 1.64176 17.5781 1.72421 17.1136C1.74335 17.0052 1.71556 16.8507 1.64769 16.7707C0.916577 15.9131 0.44147 14.9261 0.16907 13.8413C-0.0104051 13.1277 -0.031359 12.3876 0.03788 11.6634C0.129895 10.6965 0.407762 9.76578 0.924321 8.93285C1.2277 8.4437 1.55339 7.95866 1.93649 7.53259C2.36923 7.05167 2.87668 6.632 3.46612 6.34583C3.95672 6.10765 4.45278 5.84799 4.97571 5.71953C5.39752 5.61576 5.53828 5.38489 5.68587 5.02832C6.26073 3.64086 7.20002 2.55786 8.49324 1.78619C9.35052 1.27372 10.2743 0.969261 11.266 0.865487C11.2988 0.86183 11.3298 0.839429 11.3616 0.826172C11.8017 0.826172 12.2417 0.826172 12.6822 0.826172ZM17.6118 13.5153C17.6091 13.5985 17.6036 13.6822 17.6036 13.7654C17.6032 16.1371 17.5922 18.5088 17.6114 20.8805C17.6159 21.4428 17.3877 21.7857 16.9085 22.0408C16.1628 22.438 15.4349 22.8696 14.7029 23.292C13.846 23.7866 12.9924 24.2872 12.1383 24.7864C11.9584 24.8916 11.7816 25.0022 11.5757 25.127C12.3756 25.7126 13.191 26.1218 14.1389 26.2493C14.8181 26.3407 15.49 26.3065 16.1391 26.1263C17.1887 25.8351 18.0751 25.2738 18.7757 24.4148C19.5414 23.4758 19.9168 22.4038 19.9259 21.2074C19.9414 19.1552 19.9268 17.1026 19.9359 15.05C19.9368 14.8722 19.8767 14.7785 19.7364 14.6989C19.0412 14.3039 18.3484 13.9058 17.6546 13.5085C17.6423 13.4998 17.6296 13.4907 17.6173 13.482C17.6159 13.4929 17.6141 13.5039 17.6127 13.5153H17.6118ZM16.2685 17.6608C16.2025 17.6933 16.1346 17.7225 16.0713 17.7591C15.531 18.0722 14.993 18.389 14.4514 18.6999C13.7171 19.1214 12.9783 19.5351 12.2454 19.9594C11.4149 20.4403 10.5909 20.9326 9.76049 21.4131C9.47807 21.5763 9.18563 21.6111 8.88999 21.4241C8.69458 21.3006 8.49005 21.1914 8.28962 21.0757C6.84015 20.2369 5.39115 19.3975 3.94123 18.5596C3.72577 18.4348 3.50712 18.3154 3.26068 18.1769C3.24292 18.5577 3.22105 18.8947 3.21467 19.2311C3.21194 19.3646 3.23153 19.5013 3.26159 19.632C3.365 20.0833 3.42695 20.5532 3.59777 20.9784C3.93166 21.8104 4.45961 22.519 5.17068 23.0753C5.60524 23.415 6.08946 23.671 6.60146 23.8726C7.25103 24.1281 7.93158 24.199 8.61896 24.1418C9.02164 24.1085 9.42796 24.0408 9.81652 23.9316C10.6342 23.7007 11.3211 23.1969 12.0508 22.7855C12.8849 22.3155 13.7098 21.8291 14.5384 21.3496C15.1183 21.014 15.6991 20.6803 16.2749 20.3374C16.3241 20.3082 16.3623 20.2163 16.3628 20.1537C16.3664 19.3253 16.3628 18.4969 16.3601 17.6681C16.3532 17.6498 16.3464 17.632 16.3391 17.6137C16.3154 17.6293 16.2913 17.6453 16.2676 17.6608H16.2685ZM21.7115 21.3436C21.7466 21.3496 21.7548 21.3537 21.7612 21.3514C21.7899 21.3427 21.819 21.3336 21.8463 21.3221C22.8685 20.8938 23.6721 20.2145 24.2715 19.2741C24.7134 18.581 24.9493 17.8245 25.0154 17.0222C25.0814 16.2185 24.9707 15.4308 24.6633 14.6701C24.2524 13.6525 23.5901 12.8516 22.6727 12.271C22.0796 11.8957 21.4541 11.5711 20.8465 11.2186C19.6366 10.516 18.4263 9.81424 17.2233 9.10017C17.042 8.99274 16.9026 9.00463 16.7368 9.1052C16.2913 9.37446 15.8421 9.63824 15.3934 9.90156C15.1548 10.0419 14.9129 10.1772 14.666 10.3185C14.9589 10.4954 15.2235 10.6627 15.495 10.8191C16.3569 11.3155 17.2219 11.8061 18.0837 12.3025C19.0112 12.8369 19.9218 13.4024 20.867 13.9021C21.4628 14.2171 21.7397 14.6148 21.7261 15.3193C21.6865 17.3257 21.712 19.334 21.712 21.3436H21.7115ZM5.1315 7.52162C4.96706 7.58837 4.84133 7.63134 4.72244 7.68848C3.99316 8.04186 3.37547 8.53467 2.87941 9.1788C2.26902 9.97104 1.89367 10.8671 1.80894 11.86C1.73879 12.682 1.85449 13.4861 2.18793 14.26C2.58014 15.1702 3.13496 15.9456 3.96719 16.4823C4.73292 16.976 5.53099 17.4194 6.31813 17.8789C7.44235 18.5349 8.5684 19.1872 9.69854 19.8332C9.77051 19.8743 9.90352 19.8798 9.97459 19.841C10.452 19.5795 10.9212 19.302 11.3922 19.0286C11.6436 18.8828 11.8932 18.7342 12.1688 18.5719C11.3562 18.1015 10.5791 17.6521 9.80285 17.2018C8.41716 16.3986 7.03603 15.5881 5.64396 14.7963C5.27453 14.586 5.1274 14.2984 5.12831 13.8856C5.13469 11.855 5.1315 9.8243 5.1315 7.79363C5.1315 7.7118 5.1315 7.62951 5.1315 7.52208V7.52162ZM15.255 3.77435C15.1926 3.73823 15.157 3.72452 15.1292 3.7012C14.2906 3.00222 13.3003 2.70415 12.2367 2.61227C11.6063 2.55786 10.9913 2.6685 10.3946 2.86736C9.35326 3.21433 8.50508 3.83195 7.86963 4.73208C7.2852 5.55953 6.9185 6.47017 6.91349 7.49557C6.90347 9.63229 6.90939 11.7686 6.90393 13.9053C6.90393 14.0365 6.94538 14.1092 7.0588 14.1741C7.48836 14.4187 7.90926 14.6779 8.33745 14.9252C8.62488 15.0911 8.91823 15.247 9.24348 15.4262V13.124C9.24348 11.375 9.24439 9.62635 9.24302 7.87729C9.24302 7.46768 9.3897 7.16642 9.7696 6.95933C10.4875 6.56892 11.1876 6.14651 11.8946 5.7369C12.7305 5.25278 13.5673 4.76911 14.4022 4.28316C14.6815 4.12041 14.9571 3.95172 15.2545 3.77435H15.255ZM10.4893 11.2959C10.7968 11.1203 11.0669 10.9686 11.3348 10.8136C11.9593 10.4524 12.5829 10.0899 13.2065 9.72738C13.836 9.36166 14.4642 8.99365 15.0946 8.6293C15.7201 8.26724 16.3537 7.91843 16.9718 7.54448C17.3303 7.32779 17.6802 7.32733 18.0291 7.52071C18.5124 7.7886 18.9829 8.07981 19.4617 8.35638C20.518 8.96714 21.5762 9.57469 22.6335 10.1841C22.9296 10.3546 23.2261 10.5251 23.5431 10.7075C23.5682 10.4396 23.6019 10.2042 23.6101 9.96784C23.6311 9.3676 23.5199 8.78519 23.3363 8.21741C22.9724 7.09281 22.2773 6.21645 21.2983 5.56867C20.5941 5.10283 19.8161 4.86831 18.9711 4.78465C18.2559 4.71379 17.5786 4.79608 16.9026 5.00957C16.1792 5.23769 15.5661 5.67473 14.9165 6.04274C14.0752 6.51955 13.2393 7.0055 12.4011 7.48779C11.7898 7.83934 11.1781 8.18998 10.5704 8.54656C10.529 8.57079 10.493 8.64347 10.4925 8.69422C10.488 9.55138 10.4893 10.4085 10.4893 11.2959ZM16.3669 14.4525C16.3669 13.9355 16.3724 13.4184 16.361 12.9018C16.3591 12.825 16.2981 12.7172 16.2321 12.6783C15.3374 12.1489 14.4387 11.6273 13.5363 11.1121C13.4734 11.076 13.3555 11.0737 13.293 11.1094C12.4016 11.6168 11.5138 12.1306 10.6305 12.6522C10.5627 12.692 10.4957 12.8004 10.4952 12.8772C10.4866 13.9263 10.487 14.9755 10.4943 16.0247C10.4948 16.0996 10.549 16.2071 10.6114 16.2436C11.3967 16.7067 12.1902 17.157 12.9774 17.6169C13.2548 17.7792 13.5199 17.9237 13.801 17.627C13.8392 17.5863 13.9085 17.5762 13.9599 17.5461C14.7038 17.114 15.444 16.6756 16.1933 16.2528C16.3254 16.1783 16.3742 16.1074 16.371 15.9575C16.361 15.456 16.3673 14.954 16.3673 14.4521L16.3669 14.4525Z" fill="white"/>
<path d="M37.749 6.39881C38.4997 6.35264 39.2494 6.46601 39.9792 6.70053C40.8091 6.96751 41.5443 7.39632 42.2044 7.97645C42.9391 8.6224 43.4849 9.39682 43.8912 10.275C44.2141 10.9731 44.4282 11.7068 44.508 12.4753C44.5572 12.9503 44.6373 13.4257 44.635 13.9011C44.6323 14.4461 44.5754 14.9942 44.5002 15.535C44.4506 15.8952 44.3257 16.245 44.2387 16.6006C44.0278 17.4624 43.616 18.2258 43.0908 18.9298C42.4804 19.7486 41.7092 20.3831 40.7923 20.8238C40.1473 21.1337 39.4736 21.3692 38.7475 21.4126C38.3448 21.4364 37.9421 21.5072 37.5412 21.4944C36.5765 21.4638 35.6581 21.2238 34.7931 20.7854C33.5869 20.1746 32.6795 19.2612 32.0322 18.0781C31.5489 17.1954 31.2182 16.26 31.1289 15.2557C31.0674 14.5654 30.995 13.8655 31.0451 13.1784C31.1608 11.5843 31.6532 10.1013 32.6449 8.82858C33.3669 7.90147 34.2861 7.21483 35.3971 6.80156C36.151 6.52133 36.9217 6.3499 37.7494 6.39927L37.749 6.39881ZM42.0267 13.9629C42.004 13.6474 41.9816 13.3324 41.9589 13.017C41.901 12.2234 41.6846 11.4741 41.2993 10.7806C40.7663 9.82197 40.0197 9.12481 38.9251 8.84046C38.2642 8.66857 37.6096 8.62697 36.9422 8.76869C35.9975 8.96938 35.25 9.48962 34.6883 10.2544C34.0137 11.1729 33.7012 12.2444 33.6424 13.3658C33.6056 14.0657 33.6543 14.7857 33.78 15.4756C33.975 16.548 34.4546 17.5035 35.28 18.2455C35.695 18.6185 36.1824 18.8818 36.7209 19.0327C37.2447 19.1794 37.774 19.1959 38.3202 19.1387C38.8882 19.0793 39.4075 18.9038 39.8799 18.6116C40.8351 18.0205 41.4127 17.1305 41.7275 16.0694C41.9302 15.386 42.0582 14.6852 42.0272 13.9629H42.0267Z" fill="white"/>
<path d="M82.9779 21.2604H80.3983C80.4575 21.1003 80.5104 20.955 80.565 20.8101C81.0046 19.6443 81.4446 18.4786 81.8842 17.3128C82.3028 16.2033 82.7215 15.0934 83.1405 13.9839C83.525 12.9662 83.9099 11.9491 84.2944 10.9319C84.7153 9.81829 85.1353 8.70421 85.5562 7.59059C85.665 7.30258 85.7693 7.01275 85.8882 6.72931C85.9137 6.66897 85.9939 6.5908 86.05 6.59034C86.9901 6.58165 87.9303 6.5844 88.8764 6.5844C90.7236 11.4759 92.568 16.3592 94.4201 21.2649C93.5642 21.2649 92.7315 21.2672 91.8993 21.2599C91.8414 21.2594 91.7517 21.1968 91.7312 21.1429C91.4602 20.4178 91.2023 19.6877 90.934 18.9613C90.8042 18.6093 90.6589 18.2628 90.5204 17.9135H84.2192C83.8097 19.018 83.3965 20.133 82.9779 21.2613V21.2604ZM87.3536 9.49737C86.5825 11.571 85.8345 13.5825 85.0806 15.6095H89.6668C88.901 13.5857 88.139 11.5719 87.3536 9.49737Z" fill="white"/>
<path d="M48.9096 20.1367V24.924H46.478V10.5516H48.9096V11.6515C49.4002 11.1294 49.9281 10.7385 50.5823 10.5443C51.4227 10.2942 52.2672 10.3043 53.1231 10.4784C53.9203 10.6403 54.5722 11.0476 55.132 11.6103C55.721 12.2028 56.1009 12.9201 56.3564 13.7187C56.6516 14.6403 56.7259 15.5834 56.6571 16.532C56.5755 17.6525 56.2776 18.7195 55.603 19.6457C54.9152 20.5906 54.0082 21.1954 52.8507 21.4131C52.1046 21.5529 51.3617 21.5392 50.6442 21.3056C49.9883 21.0921 49.4002 20.7397 48.9096 20.1367ZM48.7984 15.8756C48.8107 15.8779 48.8226 15.8801 48.8349 15.8824C48.8499 16.186 48.8627 16.4895 48.8809 16.7926C48.9223 17.4916 49.1861 18.1088 49.6667 18.6034C50.3076 19.2635 51.123 19.4665 52.0117 19.3015C52.9674 19.1236 53.5964 18.5366 53.9381 17.6287C54.174 17.0006 54.2219 16.3483 54.2073 15.6858C54.1936 15.0536 54.0775 14.4465 53.7978 13.8742C53.1327 12.5137 51.7734 12.2728 50.5713 12.6321C49.6894 12.8954 49.2016 13.6076 48.9866 14.4781C48.8745 14.9315 48.8586 15.4088 48.7989 15.8756H48.7984Z" fill="white"/>
<path d="M60.452 16.4809C60.5599 17.4633 60.9016 18.3282 61.7311 18.9257C62.3196 19.3499 62.9792 19.4716 63.7012 19.3723C64.1239 19.3143 64.5184 19.2037 64.8614 18.9632C65.2673 18.6788 65.5962 18.3191 65.7387 17.8231C65.7506 17.7819 65.7811 17.7463 65.8107 17.696C66.5049 17.9597 67.195 18.2222 67.8952 18.4882C67.4547 19.509 66.8179 20.3095 65.8658 20.8352C65.1958 21.2055 64.482 21.3898 63.7158 21.467C62.382 21.6019 61.1963 21.2421 60.1409 20.4713C59.3874 19.9214 58.8809 19.1575 58.5269 18.283C58.1193 17.2754 58.035 16.223 58.1384 15.1734C58.2814 13.7219 58.8508 12.4337 59.9769 11.4577C60.6201 10.9004 61.3776 10.5452 62.2217 10.4177C62.9605 10.3057 63.7103 10.3015 64.4387 10.4702C65.6759 10.7573 66.6174 11.47 67.226 12.5942C67.6943 13.4591 67.9316 14.3857 67.9161 15.3768C67.9107 15.7211 67.9544 16.0658 67.9776 16.4379H67.7061C65.3843 16.4379 63.063 16.4379 60.7412 16.4379C60.6579 16.4379 60.5745 16.442 60.4911 16.4443C60.4784 16.4566 60.4652 16.4685 60.4524 16.4809H60.452ZM60.6028 14.5343C60.611 14.5558 60.6196 14.5768 60.6278 14.5983H65.4955C65.4641 14.4004 65.4404 14.2248 65.4076 14.0511C65.3055 13.5144 65.0318 13.0874 64.5776 12.7843C63.8606 12.3057 63.058 12.2879 62.2927 12.5352C61.3544 12.8383 60.8332 13.5843 60.6032 14.5343H60.6028Z" fill="white"/>
<path d="M72.2272 10.594V11.6313C72.5064 11.3986 72.7533 11.1609 73.0312 10.968C73.6101 10.5662 74.2529 10.3627 74.9676 10.3595C75.5843 10.3568 76.192 10.3883 76.7596 10.6439C77.7125 11.0727 78.2942 11.8183 78.5753 12.8222C78.7329 13.3854 78.7734 13.9546 78.7725 14.5338C78.7689 16.6861 78.7712 18.8379 78.7712 20.9901V21.2516H76.3319V21.0066C76.3319 18.9764 76.3391 16.9457 76.3268 14.9155C76.3237 14.4186 76.2603 13.9217 76.0171 13.4691C75.7283 12.931 75.2637 12.6814 74.6733 12.6485C74.2538 12.6252 73.8434 12.6508 73.4534 12.8515C72.8699 13.1518 72.4923 13.6149 72.3347 14.2435C72.2641 14.5246 72.2395 14.8236 72.2381 15.1144C72.2299 17.0765 72.234 19.0381 72.234 21.0002V21.2548H69.7983V10.5502C70.6023 10.5502 71.3968 10.5502 72.1912 10.5502C72.203 10.5648 72.2153 10.5799 72.2272 10.5945V10.594Z" fill="white"/>
<path d="M98.62 21.2987H96.0322V6.64648H98.62V21.2982V21.2987Z" fill="white"/>
</g>
<defs>
<clipPath id="clip0_1938_4512">
<rect width="98.62" height="27.2568" fill="white" transform="translate(0 0.826172)"/>
</clipPath>
</defs>
</svg>
