<svg width="51" height="50" viewBox="0 0 51 50" fill="none" xmlns="http://www.w3.org/2000/svg">
<path d="M23.5872 1.13596C24.5528 0.129516 26.1621 0.129514 27.1277 1.13596L31.9222 6.13328C32.4909 6.72607 33.2819 7.05369 34.1032 7.03668L41.027 6.89327C42.4215 6.86438 43.5594 8.00234 43.5306 9.39678L43.3871 16.3206C43.3701 17.142 43.6978 17.9329 44.2906 18.5016L49.2879 23.2962C50.2943 24.2617 50.2943 25.8711 49.2879 26.8367L44.2906 31.6312C43.6978 32.1999 43.3701 32.9908 43.3871 33.8122L43.5306 40.736C43.5594 42.1305 42.4215 43.2684 41.0271 43.2395L34.1032 43.0961C33.2819 43.0791 32.4909 43.4067 31.9222 43.9995L27.1277 48.9969C26.1621 50.0033 24.5528 50.0033 23.5872 48.9969L18.7927 43.9995C18.2239 43.4067 17.433 43.0791 16.6117 43.0961L9.6878 43.2395C8.29336 43.2684 7.1554 42.1305 7.18428 40.736L7.3277 33.8122C7.34471 32.9908 7.01709 32.1999 6.42429 31.6312L1.42697 26.8367C0.420531 25.8711 0.42053 24.2617 1.42697 23.2962L6.42429 18.5016C7.01709 17.9329 7.34471 17.142 7.3277 16.3206L7.18428 9.39678C7.1554 8.00234 8.29335 6.86438 9.68779 6.89327L16.6117 7.03668C17.433 7.05369 18.2239 6.72608 18.7927 6.13328L23.5872 1.13596Z" stroke="white" stroke-width="0.484907"/>
<path d="M23.4122 0.968105C24.4732 -0.137804 26.2416 -0.137807 27.3026 0.968102L32.0971 5.96542C32.6189 6.5093 33.3446 6.80989 34.0982 6.79428L41.022 6.65086C42.5543 6.61913 43.8047 7.86955 43.773 9.4018L43.6296 16.3257C43.6139 17.0792 43.9145 17.8049 44.4584 18.3267L49.4557 23.1212C50.5616 24.1822 50.5616 25.9506 49.4557 27.0116L44.4584 31.8061C43.9145 32.3279 43.6139 33.0536 43.6296 33.8071L43.773 40.731C43.8047 42.2633 42.5543 43.5137 41.022 43.4819L34.0982 43.3385C33.3446 43.3229 32.6189 43.6235 32.0971 44.1674L27.3026 49.1647C26.2416 50.2706 24.4732 50.2706 23.4122 49.1647L18.6177 44.1674C18.0959 43.6235 17.3702 43.3229 16.6167 43.3385L9.69282 43.4819C8.16057 43.5137 6.91014 42.2633 6.94188 40.731L7.08529 33.8071C7.1009 33.0536 6.80032 32.3279 6.25644 31.8061L1.25912 27.0116C0.153212 25.9506 0.153209 24.1822 1.25912 23.1212L6.25644 18.3267C6.80032 17.8049 7.1009 17.0792 7.08529 16.3257L6.94188 9.4018C6.91014 7.86955 8.16056 6.61913 9.69282 6.65086L16.6167 6.79428C17.3702 6.80989 18.0959 6.5093 18.6177 5.96543L23.4122 0.968105Z" fill="#FFB900"/>
<path d="M32.7171 21.6235L32.8339 21.4111C32.3968 21.1706 31.8684 21.0574 31.2605 21.0574H28.4355H28.193V21.2998V28.8331V29.0755H28.4355H29.8002H30.0426V28.8331V26.5301H31.2421C31.852 26.5301 32.3832 26.4182 32.8244 26.1812L32.8255 26.1807C33.2614 25.9439 33.5968 25.6156 33.824 25.1968C34.0492 24.7816 34.1587 24.3118 34.1587 23.7937C34.1587 23.2805 34.0492 22.8135 33.8245 22.3989C33.6 21.9777 33.2672 21.6479 32.8334 21.4108L32.7171 21.6235ZM32.7171 21.6235C33.1119 21.8393 33.4098 22.136 33.6109 22.5137L28.6779 21.2998H31.2605C31.8392 21.2998 32.3247 21.4077 32.7171 21.6235ZM18.519 21.2237L18.464 21.0574H18.2888H16.7917H16.4494L16.5631 21.3803L19.2151 28.9136L19.2721 29.0755H19.4438H21.1285H21.3001L21.3572 28.9137L24.0129 21.3804L24.1268 21.0574H23.7843H22.2835H22.1082L22.0533 21.2238L20.2878 26.5732L18.519 21.2237ZM26.3836 21.2998V21.0574H26.1412H24.7765H24.5341V21.2998V28.8331V29.0755H24.7765H26.1412H26.3836V28.8331V21.2998ZM31.0581 24.9233H30.0426V22.6825H31.0508C31.3666 22.6825 31.602 22.7363 31.7716 22.8268L31.7715 22.8269L31.7745 22.8284C31.9511 22.9197 32.0731 23.0424 32.1513 23.1969L32.1513 23.197L32.1524 23.199C32.2372 23.3628 32.2834 23.5588 32.2834 23.7937C32.2834 24.0286 32.2372 24.2263 32.1518 24.3932L32.1508 24.3952C32.0714 24.5539 31.9488 24.6806 31.7734 24.7763C31.6041 24.8687 31.3705 24.9233 31.0581 24.9233Z" fill="white" stroke="white" stroke-width="0.484907"/>
</svg>
