<svg width="40" height="39" viewBox="0 0 40 39" fill="none" xmlns="http://www.w3.org/2000/svg">
<circle cx="19.9999" cy="19.3542" r="19.2552" fill="black" fill-opacity="0.2"/>
<path d="M18.7409 11.1737L18.3873 10.8202L18.3873 10.8202L18.7409 11.1737ZM18.7409 27.5348L18.3873 27.8884L18.3873 27.8884L18.7409 27.5348ZM14.9513 23.7453L15.3049 23.3918L14.9513 23.7453ZM14.9514 14.9632L14.5978 14.6097L14.9514 14.9632ZM18.3873 10.8202L14.5978 14.6097L15.3049 15.3168L19.0944 11.5273L18.3873 10.8202ZM20.5001 11.6953C20.5001 10.5927 19.167 10.0405 18.3873 10.8202L19.0944 11.5273C19.2441 11.3775 19.5001 11.4836 19.5001 11.6953H20.5001ZM20.5001 27.0132V11.6953H19.5001V27.0132H20.5001ZM18.3873 27.8884C19.167 28.6681 20.5001 28.1159 20.5001 27.0132H19.5001C19.5001 27.225 19.2441 27.331 19.0944 27.1813L18.3873 27.8884ZM14.5978 24.0989L18.3873 27.8884L19.0944 27.1813L15.3049 23.3918L14.5978 24.0989ZM14.4297 23.0292H10.7155V24.0292H14.4297V23.0292ZM10.7155 23.0292C10.1769 23.0292 9.74023 22.5926 9.74023 22.0539H8.74023C8.74023 23.1449 9.62461 24.0292 10.7155 24.0292V23.0292ZM9.74023 22.0539V16.6546H8.74023V22.0539H9.74023ZM9.74023 16.6546C9.74023 16.1159 10.1769 15.6793 10.7155 15.6793V14.6793C9.62461 14.6793 8.74023 15.5636 8.74023 16.6546H9.74023ZM10.7155 15.6793H14.4298V14.6793H10.7155V15.6793ZM15.3049 23.3918C15.0728 23.1596 14.758 23.0292 14.4297 23.0292V24.0292C14.4928 24.0292 14.5532 24.0543 14.5978 24.0989L15.3049 23.3918ZM14.5978 14.6097C14.5533 14.6542 14.4928 14.6793 14.4298 14.6793V15.6793C14.758 15.6793 15.0728 15.5489 15.3049 15.3168L14.5978 14.6097Z" fill="black"/>
<path d="M24.4021 14.8538C26.8335 17.2852 26.8335 21.2272 24.4021 23.6585M27.6392 11.6169C31.8582 15.836 31.8582 22.6763 27.6392 26.8954" stroke="black"/>
</svg>
