<svg width="106" height="98" viewBox="0 0 106 98" fill="none" xmlns="http://www.w3.org/2000/svg">
<g style="mix-blend-mode:screen">
<path d="M32.7052 80.6115L34.4651 80.535C34.5416 82.0348 35.6282 82.7081 36.9749 82.7081C38.1686 82.7081 38.9338 82.2337 38.9338 81.4226C38.9338 80.688 38.3523 80.4126 37.3422 80.2136L35.5058 79.8769C34.006 79.6015 32.9653 78.7751 32.9653 77.1835C32.9653 75.3776 34.3886 74.2145 36.6382 74.2145C39.1634 74.2145 40.5866 75.5153 40.6172 77.6579L38.8573 77.7191C38.7961 76.403 37.9391 75.7143 36.6229 75.7143C35.4905 75.7143 34.8477 76.2193 34.8477 77.0457C34.8477 77.7497 35.3527 77.9946 36.225 78.1629L38.0003 78.4843C39.8979 78.8363 40.7856 79.7392 40.7856 81.3002C40.7856 83.1978 39.1481 84.2232 36.9749 84.2232C34.4957 84.2232 32.7052 82.9377 32.7052 80.6115ZM43.803 80.535V80.7951C43.803 82.0348 44.5376 82.7846 45.5783 82.7846C46.7414 82.7846 47.3382 81.9429 47.3382 80.6727C47.3382 79.3872 46.7414 78.5455 45.5783 78.5455C44.5376 78.5455 43.803 79.3107 43.803 80.535ZM43.8183 82.754V86.5494H41.9819V77.2906H43.8183V78.5914C44.1244 77.765 44.9355 77.1069 46.1445 77.1069C48.134 77.1069 49.19 78.6832 49.19 80.6727C49.19 82.6622 48.134 84.2232 46.1445 84.2232C44.9355 84.2232 44.1244 83.5651 43.8183 82.754ZM55.3391 81.6828L56.8236 81.8358C56.4716 83.3356 55.3085 84.2232 53.5792 84.2232C51.4979 84.2232 49.9981 82.8918 49.9981 80.7645C49.9981 78.6373 51.5132 77.1069 53.5333 77.1069C55.737 77.1069 56.8695 78.6373 56.8695 80.4738V81.1318H51.8039C51.8651 82.1266 52.6456 82.8306 53.6404 82.8306C54.5433 82.8306 55.0789 82.448 55.3391 81.6828ZM51.8345 79.984H55.0789C55.0177 79.2036 54.5433 78.4537 53.518 78.4537C52.5079 78.4537 52.0029 79.1423 51.8345 79.984ZM59.8843 80.4279V84.0396H58.0479V77.2906H59.8843V78.3925C60.221 77.6273 61.078 77.1069 62.0881 77.1069C63.8939 77.1069 64.552 78.3312 64.552 79.831V84.0396H62.7155V80.1983C62.7155 79.1576 62.3023 78.5608 61.3994 78.5608C60.4659 78.5608 59.8843 79.2954 59.8843 80.4279ZM71.0176 80.7951V80.535C71.0176 79.3107 70.2677 78.5455 69.227 78.5455C68.0793 78.5455 67.4824 79.3872 67.4824 80.6727C67.4824 81.9429 68.0793 82.7846 69.227 82.7846C70.2677 82.7846 71.0176 82.0348 71.0176 80.7951ZM71.0023 84.0396V82.754C70.6962 83.5651 69.8698 84.2232 68.6761 84.2232C66.6713 84.2232 65.6307 82.6622 65.6307 80.6727C65.6307 78.6832 66.6713 77.1069 68.6761 77.1069C69.8698 77.1069 70.6962 77.765 71.0023 78.5914V74.3982H72.8387V84.0396H71.0023Z" fill="white"/>
<path d="M76.2191 13.9069L76.7503 14.4363L77.2798 13.9051L76.7486 13.3757L76.2191 13.9069ZM46.9979 46.0446H46.2479V46.7946H46.9979V46.0446ZM46.9979 28.8355V28.0855H46.2479V28.8355H46.9979ZM51.7499 46.7946H52.4999V45.2946H51.7499V46.7946ZM56.6058 40.335L57.3026 40.0577L56.6058 40.335ZM58.8779 46.0446L58.1811 46.3219L58.3692 46.7946H58.8779V46.0446ZM60.7787 46.7946H61.5287V45.2946H60.7787V46.7946ZM76.0324 37.4832C76.0324 50.0976 65.8064 60.3236 53.192 60.3236V61.8236C66.6348 61.8236 77.5324 50.926 77.5324 37.4832H76.0324ZM53.192 60.3236C40.5776 60.3236 30.3516 50.0976 30.3516 37.4832H28.8516C28.8516 50.926 39.7491 61.8236 53.192 61.8236V60.3236ZM30.3516 37.4832C30.3516 24.8688 40.5776 14.6428 53.192 14.6428V13.1428C39.7491 13.1428 28.8516 24.0403 28.8516 37.4832H30.3516ZM53.192 14.6428C65.8064 14.6428 76.0324 24.8688 76.0324 37.4832H77.5324C77.5324 24.0403 66.6348 13.1428 53.192 13.1428V14.6428ZM71.7297 10.4912L75.6897 14.4381L76.7486 13.3757L72.7886 9.42875L71.7297 10.4912ZM75.6879 13.3774L71.7279 17.3505L72.7903 18.4095L76.7503 14.4363L75.6879 13.3774ZM47.7479 46.0446V37.6859H46.2479V46.0446H47.7479ZM47.7479 37.6859V28.8355H46.2479V37.6859H47.7479ZM46.9979 46.7946H51.7499V45.2946H46.9979V46.7946ZM55.9089 40.6124L58.1811 46.3219L59.5748 45.7673L57.3026 40.0577L55.9089 40.6124ZM58.8779 46.7946H60.7787V45.2946H58.8779V46.7946ZM54.9279 36.9359H52.7003V38.4359H54.9279V36.9359ZM52.7003 36.9359H46.9979V38.4359H52.7003V36.9359ZM46.9979 36.9359H42.2458V38.4359H46.9979V36.9359ZM52.7003 38.4359C54.1146 38.4359 55.386 39.2983 55.9089 40.6124L57.3026 40.0577C56.5525 38.1729 54.7289 36.9359 52.7003 36.9359V38.4359ZM58.6031 33.2607C58.6031 35.2904 56.9577 36.9359 54.9279 36.9359V38.4359C57.7861 38.4359 60.1031 36.1189 60.1031 33.2607H58.6031ZM60.1031 33.2607C60.1031 30.4025 57.7861 28.0855 54.9279 28.0855V29.5855C56.9577 29.5855 58.6031 31.2309 58.6031 33.2607H60.1031ZM53.192 61.8236C58.2777 61.8236 63.2358 60.2305 67.3697 57.2682L66.496 56.0489C62.6168 58.8287 57.9643 60.3236 53.192 60.3236V61.8236ZM67.3697 57.2682C71.5037 54.3059 74.6059 50.123 76.2406 45.3071L74.8202 44.825C73.2862 49.3441 70.3752 53.2691 66.496 56.0489L67.3697 57.2682ZM76.2406 45.3071C77.8754 40.4913 77.9606 35.2843 76.4843 30.4175L75.0489 30.853C76.4342 35.4198 76.3543 40.3059 74.8202 44.825L76.2406 45.3071ZM76.4843 30.4175C75.008 25.5508 72.0443 21.2687 68.0095 18.1726L67.0963 19.3627C70.8825 22.2679 73.6635 26.2861 75.0489 30.853L76.4843 30.4175ZM68.0095 18.1726C63.9752 15.077 58.8329 13.1428 53.192 13.1428V14.6428C58.4851 14.6428 63.3097 16.4571 67.0963 19.3627L68.0095 18.1726ZM53.192 13.1428C48.5381 13.1428 43.8965 14.4202 39.6692 17.2449L40.5025 18.4921C44.4719 15.8398 48.8209 14.6428 53.192 14.6428V13.1428ZM39.6692 17.2449C35.4405 20.0704 32.2031 24.1495 30.4116 28.9093L31.8155 29.4376C33.4966 24.9712 36.5345 21.1434 40.5025 18.4921L39.6692 17.2449ZM30.4116 28.9093C28.6202 33.6691 28.3647 38.8705 29.6809 43.7829L31.1298 43.3947C29.8947 38.785 30.1344 33.9041 31.8155 29.4376L30.4116 28.9093ZM46.9979 29.5855H54.9279V28.0855H46.9979V29.5855ZM76.2196 13.1569L53.1924 13.1428L53.1915 14.6428L76.2187 14.6569L76.2196 13.1569Z" fill="white"/>
</g>
</svg>
