<svg width="141" height="130" viewBox="0 0 141 130" fill="none" xmlns="http://www.w3.org/2000/svg">
<g style="mix-blend-mode:screen">
<path d="M44.098 110.426V112.541H34.5158V99.7244H43.9149V101.84H37.0182V104.953H42.4298V107.048H37.0182V110.426H44.098ZM51.1502 108.656V108.432L49.4616 108.798C48.4037 109.022 47.651 109.205 47.651 110.1C47.651 110.71 48.1189 111.077 48.892 111.077C50.1737 111.077 51.1502 110.1 51.1502 108.656ZM53.5305 106.784V110.364C53.5305 110.832 53.7746 111.056 54.1612 111.056C54.4053 111.056 54.6494 110.995 54.9139 110.873V112.175C54.5274 112.48 54.0391 112.745 53.2253 112.745C52.2081 112.745 51.5571 112.155 51.3333 111.178C50.8247 112.216 49.604 112.765 48.2816 112.765C46.4099 112.765 45.2707 111.829 45.2707 110.283C45.2707 108.574 46.6541 107.862 48.6885 107.455L51.1502 106.967V106.764C51.1502 105.767 50.6212 105.156 49.5837 105.156C48.5665 105.156 48.0172 105.767 47.8137 106.641L45.5962 106.438C45.9013 104.607 47.3051 103.325 49.6854 103.325C52.0047 103.325 53.5305 104.424 53.5305 106.784ZM62.2752 103.692L62.0921 105.97C61.6242 105.706 61.2173 105.584 60.6273 105.584C59.366 105.584 58.5115 106.479 58.5115 108.106V112.541H56.0702V103.569H58.5115V105.278C58.837 104.261 59.7729 103.325 61.0139 103.325C61.5632 103.325 62.0108 103.468 62.2752 103.692ZM65.8625 107.74V112.541H63.4212V103.569H65.8625V105.034C66.3101 104.017 67.4494 103.325 68.7921 103.325C71.1928 103.325 72.0676 104.953 72.0676 106.947V112.541H69.6262V107.435C69.6262 106.051 69.0769 105.258 67.8766 105.258C66.6356 105.258 65.8625 106.235 65.8625 107.74ZM74.0305 103.569H76.4718V112.541H74.0305V103.569ZM73.9898 102.105V99.7244H76.4921V102.105H73.9898ZM80.9619 107.74V112.541H78.5205V103.569H80.9619V105.034C81.4094 104.017 82.5487 103.325 83.8915 103.325C86.2921 103.325 87.1669 104.953 87.1669 106.947V112.541H84.7256V107.435C84.7256 106.051 84.1763 105.258 82.976 105.258C81.735 105.258 80.9619 106.235 80.9619 107.74ZM97.0438 106.397C97.0438 108.269 95.3349 109.429 92.9749 109.429C92.2425 109.429 91.5712 109.327 91.0015 109.103C90.7777 109.246 90.6353 109.469 90.6353 109.754C90.6353 110.161 90.8998 110.426 91.5712 110.426H95.1518C97.1455 110.426 98.1627 111.504 98.1627 112.948C98.1627 115.186 95.5587 116.122 92.7715 116.122C90.2895 116.122 88.1736 115.491 88.1736 113.823C88.1736 112.908 88.906 112.256 89.9639 112.114C89.1502 111.85 88.7229 111.199 88.7229 110.466C88.7229 109.652 89.2926 109.042 90.1674 108.696C89.3943 108.167 88.9264 107.374 88.9264 106.397C88.9264 104.485 90.615 103.325 92.9749 103.325C94.0735 103.325 95.0907 103.61 95.8231 104.119C96.3317 103.407 97.2269 102.837 98.2034 102.837V104.79C97.7152 104.79 97.1252 104.871 96.6573 105.034C96.9014 105.421 97.0438 105.889 97.0438 106.397ZM90.3912 113.457C90.3912 114.271 91.327 114.637 92.7715 114.637C94.5618 114.637 95.8638 114.23 95.8638 113.355C95.8638 112.765 95.3756 112.541 94.5618 112.541H91.5712C90.9201 112.541 90.3912 112.806 90.3912 113.457ZM94.5618 106.397C94.5618 105.36 93.9311 104.81 92.9953 104.81C92.0798 104.81 91.4491 105.36 91.4491 106.397C91.4491 107.435 92.0798 107.984 92.9953 107.984C93.9311 107.984 94.5618 107.435 94.5618 106.397ZM98.5914 109.571L100.707 109.49C100.85 110.568 101.663 111.117 102.904 111.117C103.8 111.117 104.532 110.812 104.532 110.161C104.532 109.551 104.125 109.286 103.23 109.144L101.806 108.9C99.8934 108.595 98.8355 107.882 98.8355 106.214C98.8355 104.505 100.28 103.325 102.559 103.325C105.041 103.325 106.526 104.444 106.688 106.438L104.674 106.519C104.512 105.502 103.82 104.994 102.538 104.994C101.663 104.994 101.094 105.38 101.094 105.99C101.094 106.479 101.419 106.764 102.07 106.865L103.779 107.15C105.671 107.455 106.79 108.249 106.79 109.937C106.79 111.768 105.203 112.785 102.884 112.785C100.544 112.785 98.7542 111.768 98.5914 109.571Z" fill="white"/>
<path d="M62.2017 61.1515H61.2017V62.1515H62.2017V61.1515ZM62.2017 38.2742V37.2742H61.2017V38.2742H62.2017ZM68.5189 62.1515H69.5189V60.1515H68.5189V62.1515ZM74.9742 53.5614L74.0451 53.9312L74.0451 53.9312L74.9742 53.5614ZM77.9947 61.1515L77.0656 61.5213L77.3164 62.1515H77.9947V61.1515ZM80.5216 62.1515H81.5216V60.1515H80.5216V62.1515ZM100.442 40.668L99.4854 40.9583L99.4854 40.9583L100.442 40.668ZM89.5233 24.8916L88.9146 25.685L88.9146 25.685L89.5233 24.8916ZM53.0095 23.6963L52.4539 22.8648L52.4539 22.8648L53.0095 23.6963ZM41.082 38.7248L42.0179 39.077L42.0179 39.077L41.082 38.7248ZM39.3645 54.0455L38.7159 54.8066L39.477 55.4552L40.1256 54.6942L39.3645 54.0455ZM45.0874 48.8728C45.4457 48.4524 45.3954 47.8213 44.975 47.463C44.5547 47.1048 43.9235 47.1551 43.5653 47.5754L45.0874 48.8728ZM34.507 48.592C34.0867 48.2338 33.4555 48.2842 33.0973 48.7045C32.7391 49.1249 32.7894 49.756 33.2098 50.1143L34.507 48.592ZM63.2017 61.1515V50.0397H61.2017V61.1515H63.2017ZM63.2017 50.0397V38.2742H61.2017V50.0397H63.2017ZM62.2017 62.1515H68.5189V60.1515H62.2017V62.1515ZM74.0451 53.9312L77.0656 61.5213L78.9239 60.7818L75.9033 53.1917L74.0451 53.9312ZM77.9947 62.1515H80.5216V60.1515H77.9947V62.1515ZM72.7437 49.0397H69.7824V51.0397H72.7437V49.0397ZM69.7824 49.0397H62.2017V51.0397H69.7824V49.0397ZM62.2017 49.0397H55.8845V51.0397H62.2017V49.0397ZM69.7824 51.0397C71.6613 51.0397 73.3503 52.1854 74.0451 53.9312L75.9033 53.1917C74.9057 50.6848 72.4804 49.0397 69.7824 49.0397V51.0397ZM77.6265 44.157C77.6265 46.8536 75.4404 49.0397 72.7437 49.0397V51.0397C76.545 51.0397 79.6265 47.9582 79.6265 44.157H77.6265ZM79.6265 44.157C79.6265 40.3557 76.545 37.2742 72.7437 37.2742V39.2742C75.4404 39.2742 77.6265 41.4603 77.6265 44.157H79.6265ZM70.4323 82.1318C77.1938 82.1318 83.7855 80.0139 89.2815 76.0755L88.1166 74.4498C82.9602 78.1448 76.7759 80.1318 70.4323 80.1318V82.1318ZM89.2815 76.0755C94.7776 72.1371 98.9019 66.576 101.075 60.1734L99.1815 59.5305C97.1424 65.5374 93.273 70.7548 88.1166 74.4498L89.2815 76.0755ZM101.075 60.1734C103.249 53.7707 103.362 46.8481 101.399 40.3777L99.4854 40.9583C101.327 47.0288 101.221 53.5235 99.1815 59.5305L101.075 60.1734ZM101.399 40.3777C99.4365 33.9074 95.4963 28.2144 90.1321 24.0982L88.9146 25.685C93.9473 29.5467 97.644 34.8879 99.4854 40.9583L101.399 40.3777ZM90.1321 24.0982C84.7678 19.9821 78.249 17.6496 71.4911 17.4284L71.4257 19.4273C77.7659 19.6349 83.8818 21.8232 88.9146 25.685L90.1321 24.0982ZM71.4911 17.4284C64.7333 17.2072 58.0759 19.1083 52.4539 22.8648L53.565 24.5277C58.8396 21.0034 65.0855 19.2198 71.4257 19.4273L71.4911 17.4284ZM52.4539 22.8648C46.8319 26.6213 42.5278 32.0444 40.1461 38.3725L42.0179 39.077C44.2524 33.14 48.2905 28.052 53.565 24.5277L52.4539 22.8648ZM40.1461 38.3725C38.2417 43.4324 37.6428 48.8677 38.3739 54.1818L40.3552 53.9092C39.6693 48.9235 40.2312 43.8242 42.0179 39.077L40.1461 38.3725ZM43.5653 47.5754L38.6035 53.3968L40.1256 54.6942L45.0874 48.8728L43.5653 47.5754ZM40.0132 53.2844L34.507 48.592L33.2098 50.1143L38.7159 54.8066L40.0132 53.2844ZM62.2017 39.2742H72.7437V37.2742H62.2017V39.2742Z" fill="white"/>
</g>
</svg>
