<svg width="198" height="161" viewBox="0 0 198 161" fill="none" xmlns="http://www.w3.org/2000/svg">
<path d="M104.642 56.947V71.4133C104.642 80.1985 97.4799 87.2989 88.6951 87.2228L46.508 86.8576C38.6139 86.7893 32.178 93.1697 32.178 101.064V101.064C32.178 108.91 38.5387 115.271 46.385 115.271H151.225C159.261 115.271 165.776 121.786 165.776 129.822V129.822C165.776 137.859 159.261 144.373 151.225 144.373H105.566" stroke="white" stroke-width="2.37152" stroke-dasharray="2.37 4.74"/>
<path d="M104.642 56.947V71.4133C104.642 80.1985 97.4799 87.2989 88.6951 87.2228L46.508 86.8576C38.6139 86.7893 32.178 93.1697 32.178 101.064V101.064C32.178 108.91 38.5387 115.271 46.385 115.271H151.225C159.261 115.271 165.776 121.786 165.776 129.822V129.822C165.776 137.859 159.261 144.373 151.225 144.373H105.566" stroke="url(#paint0_linear_2094_63952)" stroke-width="2.37152" stroke-dasharray="2.37 4.74"/>
<mask id="path-2-inside-1_2094_63952" fill="white">
<path fill-rule="evenodd" clip-rule="evenodd" d="M120.698 74.2268L133.184 61.741L117.084 45.6408L133.184 29.5404L120.698 17.0546L104.598 33.155L88.4973 17.0546L76.0115 29.5404L92.1119 45.6408L76.0118 61.741L88.4976 74.2268L104.598 58.1267L120.698 74.2268Z"/>
</mask>
<path d="M133.184 61.741L134.244 62.8016L135.305 61.741L134.244 60.6803L133.184 61.741ZM120.698 74.2268L119.637 75.2875L120.698 76.3481L121.759 75.2875L120.698 74.2268ZM117.084 45.6408L116.023 44.5802L114.962 45.6408L116.023 46.7015L117.084 45.6408ZM133.184 29.5404L134.245 30.6011L135.305 29.5404L134.245 28.4798L133.184 29.5404ZM120.698 17.0546L121.759 15.994L120.698 14.9333L119.638 15.994L120.698 17.0546ZM104.598 33.155L103.537 34.2157L104.598 35.2763L105.658 34.2157L104.598 33.155ZM88.4973 17.0546L89.558 15.9939L88.4973 14.9333L87.4367 15.9939L88.4973 17.0546ZM76.0115 29.5404L74.9508 28.4797L73.8902 29.5404L74.9508 30.6011L76.0115 29.5404ZM92.1119 45.6408L93.1726 46.7015L94.2333 45.6408L93.1726 44.5802L92.1119 45.6408ZM76.0118 61.741L74.9511 60.6804L73.8904 61.741L74.9511 62.8017L76.0118 61.741ZM88.4976 74.2268L87.4369 75.2875L88.4976 76.3482L89.5583 75.2875L88.4976 74.2268ZM104.598 58.1267L105.658 57.066L104.598 56.0053L103.537 57.066L104.598 58.1267ZM132.123 60.6803L119.637 73.1661L121.759 75.2875L134.244 62.8016L132.123 60.6803ZM116.023 46.7015L132.123 62.8016L134.244 60.6803L118.144 44.5802L116.023 46.7015ZM132.123 28.4798L116.023 44.5802L118.144 46.7015L134.245 30.6011L132.123 28.4798ZM119.638 18.1153L132.123 30.6011L134.245 28.4798L121.759 15.994L119.638 18.1153ZM105.658 34.2157L121.759 18.1153L119.638 15.994L103.537 32.0944L105.658 34.2157ZM87.4367 18.1152L103.537 34.2157L105.658 32.0944L89.558 15.9939L87.4367 18.1152ZM77.0722 30.6011L89.558 18.1152L87.4367 15.9939L74.9508 28.4797L77.0722 30.6011ZM93.1726 44.5802L77.0722 28.4797L74.9508 30.6011L91.0513 46.7015L93.1726 44.5802ZM77.0724 62.8017L93.1726 46.7015L91.0513 44.5802L74.9511 60.6804L77.0724 62.8017ZM89.5583 73.1662L77.0724 60.6804L74.9511 62.8017L87.4369 75.2875L89.5583 73.1662ZM103.537 57.066L87.4369 73.1662L89.5583 75.2875L105.658 59.1873L103.537 57.066ZM121.759 73.1661L105.658 57.066L103.537 59.1873L119.637 75.2875L121.759 73.1661Z" fill="white" mask="url(#path-2-inside-1_2094_63952)"/>
<path d="M133.184 61.741L134.244 62.8016L135.305 61.741L134.244 60.6803L133.184 61.741ZM120.698 74.2268L119.637 75.2875L120.698 76.3481L121.759 75.2875L120.698 74.2268ZM117.084 45.6408L116.023 44.5802L114.962 45.6408L116.023 46.7015L117.084 45.6408ZM133.184 29.5404L134.245 30.6011L135.305 29.5404L134.245 28.4798L133.184 29.5404ZM120.698 17.0546L121.759 15.994L120.698 14.9333L119.638 15.994L120.698 17.0546ZM104.598 33.155L103.537 34.2157L104.598 35.2763L105.658 34.2157L104.598 33.155ZM88.4973 17.0546L89.558 15.9939L88.4973 14.9333L87.4367 15.9939L88.4973 17.0546ZM76.0115 29.5404L74.9508 28.4797L73.8902 29.5404L74.9508 30.6011L76.0115 29.5404ZM92.1119 45.6408L93.1726 46.7015L94.2333 45.6408L93.1726 44.5802L92.1119 45.6408ZM76.0118 61.741L74.9511 60.6804L73.8904 61.741L74.9511 62.8017L76.0118 61.741ZM88.4976 74.2268L87.4369 75.2875L88.4976 76.3482L89.5583 75.2875L88.4976 74.2268ZM104.598 58.1267L105.658 57.066L104.598 56.0053L103.537 57.066L104.598 58.1267ZM132.123 60.6803L119.637 73.1661L121.759 75.2875L134.244 62.8016L132.123 60.6803ZM116.023 46.7015L132.123 62.8016L134.244 60.6803L118.144 44.5802L116.023 46.7015ZM132.123 28.4798L116.023 44.5802L118.144 46.7015L134.245 30.6011L132.123 28.4798ZM119.638 18.1153L132.123 30.6011L134.245 28.4798L121.759 15.994L119.638 18.1153ZM105.658 34.2157L121.759 18.1153L119.638 15.994L103.537 32.0944L105.658 34.2157ZM87.4367 18.1152L103.537 34.2157L105.658 32.0944L89.558 15.9939L87.4367 18.1152ZM77.0722 30.6011L89.558 18.1152L87.4367 15.9939L74.9508 28.4797L77.0722 30.6011ZM93.1726 44.5802L77.0722 28.4797L74.9508 30.6011L91.0513 46.7015L93.1726 44.5802ZM77.0724 62.8017L93.1726 46.7015L91.0513 44.5802L74.9511 60.6804L77.0724 62.8017ZM89.5583 73.1662L77.0724 60.6804L74.9511 62.8017L87.4369 75.2875L89.5583 73.1662ZM103.537 57.066L87.4369 73.1662L89.5583 75.2875L105.658 59.1873L103.537 57.066ZM121.759 73.1661L105.658 57.066L103.537 59.1873L119.637 75.2875L121.759 73.1661Z" fill="url(#paint1_linear_2094_63952)" mask="url(#path-2-inside-1_2094_63952)"/>
<circle cx="99.0655" cy="144.558" r="7.09117" stroke="white" stroke-width="1.5"/>
<circle cx="99.0655" cy="144.558" r="7.09117" stroke="url(#paint2_linear_2094_63952)" stroke-width="1.5"/>
<defs>
<linearGradient id="paint0_linear_2094_63952" x1="39.261" y1="148.062" x2="125.068" y2="26.3037" gradientUnits="userSpaceOnUse">
<stop stop-color="#6630FF" stop-opacity="0"/>
<stop offset="0.494792" stop-color="#A7F9C3"/>
<stop offset="1" stop-color="#6630FF" stop-opacity="0.37"/>
</linearGradient>
<linearGradient id="paint1_linear_2094_63952" x1="79.0426" y1="76.6389" x2="138.464" y2="21.4622" gradientUnits="userSpaceOnUse">
<stop stop-color="#6630FF" stop-opacity="0"/>
<stop offset="0.494792" stop-color="#A7F9C3"/>
<stop offset="1" stop-color="#6630FF" stop-opacity="0.37"/>
</linearGradient>
<linearGradient id="paint2_linear_2094_63952" x1="92.0558" y1="153.061" x2="108.355" y2="137.926" gradientUnits="userSpaceOnUse">
<stop stop-color="#6630FF" stop-opacity="0"/>
<stop offset="0.494792" stop-color="#A7F9C3"/>
<stop offset="1" stop-color="#6630FF" stop-opacity="0.37"/>
</linearGradient>
</defs>
</svg>
