<svg width="198" height="161" viewBox="0 0 198 161" fill="none" xmlns="http://www.w3.org/2000/svg">
<path d="M99.4752 138.233C99.7681 137.94 99.7681 137.465 99.4752 137.173L94.7023 132.4C94.4094 132.107 93.9345 132.107 93.6416 132.4C93.3487 132.693 93.3487 133.167 93.6416 133.46L97.8842 137.703L93.6416 141.946C93.3487 142.238 93.3487 142.713 93.6416 143.006C93.9345 143.299 94.4094 143.299 94.7023 143.006L99.4752 138.233ZM65.6813 127.015L65.2445 127.625L65.6813 127.015ZM44.8686 98.9524L45.5788 98.7113H45.5788L44.8686 98.9524ZM44.2969 64.0186L43.5792 63.8009H43.5792L44.2969 64.0186ZM64.1804 35.2899L63.7238 34.6949L64.1804 35.2899ZM97.0764 23.5195L97.1009 24.2691L97.0764 23.5195ZM130.672 33.1132L130.255 33.7368L130.672 33.1132ZM152.392 60.48L151.69 60.7441L152.392 60.48ZM154.106 95.3763L154.828 95.5801L154.83 95.5704L154.106 95.3763ZM138.841 87.3679L138.102 87.2432L138.101 87.2471L138.841 87.3679ZM93.74 71.5533L94.4531 71.7859L93.74 71.5533ZM79.8543 76.3276L80.294 75.72L79.8543 76.3276ZM89.3967 84.8696L90.1097 85.1021L89.3967 84.8696ZM88.7008 82.7303L88.2611 83.3379L88.7008 82.7303ZM88.9499 97.3778L89.3896 97.9854L88.9499 97.3778ZM86.0146 95.2386L85.3016 95.006L86.0146 95.2386ZM100.064 90.9546L100.504 90.347H100.504L100.064 90.9546ZM97.8247 90.9546L97.3849 90.347L97.8247 90.9546ZM111.874 95.2386L112.587 95.006L111.874 95.2386ZM108.939 97.3778L108.499 97.9854L108.939 97.3778ZM109.188 82.7303L108.748 82.1228L109.188 82.7303ZM108.492 84.8696L107.779 85.1021L108.492 84.8696ZM118.034 76.3276L118.474 76.9351L118.034 76.3276ZM104.149 71.5533L103.436 71.7859L104.149 71.5533ZM100.76 61.1638L101.473 60.9312L100.76 61.1638ZM97.1288 61.1638L96.4157 60.9312L97.1288 61.1638ZM137.599 107.65H136.849V108.4H137.599V107.65ZM137.599 96.2988V95.5488H136.849V96.2988H137.599ZM140.733 108.4H141.483V106.9H140.733V108.4ZM143.936 103.884L143.24 104.161L143.936 103.884ZM145.435 107.65L144.738 107.927L144.926 108.4H145.435V107.65ZM146.689 108.4H147.439V106.9H146.689V108.4ZM134.465 101.387H133.715V102.887H134.465V101.387ZM153.926 96.0133L153.249 96.3363L153.926 96.0133ZM98.9449 136.953C87.1695 136.953 75.6898 133.264 66.1182 126.406L65.2445 127.625C75.0709 134.666 86.8561 138.453 98.9449 138.453V136.953ZM66.1182 126.406C56.5466 119.547 49.3638 109.862 45.5788 98.7113L44.1584 99.1934C48.0442 110.641 55.4181 120.583 65.2445 127.625L66.1182 126.406ZM45.5788 98.7113C41.7937 87.5608 41.5964 75.5047 45.0146 64.2363L43.5792 63.8009C40.07 75.3692 40.2725 87.7462 44.1584 99.1935L45.5788 98.7113ZM45.0146 64.2363C48.4328 52.968 55.2949 43.0533 64.6369 35.8849L63.7238 34.6949C54.1331 42.0541 47.0884 52.2326 43.5792 63.8009L45.0146 64.2363ZM64.6369 35.8849C73.979 28.7165 85.3318 24.6544 97.1009 24.2691L97.0519 22.7699C84.9695 23.1654 73.3145 27.3356 63.7238 34.6949L64.6369 35.8849ZM97.1009 24.2691C108.87 23.8838 120.464 27.1947 130.255 33.7368L131.089 32.4896C121.037 25.7734 109.134 22.3743 97.0519 22.7699L97.1009 24.2691ZM130.255 33.7368C140.046 40.2788 147.542 49.7235 151.69 60.7441L153.094 60.2158C148.835 48.9018 141.14 39.2058 131.089 32.4896L130.255 33.7368ZM151.69 60.7441C155.838 71.7648 156.429 83.808 153.382 95.1822L154.83 95.5704C157.959 83.8935 157.352 71.5298 153.094 60.2158L151.69 60.7441ZM98.9443 120.307C77.0123 120.307 59.2329 102.528 59.2329 80.5957H57.7329C57.7329 103.356 76.1839 121.807 98.9443 121.807V120.307ZM59.2329 80.5957C59.2329 58.6637 77.0123 40.8843 98.9443 40.8843V39.3843C76.1839 39.3843 57.7329 57.8353 57.7329 80.5957H59.2329ZM98.9443 40.8843C120.876 40.8843 138.656 58.6637 138.656 80.5957H140.156C140.156 57.8353 121.705 39.3843 98.9443 39.3843V40.8843ZM138.656 80.5957C138.656 82.8614 138.466 85.0822 138.102 87.2432L139.581 87.4925C139.959 85.2494 140.156 82.9452 140.156 80.5957H138.656ZM127.906 107.766C120.661 115.486 110.366 120.307 98.9443 120.307V121.807C110.797 121.807 121.483 116.802 129 108.792L127.906 107.766ZM100.047 61.3964L103.436 71.7859L104.862 71.3207L101.473 60.9312L100.047 61.3964ZM105.964 73.6208H116.915V72.1208H105.964V73.6208ZM117.595 75.72L108.748 82.1228L109.628 83.3379L118.474 76.9351L117.595 75.72ZM107.779 85.1021L111.161 95.4711L112.587 95.006L109.205 84.637L107.779 85.1021ZM109.379 96.7702L100.504 90.347L99.6243 91.5621L108.499 97.9854L109.379 96.7702ZM97.3849 90.347L88.5102 96.7702L89.3896 97.9854L98.2644 91.5621L97.3849 90.347ZM86.7277 95.4711L90.1097 85.1021L88.6837 84.637L85.3016 95.006L86.7277 95.4711ZM89.1405 82.1228L80.294 75.72L79.4145 76.9351L88.2611 83.3379L89.1405 82.1228ZM80.9739 73.6208H91.9245V72.1208H80.9739V73.6208ZM94.4531 71.7859L97.8418 61.3964L96.4157 60.9312L93.027 71.3207L94.4531 71.7859ZM91.9245 73.6208C93.0756 73.6208 94.0961 72.8803 94.4531 71.7859L93.027 71.3207C92.8714 71.7979 92.4264 72.1208 91.9245 72.1208V73.6208ZM80.294 75.72C79.383 75.0607 79.8494 73.6208 80.9739 73.6208V72.1208C78.3949 72.1208 77.3253 75.423 79.4145 76.9351L80.294 75.72ZM90.1097 85.1021C90.4679 84.0039 90.0763 82.8 89.1405 82.1228L88.2611 83.3379C88.6691 83.6332 88.8399 84.1581 88.6837 84.637L90.1097 85.1021ZM88.5102 96.7702C87.6004 97.4287 86.3794 96.5388 86.7277 95.4711L85.3016 95.006C84.5029 97.4546 87.3032 99.4954 89.3896 97.9854L88.5102 96.7702ZM100.504 90.347C99.5732 89.6735 98.3155 89.6735 97.3849 90.347L98.2644 91.5621C98.6701 91.2685 99.2186 91.2685 99.6243 91.5621L100.504 90.347ZM111.161 95.4711C111.509 96.5388 110.288 97.4287 109.379 96.7702L108.499 97.9854C110.586 99.4954 113.386 97.4546 112.587 95.006L111.161 95.4711ZM108.748 82.1228C107.812 82.8 107.421 84.0039 107.779 85.1021L109.205 84.637C109.049 84.1581 109.22 83.6332 109.628 83.3379L108.748 82.1228ZM116.915 73.6208C118.039 73.6208 118.506 75.0607 117.595 75.72L118.474 76.9351C120.563 75.423 119.494 72.1208 116.915 72.1208V73.6208ZM103.436 71.7859C103.793 72.8803 104.813 73.6208 105.964 73.6208V72.1208C105.462 72.1208 105.017 71.7979 104.862 71.3207L103.436 71.7859ZM101.473 60.9312C100.675 58.4846 97.2138 58.4846 96.4157 60.9312L97.8418 61.3964C98.1898 60.3296 99.699 60.3296 100.047 61.3964L101.473 60.9312ZM154.52 101.973C154.52 109.21 148.654 115.077 141.417 115.077V116.577C149.482 116.577 156.02 110.039 156.02 101.973H154.52ZM141.417 115.077C134.18 115.077 128.313 109.21 128.313 101.973H126.813C126.813 110.039 133.351 116.577 141.417 116.577V115.077ZM138.349 107.65V102.137H136.849V107.65H138.349ZM138.349 102.137V96.2988H136.849V102.137H138.349ZM137.599 108.4H140.733V106.9H137.599V108.4ZM143.24 104.161L144.738 107.927L146.132 107.373L144.633 103.607L143.24 104.161ZM145.435 108.4H146.689V106.9H145.435V108.4ZM142.83 101.387H141.36V102.887H142.83V101.387ZM141.36 101.387H137.599V102.887H141.36V101.387ZM137.599 101.387H134.465V102.887H137.599V101.387ZM141.36 102.887C142.189 102.887 142.933 103.392 143.24 104.161L144.633 103.607C144.1 102.266 142.803 101.387 141.36 101.387V102.887ZM144.999 99.2178C144.999 100.416 144.028 101.387 142.83 101.387V102.887C144.856 102.887 146.499 101.244 146.499 99.2178H144.999ZM146.499 99.2178C146.499 97.1915 144.856 95.5488 142.83 95.5488V97.0488C144.028 97.0488 144.999 98.0199 144.999 99.2178H146.499ZM137.599 97.0488H142.83V95.5488H137.599V97.0488ZM128.313 101.973C128.313 95.6254 132.828 90.3302 138.822 89.1266L138.527 87.656C131.846 88.9975 126.813 94.8969 126.813 101.973H128.313ZM138.822 89.1266C139.66 88.9583 140.528 88.8699 141.417 88.8699V87.3699C140.428 87.3699 139.462 87.4683 138.527 87.656L138.822 89.1266ZM138.101 87.2471L137.934 88.2706L139.415 88.512L139.582 87.4886L138.101 87.2471ZM141.417 88.8699C146.634 88.8699 151.141 91.9193 153.249 96.3363L154.603 95.6902C152.255 90.7712 147.234 87.3699 141.417 87.3699V88.8699ZM153.249 96.3363C154.064 98.0429 154.52 99.9538 154.52 101.973H156.02C156.02 99.7255 155.512 97.5943 154.603 95.6902L153.249 96.3363ZM153.384 95.1725L153.204 95.8095L154.648 96.217L154.828 95.58L153.384 95.1725Z" fill="white"/>
<path d="M99.4752 138.233C99.7681 137.94 99.7681 137.465 99.4752 137.173L94.7023 132.4C94.4094 132.107 93.9345 132.107 93.6416 132.4C93.3487 132.693 93.3487 133.167 93.6416 133.46L97.8842 137.703L93.6416 141.946C93.3487 142.238 93.3487 142.713 93.6416 143.006C93.9345 143.299 94.4094 143.299 94.7023 143.006L99.4752 138.233ZM65.6813 127.015L65.2445 127.625L65.6813 127.015ZM44.8686 98.9524L45.5788 98.7113H45.5788L44.8686 98.9524ZM44.2969 64.0186L43.5792 63.8009H43.5792L44.2969 64.0186ZM64.1804 35.2899L63.7238 34.6949L64.1804 35.2899ZM97.0764 23.5195L97.1009 24.2691L97.0764 23.5195ZM130.672 33.1132L130.255 33.7368L130.672 33.1132ZM152.392 60.48L151.69 60.7441L152.392 60.48ZM154.106 95.3763L154.828 95.5801L154.83 95.5704L154.106 95.3763ZM138.841 87.3679L138.102 87.2432L138.101 87.2471L138.841 87.3679ZM93.74 71.5533L94.4531 71.7859L93.74 71.5533ZM79.8543 76.3276L80.294 75.72L79.8543 76.3276ZM89.3967 84.8696L90.1097 85.1021L89.3967 84.8696ZM88.7008 82.7303L88.2611 83.3379L88.7008 82.7303ZM88.9499 97.3778L89.3896 97.9854L88.9499 97.3778ZM86.0146 95.2386L85.3016 95.006L86.0146 95.2386ZM100.064 90.9546L100.504 90.347H100.504L100.064 90.9546ZM97.8247 90.9546L97.3849 90.347L97.8247 90.9546ZM111.874 95.2386L112.587 95.006L111.874 95.2386ZM108.939 97.3778L108.499 97.9854L108.939 97.3778ZM109.188 82.7303L108.748 82.1228L109.188 82.7303ZM108.492 84.8696L107.779 85.1021L108.492 84.8696ZM118.034 76.3276L118.474 76.9351L118.034 76.3276ZM104.149 71.5533L103.436 71.7859L104.149 71.5533ZM100.76 61.1638L101.473 60.9312L100.76 61.1638ZM97.1288 61.1638L96.4157 60.9312L97.1288 61.1638ZM137.599 107.65H136.849V108.4H137.599V107.65ZM137.599 96.2988V95.5488H136.849V96.2988H137.599ZM140.733 108.4H141.483V106.9H140.733V108.4ZM143.936 103.884L143.24 104.161L143.936 103.884ZM145.435 107.65L144.738 107.927L144.926 108.4H145.435V107.65ZM146.689 108.4H147.439V106.9H146.689V108.4ZM134.465 101.387H133.715V102.887H134.465V101.387ZM153.926 96.0133L153.249 96.3363L153.926 96.0133ZM98.9449 136.953C87.1695 136.953 75.6898 133.264 66.1182 126.406L65.2445 127.625C75.0709 134.666 86.8561 138.453 98.9449 138.453V136.953ZM66.1182 126.406C56.5466 119.547 49.3638 109.862 45.5788 98.7113L44.1584 99.1934C48.0442 110.641 55.4181 120.583 65.2445 127.625L66.1182 126.406ZM45.5788 98.7113C41.7937 87.5608 41.5964 75.5047 45.0146 64.2363L43.5792 63.8009C40.07 75.3692 40.2725 87.7462 44.1584 99.1935L45.5788 98.7113ZM45.0146 64.2363C48.4328 52.968 55.2949 43.0533 64.6369 35.8849L63.7238 34.6949C54.1331 42.0541 47.0884 52.2326 43.5792 63.8009L45.0146 64.2363ZM64.6369 35.8849C73.979 28.7165 85.3318 24.6544 97.1009 24.2691L97.0519 22.7699C84.9695 23.1654 73.3145 27.3356 63.7238 34.6949L64.6369 35.8849ZM97.1009 24.2691C108.87 23.8838 120.464 27.1947 130.255 33.7368L131.089 32.4896C121.037 25.7734 109.134 22.3743 97.0519 22.7699L97.1009 24.2691ZM130.255 33.7368C140.046 40.2788 147.542 49.7235 151.69 60.7441L153.094 60.2158C148.835 48.9018 141.14 39.2058 131.089 32.4896L130.255 33.7368ZM151.69 60.7441C155.838 71.7648 156.429 83.808 153.382 95.1822L154.83 95.5704C157.959 83.8935 157.352 71.5298 153.094 60.2158L151.69 60.7441ZM98.9443 120.307C77.0123 120.307 59.2329 102.528 59.2329 80.5957H57.7329C57.7329 103.356 76.1839 121.807 98.9443 121.807V120.307ZM59.2329 80.5957C59.2329 58.6637 77.0123 40.8843 98.9443 40.8843V39.3843C76.1839 39.3843 57.7329 57.8353 57.7329 80.5957H59.2329ZM98.9443 40.8843C120.876 40.8843 138.656 58.6637 138.656 80.5957H140.156C140.156 57.8353 121.705 39.3843 98.9443 39.3843V40.8843ZM138.656 80.5957C138.656 82.8614 138.466 85.0822 138.102 87.2432L139.581 87.4925C139.959 85.2494 140.156 82.9452 140.156 80.5957H138.656ZM127.906 107.766C120.661 115.486 110.366 120.307 98.9443 120.307V121.807C110.797 121.807 121.483 116.802 129 108.792L127.906 107.766ZM100.047 61.3964L103.436 71.7859L104.862 71.3207L101.473 60.9312L100.047 61.3964ZM105.964 73.6208H116.915V72.1208H105.964V73.6208ZM117.595 75.72L108.748 82.1228L109.628 83.3379L118.474 76.9351L117.595 75.72ZM107.779 85.1021L111.161 95.4711L112.587 95.006L109.205 84.637L107.779 85.1021ZM109.379 96.7702L100.504 90.347L99.6243 91.5621L108.499 97.9854L109.379 96.7702ZM97.3849 90.347L88.5102 96.7702L89.3896 97.9854L98.2644 91.5621L97.3849 90.347ZM86.7277 95.4711L90.1097 85.1021L88.6837 84.637L85.3016 95.006L86.7277 95.4711ZM89.1405 82.1228L80.294 75.72L79.4145 76.9351L88.2611 83.3379L89.1405 82.1228ZM80.9739 73.6208H91.9245V72.1208H80.9739V73.6208ZM94.4531 71.7859L97.8418 61.3964L96.4157 60.9312L93.027 71.3207L94.4531 71.7859ZM91.9245 73.6208C93.0756 73.6208 94.0961 72.8803 94.4531 71.7859L93.027 71.3207C92.8714 71.7979 92.4264 72.1208 91.9245 72.1208V73.6208ZM80.294 75.72C79.383 75.0607 79.8494 73.6208 80.9739 73.6208V72.1208C78.3949 72.1208 77.3253 75.423 79.4145 76.9351L80.294 75.72ZM90.1097 85.1021C90.4679 84.0039 90.0763 82.8 89.1405 82.1228L88.2611 83.3379C88.6691 83.6332 88.8399 84.1581 88.6837 84.637L90.1097 85.1021ZM88.5102 96.7702C87.6004 97.4287 86.3794 96.5388 86.7277 95.4711L85.3016 95.006C84.5029 97.4546 87.3032 99.4954 89.3896 97.9854L88.5102 96.7702ZM100.504 90.347C99.5732 89.6735 98.3155 89.6735 97.3849 90.347L98.2644 91.5621C98.6701 91.2685 99.2186 91.2685 99.6243 91.5621L100.504 90.347ZM111.161 95.4711C111.509 96.5388 110.288 97.4287 109.379 96.7702L108.499 97.9854C110.586 99.4954 113.386 97.4546 112.587 95.006L111.161 95.4711ZM108.748 82.1228C107.812 82.8 107.421 84.0039 107.779 85.1021L109.205 84.637C109.049 84.1581 109.22 83.6332 109.628 83.3379L108.748 82.1228ZM116.915 73.6208C118.039 73.6208 118.506 75.0607 117.595 75.72L118.474 76.9351C120.563 75.423 119.494 72.1208 116.915 72.1208V73.6208ZM103.436 71.7859C103.793 72.8803 104.813 73.6208 105.964 73.6208V72.1208C105.462 72.1208 105.017 71.7979 104.862 71.3207L103.436 71.7859ZM101.473 60.9312C100.675 58.4846 97.2138 58.4846 96.4157 60.9312L97.8418 61.3964C98.1898 60.3296 99.699 60.3296 100.047 61.3964L101.473 60.9312ZM154.52 101.973C154.52 109.21 148.654 115.077 141.417 115.077V116.577C149.482 116.577 156.02 110.039 156.02 101.973H154.52ZM141.417 115.077C134.18 115.077 128.313 109.21 128.313 101.973H126.813C126.813 110.039 133.351 116.577 141.417 116.577V115.077ZM138.349 107.65V102.137H136.849V107.65H138.349ZM138.349 102.137V96.2988H136.849V102.137H138.349ZM137.599 108.4H140.733V106.9H137.599V108.4ZM143.24 104.161L144.738 107.927L146.132 107.373L144.633 103.607L143.24 104.161ZM145.435 108.4H146.689V106.9H145.435V108.4ZM142.83 101.387H141.36V102.887H142.83V101.387ZM141.36 101.387H137.599V102.887H141.36V101.387ZM137.599 101.387H134.465V102.887H137.599V101.387ZM141.36 102.887C142.189 102.887 142.933 103.392 143.24 104.161L144.633 103.607C144.1 102.266 142.803 101.387 141.36 101.387V102.887ZM144.999 99.2178C144.999 100.416 144.028 101.387 142.83 101.387V102.887C144.856 102.887 146.499 101.244 146.499 99.2178H144.999ZM146.499 99.2178C146.499 97.1915 144.856 95.5488 142.83 95.5488V97.0488C144.028 97.0488 144.999 98.0199 144.999 99.2178H146.499ZM137.599 97.0488H142.83V95.5488H137.599V97.0488ZM128.313 101.973C128.313 95.6254 132.828 90.3302 138.822 89.1266L138.527 87.656C131.846 88.9975 126.813 94.8969 126.813 101.973H128.313ZM138.822 89.1266C139.66 88.9583 140.528 88.8699 141.417 88.8699V87.3699C140.428 87.3699 139.462 87.4683 138.527 87.656L138.822 89.1266ZM138.101 87.2471L137.934 88.2706L139.415 88.512L139.582 87.4886L138.101 87.2471ZM141.417 88.8699C146.634 88.8699 151.141 91.9193 153.249 96.3363L154.603 95.6902C152.255 90.7712 147.234 87.3699 141.417 87.3699V88.8699ZM153.249 96.3363C154.064 98.0429 154.52 99.9538 154.52 101.973H156.02C156.02 99.7255 155.512 97.5943 154.603 95.6902L153.249 96.3363ZM153.384 95.1725L153.204 95.8095L154.648 96.217L154.828 95.58L153.384 95.1725Z" fill="url(#paint0_linear_2094_63847)"/>
<defs>
<linearGradient id="paint0_linear_2094_63847" x1="47.8932" y1="142.521" x2="166.6" y2="32.294" gradientUnits="userSpaceOnUse">
<stop stop-color="#6630FF" stop-opacity="0"/>
<stop offset="0.494792" stop-color="#A7F9C3"/>
<stop offset="1" stop-color="#6630FF" stop-opacity="0.37"/>
</linearGradient>
</defs>
</svg>
