<svg width="198" height="161" viewBox="0 0 198 161" fill="none" xmlns="http://www.w3.org/2000/svg">
<path d="M29.956 122.365L39.0493 119.413C40.2675 119.047 41.5468 118.928 42.8117 119.064L52.144 120.071C55.0587 120.385 57.9556 119.338 59.9963 117.233L69.6028 107.325C70.2961 106.61 71.0975 106.008 71.9775 105.541L84.4607 98.9228C85.3798 98.4355 86.2128 97.8008 86.9266 97.0439L90.3045 93.4618C90.8295 92.9051 90.9432 92.8823 91.1004 92.6203M167.545 72.6092L165.103 72.6092C163.811 72.3961 161.415 71.477 159.995 71.8644L156.927 72.442C155.792 72.7292 154.614 72.8045 153.451 72.664L148.31 72.0428C147.165 71.9044 146.005 71.9753 144.885 72.252L128.136 76.392C127.255 76.6097 126.348 76.7003 125.441 76.6611L119.427 76.401C117.456 76.3157 115.507 76.8452 113.85 77.9161L100.636 86.4118M100.03 93.5076C97.9023 95.7642 94.3578 95.8778 92.1133 93.7613C89.8689 91.6449 89.7745 88.0998 91.9024 85.8432C94.0303 83.5866 97.5749 83.473 99.8193 85.5895C102.064 87.7059 102.158 91.251 100.03 93.5076ZM177.67 75.8462C175.542 78.1028 171.998 78.2164 169.753 76.0999C167.509 73.9834 167.415 70.4383 169.543 68.1817C171.67 65.9251 175.215 65.8115 177.459 67.928C179.704 70.0445 179.798 73.5896 177.67 75.8462ZM28.5419 127.761C26.414 130.018 22.8695 130.131 20.625 128.015C18.3806 125.898 18.2862 122.353 20.4141 120.097C22.5421 117.84 26.0866 117.726 28.331 119.843C30.5754 121.959 30.6699 125.504 28.5419 127.761ZM80.3253 47.1871C80.3253 38.7427 87.2336 31.8972 95.7554 31.8972C104.277 31.8972 111.185 38.7427 111.185 47.1871C111.828 57.066 97.0411 77.0719 95.7554 77.0719C94.4696 77.0719 79.6824 57.066 80.3253 47.1871ZM102.417 47.2025C102.417 50.6775 99.6125 53.4945 96.1534 53.4945C92.6943 53.4945 89.8902 50.6775 89.8902 47.2025C89.8902 43.7276 92.6943 40.9106 96.1534 40.9106C99.6125 40.9106 102.417 43.7276 102.417 47.2025Z" stroke="white" stroke-width="1.5" stroke-linecap="round"/>
<path d="M29.956 122.365L39.0493 119.413C40.2675 119.047 41.5468 118.928 42.8117 119.064L52.144 120.071C55.0587 120.385 57.9556 119.338 59.9963 117.233L69.6028 107.325C70.2961 106.61 71.0975 106.008 71.9775 105.541L84.4607 98.9228C85.3798 98.4355 86.2128 97.8008 86.9266 97.0439L90.3045 93.4618C90.8295 92.9051 90.9432 92.8823 91.1004 92.6203M167.545 72.6092L165.103 72.6092C163.811 72.3961 161.415 71.477 159.995 71.8644L156.927 72.442C155.792 72.7292 154.614 72.8045 153.451 72.664L148.31 72.0428C147.165 71.9044 146.005 71.9753 144.885 72.252L128.136 76.392C127.255 76.6097 126.348 76.7003 125.441 76.6611L119.427 76.401C117.456 76.3157 115.507 76.8452 113.85 77.9161L100.636 86.4118M100.03 93.5076C97.9023 95.7642 94.3578 95.8778 92.1133 93.7613C89.8689 91.6449 89.7745 88.0998 91.9024 85.8432C94.0303 83.5866 97.5749 83.473 99.8193 85.5895C102.064 87.7059 102.158 91.251 100.03 93.5076ZM177.67 75.8462C175.542 78.1028 171.998 78.2164 169.753 76.0999C167.509 73.9834 167.415 70.4383 169.543 68.1817C171.67 65.9251 175.215 65.8115 177.459 67.928C179.704 70.0445 179.798 73.5896 177.67 75.8462ZM28.5419 127.761C26.414 130.018 22.8695 130.131 20.625 128.015C18.3806 125.898 18.2862 122.353 20.4141 120.097C22.5421 117.84 26.0866 117.726 28.331 119.843C30.5754 121.959 30.6699 125.504 28.5419 127.761ZM80.3253 47.1871C80.3253 38.7427 87.2336 31.8972 95.7554 31.8972C104.277 31.8972 111.185 38.7427 111.185 47.1871C111.828 57.066 97.0411 77.0719 95.7554 77.0719C94.4696 77.0719 79.6824 57.066 80.3253 47.1871ZM102.417 47.2025C102.417 50.6775 99.6125 53.4945 96.1534 53.4945C92.6943 53.4945 89.8902 50.6775 89.8902 47.2025C89.8902 43.7276 92.6943 40.9106 96.1534 40.9106C99.6125 40.9106 102.417 43.7276 102.417 47.2025Z" stroke="url(#paint0_linear_2094_63967)" stroke-width="1.5" stroke-linecap="round"/>
<defs>
<linearGradient id="paint0_linear_2094_63967" x1="27.3781" y1="133.65" x2="120.701" y2="-8.65408" gradientUnits="userSpaceOnUse">
<stop stop-color="#6630FF" stop-opacity="0"/>
<stop offset="0.494792" stop-color="#A7F9C3"/>
<stop offset="1" stop-color="#6630FF" stop-opacity="0.37"/>
</linearGradient>
</defs>
</svg>
