<svg width="50" height="27" viewBox="0 0 50 27" fill="none" xmlns="http://www.w3.org/2000/svg">
<path fill-rule="evenodd" clip-rule="evenodd" d="M27.6846 26.7727C31.0098 26.7727 33.7054 24.1032 33.7054 20.8102C33.7054 17.5172 31.0098 14.8477 27.6846 14.8477C24.3594 14.8477 21.6638 17.5172 21.6638 20.8102C21.6638 24.1032 24.3594 26.7727 27.6846 26.7727ZM26.4641 25.1867C28.8547 25.1867 30.7927 23.2488 30.7927 20.8583C30.7927 18.4677 28.8547 16.5298 26.4641 16.5298C24.0735 16.5298 22.1355 18.4677 22.1355 20.8583C22.1355 23.2488 24.0735 25.1867 26.4641 25.1867Z" fill="#D8DCCB"/>
<path d="M42.7724 3.74073V7.8071C41.1992 5.9372 37.5661 5.57392 37.0734 6.20421C36.8216 6.52644 37.1336 6.88809 37.6967 7.00563C38.1838 7.10727 40.0416 7.39149 40.6649 7.56958C41.2882 7.74767 43.5441 8.5194 43.5441 10.8643C43.5441 13.2091 40.8727 14.4261 38.3497 14.4261C36.3314 14.4261 34.3625 13.7929 33.6303 13.4763V8.81622C34.7879 10.2706 36.682 10.6575 37.2515 10.7455C37.9185 10.8487 39.4197 10.8514 39.3886 10.2113C39.3698 9.82517 38.3473 9.80058 37.3406 9.64731C36.0049 9.43954 33.3335 8.52534 33.3335 6.53072C33.3335 4.03744 35.3222 2.64258 38.2904 2.64258C40.6649 2.64258 42.2678 3.37468 42.7724 3.74073Z" fill="#D8DCCB"/>
<path fill-rule="evenodd" clip-rule="evenodd" d="M8.22231 0H12.3778V14.1285H8.22231V11.6583C7.74474 13.0022 6.65357 14.4546 4.45267 14.4546C1.48448 14.4546 0.0256355 11.294 0.000383256 8.69634C-0.0235498 6.23437 1.06893 2.582 4.54173 2.582C6.87455 2.582 7.8917 4.312 8.22231 5.59305V0ZM8.22231 7.56555C7.93184 7.23137 7.42899 6.90952 6.56008 6.76701C5.05801 6.52067 3.94736 7.58024 3.94736 8.4709C3.94736 9.36156 4.4072 10.2685 5.90708 10.2992C7.10285 10.3236 7.84533 9.95756 8.22231 9.69044V7.56555ZM30.6914 5.4303C31.3187 5.43299 32.3623 5.49931 32.6208 5.75783V2.87869H30.6321V0.979051H27.5452C27.5155 1.69145 26.9871 3.11624 25.1113 3.11624L25.1706 5.43133H26.5359V9.70563H26.536C26.5433 13.2442 27.847 14.3953 29.6526 14.3953C31.2012 14.3953 32.2811 13.8094 32.7395 13.4158V9.8837C31.8285 11.324 30.6927 10.3586 30.6927 9.61657L30.6914 9.61659V5.4303Z" fill="#D8DCCB"/>
<ellipse cx="46.5718" cy="12.0817" rx="2.52297" ry="2.37463" fill="#D8DCCB"/>
<path fill-rule="evenodd" clip-rule="evenodd" d="M10.6013 21.7493V25.8583C9.39731 26.4081 8.33902 26.817 5.88343 26.7714C3.06978 26.7193 -0.234637 24.7625 0.100182 20.2272C0.435001 15.692 4.32255 14.9525 6.18779 14.9917C8.14662 15.0328 11.4536 15.9354 10.9666 21.1708H4.05712C4.12814 21.7795 4.81807 22.997 7.00962 22.997C9.20116 22.997 10.3172 22.1652 10.6013 21.7493ZM7.61843 19.8938C7.5197 19.4771 6.98874 18.7624 6.00407 18.7625C5.1642 18.7336 4.38591 19.0659 4.11804 19.8938H7.61843Z" fill="#D8DCCB"/>
<path d="M21.1322 15.9979V20.7767C20.4756 20.1103 19.3647 19.1196 17.9666 19.1026C16.4074 19.0837 15.5011 19.9549 15.5011 20.8985C15.5011 21.8421 16.1102 22.662 17.7231 22.6943C19.1245 22.7224 20.5957 21.9118 21.2539 21.2333V25.8903C20.8278 26.215 19.5129 26.8643 17.6623 26.8643C15.1764 26.8643 11.5442 25.2207 11.5442 20.9289C11.5442 16.6371 15.1968 15.1152 17.5405 15.1152C19.755 15.1152 20.7162 15.7037 21.1322 15.9979Z" fill="#D8DCCB"/>
<path fill-rule="evenodd" clip-rule="evenodd" d="M19.2276 14.4559C22.6793 14.4559 25.4776 11.8114 25.4776 8.54923C25.4776 5.28708 22.6793 2.64258 19.2276 2.64258C15.7758 2.64258 12.9775 5.28708 12.9775 8.54923C12.9775 11.8114 15.7758 14.4559 19.2276 14.4559ZM19.2276 10.4813C20.551 10.4813 21.6238 9.61603 21.6238 8.54873C21.6238 7.48143 20.551 6.61621 19.2276 6.61621C17.9042 6.61621 16.8314 7.48143 16.8314 8.54873C16.8314 9.61603 17.9042 10.4813 19.2276 10.4813Z" fill="#D8DCCB"/>
<ellipse cx="24.9786" cy="20.9234" rx="2.08094" ry="2.12453" fill="#D1E76D"/>
</svg>
