<svg width="51" height="51" viewBox="0 0 51 51" fill="none" xmlns="http://www.w3.org/2000/svg">
<path d="M27.2056 1.13836L32.014 6.15017C32.5842 6.74454 33.3773 7.07303 34.2008 7.05598L41.1447 6.91215C42.5436 6.88317 43.6852 8.02475 43.6562 9.42363L43.5124 16.3676C43.4953 17.1911 43.8238 17.9841 44.4182 18.5544L49.43 23.3628C50.4396 24.3315 50.4397 25.9459 49.43 26.9146L44.4182 31.723C43.8238 32.2932 43.4953 33.0863 43.5124 33.9098L43.6562 40.8537C43.6852 42.2526 42.5436 43.3942 41.1447 43.3652L34.2008 43.2214C33.3773 43.2043 32.5842 43.5328 32.014 44.1272L27.2056 49.139C26.2369 50.1486 24.6225 50.1486 23.6538 49.139L18.8454 44.1272C18.2751 43.5328 17.4821 43.2043 16.6586 43.2214L9.71465 43.3652C8.31577 43.3942 7.17419 42.2526 7.20316 40.8537L7.34699 33.9098C7.36405 33.0863 7.03556 32.2932 6.44119 31.723L1.42938 26.9146C0.41973 25.9459 0.419728 24.3315 1.42938 23.3628L6.44119 18.5544C7.03556 17.9841 7.36405 17.1911 7.34699 16.3676L7.20316 9.42364C7.17419 8.02475 8.31577 6.88317 9.71465 6.91215L16.6586 7.05598C17.4821 7.07303 18.2751 6.74454 18.8454 6.15017L23.6538 1.13836C24.6225 0.128714 26.2369 0.128712 27.2056 1.13836Z" stroke="white" stroke-width="0.484907"/>
<path d="M23.4788 0.970509C24.5429 -0.138605 26.3164 -0.138608 27.3805 0.970507L32.1889 5.98232C32.7123 6.52777 33.44 6.82923 34.1958 6.81357L41.1397 6.66974C42.6764 6.63791 43.9304 7.89196 43.8986 9.42865L43.7548 16.3726C43.7391 17.1283 44.0406 17.8561 44.586 18.3794L49.5979 23.1878C50.707 24.2519 50.707 26.0254 49.5979 27.0895L44.586 31.8979C44.0406 32.4212 43.7391 33.149 43.7548 33.9048L43.8986 40.8487C43.9304 42.3854 42.6764 43.6394 41.1397 43.6076L34.1958 43.4638C33.44 43.4481 32.7123 43.7496 32.1889 44.295L27.3805 49.3068C26.3164 50.416 24.5429 50.416 23.4788 49.3068L18.6704 44.295C18.1471 43.7496 17.4193 43.4481 16.6636 43.4638L9.71967 43.6076C8.18298 43.6394 6.92893 42.3854 6.96076 40.8487L7.10459 33.9048C7.12024 33.149 6.81879 32.4212 6.27333 31.8979L1.26152 27.0895C0.15241 26.0254 0.152407 24.2519 1.26152 23.1878L6.27333 18.3794C6.81879 17.8561 7.12024 17.1283 7.10459 16.3726L6.96076 9.42866C6.92893 7.89196 8.18297 6.63791 9.71967 6.66974L16.6636 6.81357C17.4193 6.82923 18.1471 6.52777 18.6704 5.98232L23.4788 0.970509Z" fill="#FFB900"/>
<path d="M28.2741 29.1589V28.9164V21.3613V21.1189H28.5166H31.3498C31.9591 21.1189 32.4887 21.2324 32.9269 21.4732L28.2741 29.1589ZM28.2741 29.1589H28.5166M28.2741 29.1589H28.5166M28.5166 29.1589H29.8852H30.1277V28.9164V26.6061M28.5166 29.1589L30.1277 26.6061M30.1277 26.6061H31.3313C31.943 26.6061 32.4755 26.4939 32.9179 26.2563L32.9189 26.2557C33.356 26.0183 33.6923 25.6892 33.9201 25.2692C34.1459 24.853 34.2557 24.382 34.2557 23.8625C34.2557 23.3478 34.1459 22.8796 33.9206 22.464C33.6956 22.0418 33.3621 21.7112 32.9274 21.4735L30.1277 26.6061ZM17.6989 21.2852L17.6439 21.1189H17.4687H15.9673H15.6249L15.7386 21.4418L18.3984 28.9969L18.4554 29.1589H18.6271H20.3166H20.4882L20.5453 28.997L23.2087 21.4419L23.3226 21.1189H22.9801H21.475H21.2997L21.2447 21.2853L19.4735 26.6523L17.6989 21.2852ZM26.4581 21.3613V21.1189H26.2156H24.847H24.6046V21.3613V28.9164V29.1589H24.847H26.2156H26.4581V28.9164V21.3613ZM31.1469 24.996H30.1277V22.7474H31.1395C31.4563 22.7474 31.6925 22.8013 31.8627 22.8922L31.8627 22.8922L31.8656 22.8937C32.0429 22.9853 32.1653 23.1086 32.2438 23.2637L32.2449 23.2657C32.33 23.4301 32.3763 23.6268 32.3763 23.8625C32.3763 24.0981 32.33 24.2965 32.2443 24.464L32.2433 24.466C32.1637 24.6253 32.0405 24.7525 31.8645 24.8486C31.6946 24.9412 31.4602 24.996 31.1469 24.996Z" fill="white" stroke="white" stroke-width="0.484907"/>
</svg>
