<svg width="44" height="31" viewBox="0 0 44 31" fill="none" xmlns="http://www.w3.org/2000/svg">
<path d="M23.613 16.1385C23.613 21.6613 19.2504 26.1387 13.8686 26.1387C8.48684 26.1387 4.12451 21.6627 4.12451 16.1385C4.12451 10.6143 8.48717 6.13867 13.8686 6.13867C19.2501 6.13867 23.613 10.6157 23.613 16.1385ZM34.3028 16.1385C34.3028 21.3376 32.1213 25.5519 29.4306 25.5519C26.7399 25.5519 24.5584 21.3362 24.5584 16.1385C24.5584 10.9408 26.7399 6.72515 29.4306 6.72515C32.1213 6.72515 34.3028 10.9408 34.3028 16.1385ZM38.6751 16.1385C38.6751 20.7966 37.9078 24.5725 36.9614 24.5725C36.0151 24.5725 35.2478 20.7953 35.2478 16.1385C35.2478 11.4817 36.0151 7.70453 36.9618 7.70453C37.9084 7.70453 38.6751 11.4807 38.6751 16.1385Z" fill="#555555"/>
</svg>
