<svg width="31" height="31" viewBox="0 0 31 31" fill="none" xmlns="http://www.w3.org/2000/svg">
<path d="M4.74395 16.0918C4.7596 11.1029 8.03758 6.98328 12.6416 6.09756C17.5547 5.15416 22.4012 8.2233 23.6882 13.2657C24.7052 17.2577 23.7429 20.7429 20.7935 23.5484C20.727 23.6102 20.6644 23.672 20.594 23.7255C20.4415 23.8368 20.4219 23.9521 20.5393 24.1169C20.8718 24.5824 21.216 25.0273 21.6776 25.361C22.1548 25.7071 22.6829 25.8348 23.2422 25.7112C23.8798 25.567 24.2593 25.1139 24.4079 24.463C24.4666 24.2117 24.5644 24.1457 24.7834 24.1581C25.0807 24.1746 25.3819 24.1705 25.6831 24.1581C25.8669 24.154 25.9217 24.2364 25.9139 24.4176C25.82 26.3539 24.8382 28.5908 22.1861 28.8875C20.0112 29.1264 18.4191 28.1871 17.2535 26.3127C17.1987 26.2262 17.1361 26.1397 17.097 26.0449C16.9796 25.7606 16.7997 25.7359 16.5259 25.8018C11.5229 27.0583 6.31644 23.7461 5.03342 18.5018C4.83392 17.6903 4.72831 16.8581 4.74395 16.0918ZM18.8612 21.1961C19.221 20.4545 19.3814 19.7171 19.5027 18.9673C19.7647 17.3401 19.7726 15.7005 19.6318 14.0608C19.5418 13.0144 19.3579 11.9804 18.9707 11.0041C18.3722 9.48803 17.3669 8.45812 15.8179 8.09147C14.883 7.86901 13.9364 7.86077 12.9976 8.08323C11.7224 8.38808 10.7718 9.15846 10.146 10.3655C9.81347 11.0041 9.59442 11.6838 9.44578 12.3924C9.06634 14.1803 9.07026 15.9888 9.18369 17.8015C9.26193 19.0374 9.4888 20.2444 9.99341 21.3815C11.1904 24.0881 13.7525 24.4053 15.7866 23.9398C15.9743 23.8986 15.9704 23.8079 15.8961 23.6679C15.5128 22.914 15.1216 22.1683 14.5309 21.5627C13.9285 20.9448 13.2049 20.6523 12.36 20.7017C12.1018 20.7141 11.8162 20.9654 11.6167 20.7965C11.4212 20.6317 11.3547 20.3021 11.2334 20.0426C11.0574 19.6636 11.0535 19.6636 11.3938 19.4246C12.3678 18.7449 13.4474 18.5389 14.5974 18.5513C16.2247 18.5719 17.4999 19.2846 18.4661 20.644C18.5834 20.8088 18.7047 20.9777 18.8612 21.2002V21.1961Z" fill="#555555"/>
</svg>
