<svg width="44" height="31" viewBox="0 0 44 31" fill="none" xmlns="http://www.w3.org/2000/svg">
<path d="M23.613 16.369C23.613 21.8918 19.2504 26.3691 13.8686 26.3691C8.48684 26.3691 4.12451 21.8931 4.12451 16.369C4.12451 10.8448 8.48717 6.36914 13.8686 6.36914C19.2501 6.36914 23.613 10.8461 23.613 16.369ZM34.3028 16.369C34.3028 21.568 32.1213 25.7823 29.4306 25.7823C26.7399 25.7823 24.5584 21.5667 24.5584 16.369C24.5584 11.1713 26.7399 6.95562 29.4306 6.95562C32.1213 6.95562 34.3028 11.1713 34.3028 16.369ZM38.6751 16.369C38.6751 21.0271 37.9078 24.8029 36.9614 24.8029C36.0151 24.8029 35.2478 21.0257 35.2478 16.369C35.2478 11.7122 36.0151 7.935 36.9618 7.935C37.9084 7.935 38.6751 11.7112 38.6751 16.369Z" fill="white"/>
</svg>
