<svg width="18" height="18" viewBox="0 0 18 18" fill="none" xmlns="http://www.w3.org/2000/svg">
<g clip-path="url(#clip0_2353_13020)">
<path d="M15.8862 0.535156H1.33876C0.693229 0.535156 0.169922 1.05846 0.169922 1.704V16.2514C0.169922 16.8969 0.693229 17.4202 1.33876 17.4202H15.8862C16.5317 17.4202 17.055 16.8969 17.055 16.2514V1.704C17.055 1.05846 16.5317 0.535156 15.8862 0.535156Z" fill="#555555"/>
<path d="M10.2465 9.16562C10.6311 8.84185 10.7304 8.16159 10.6521 8.0634C10.5738 7.96639 9.90172 7.88223 9.49146 8.17327C9.42834 8.21769 9.43886 8.27964 9.50899 8.27146C9.74042 8.2434 10.2547 8.18146 10.3459 8.29951C10.4382 8.41756 10.2442 8.90614 10.1577 9.12354C10.1308 9.189 10.1881 9.21588 10.2465 9.16562Z" fill="white"/>
<path d="M14.9241 5.8861C14.8095 5.71077 14.6307 5.64648 14.4483 5.64648C14.1666 5.64648 14.0065 5.77856 13.8931 6.05675H13.885V5.74584C13.8779 5.71428 13.8476 5.6909 13.8125 5.68856H13.4338C13.3929 5.68856 13.359 5.71778 13.3555 5.75519V7.78897C13.3555 7.82754 13.3882 7.8591 13.4291 7.86144H13.8347C13.8779 7.86144 13.913 7.82871 13.9142 7.7878V6.69377C13.9142 6.55701 13.9212 6.43311 13.9785 6.30922C14.024 6.21103 14.1152 6.14675 14.2146 6.14675C14.4963 6.14675 14.4694 6.47169 14.4694 6.69377V7.79715C14.474 7.83222 14.5044 7.8591 14.5418 7.86144H14.9509C14.9918 7.86144 15.0246 7.83338 15.0292 7.79715V6.51844C15.0292 6.32207 15.0292 6.0474 14.9229 5.88493L14.9241 5.8861Z" fill="white"/>
<path d="M10.8836 11.9135L10.4792 11.7592C10.3167 11.6973 10.208 11.6412 10.1531 11.5886C10.0981 11.5371 10.0701 11.467 10.0701 11.377C10.0701 11.1538 10.236 11.0416 10.568 11.0416C10.7574 11.0416 10.9444 11.0696 11.1279 11.1245C11.1828 11.1421 11.2225 11.1503 11.2471 11.1503C11.2915 11.1503 11.3149 11.1199 11.3149 11.0579V10.9188C11.3149 10.8744 11.3067 10.8405 11.2892 10.8183C11.2716 10.7961 11.2424 10.7774 11.2015 10.7645C10.9876 10.6851 10.7679 10.6465 10.5435 10.6465C10.2594 10.6465 10.0315 10.7154 9.85617 10.8522C9.68202 10.9901 9.59435 11.1701 9.59435 11.3934C9.59435 11.7335 9.78604 11.9743 10.1694 12.1157L10.6101 12.2805C10.7515 12.332 10.8497 12.3834 10.9035 12.4348C10.9572 12.4862 10.9841 12.5529 10.9841 12.6359C10.9841 12.7597 10.9397 12.8544 10.852 12.9199C10.7644 12.9853 10.6346 13.0181 10.4663 13.0181C10.2209 13.0181 9.98475 12.9818 9.75565 12.9094C9.69371 12.8883 9.65046 12.879 9.62591 12.879C9.58383 12.879 9.56396 12.9094 9.56396 12.9713V13.1162C9.56396 13.1607 9.57215 13.1934 9.58734 13.2144C9.60254 13.2343 9.63176 13.2542 9.67267 13.2717C9.9041 13.3675 10.1647 13.4166 10.4558 13.4166C10.7468 13.4166 11.004 13.3442 11.1863 13.2004C11.3698 13.0555 11.461 12.8614 11.461 12.6171C11.461 12.4453 11.4166 12.3051 11.3266 12.1964C11.2366 12.0877 11.0893 11.9942 10.8859 11.9158L10.8836 11.9135Z" fill="white"/>
<path d="M9.54156 7.85588C9.98455 7.62328 10.5152 7.64549 10.9161 7.85354C10.9652 7.87926 11.012 7.83017 11.012 7.78809V7.48068C11.0085 7.43977 10.9944 7.39653 10.943 7.36847C10.7162 7.24224 10.4509 7.20484 10.2008 7.21068L10.874 6.25808C10.936 6.17275 10.9722 6.11898 10.9722 6.07691V5.83028C10.9722 5.7882 10.9383 5.75781 10.8974 5.75781H9.59649C9.55675 5.75781 9.52286 5.78703 9.52286 5.83028V6.11782C9.52286 6.16106 9.55675 6.19028 9.59766 6.19028H10.2779L9.49714 7.29951C9.44922 7.37081 9.44922 7.45029 9.44922 7.49705V7.78809C9.44922 7.83017 9.49597 7.87926 9.54156 7.85471V7.85588Z" fill="white"/>
<path d="M12.1213 5.64648C11.5521 5.64648 11.2354 6.12922 11.2354 6.74987C11.2354 7.37052 11.5474 7.86144 12.1213 7.86144C12.6952 7.86144 13.0213 7.37871 13.0213 6.77091C13.0213 6.16311 12.7058 5.64648 12.1213 5.64648ZM12.1213 7.45117C11.8128 7.45117 11.8163 6.93104 11.8163 6.68792C11.8163 6.4448 11.835 6.05441 12.1248 6.05441C12.2499 6.05441 12.3376 6.10935 12.382 6.24727C12.4334 6.40623 12.4404 6.60844 12.4404 6.77558C12.4404 7.03156 12.4264 7.45117 12.1213 7.45117Z" fill="white"/>
<path d="M12.1849 9.69531C12.0797 9.69531 11.999 9.7257 11.9394 9.78648C11.8798 9.84726 11.8506 9.92791 11.8506 10.0273C11.8506 10.1266 11.8798 10.2073 11.9394 10.268C11.999 10.3288 12.0808 10.3592 12.1849 10.3592C12.2889 10.3592 12.3707 10.3288 12.4303 10.268C12.4899 10.2073 12.5192 10.1266 12.5192 10.0273C12.5192 9.92791 12.4899 9.84726 12.4303 9.78648C12.3707 9.7257 12.2889 9.69531 12.1849 9.69531Z" fill="white"/>
<path d="M12.3501 10.7559H12.017C11.9422 10.7559 11.9048 10.7909 11.9048 10.8611V13.3098C11.9048 13.3799 11.9422 13.415 12.017 13.415H12.3501C12.4249 13.415 12.4623 13.3799 12.4623 13.3098V10.8611C12.4623 10.7909 12.4249 10.7559 12.3501 10.7559Z" fill="white"/>
<path d="M3.35217 6.49119C3.12424 6.51573 2.82619 6.53326 2.61346 6.62443C2.36684 6.72846 2.19385 6.94002 2.19385 7.2521C2.19385 7.65185 2.45099 7.85055 2.78294 7.85055C3.0623 7.85055 3.21541 7.78626 3.43165 7.5712C3.50295 7.67172 3.52633 7.72081 3.65724 7.82717C3.68646 7.84237 3.72386 7.8412 3.74957 7.81782C3.82789 7.75003 3.97049 7.62964 4.05114 7.56418C4.08269 7.53847 4.07802 7.49756 4.0523 7.46249C3.981 7.36548 3.90386 7.286 3.90386 7.106V6.50755C3.90386 6.25391 3.92256 6.02131 3.73087 5.84599C3.58009 5.70456 3.32996 5.6543 3.13827 5.6543C2.76424 5.6543 2.34697 5.79105 2.2593 6.24222C2.24995 6.29015 2.28619 6.31586 2.31774 6.32287L2.69879 6.36378C2.73385 6.36145 2.76074 6.32755 2.76658 6.29248C2.79931 6.13703 2.93255 6.06222 3.08217 6.06222C3.16282 6.06222 3.25515 6.09144 3.30308 6.16157C3.35801 6.24105 3.351 6.34859 3.351 6.43976V6.49002L3.35217 6.49119ZM3.27853 7.28951C3.21658 7.39704 3.11723 7.46366 3.00619 7.46366C2.85541 7.46366 2.76775 7.35145 2.76775 7.18548C2.76775 6.8582 3.06814 6.79859 3.35217 6.79859V6.88158C3.35217 7.03119 3.35568 7.15626 3.27853 7.28951Z" fill="white"/>
<path d="M5.46455 10.6445C5.11974 10.6445 4.77377 10.7649 4.42896 11.0057C4.31441 10.7649 4.09467 10.6445 3.76973 10.6445C3.4448 10.6445 3.12687 10.7567 2.79141 10.9812L2.75985 10.8187C2.75284 10.7813 2.73998 10.7556 2.72011 10.7427C2.70141 10.7287 2.67336 10.7228 2.63946 10.7228H2.4092C2.33907 10.7228 2.30518 10.7567 2.30518 10.8245V13.2031C2.30518 13.2709 2.34024 13.3048 2.4092 13.3048H2.71778C2.78791 13.3048 2.8218 13.2709 2.8218 13.2031V11.278C3.06609 11.1284 3.3209 11.0536 3.58506 11.0536C3.72765 11.0536 3.83285 11.0945 3.89831 11.1764C3.96493 11.2582 3.99766 11.3832 3.99766 11.5539V13.2043C3.99766 13.2721 4.03272 13.306 4.10168 13.306H4.41026C4.48039 13.306 4.51545 13.2721 4.51545 13.2043V11.361C4.51545 11.3341 4.51312 11.3084 4.50961 11.2851C4.76792 11.1319 5.0239 11.056 5.27871 11.056C5.4213 11.056 5.5265 11.0969 5.59195 11.1787C5.65858 11.2605 5.69131 11.3856 5.69131 11.5562V13.2066C5.69131 13.2744 5.72637 13.3083 5.7965 13.3083H6.10508C6.17521 13.3083 6.2091 13.2744 6.2091 13.2066V11.4136C6.2091 11.1693 6.14482 10.9812 6.01507 10.8479C5.8865 10.7158 5.70183 10.6492 5.46104 10.6492L5.46455 10.6445Z" fill="white"/>
<path d="M9.01098 10.7559H8.70474C8.63578 10.7559 8.60071 10.7898 8.60071 10.8575V12.7628C8.34824 12.9252 8.09811 13.007 7.85032 13.007C7.69135 13.007 7.57564 12.9638 7.50317 12.8773C7.4307 12.7908 7.39447 12.6564 7.39447 12.4729V10.8587C7.39447 10.7909 7.3594 10.757 7.29044 10.757H6.98537C6.91641 10.757 6.88135 10.7909 6.88135 10.8587V12.6365C6.88135 12.8843 6.9468 13.076 7.07771 13.2128C7.20862 13.3483 7.39681 13.4161 7.64226 13.4161C7.98123 13.4161 8.31084 13.2993 8.6311 13.0643L8.66734 13.2432C8.67435 13.2806 8.68721 13.3063 8.70591 13.3191C8.72461 13.332 8.75149 13.339 8.78656 13.339H9.00981C9.07877 13.339 9.11383 13.3051 9.11383 13.2373V10.8587C9.11383 10.7909 9.07877 10.757 9.00981 10.757L9.01098 10.7559Z" fill="white"/>
<path d="M14.9616 12.9027C14.9475 12.9027 14.9207 12.9074 14.8821 12.9179C14.7114 12.967 14.5513 12.9916 14.4029 12.9916C14.1153 12.9916 13.9049 12.9179 13.7717 12.7683C13.6384 12.6199 13.5718 12.3873 13.5718 12.0693V12.0016C13.5718 11.6766 13.6373 11.4405 13.7693 11.2921C13.9003 11.1436 14.1153 11.0688 14.4146 11.0688C14.5642 11.0688 14.7114 11.0899 14.8564 11.1319C14.8949 11.1425 14.9242 11.1471 14.9417 11.1471C14.9873 11.1471 15.0107 11.1121 15.0107 11.0419V10.9005C15.0107 10.8514 15.0025 10.8164 14.9861 10.7965C14.9697 10.7754 14.9429 10.7579 14.9031 10.7439C14.7184 10.6773 14.5303 10.6445 14.3386 10.6445C13.919 10.6445 13.5952 10.7661 13.3661 11.008C13.137 11.2512 13.0225 11.5936 13.0225 12.0366C13.0225 12.4796 13.1335 12.8244 13.3556 13.0605C13.5777 13.2966 13.8979 13.4135 14.3175 13.4135C14.5478 13.4135 14.7512 13.3761 14.9253 13.3036C14.9674 13.2861 14.9966 13.2674 15.0107 13.2464C15.0247 13.2253 15.0317 13.1926 15.0317 13.147V13.0056C15.0317 12.9355 15.0083 12.9004 14.9627 12.9004L14.9616 12.9027Z" fill="white"/>
<path d="M4.38526 7.86377H4.78267C4.82475 7.86377 4.85981 7.83105 4.85981 7.79014V6.71247C4.85981 6.47753 4.84929 6.15259 5.13449 6.15259C5.41969 6.15259 5.37995 6.48571 5.37995 6.71247V7.79014C5.37995 7.82871 5.41151 7.86027 5.45125 7.86261H5.84865C5.89073 7.86261 5.9258 7.82988 5.9258 7.78897V6.7113C5.9258 6.59558 5.92229 6.42493 5.9632 6.32207C6.00411 6.21922 6.10463 6.15493 6.20047 6.15493C6.31502 6.15493 6.40502 6.1935 6.43424 6.33026C6.45294 6.41207 6.44593 6.62597 6.44593 6.7113V7.78897C6.44593 7.82754 6.47749 7.8591 6.51723 7.86144H6.91463C6.95671 7.86144 6.99178 7.82871 6.99178 7.7878V6.50558C6.99178 6.28701 7.01749 6.03921 6.89126 5.86856C6.78022 5.71428 6.59788 5.64648 6.43073 5.64648C6.19697 5.64648 5.97839 5.76687 5.88138 6.02285C5.77034 5.76687 5.61372 5.64648 5.36475 5.64648C5.11579 5.64648 4.93813 5.76687 4.84111 6.02285H4.8341V5.75752C4.83176 5.72012 4.8002 5.6909 4.76163 5.68973H4.39111C4.34903 5.68973 4.31396 5.72246 4.31396 5.76337V7.79598C4.3163 7.83222 4.34669 7.86027 4.38526 7.86261V7.86377Z" fill="white"/>
<path d="M8.50715 6.49119C8.27922 6.51573 7.98117 6.53326 7.76727 6.62443C7.52064 6.72846 7.34766 6.94002 7.34766 7.2521C7.34766 7.65185 7.6048 7.85055 7.93675 7.85055C8.2161 7.85055 8.36922 7.78626 8.58546 7.5712C8.65676 7.67172 8.68013 7.72081 8.81104 7.82717C8.84027 7.84237 8.87767 7.8412 8.90455 7.81782C8.98286 7.75003 9.12546 7.62964 9.20611 7.56418C9.23767 7.53847 9.233 7.49756 9.20728 7.46249C9.13598 7.36548 9.05884 7.286 9.05884 7.106V6.50755C9.05884 6.25391 9.07754 6.02131 8.88585 5.84599C8.73507 5.70456 8.48494 5.6543 8.29325 5.6543C7.91922 5.6543 7.50194 5.79105 7.41428 6.24222C7.40493 6.29015 7.44116 6.31586 7.47272 6.32287L7.85376 6.36378C7.88883 6.36145 7.91571 6.32755 7.92156 6.29248C7.95428 6.13703 8.08753 6.06222 8.23714 6.06222C8.31779 6.06222 8.41013 6.09144 8.45806 6.16157C8.51299 6.24105 8.50598 6.34859 8.50598 6.43976V6.49002L8.50715 6.49119ZM8.50715 6.88158C8.50715 7.03119 8.51065 7.15626 8.43351 7.28951C8.37039 7.39704 8.27221 7.46366 8.16117 7.46366C8.01039 7.46366 7.92273 7.35145 7.92273 7.18548C7.92273 6.8582 8.22312 6.79859 8.50715 6.79859V6.88158Z" fill="white"/>
<path d="M4.00937 8.19172C4.88834 8.9538 6.049 9.41199 7.33823 9.41199C8.25811 9.41199 9.32643 9.13381 10.064 8.61133C10.1855 8.52484 10.0815 8.3951 9.95643 8.44536C9.13006 8.78198 8.23239 8.94562 7.41537 8.94562C6.20445 8.94562 5.03211 8.62653 4.08418 8.09587C4.00119 8.04912 3.93924 8.13094 4.0082 8.19055L4.00937 8.19172Z" fill="white"/>
<path d="M6.2207 4.1058V3.26646H6.32234V4.01564H6.7125V4.1058H6.2207Z" fill="white"/>
<path d="M6.85676 4.1058V3.4763H6.95349V4.1058H6.85676ZM6.90594 3.37138C6.88709 3.37138 6.87084 3.36496 6.85717 3.35212C6.84379 3.33928 6.83709 3.32384 6.83709 3.30581C6.83709 3.28778 6.84379 3.27234 6.85717 3.2595C6.87084 3.24666 6.88709 3.24023 6.90594 3.24023C6.9248 3.24023 6.94092 3.24666 6.9543 3.2595C6.96797 3.27234 6.9748 3.28778 6.9748 3.30581C6.9748 3.32384 6.96797 3.33928 6.9543 3.35212C6.94092 3.36496 6.9248 3.37138 6.90594 3.37138Z" fill="white"/>
<path d="M7.57653 3.61728L7.48965 3.64187C7.48419 3.62739 7.47613 3.61332 7.46547 3.59966C7.45509 3.58572 7.44088 3.57425 7.42285 3.56523C7.40481 3.55622 7.38173 3.55171 7.35359 3.55171C7.31506 3.55171 7.28296 3.56059 7.25727 3.57835C7.23186 3.59583 7.21916 3.6181 7.21916 3.64515C7.21916 3.66919 7.2279 3.68818 7.24539 3.70212C7.26288 3.71605 7.2902 3.72766 7.32736 3.73695L7.4208 3.7599C7.47708 3.77356 7.51902 3.79447 7.54662 3.82261C7.57421 3.85048 7.58801 3.88641 7.58801 3.93039C7.58801 3.96646 7.57763 3.9987 7.55686 4.02711C7.53637 4.05553 7.50768 4.07793 7.4708 4.09433C7.43391 4.11072 7.39102 4.11892 7.34211 4.11892C7.2779 4.11892 7.22476 4.10498 7.18268 4.07711C7.14061 4.04925 7.11397 4.00854 7.10277 3.95498L7.19457 3.93203C7.20331 3.96591 7.21984 3.99132 7.24416 4.00826C7.26875 4.0252 7.30085 4.03367 7.34047 4.03367C7.38555 4.03367 7.42134 4.02411 7.44785 4.00498C7.47462 3.98558 7.48801 3.96236 7.48801 3.93531C7.48801 3.91345 7.48036 3.89515 7.46506 3.88039C7.44976 3.86537 7.42626 3.85416 7.39457 3.84679L7.28965 3.8222C7.232 3.80854 7.18965 3.78736 7.1626 3.75867C7.13583 3.72971 7.12244 3.69351 7.12244 3.65007C7.12244 3.61455 7.13241 3.58313 7.15236 3.55581C7.17258 3.52848 7.20003 3.50704 7.23473 3.49146C7.26971 3.47589 7.30932 3.4681 7.35359 3.4681C7.41588 3.4681 7.46479 3.48176 7.50031 3.50908C7.5361 3.53641 7.56151 3.57247 7.57653 3.61728Z" fill="white"/>
<path d="M8.00737 3.4763V3.55827H7.68114V3.4763H8.00737ZM7.77623 3.32548H7.87295V3.92548C7.87295 3.9528 7.87691 3.97329 7.88483 3.98695C7.89303 4.00034 7.90341 4.00936 7.91598 4.014C7.92882 4.01837 7.94234 4.02056 7.95655 4.02056C7.96721 4.02056 7.97595 4.02001 7.98278 4.01892C7.98961 4.01755 7.99508 4.01646 7.99918 4.01564L8.01885 4.10252C8.01229 4.10498 8.00314 4.10744 7.99139 4.1099C7.97964 4.11263 7.96475 4.114 7.94672 4.114C7.91939 4.114 7.89262 4.10812 7.86639 4.09638C7.84043 4.08463 7.81885 4.06673 7.80164 4.04269C7.7847 4.01864 7.77623 3.98832 7.77623 3.95171V3.32548Z" fill="white"/>
<path d="M8.41003 4.11892C8.34938 4.11892 8.29706 4.10553 8.25307 4.07875C8.20935 4.0517 8.17561 4.014 8.15184 3.96564C8.12834 3.91701 8.11659 3.86045 8.11659 3.79597C8.11659 3.73149 8.12834 3.67466 8.15184 3.62548C8.17561 3.57602 8.20867 3.5375 8.25102 3.5099C8.29364 3.48204 8.34337 3.4681 8.4002 3.4681C8.43298 3.4681 8.46536 3.47357 8.49733 3.4845C8.52929 3.49542 8.55839 3.51318 8.58462 3.53777C8.61085 3.56209 8.63175 3.59433 8.64733 3.63449C8.6629 3.67466 8.67069 3.72411 8.67069 3.78285V3.82384H8.18544V3.74023H8.57233C8.57233 3.70471 8.56522 3.67302 8.55102 3.64515C8.53708 3.61728 8.51714 3.59529 8.49118 3.57917C8.4655 3.56305 8.43517 3.55499 8.4002 3.55499C8.36167 3.55499 8.32834 3.56455 8.3002 3.58367C8.27233 3.60253 8.25088 3.62712 8.23585 3.65744C8.22083 3.68777 8.21331 3.72029 8.21331 3.75499V3.81072C8.21331 3.85826 8.22151 3.89856 8.2379 3.93162C8.25457 3.96441 8.27766 3.98941 8.30716 4.00662C8.33667 4.02356 8.37096 4.03203 8.41003 4.03203C8.43544 4.03203 8.45839 4.02848 8.47888 4.02138C8.49965 4.014 8.51755 4.00307 8.53257 3.98859C8.5476 3.97384 8.55921 3.95553 8.56741 3.93367L8.66085 3.9599C8.65102 3.9916 8.63449 4.01946 8.61126 4.04351C8.58804 4.06728 8.55935 4.08586 8.5252 4.09925C8.49104 4.11236 8.45266 4.11892 8.41003 4.11892Z" fill="white"/>
<path d="M8.91454 3.72712V4.1058H8.81782V3.4763H8.91126V3.57466H8.91946C8.93421 3.54269 8.95661 3.51701 8.98667 3.49761C9.01672 3.47794 9.05552 3.4681 9.10306 3.4681C9.14568 3.4681 9.18298 3.47684 9.21495 3.49433C9.24691 3.51154 9.27178 3.53777 9.28954 3.57302C9.30729 3.60799 9.31617 3.65225 9.31617 3.70581V4.1058H9.21945V3.71236C9.21945 3.66291 9.20661 3.62438 9.18093 3.59679C9.15525 3.56892 9.12 3.55499 9.07519 3.55499C9.04432 3.55499 9.01672 3.56168 8.99241 3.57507C8.96836 3.58846 8.94937 3.60799 8.93544 3.63367C8.9215 3.65936 8.91454 3.6905 8.91454 3.72712Z" fill="white"/>
<path d="M10.0732 4.11892C10.0164 4.11892 9.96655 4.10539 9.92365 4.07834C9.88103 4.05129 9.84769 4.01345 9.82365 3.96482C9.79988 3.91619 9.788 3.85936 9.788 3.79433C9.788 3.72876 9.79988 3.67152 9.82365 3.62261C9.84769 3.5737 9.88103 3.53572 9.92365 3.50868C9.96655 3.48163 10.0164 3.4681 10.0732 3.4681C10.1301 3.4681 10.1798 3.48163 10.2224 3.50868C10.2653 3.53572 10.2986 3.5737 10.3224 3.62261C10.3465 3.67152 10.3585 3.72876 10.3585 3.79433C10.3585 3.85936 10.3465 3.91619 10.3224 3.96482C10.2986 4.01345 10.2653 4.05129 10.2224 4.07834C10.1798 4.10539 10.1301 4.11892 10.0732 4.11892ZM10.0732 4.03203C10.1164 4.03203 10.1519 4.02097 10.1798 3.99884C10.2077 3.9767 10.2283 3.94761 10.2417 3.91154C10.2551 3.87548 10.2618 3.83641 10.2618 3.79433C10.2618 3.75225 10.2551 3.71305 10.2417 3.67671C10.2283 3.64037 10.2077 3.611 10.1798 3.58859C10.1519 3.56619 10.1164 3.55499 10.0732 3.55499C10.0301 3.55499 9.99455 3.56619 9.96668 3.58859C9.93881 3.611 9.91819 3.64037 9.9048 3.67671C9.89141 3.71305 9.88472 3.75225 9.88472 3.79433C9.88472 3.83641 9.89141 3.87548 9.9048 3.91154C9.91819 3.94761 9.93881 3.9767 9.96668 3.99884C9.99455 4.02097 10.0301 4.03203 10.0732 4.03203Z" fill="white"/>
<path d="M10.6028 3.72712V4.1058H10.5061V3.4763H10.5996V3.57466H10.6078C10.6225 3.54269 10.6449 3.51701 10.675 3.49761C10.705 3.47794 10.7438 3.4681 10.7914 3.4681C10.834 3.4681 10.8713 3.47684 10.9033 3.49433C10.9352 3.51154 10.9601 3.53777 10.9778 3.57302C10.9956 3.60799 11.0045 3.65225 11.0045 3.70581V4.1058H10.9078V3.71236C10.9078 3.66291 10.8949 3.62438 10.8692 3.59679C10.8436 3.56892 10.8083 3.55499 10.7635 3.55499C10.7326 3.55499 10.705 3.56168 10.6807 3.57507C10.6567 3.58846 10.6377 3.60799 10.6237 3.63367C10.6098 3.65936 10.6028 3.6905 10.6028 3.72712Z" fill="white"/>
</g>
<defs>
<clipPath id="clip0_2353_13020">
<rect width="17.002" height="17.002" fill="white" transform="translate(0.111328 0.476562)"/>
</clipPath>
</defs>
</svg>
