<svg width="18" height="18" viewBox="0 0 18 18" fill="none" xmlns="http://www.w3.org/2000/svg">
<g clip-path="url(#clip0_2353_13039)">
<path d="M15.9843 0.535156H1.43691C0.791374 0.535156 0.268066 1.05846 0.268066 1.704V16.2514C0.268066 16.8969 0.791374 17.4202 1.43691 17.4202H15.9843C16.6298 17.4202 17.1531 16.8969 17.1531 16.2514V1.704C17.1531 1.05846 16.6298 0.535156 15.9843 0.535156Z" fill="#25D1DA"/>
<path d="M10.3447 9.16562C10.7292 8.84185 10.8286 8.16159 10.7503 8.0634C10.672 7.96639 9.99987 7.88223 9.5896 8.17327C9.52649 8.21769 9.53701 8.27964 9.60714 8.27146C9.83857 8.2434 10.3529 8.18146 10.444 8.29951C10.5364 8.41756 10.3423 8.90614 10.2558 9.12354C10.229 9.189 10.2862 9.21588 10.3447 9.16562Z" fill="#000915"/>
<path d="M15.0222 5.8861C14.9077 5.71077 14.7288 5.64648 14.5465 5.64648C14.2648 5.64648 14.1047 5.77856 13.9913 6.05675H13.9831V5.74584C13.9761 5.71428 13.9457 5.6909 13.9106 5.68856H13.5319C13.491 5.68856 13.4571 5.71778 13.4536 5.75519V7.78897C13.4536 7.82754 13.4863 7.8591 13.5273 7.86144H13.9328C13.9761 7.86144 14.0112 7.82871 14.0123 7.7878V6.69377C14.0123 6.55701 14.0193 6.43311 14.0766 6.30922C14.1222 6.21103 14.2134 6.14675 14.3127 6.14675C14.5944 6.14675 14.5675 6.47169 14.5675 6.69377V7.79715C14.5722 7.83222 14.6026 7.8591 14.64 7.86144H15.0491C15.09 7.86144 15.1227 7.83338 15.1274 7.79715V6.51844C15.1274 6.32207 15.1274 6.0474 15.021 5.88493L15.0222 5.8861Z" fill="#000915"/>
<path d="M10.9817 11.9135L10.5773 11.7592C10.4148 11.6973 10.3061 11.6412 10.2512 11.5886C10.1963 11.5371 10.1682 11.467 10.1682 11.377C10.1682 11.1538 10.3342 11.0416 10.6661 11.0416C10.8555 11.0416 11.0425 11.0696 11.226 11.1245C11.281 11.1421 11.3207 11.1503 11.3452 11.1503C11.3897 11.1503 11.413 11.1199 11.413 11.0579V10.9188C11.413 10.8744 11.4048 10.8405 11.3873 10.8183C11.3698 10.7961 11.3406 10.7774 11.2997 10.7645C11.0858 10.6851 10.866 10.6465 10.6416 10.6465C10.3576 10.6465 10.1296 10.7154 9.95432 10.8522C9.78016 10.9901 9.6925 11.1701 9.6925 11.3934C9.6925 11.7335 9.88419 11.9743 10.2676 12.1157L10.7082 12.2805C10.8497 12.332 10.9478 12.3834 11.0016 12.4348C11.0554 12.4862 11.0822 12.5529 11.0822 12.6359C11.0822 12.7597 11.0378 12.8544 10.9502 12.9199C10.8625 12.9853 10.7328 13.0181 10.5645 13.0181C10.319 13.0181 10.0829 12.9818 9.8538 12.9094C9.79185 12.8883 9.7486 12.879 9.72406 12.879C9.68198 12.879 9.66211 12.9094 9.66211 12.9713V13.1162C9.66211 13.1607 9.67029 13.1934 9.68549 13.2144C9.70068 13.2343 9.7299 13.2542 9.77081 13.2717C10.0022 13.3675 10.2629 13.4166 10.5539 13.4166C10.845 13.4166 11.1021 13.3442 11.2845 13.2004C11.468 13.0555 11.5591 12.8614 11.5591 12.6171C11.5591 12.4453 11.5147 12.3051 11.4247 12.1964C11.3347 12.0877 11.1874 11.9942 10.9841 11.9158L10.9817 11.9135Z" fill="#000915"/>
<path d="M9.6397 7.85588C10.0827 7.62328 10.6133 7.64549 11.0143 7.85354C11.0633 7.87926 11.1101 7.83017 11.1101 7.78809V7.48068C11.1066 7.43977 11.0926 7.39653 11.0411 7.36847C10.8144 7.24224 10.5491 7.20484 10.2989 7.21068L10.9722 6.25808C11.0341 6.17275 11.0704 6.11898 11.0704 6.07691V5.83028C11.0704 5.7882 11.0365 5.75781 10.9956 5.75781H9.69464C9.6549 5.75781 9.621 5.78703 9.621 5.83028V6.11782C9.621 6.16106 9.6549 6.19028 9.69581 6.19028H10.3761L9.59529 7.29951C9.54736 7.37081 9.54736 7.45029 9.54736 7.49705V7.78809C9.54736 7.83017 9.59412 7.87926 9.6397 7.85471V7.85588Z" fill="#000915"/>
<path d="M12.2195 5.64648C11.6503 5.64648 11.3335 6.12922 11.3335 6.74987C11.3335 7.37052 11.6456 7.86144 12.2195 7.86144C12.7934 7.86144 13.1195 7.37871 13.1195 6.77091C13.1195 6.16311 12.8039 5.64648 12.2195 5.64648ZM12.2195 7.45117C11.9109 7.45117 11.9144 6.93104 11.9144 6.68792C11.9144 6.4448 11.9331 6.05441 12.223 6.05441C12.348 6.05441 12.4357 6.10935 12.4801 6.24727C12.5316 6.40623 12.5386 6.60844 12.5386 6.77558C12.5386 7.03156 12.5245 7.45117 12.2195 7.45117Z" fill="#000915"/>
<path d="M12.283 9.69531C12.1778 9.69531 12.0972 9.7257 12.0376 9.78648C11.978 9.84726 11.9487 9.92791 11.9487 10.0273C11.9487 10.1266 11.978 10.2073 12.0376 10.268C12.0972 10.3288 12.179 10.3592 12.283 10.3592C12.387 10.3592 12.4689 10.3288 12.5285 10.268C12.5881 10.2073 12.6173 10.1266 12.6173 10.0273C12.6173 9.92791 12.5881 9.84726 12.5285 9.78648C12.4689 9.7257 12.387 9.69531 12.283 9.69531Z" fill="#000915"/>
<path d="M12.4483 10.7559H12.1151C12.0403 10.7559 12.0029 10.7909 12.0029 10.8611V13.3098C12.0029 13.3799 12.0403 13.415 12.1151 13.415H12.4483C12.5231 13.415 12.5605 13.3799 12.5605 13.3098V10.8611C12.5605 10.7909 12.5231 10.7559 12.4483 10.7559Z" fill="#000915"/>
<path d="M3.45031 6.49119C3.22239 6.51573 2.92433 6.53326 2.71161 6.62443C2.46498 6.72846 2.29199 6.94002 2.29199 7.2521C2.29199 7.65185 2.54914 7.85055 2.88109 7.85055C3.16044 7.85055 3.31356 7.78626 3.52979 7.5712C3.60109 7.67172 3.62447 7.72081 3.75538 7.82717C3.7846 7.84237 3.822 7.8412 3.84772 7.81782C3.92603 7.75003 4.06863 7.62964 4.14928 7.56418C4.18084 7.53847 4.17616 7.49756 4.15045 7.46249C4.07915 7.36548 4.00201 7.286 4.00201 7.106V6.50755C4.00201 6.25391 4.02071 6.02131 3.82902 5.84599C3.67824 5.70456 3.42811 5.6543 3.23642 5.6543C2.86239 5.6543 2.44511 5.79105 2.35745 6.24222C2.3481 6.29015 2.38433 6.31586 2.41589 6.32287L2.79693 6.36378C2.832 6.36145 2.85888 6.32755 2.86472 6.29248C2.89745 6.13703 3.0307 6.06222 3.18031 6.06222C3.26096 6.06222 3.3533 6.09144 3.40122 6.16157C3.45616 6.24105 3.44914 6.34859 3.44914 6.43976V6.49002L3.45031 6.49119ZM3.37668 7.28951C3.31473 7.39704 3.21538 7.46366 3.10434 7.46366C2.95356 7.46366 2.86589 7.35145 2.86589 7.18548C2.86589 6.8582 3.16628 6.79859 3.45031 6.79859V6.88158C3.45031 7.03119 3.45382 7.15626 3.37668 7.28951Z" fill="#000915"/>
<path d="M5.5627 10.6445C5.21789 10.6445 4.87191 10.7649 4.5271 11.0057C4.41256 10.7649 4.19281 10.6445 3.86788 10.6445C3.54294 10.6445 3.22502 10.7567 2.88956 10.9812L2.858 10.8187C2.85099 10.7813 2.83813 10.7556 2.81826 10.7427C2.79956 10.7287 2.7715 10.7228 2.73761 10.7228H2.50735C2.43722 10.7228 2.40332 10.7567 2.40332 10.8245V13.2031C2.40332 13.2709 2.43839 13.3048 2.50735 13.3048H2.81592C2.88605 13.3048 2.91995 13.2709 2.91995 13.2031V11.278C3.16424 11.1284 3.41904 11.0536 3.6832 11.0536C3.8258 11.0536 3.93099 11.0945 3.99645 11.1764C4.06307 11.2582 4.0958 11.3832 4.0958 11.5539V13.2043C4.0958 13.2721 4.13087 13.306 4.19983 13.306H4.5084C4.57853 13.306 4.6136 13.2721 4.6136 13.2043V11.361C4.6136 11.3341 4.61126 11.3084 4.60775 11.2851C4.86607 11.1319 5.12204 11.056 5.37685 11.056C5.51945 11.056 5.62464 11.0969 5.6901 11.1787C5.75672 11.2605 5.78945 11.3856 5.78945 11.5562V13.2066C5.78945 13.2744 5.82452 13.3083 5.89465 13.3083H6.20322C6.27335 13.3083 6.30725 13.2744 6.30725 13.2066V11.4136C6.30725 11.1693 6.24296 10.9812 6.11322 10.8479C5.98465 10.7158 5.79997 10.6492 5.55919 10.6492L5.5627 10.6445Z" fill="#000915"/>
<path d="M9.10912 10.7559H8.80288C8.73392 10.7559 8.69886 10.7898 8.69886 10.8575V12.7628C8.44639 12.9252 8.19626 13.007 7.94846 13.007C7.7895 13.007 7.67378 12.9638 7.60132 12.8773C7.52885 12.7908 7.49261 12.6564 7.49261 12.4729V10.8587C7.49261 10.7909 7.45755 10.757 7.38859 10.757H7.08352C7.01456 10.757 6.97949 10.7909 6.97949 10.8587V12.6365C6.97949 12.8843 7.04495 13.076 7.17586 13.2128C7.30677 13.3483 7.49495 13.4161 7.74041 13.4161C8.07937 13.4161 8.40898 13.2993 8.72925 13.0643L8.76548 13.2432C8.77249 13.2806 8.78535 13.3063 8.80405 13.3191C8.82275 13.332 8.84964 13.339 8.8847 13.339H9.10795C9.17691 13.339 9.21198 13.3051 9.21198 13.2373V10.8587C9.21198 10.7909 9.17691 10.757 9.10795 10.757L9.10912 10.7559Z" fill="#000915"/>
<path d="M15.0597 12.9027C15.0457 12.9027 15.0188 12.9074 14.9802 12.9179C14.8096 12.967 14.6494 12.9916 14.501 12.9916C14.2135 12.9916 14.0031 12.9179 13.8698 12.7683C13.7366 12.6199 13.67 12.3873 13.67 12.0693V12.0016C13.67 11.6766 13.7354 11.4405 13.8675 11.2921C13.9984 11.1436 14.2135 11.0688 14.5127 11.0688C14.6623 11.0688 14.8096 11.0899 14.9545 11.1319C14.9931 11.1425 15.0223 11.1471 15.0398 11.1471C15.0854 11.1471 15.1088 11.1121 15.1088 11.0419V10.9005C15.1088 10.8514 15.1006 10.8164 15.0843 10.7965C15.0679 10.7754 15.041 10.7579 15.0013 10.7439C14.8166 10.6773 14.6284 10.6445 14.4367 10.6445C14.0171 10.6445 13.6933 10.7661 13.4642 11.008C13.2352 11.2512 13.1206 11.5936 13.1206 12.0366C13.1206 12.4796 13.2316 12.8244 13.4537 13.0605C13.6758 13.2966 13.9961 13.4135 14.4157 13.4135C14.6459 13.4135 14.8493 13.3761 15.0235 13.3036C15.0656 13.2861 15.0948 13.2674 15.1088 13.2464C15.1228 13.2253 15.1298 13.1926 15.1298 13.147V13.0056C15.1298 12.9355 15.1065 12.9004 15.0609 12.9004L15.0597 12.9027Z" fill="#000915"/>
<path d="M4.48341 7.86377H4.88081C4.92289 7.86377 4.95796 7.83105 4.95796 7.79014V6.71247C4.95796 6.47753 4.94744 6.15259 5.23264 6.15259C5.51783 6.15259 5.47809 6.48571 5.47809 6.71247V7.79014C5.47809 7.82871 5.50965 7.86027 5.54939 7.86261H5.9468C5.98888 7.86261 6.02394 7.82988 6.02394 7.78897V6.7113C6.02394 6.59558 6.02043 6.42493 6.06134 6.32207C6.10225 6.21922 6.20277 6.15493 6.29862 6.15493C6.41316 6.15493 6.50316 6.1935 6.53239 6.33026C6.55109 6.41207 6.54407 6.62597 6.54407 6.7113V7.78897C6.54407 7.82754 6.57563 7.8591 6.61537 7.86144H7.01278C7.05486 7.86144 7.08992 7.82871 7.08992 7.7878V6.50558C7.08992 6.28701 7.11564 6.03921 6.9894 5.86856C6.87836 5.71428 6.69602 5.64648 6.52888 5.64648C6.29511 5.64648 6.07654 5.76687 5.97952 6.02285C5.86848 5.76687 5.71186 5.64648 5.4629 5.64648C5.21393 5.64648 5.03627 5.76687 4.93926 6.02285H4.93224V5.75752C4.92991 5.72012 4.89835 5.6909 4.85978 5.68973H4.48925C4.44717 5.68973 4.41211 5.72246 4.41211 5.76337V7.79598C4.41445 7.83222 4.44484 7.86027 4.48341 7.86261V7.86377Z" fill="#000915"/>
<path d="M8.60529 6.49119C8.37737 6.51573 8.07931 6.53326 7.86541 6.62443C7.61879 6.72846 7.4458 6.94002 7.4458 7.2521C7.4458 7.65185 7.70295 7.85055 8.0349 7.85055C8.31425 7.85055 8.46737 7.78626 8.6836 7.5712C8.7549 7.67172 8.77828 7.72081 8.90919 7.82717C8.93841 7.84237 8.97581 7.8412 9.0027 7.81782C9.08101 7.75003 9.22361 7.62964 9.30426 7.56418C9.33582 7.53847 9.33114 7.49756 9.30543 7.46249C9.23413 7.36548 9.15698 7.286 9.15698 7.106V6.50755C9.15698 6.25391 9.17568 6.02131 8.98399 5.84599C8.83321 5.70456 8.58308 5.6543 8.39139 5.6543C8.01736 5.6543 7.60009 5.79105 7.51242 6.24222C7.50307 6.29015 7.53931 6.31586 7.57087 6.32287L7.95191 6.36378C7.98697 6.36145 8.01386 6.32755 8.0197 6.29248C8.05243 6.13703 8.18568 6.06222 8.33529 6.06222C8.41594 6.06222 8.50828 6.09144 8.5562 6.16157C8.61114 6.24105 8.60412 6.34859 8.60412 6.43976V6.49002L8.60529 6.49119ZM8.60529 6.88158C8.60529 7.03119 8.6088 7.15626 8.53165 7.28951C8.46854 7.39704 8.37035 7.46366 8.25931 7.46366C8.10853 7.46366 8.02087 7.35145 8.02087 7.18548C8.02087 6.8582 8.32126 6.79859 8.60529 6.79859V6.88158Z" fill="#000915"/>
<path d="M4.10752 8.19172C4.98648 8.9538 6.14714 9.41199 7.43637 9.41199C8.35625 9.41199 9.42457 9.13381 10.1621 8.61133C10.2837 8.52484 10.1796 8.3951 10.0546 8.44536C9.22821 8.78198 8.33054 8.94562 7.51352 8.94562C6.3026 8.94562 5.13025 8.62653 4.18232 8.09587C4.09933 8.04912 4.03739 8.13094 4.10635 8.19055L4.10752 8.19172Z" fill="#000915"/>
<path d="M6.31885 4.1058V3.26646H6.42049V4.01564H6.81065V4.1058H6.31885Z" fill="#000915"/>
<path d="M6.95491 4.1058V3.4763H7.05163V4.1058H6.95491ZM7.00409 3.37138C6.98524 3.37138 6.96898 3.36496 6.95532 3.35212C6.94193 3.33928 6.93524 3.32384 6.93524 3.30581C6.93524 3.28778 6.94193 3.27234 6.95532 3.2595C6.96898 3.24666 6.98524 3.24023 7.00409 3.24023C7.02294 3.24023 7.03906 3.24666 7.05245 3.2595C7.06611 3.27234 7.07294 3.28778 7.07294 3.30581C7.07294 3.32384 7.06611 3.33928 7.05245 3.35212C7.03906 3.36496 7.02294 3.37138 7.00409 3.37138Z" fill="#000915"/>
<path d="M7.67468 3.61728L7.58779 3.64187C7.58233 3.62739 7.57427 3.61332 7.56361 3.59966C7.55323 3.58572 7.53902 3.57425 7.52099 3.56523C7.50296 3.55622 7.47987 3.55171 7.45173 3.55171C7.41321 3.55171 7.3811 3.56059 7.35542 3.57835C7.33001 3.59583 7.3173 3.6181 7.3173 3.64515C7.3173 3.66919 7.32605 3.68818 7.34353 3.70212C7.36102 3.71605 7.38834 3.72766 7.4255 3.73695L7.51894 3.7599C7.57523 3.77356 7.61717 3.79447 7.64476 3.82261C7.67236 3.85048 7.68615 3.88641 7.68615 3.93039C7.68615 3.96646 7.67577 3.9987 7.65501 4.02711C7.63452 4.05553 7.60583 4.07793 7.56894 4.09433C7.53206 4.11072 7.48916 4.11892 7.44025 4.11892C7.37605 4.11892 7.32291 4.10498 7.28083 4.07711C7.23875 4.04925 7.21211 4.00854 7.20091 3.95498L7.29271 3.93203C7.30146 3.96591 7.31799 3.99132 7.3423 4.00826C7.36689 4.0252 7.399 4.03367 7.43861 4.03367C7.4837 4.03367 7.51949 4.02411 7.54599 4.00498C7.57277 3.98558 7.58615 3.96236 7.58615 3.93531C7.58615 3.91345 7.5785 3.89515 7.5632 3.88039C7.5479 3.86537 7.52441 3.85416 7.49271 3.84679L7.3878 3.8222C7.33015 3.80854 7.2878 3.78736 7.26075 3.75867C7.23397 3.72971 7.22058 3.69351 7.22058 3.65007C7.22058 3.61455 7.23056 3.58313 7.2505 3.55581C7.27072 3.52848 7.29818 3.50704 7.33288 3.49146C7.36785 3.47589 7.40747 3.4681 7.45173 3.4681C7.51402 3.4681 7.56293 3.48176 7.59845 3.50908C7.63424 3.53641 7.65965 3.57247 7.67468 3.61728Z" fill="#000915"/>
<path d="M8.10552 3.4763V3.55827H7.77929V3.4763H8.10552ZM7.87437 3.32548H7.97109V3.92548C7.97109 3.9528 7.97505 3.97329 7.98298 3.98695C7.99117 4.00034 8.00156 4.00936 8.01412 4.014C8.02696 4.01837 8.04049 4.02056 8.0547 4.02056C8.06535 4.02056 8.0741 4.02001 8.08093 4.01892C8.08776 4.01755 8.09322 4.01646 8.09732 4.01564L8.11699 4.10252C8.11043 4.10498 8.10128 4.10744 8.08953 4.1099C8.07778 4.11263 8.06289 4.114 8.04486 4.114C8.01754 4.114 7.99076 4.10812 7.96453 4.09638C7.93858 4.08463 7.91699 4.06673 7.89978 4.04269C7.88284 4.01864 7.87437 3.98832 7.87437 3.95171V3.32548Z" fill="#000915"/>
<path d="M8.50818 4.11892C8.44752 4.11892 8.3952 4.10553 8.35121 4.07875C8.3075 4.0517 8.27375 4.014 8.24998 3.96564C8.22649 3.91701 8.21474 3.86045 8.21474 3.79597C8.21474 3.73149 8.22649 3.67466 8.24998 3.62548C8.27375 3.57602 8.30681 3.5375 8.34916 3.5099C8.39178 3.48204 8.44151 3.4681 8.49834 3.4681C8.53113 3.4681 8.5635 3.47357 8.59547 3.4845C8.62744 3.49542 8.65654 3.51318 8.68277 3.53777C8.709 3.56209 8.7299 3.59433 8.74547 3.63449C8.76104 3.67466 8.76883 3.72411 8.76883 3.78285V3.82384H8.28359V3.74023H8.67047C8.67047 3.70471 8.66337 3.67302 8.64916 3.64515C8.63523 3.61728 8.61528 3.59529 8.58932 3.57917C8.56364 3.56305 8.53331 3.55499 8.49834 3.55499C8.45982 3.55499 8.42648 3.56455 8.39834 3.58367C8.37047 3.60253 8.34903 3.62712 8.334 3.65744C8.31897 3.68777 8.31146 3.72029 8.31146 3.75499V3.81072C8.31146 3.85826 8.31965 3.89856 8.33605 3.93162C8.35271 3.96441 8.3758 3.98941 8.40531 4.00662C8.43482 4.02356 8.46911 4.03203 8.50818 4.03203C8.53359 4.03203 8.55654 4.02848 8.57703 4.02138C8.59779 4.014 8.61569 4.00307 8.63072 3.98859C8.64574 3.97384 8.65736 3.95553 8.66555 3.93367L8.759 3.9599C8.74916 3.9916 8.73263 4.01946 8.70941 4.04351C8.68618 4.06728 8.65749 4.08586 8.62334 4.09925C8.58919 4.11236 8.5508 4.11892 8.50818 4.11892Z" fill="#000915"/>
<path d="M9.01268 3.72712V4.1058H8.91596V3.4763H9.0094V3.57466H9.0176C9.03235 3.54269 9.05476 3.51701 9.08481 3.49761C9.11487 3.47794 9.15367 3.4681 9.20121 3.4681C9.24383 3.4681 9.28112 3.47684 9.31309 3.49433C9.34506 3.51154 9.36992 3.53777 9.38768 3.57302C9.40544 3.60799 9.41432 3.65225 9.41432 3.70581V4.1058H9.3176V3.71236C9.3176 3.66291 9.30476 3.62438 9.27907 3.59679C9.25339 3.56892 9.21815 3.55499 9.17334 3.55499C9.14246 3.55499 9.11487 3.56168 9.09055 3.57507C9.06651 3.58846 9.04752 3.60799 9.03358 3.63367C9.01965 3.65936 9.01268 3.6905 9.01268 3.72712Z" fill="#000915"/>
<path d="M10.1714 4.11892C10.1146 4.11892 10.0647 4.10539 10.0218 4.07834C9.97917 4.05129 9.94584 4.01345 9.9218 3.96482C9.89802 3.91619 9.88614 3.85936 9.88614 3.79433C9.88614 3.72876 9.89802 3.67152 9.9218 3.62261C9.94584 3.5737 9.97917 3.53572 10.0218 3.50868C10.0647 3.48163 10.1146 3.4681 10.1714 3.4681C10.2282 3.4681 10.2779 3.48163 10.3206 3.50868C10.3635 3.53572 10.3968 3.5737 10.4206 3.62261C10.4446 3.67152 10.4566 3.72876 10.4566 3.79433C10.4566 3.85936 10.4446 3.91619 10.4206 3.96482C10.3968 4.01345 10.3635 4.05129 10.3206 4.07834C10.2779 4.10539 10.2282 4.11892 10.1714 4.11892ZM10.1714 4.03203C10.2146 4.03203 10.2501 4.02097 10.2779 3.99884C10.3058 3.9767 10.3264 3.94761 10.3398 3.91154C10.3532 3.87548 10.3599 3.83641 10.3599 3.79433C10.3599 3.75225 10.3532 3.71305 10.3398 3.67671C10.3264 3.64037 10.3058 3.611 10.2779 3.58859C10.2501 3.56619 10.2146 3.55499 10.1714 3.55499C10.1282 3.55499 10.0927 3.56619 10.0648 3.58859C10.037 3.611 10.0163 3.64037 10.0029 3.67671C9.98955 3.71305 9.98286 3.75225 9.98286 3.79433C9.98286 3.83641 9.98955 3.87548 10.0029 3.91154C10.0163 3.94761 10.037 3.9767 10.0648 3.99884C10.0927 4.02097 10.1282 4.03203 10.1714 4.03203Z" fill="#000915"/>
<path d="M10.701 3.72712V4.1058H10.6043V3.4763H10.6977V3.57466H10.7059C10.7207 3.54269 10.7431 3.51701 10.7731 3.49761C10.8032 3.47794 10.842 3.4681 10.8895 3.4681C10.9321 3.4681 10.9694 3.47684 11.0014 3.49433C11.0334 3.51154 11.0582 3.53777 11.076 3.57302C11.0937 3.60799 11.1026 3.65225 11.1026 3.70581V4.1058H11.0059V3.71236C11.0059 3.66291 10.9931 3.62438 10.9674 3.59679C10.9417 3.56892 10.9065 3.55499 10.8616 3.55499C10.8308 3.55499 10.8032 3.56168 10.7789 3.57507C10.7548 3.58846 10.7358 3.60799 10.7219 3.63367C10.708 3.65936 10.701 3.6905 10.701 3.72712Z" fill="#000915"/>
</g>
<defs>
<clipPath id="clip0_2353_13039">
<rect width="17.002" height="17.002" fill="white" transform="translate(0.209473 0.476562)"/>
</clipPath>
</defs>
</svg>
