<svg width="218" height="217" viewBox="0 0 218 217" fill="none" xmlns="http://www.w3.org/2000/svg">
<g id="Frame_1948757728">
<g id="Group_1948757076">
<path id="Ellipse_991" d="M109.135 7.14492C109.135 3.19872 105.932 -0.0249056 101.994 0.235442C79.3018 1.73584 57.5897 10.3583 40.0026 24.9671C20.5783 41.1021 7.40941 63.5231 2.77728 88.3461C-1.85484 113.169 2.34155 138.831 14.6395 160.885C26.9375 182.94 46.5623 199.998 70.1145 209.105C93.6666 218.212 119.662 218.794 143.599 210.751C167.535 202.707 187.904 186.544 201.176 165.062C214.449 143.58 219.79 118.133 216.274 93.127C213.09 70.4866 202.827 49.5001 187.047 33.1233C184.309 30.2816 179.771 30.512 177.116 33.4317C174.461 36.3513 174.699 40.8528 177.408 43.7219C190.735 57.8338 199.404 75.7804 202.123 95.117C205.175 116.82 200.539 138.906 189.019 157.551C177.5 176.195 159.821 190.223 139.047 197.204C118.272 204.186 95.7097 203.68 75.2684 195.776C54.8271 187.872 37.7943 173.067 27.1207 153.925C16.4471 134.784 12.805 112.512 16.8253 90.9676C20.8456 69.4232 32.275 49.9636 49.1338 35.9598C64.1545 23.4828 82.642 16.037 101.996 14.5618C105.931 14.2619 109.135 11.0911 109.135 7.14492Z" fill="#A7F9C3"><animate attributeName="d" dur="4000ms" repeatCount="indefinite" values="M109.135 7.14492C109.135 3.19872 105.932 -0.0249056 101.994 0.235442C79.3018 1.73584 57.5897 10.3583 40.0026 24.9671C20.5783 41.1021 7.40941 63.5231 2.77728 88.3461C-1.85484 113.169 2.34155 138.831 14.6395 160.885C26.9375 182.94 46.5623 199.998 70.1145 209.105C93.6666 218.212 119.662 218.794 143.599 210.751C167.535 202.707 187.904 186.544 201.176 165.062C214.449 143.58 219.79 118.133 216.274 93.127C213.09 70.4866 202.827 49.5001 187.047 33.1233C184.309 30.2816 179.771 30.512 177.116 33.4317C174.461 36.3513 174.699 40.8528 177.408 43.7219C190.735 57.8338 199.404 75.7804 202.123 95.117C205.175 116.82 200.539 138.906 189.019 157.551C177.5 176.195 159.821 190.223 139.047 197.204C118.272 204.186 95.7097 203.68 75.2684 195.776C54.8271 187.872 37.7943 173.067 27.1207 153.925C16.4471 134.784 12.805 112.512 16.8253 90.9676C20.8456 69.4232 32.275 49.9636 49.1338 35.9598C64.1545 23.4828 82.642 16.037 101.996 14.5618C105.931 14.2619 109.135 11.0911 109.135 7.14492Z;M108.388 7.1449C108.388 3.1987 105.185 -0.0249224 101.247 0.235444C79.4306 1.67802 58.4996 9.70478 41.2642 23.3387C22.1559 38.4542 8.70871 59.5768 3.1 83.2865C-2.50871 106.996 0.0493851 131.905 10.3601 153.98C20.6708 176.055 38.1305 194.003 59.9123 204.919C81.6941 215.835 106.523 219.08 130.378 214.128C154.234 209.176 175.719 196.317 191.357 177.633C206.994 158.949 215.867 135.534 216.54 111.18C217.146 89.2121 211.049 67.6399 199.147 49.299C196.999 45.9887 192.5 45.3523 189.338 47.7142C186.177 50.076 185.555 54.5406 187.669 57.8723C197.663 73.6175 202.772 92.0354 202.255 110.785C201.671 131.923 193.97 152.245 180.398 168.461C166.826 184.677 148.178 195.838 127.474 200.136C106.769 204.434 85.2198 201.618 66.315 192.143C47.4102 182.669 32.2567 167.091 23.3078 147.932C14.359 128.773 12.1388 107.154 17.0067 86.5762C21.8746 65.9981 33.5456 47.6655 50.1301 34.5465C64.8408 22.9096 82.6535 15.9793 101.249 14.5618C105.184 14.2618 108.388 11.0911 108.388 7.1449Z;M109.135 7.14492C109.135 3.19872 105.932 -0.0249056 101.994 0.235442C79.3018 1.73584 57.5897 10.3583 40.0026 24.9671C20.5783 41.1021 7.40941 63.5231 2.77728 88.3461C-1.85484 113.169 2.34155 138.831 14.6395 160.885C26.9375 182.94 46.5623 199.998 70.1145 209.105C93.6666 218.212 119.662 218.794 143.599 210.751C167.535 202.707 187.904 186.544 201.176 165.062C214.449 143.58 219.79 118.133 216.274 93.127C213.09 70.4866 202.827 49.5001 187.047 33.1233C184.309 30.2816 179.771 30.512 177.116 33.4317C174.461 36.3513 174.699 40.8528 177.408 43.7219C190.735 57.8338 199.404 75.7804 202.123 95.117C205.175 116.82 200.539 138.906 189.019 157.551C177.5 176.195 159.821 190.223 139.047 197.204C118.272 204.186 95.7097 203.68 75.2684 195.776C54.8271 187.872 37.7943 173.067 27.1207 153.925C16.4471 134.784 12.805 112.512 16.8253 90.9676C20.8456 69.4232 32.275 49.9636 49.1338 35.9598C64.1545 23.4828 82.642 16.037 101.996 14.5618C105.931 14.2619 109.135 11.0911 109.135 7.14492Z" calcMode="spline" keyTimes="0; 0.50; 1" keySplines="0.25 0.1 0.25 1;0.25 0.1 0.25 1"></animate></path>
<g id="Frame_1948757130">
<path id="89%" d="M87.3954 91.9667C84.133 91.9667 81.8569 93.5979 81.8569 96.8983C81.8569 99.933 84.133 101.64 87.3954 101.64C90.6578 101.64 92.9339 99.933 92.9339 96.8983C92.9339 93.5979 90.6578 91.9667 87.3954 91.9667ZM87.3954 103.537C83.3743 103.537 81.1362 105.13 81.1362 108.241C81.1362 111.313 83.3743 113.134 87.3954 113.134C91.4165 113.134 93.6547 111.313 93.6547 108.241C93.6547 105.13 91.4165 103.537 87.3954 103.537ZM87.3954 114.955C81.9328 114.955 78.5946 112.338 78.5946 108.203C78.5946 105.054 81.0603 102.968 83.6399 102.513C81.0982 101.64 79.4671 99.5916 79.4671 96.7845C79.4671 92.6496 82.8812 90.1459 87.3954 90.1459C91.9097 90.1459 95.3238 92.6496 95.3238 96.7845C95.3238 99.5916 93.6926 101.64 91.151 102.513C93.7305 102.968 96.1963 105.054 96.1963 108.203C96.1963 112.338 92.858 114.955 87.3954 114.955ZM106.802 113.058C112.265 113.058 114.541 108.013 114.389 100.995C113.63 104.144 111.089 106.648 106.802 106.648C101.643 106.648 98.3805 103.233 98.3805 98.4536C98.3805 93.5979 101.605 90.1459 106.954 90.1459C113.213 90.1459 116.513 94.7739 116.513 101.982C116.513 109.531 113.441 114.955 106.802 114.955C102.174 114.955 99.0254 112.224 98.646 107.823L100.96 107.71C101.453 110.858 103.198 113.058 106.802 113.058ZM113.479 98.3777C113.479 94.6222 110.975 92.1185 106.954 92.1185C103.046 92.1185 100.732 94.6222 100.732 98.3777C100.732 102.171 103.046 104.599 107.105 104.599C111.165 104.599 113.479 102.171 113.479 98.3777ZM121.291 96.3292C121.291 99.5158 122.543 100.806 124.402 100.806C126.26 100.806 127.512 99.5158 127.512 96.3292C127.512 93.1427 126.26 91.8529 124.402 91.8529C122.543 91.8529 121.291 93.1427 121.291 96.3292ZM118.977 96.3292C118.977 92.4599 121.329 90.1459 124.402 90.1459C127.474 90.1459 129.826 92.4599 129.826 96.3292C129.826 100.199 127.474 102.513 124.402 102.513C121.329 102.513 118.977 100.199 118.977 96.3292ZM141.51 108.772C141.51 105.585 140.258 104.296 138.4 104.296C136.541 104.296 135.289 105.585 135.289 108.772C135.289 111.958 136.541 113.248 138.4 113.248C140.258 113.248 141.51 111.958 141.51 108.772ZM138.513 90.6011L126.374 114.5H124.288L136.427 90.6011H138.513ZM143.824 108.772C143.824 112.641 141.472 114.955 138.4 114.955C135.327 114.955 132.975 112.641 132.975 108.772C132.975 104.903 135.327 102.588 138.4 102.588C141.472 102.588 143.824 104.903 143.824 108.772Z" fill="white"><animate attributeName="d" dur="4000ms" repeatCount="indefinite" values="M87.3954 91.9667C84.133 91.9667 81.8569 93.5979 81.8569 96.8983C81.8569 99.933 84.133 101.64 87.3954 101.64C90.6578 101.64 92.9339 99.933 92.9339 96.8983C92.9339 93.5979 90.6578 91.9667 87.3954 91.9667ZM87.3954 103.537C83.3743 103.537 81.1362 105.13 81.1362 108.241C81.1362 111.313 83.3743 113.134 87.3954 113.134C91.4165 113.134 93.6547 111.313 93.6547 108.241C93.6547 105.13 91.4165 103.537 87.3954 103.537ZM87.3954 114.955C81.9328 114.955 78.5946 112.338 78.5946 108.203C78.5946 105.054 81.0603 102.968 83.6399 102.513C81.0982 101.64 79.4671 99.5916 79.4671 96.7845C79.4671 92.6496 82.8812 90.1459 87.3954 90.1459C91.9097 90.1459 95.3238 92.6496 95.3238 96.7845C95.3238 99.5916 93.6926 101.64 91.151 102.513C93.7305 102.968 96.1963 105.054 96.1963 108.203C96.1963 112.338 92.858 114.955 87.3954 114.955ZM106.802 113.058C112.265 113.058 114.541 108.013 114.389 100.995C113.63 104.144 111.089 106.648 106.802 106.648C101.643 106.648 98.3805 103.233 98.3805 98.4536C98.3805 93.5979 101.605 90.1459 106.954 90.1459C113.213 90.1459 116.513 94.7739 116.513 101.982C116.513 109.531 113.441 114.955 106.802 114.955C102.174 114.955 99.0254 112.224 98.646 107.823C100.96 107.71 100.96 107.71 100.96 107.71C101.453 110.858 103.198 113.058 106.802 113.058ZM113.479 98.3777C113.479 94.6222 110.975 92.1185 106.954 92.1185C103.046 92.1185 100.732 94.6222 100.732 98.3777C100.732 102.171 103.046 104.599 107.105 104.599C111.165 104.599 113.479 102.171 113.479 98.3777ZM121.291 96.3292C121.291 99.5158 122.543 100.806 124.402 100.806C126.26 100.806 127.512 99.5158 127.512 96.3292C127.512 93.1427 126.26 91.8529 124.402 91.8529C122.543 91.8529 121.291 93.1427 121.291 96.3292ZM118.977 96.3292C118.977 92.4599 121.329 90.1459 124.402 90.1459C127.474 90.1459 129.826 92.4599 129.826 96.3292C129.826 100.199 127.474 102.513 124.402 102.513C121.329 102.513 118.977 100.199 118.977 96.3292ZM141.51 108.772C141.51 105.585 140.258 104.296 138.4 104.296C136.541 104.296 135.289 105.585 135.289 108.772C135.289 111.958 136.541 113.248 138.4 113.248C140.258 113.248 141.51 111.958 141.51 108.772ZM138.513 90.6011C126.374 114.5 126.374 114.5 126.374 114.5C124.288 114.5 124.288 114.5 124.288 114.5C136.427 90.6011 136.427 90.6011 136.427 90.6011C138.513 90.6011 138.513 90.6011 138.513 90.6011ZM143.824 108.772C143.824 112.641 141.472 114.955 138.4 114.955C135.327 114.955 132.975 112.641 132.975 108.772C132.975 104.903 135.327 102.588 138.4 102.588C141.472 102.588 143.824 104.903 143.824 108.772Z;M86.6483 91.9667C83.386 91.9667 81.1099 93.5979 81.1099 96.8983C81.1099 99.933 83.386 101.64 86.6483 101.64C89.9107 101.64 92.1868 99.933 92.1868 96.8983C92.1868 93.5979 89.9107 91.9667 86.6483 91.9667ZM86.6483 103.537C82.6273 103.537 80.3891 105.13 80.3891 108.241C80.3891 111.313 82.6273 113.134 86.6483 113.134C90.6694 113.134 92.9076 111.313 92.9076 108.241C92.9076 105.13 90.6694 103.537 86.6483 103.537ZM86.6483 114.955C81.1857 114.955 77.8475 112.338 77.8475 108.203C77.8475 105.054 80.3132 102.968 82.8928 102.513C80.3512 101.64 78.72 99.5916 78.72 96.7845C78.72 92.6496 82.1341 90.1459 86.6483 90.1459C91.1626 90.1459 94.5767 92.6496 94.5767 96.7845C94.5767 99.5916 92.9455 101.64 90.4039 102.513C92.9835 102.968 95.4492 105.054 95.4492 108.203C95.4492 112.338 92.111 114.955 86.6483 114.955ZM106.055 113.058C111.518 113.058 113.794 108.013 113.642 100.995C112.883 104.144 110.342 106.648 106.055 106.648C100.896 106.648 97.6334 103.233 97.6334 98.4536C97.6334 93.5979 100.858 90.1459 106.207 90.1459C112.466 90.1459 115.766 94.7739 115.766 101.982C115.766 109.531 112.694 114.955 106.055 114.955C101.427 114.955 98.2783 112.224 97.899 107.823C100.213 107.71 100.213 107.71 100.213 107.71C100.706 110.858 102.451 113.058 106.055 113.058ZM112.731 98.3777C112.731 94.6222 110.228 92.1185 106.207 92.1185C102.299 92.1185 99.9854 94.6222 99.9854 98.3777C99.9854 102.171 102.299 104.599 106.358 104.599C110.417 104.599 112.731 102.171 112.731 98.3777ZM120.544 96.3292C120.544 99.5158 121.796 100.806 123.655 100.806C125.513 100.806 126.765 99.5158 126.765 96.3292C126.765 93.1427 125.513 91.8529 123.655 91.8529C121.796 91.8529 120.544 93.1427 120.544 96.3292ZM118.23 96.3292C118.23 92.4599 120.582 90.1459 123.655 90.1459C126.727 90.1459 129.079 92.4599 129.079 96.3292C129.079 100.199 126.727 102.513 123.655 102.513C120.582 102.513 118.23 100.199 118.23 96.3292ZM140.763 108.772C140.763 105.585 139.511 104.296 137.653 104.296C135.794 104.296 134.542 105.585 134.542 108.772C134.542 111.958 135.794 113.248 137.653 113.248C139.511 113.248 140.763 111.958 140.763 108.772ZM137.766 90.6011C125.627 114.5 125.627 114.5 125.627 114.5C123.541 114.5 123.541 114.5 123.541 114.5C135.68 90.6011 135.68 90.6011 135.68 90.6011C137.766 90.6011 137.766 90.6011 137.766 90.6011ZM143.077 108.772C143.077 112.641 140.725 114.955 137.653 114.955C134.58 114.955 132.228 112.641 132.228 108.772C132.228 104.903 134.58 102.588 137.653 102.588C140.725 102.588 143.077 104.903 143.077 108.772Z;M87.3954 91.9667C84.133 91.9667 81.8569 93.5979 81.8569 96.8983C81.8569 99.933 84.133 101.64 87.3954 101.64C90.6578 101.64 92.9339 99.933 92.9339 96.8983C92.9339 93.5979 90.6578 91.9667 87.3954 91.9667ZM87.3954 103.537C83.3743 103.537 81.1362 105.13 81.1362 108.241C81.1362 111.313 83.3743 113.134 87.3954 113.134C91.4165 113.134 93.6547 111.313 93.6547 108.241C93.6547 105.13 91.4165 103.537 87.3954 103.537ZM87.3954 114.955C81.9328 114.955 78.5946 112.338 78.5946 108.203C78.5946 105.054 81.0603 102.968 83.6399 102.513C81.0982 101.64 79.4671 99.5916 79.4671 96.7845C79.4671 92.6496 82.8812 90.1459 87.3954 90.1459C91.9097 90.1459 95.3238 92.6496 95.3238 96.7845C95.3238 99.5916 93.6926 101.64 91.151 102.513C93.7305 102.968 96.1963 105.054 96.1963 108.203C96.1963 112.338 92.858 114.955 87.3954 114.955ZM106.802 113.058C112.265 113.058 114.541 108.013 114.389 100.995C113.63 104.144 111.089 106.648 106.802 106.648C101.643 106.648 98.3805 103.233 98.3805 98.4536C98.3805 93.5979 101.605 90.1459 106.954 90.1459C113.213 90.1459 116.513 94.7739 116.513 101.982C116.513 109.531 113.441 114.955 106.802 114.955C102.174 114.955 99.0254 112.224 98.646 107.823C100.96 107.71 100.96 107.71 100.96 107.71C101.453 110.858 103.198 113.058 106.802 113.058ZM113.479 98.3777C113.479 94.6222 110.975 92.1185 106.954 92.1185C103.046 92.1185 100.732 94.6222 100.732 98.3777C100.732 102.171 103.046 104.599 107.105 104.599C111.165 104.599 113.479 102.171 113.479 98.3777ZM121.291 96.3292C121.291 99.5158 122.543 100.806 124.402 100.806C126.26 100.806 127.512 99.5158 127.512 96.3292C127.512 93.1427 126.26 91.8529 124.402 91.8529C122.543 91.8529 121.291 93.1427 121.291 96.3292ZM118.977 96.3292C118.977 92.4599 121.329 90.1459 124.402 90.1459C127.474 90.1459 129.826 92.4599 129.826 96.3292C129.826 100.199 127.474 102.513 124.402 102.513C121.329 102.513 118.977 100.199 118.977 96.3292ZM141.51 108.772C141.51 105.585 140.258 104.296 138.4 104.296C136.541 104.296 135.289 105.585 135.289 108.772C135.289 111.958 136.541 113.248 138.4 113.248C140.258 113.248 141.51 111.958 141.51 108.772ZM138.513 90.6011C126.374 114.5 126.374 114.5 126.374 114.5C124.288 114.5 124.288 114.5 124.288 114.5C136.427 90.6011 136.427 90.6011 136.427 90.6011C138.513 90.6011 138.513 90.6011 138.513 90.6011ZM143.824 108.772C143.824 112.641 141.472 114.955 138.4 114.955C135.327 114.955 132.975 112.641 132.975 108.772C132.975 104.903 135.327 102.588 138.4 102.588C141.472 102.588 143.824 104.903 143.824 108.772Z" calcMode="spline" keyTimes="0; 0.50; 1" keySplines="0.25 0.1 0.25 1;0.25 0.1 0.25 1"></animate></path>
<path id="match" d="M98.3587 126.29C98.7158 125.436 99.5542 124.8 100.61 124.8C102.349 124.8 102.986 125.995 102.986 127.548V131.725H102.039V127.517C102.039 126.321 101.495 125.545 100.377 125.545C99.3679 125.545 98.4674 126.383 98.4674 127.688V131.725H97.5202V127.517C97.5202 126.321 96.9768 125.545 95.8589 125.545C94.8496 125.545 93.9491 126.383 93.9491 127.688V131.725H93.0019V124.986H93.9491V126.228C94.2751 125.405 95.0825 124.8 96.1228 124.8C97.3184 124.8 98.0637 125.39 98.3587 126.29ZM109.054 128.666V128.247L107.408 128.604C106.181 128.868 105.42 129.116 105.42 130.017C105.42 130.653 105.84 131.181 106.725 131.181C108.045 131.181 109.054 130.172 109.054 128.666ZM109.954 127.346V130.591C109.954 130.948 110.172 131.119 110.513 131.119C110.669 131.119 110.933 131.057 111.119 130.948V131.461C110.917 131.694 110.7 131.864 110.234 131.864C109.566 131.864 109.085 131.29 109.054 130.436C108.697 131.228 107.703 131.911 106.554 131.911C105.296 131.911 104.458 131.212 104.458 130.048C104.458 128.775 105.576 128.262 107.253 127.921L109.054 127.548V127.206C109.054 126.182 108.448 125.545 107.392 125.545C106.306 125.545 105.7 126.182 105.467 127.051L104.66 126.896C104.924 125.685 105.917 124.8 107.377 124.8C109.054 124.8 109.954 125.685 109.954 127.346ZM112.34 130.234V125.685H111.3V125.219L111.704 125.141C112.325 125.017 112.449 124.722 112.589 124.07L112.79 123.107H113.272V124.986H115.228V125.685H113.272V130.25C113.272 130.855 113.52 131.15 114.141 131.15C114.607 131.15 115.073 130.917 115.461 130.684V131.352C114.98 131.725 114.498 131.911 113.815 131.911C112.915 131.911 112.34 131.461 112.34 130.234ZM116.1 128.355C116.1 126.213 117.497 124.8 119.5 124.8C121.456 124.8 122.512 126.119 122.636 127.75L121.767 127.812C121.674 126.523 120.882 125.592 119.469 125.592C118.056 125.592 117.093 126.694 117.093 128.355C117.093 130.017 118.056 131.119 119.469 131.119C120.882 131.119 121.674 130.156 121.767 128.868L122.636 128.961C122.512 130.591 121.456 131.911 119.5 131.911C117.497 131.911 116.1 130.498 116.1 128.355ZM125.003 127.688V131.725H124.056V121.943H125.003V126.228C125.329 125.405 126.26 124.8 127.27 124.8C129.009 124.8 129.738 125.933 129.738 127.548V131.725H128.791V127.517C128.791 126.321 128.17 125.545 127.021 125.545C125.95 125.545 125.003 126.383 125.003 127.688Z" fill="white"><animate attributeName="d" dur="4000ms" repeatCount="indefinite" values="M98.3587 126.29C98.7158 125.436 99.5542 124.8 100.61 124.8C102.349 124.8 102.986 125.995 102.986 127.548C102.986 131.725 102.986 131.725 102.986 131.725C102.039 131.725 102.039 131.725 102.039 131.725C102.039 127.517 102.039 127.517 102.039 127.517C102.039 126.321 101.495 125.545 100.377 125.545C99.3679 125.545 98.4674 126.383 98.4674 127.688C98.4674 131.725 98.4674 131.725 98.4674 131.725C97.5202 131.725 97.5202 131.725 97.5202 131.725C97.5202 127.517 97.5202 127.517 97.5202 127.517C97.5202 126.321 96.9768 125.545 95.8589 125.545C94.8496 125.545 93.9491 126.383 93.9491 127.688C93.9491 131.725 93.9491 131.725 93.9491 131.725C93.0019 131.725 93.0019 131.725 93.0019 131.725C93.0019 124.986 93.0019 124.986 93.0019 124.986C93.9491 124.986 93.9491 124.986 93.9491 124.986C93.9491 126.228 93.9491 126.228 93.9491 126.228C94.2751 125.405 95.0825 124.8 96.1228 124.8C97.3184 124.8 98.0637 125.39 98.3587 126.29ZM109.054 128.666C109.054 128.247 109.054 128.247 109.054 128.247C107.408 128.604 107.408 128.604 107.408 128.604C106.181 128.868 105.42 129.116 105.42 130.017C105.42 130.653 105.84 131.181 106.725 131.181C108.045 131.181 109.054 130.172 109.054 128.666ZM109.954 127.346C109.954 130.591 109.954 130.591 109.954 130.591C109.954 130.948 110.172 131.119 110.513 131.119C110.669 131.119 110.933 131.057 111.119 130.948C111.119 131.461 111.119 131.461 111.119 131.461C110.917 131.694 110.7 131.864 110.234 131.864C109.566 131.864 109.085 131.29 109.054 130.436C108.697 131.228 107.703 131.911 106.554 131.911C105.296 131.911 104.458 131.212 104.458 130.048C104.458 128.775 105.576 128.262 107.253 127.921C109.054 127.548 109.054 127.548 109.054 127.548C109.054 127.206 109.054 127.206 109.054 127.206C109.054 126.182 108.448 125.545 107.392 125.545C106.306 125.545 105.7 126.182 105.467 127.051C104.66 126.896 104.66 126.896 104.66 126.896C104.924 125.685 105.917 124.8 107.377 124.8C109.054 124.8 109.954 125.685 109.954 127.346ZM112.34 130.234C112.34 125.685 112.34 125.685 112.34 125.685C111.3 125.685 111.3 125.685 111.3 125.685C111.3 125.219 111.3 125.219 111.3 125.219C111.704 125.141 111.704 125.141 111.704 125.141C112.325 125.017 112.449 124.722 112.589 124.07C112.79 123.107 112.79 123.107 112.79 123.107C113.272 123.107 113.272 123.107 113.272 123.107C113.272 124.986 113.272 124.986 113.272 124.986C115.228 124.986 115.228 124.986 115.228 124.986C115.228 125.685 115.228 125.685 115.228 125.685C113.272 125.685 113.272 125.685 113.272 125.685C113.272 130.25 113.272 130.25 113.272 130.25C113.272 130.855 113.52 131.15 114.141 131.15C114.607 131.15 115.073 130.917 115.461 130.684C115.461 131.352 115.461 131.352 115.461 131.352C114.98 131.725 114.498 131.911 113.815 131.911C112.915 131.911 112.34 131.461 112.34 130.234ZM116.1 128.355C116.1 126.213 117.497 124.8 119.5 124.8C121.456 124.8 122.512 126.119 122.636 127.75C121.767 127.812 121.767 127.812 121.767 127.812C121.674 126.523 120.882 125.592 119.469 125.592C118.056 125.592 117.093 126.694 117.093 128.355C117.093 130.017 118.056 131.119 119.469 131.119C120.882 131.119 121.674 130.156 121.767 128.868C122.636 128.961 122.636 128.961 122.636 128.961C122.512 130.591 121.456 131.911 119.5 131.911C117.497 131.911 116.1 130.498 116.1 128.355ZM125.003 127.688C125.003 131.725 125.003 131.725 125.003 131.725C124.056 131.725 124.056 131.725 124.056 131.725C124.056 121.943 124.056 121.943 124.056 121.943C125.003 121.943 125.003 121.943 125.003 121.943C125.003 126.228 125.003 126.228 125.003 126.228C125.329 125.405 126.26 124.8 127.27 124.8C129.009 124.8 129.738 125.933 129.738 127.548C129.738 131.725 129.738 131.725 129.738 131.725C128.791 131.725 128.791 131.725 128.791 131.725C128.791 127.517 128.791 127.517 128.791 127.517C128.791 126.321 128.17 125.545 127.021 125.545C125.95 125.545 125.003 126.383 125.003 127.688Z;M97.6116 126.29C97.9687 125.436 98.8072 124.8 99.863 124.8C101.602 124.8 102.239 125.995 102.239 127.548C102.239 131.725 102.239 131.725 102.239 131.725C101.291 131.725 101.291 131.725 101.291 131.725C101.291 127.517 101.291 127.517 101.291 127.517C101.291 126.321 100.748 125.545 99.6301 125.545C98.6209 125.545 97.7203 126.383 97.7203 127.688C97.7203 131.725 97.7203 131.725 97.7203 131.725C96.7732 131.725 96.7732 131.725 96.7732 131.725C96.7732 127.517 96.7732 127.517 96.7732 127.517C96.7732 126.321 96.2297 125.545 95.1118 125.545C94.1025 125.545 93.202 126.383 93.202 127.688C93.202 131.725 93.202 131.725 93.202 131.725C92.2549 131.725 92.2549 131.725 92.2549 131.725C92.2549 124.986 92.2549 124.986 92.2549 124.986C93.202 124.986 93.202 124.986 93.202 124.986C93.202 126.228 93.202 126.228 93.202 126.228C93.5281 125.405 94.3354 124.8 95.3757 124.8C96.5713 124.8 97.3166 125.39 97.6116 126.29ZM108.307 128.666C108.307 128.247 108.307 128.247 108.307 128.247C106.661 128.604 106.661 128.604 106.661 128.604C105.434 128.868 104.673 129.116 104.673 130.017C104.673 130.653 105.093 131.181 105.978 131.181C107.297 131.181 108.307 130.172 108.307 128.666ZM109.207 127.346C109.207 130.591 109.207 130.591 109.207 130.591C109.207 130.948 109.425 131.119 109.766 131.119C109.921 131.119 110.185 131.057 110.372 130.948C110.372 131.461 110.372 131.461 110.372 131.461C110.17 131.694 109.953 131.864 109.487 131.864C108.819 131.864 108.338 131.29 108.307 130.436C107.95 131.228 106.956 131.911 105.807 131.911C104.549 131.911 103.711 131.212 103.711 130.048C103.711 128.775 104.829 128.262 106.506 127.921C108.307 127.548 108.307 127.548 108.307 127.548C108.307 127.206 108.307 127.206 108.307 127.206C108.307 126.182 107.701 125.545 106.645 125.545C105.558 125.545 104.953 126.182 104.72 127.051C103.913 126.896 103.913 126.896 103.913 126.896C104.177 125.685 105.17 124.8 106.63 124.8C108.307 124.8 109.207 125.685 109.207 127.346ZM111.593 130.234C111.593 125.685 111.593 125.685 111.593 125.685C110.553 125.685 110.553 125.685 110.553 125.685C110.553 125.219 110.553 125.219 110.553 125.219C110.956 125.141 110.956 125.141 110.956 125.141C111.578 125.017 111.702 124.722 111.841 124.07C112.043 123.107 112.043 123.107 112.043 123.107C112.525 123.107 112.525 123.107 112.525 123.107C112.525 124.986 112.525 124.986 112.525 124.986C114.481 124.986 114.481 124.986 114.481 124.986C114.481 125.685 114.481 125.685 114.481 125.685C112.525 125.685 112.525 125.685 112.525 125.685C112.525 130.25 112.525 130.25 112.525 130.25C112.525 130.855 112.773 131.15 113.394 131.15C113.86 131.15 114.326 130.917 114.714 130.684C114.714 131.352 114.714 131.352 114.714 131.352C114.233 131.725 113.751 131.911 113.068 131.911C112.168 131.911 111.593 131.461 111.593 130.234ZM115.353 128.355C115.353 126.213 116.75 124.8 118.753 124.8C120.709 124.8 121.765 126.119 121.889 127.75C121.02 127.812 121.02 127.812 121.02 127.812C120.927 126.523 120.135 125.592 118.722 125.592C117.309 125.592 116.346 126.694 116.346 128.355C116.346 130.017 117.309 131.119 118.722 131.119C120.135 131.119 120.927 130.156 121.02 128.868C121.889 128.961 121.889 128.961 121.889 128.961C121.765 130.591 120.709 131.911 118.753 131.911C116.75 131.911 115.353 130.498 115.353 128.355ZM124.256 127.688C124.256 131.725 124.256 131.725 124.256 131.725C123.309 131.725 123.309 131.725 123.309 131.725C123.309 121.943 123.309 121.943 123.309 121.943C124.256 121.943 124.256 121.943 124.256 121.943C124.256 126.228 124.256 126.228 124.256 126.228C124.582 125.405 125.513 124.8 126.523 124.8C128.262 124.8 128.991 125.933 128.991 127.548C128.991 131.725 128.991 131.725 128.991 131.725C128.044 131.725 128.044 131.725 128.044 131.725C128.044 127.517 128.044 127.517 128.044 127.517C128.044 126.321 127.423 125.545 126.274 125.545C125.203 125.545 124.256 126.383 124.256 127.688Z;M98.3587 126.29C98.7158 125.436 99.5542 124.8 100.61 124.8C102.349 124.8 102.986 125.995 102.986 127.548C102.986 131.725 102.986 131.725 102.986 131.725C102.039 131.725 102.039 131.725 102.039 131.725C102.039 127.517 102.039 127.517 102.039 127.517C102.039 126.321 101.495 125.545 100.377 125.545C99.3679 125.545 98.4674 126.383 98.4674 127.688C98.4674 131.725 98.4674 131.725 98.4674 131.725C97.5202 131.725 97.5202 131.725 97.5202 131.725C97.5202 127.517 97.5202 127.517 97.5202 127.517C97.5202 126.321 96.9768 125.545 95.8589 125.545C94.8496 125.545 93.9491 126.383 93.9491 127.688C93.9491 131.725 93.9491 131.725 93.9491 131.725C93.0019 131.725 93.0019 131.725 93.0019 131.725C93.0019 124.986 93.0019 124.986 93.0019 124.986C93.9491 124.986 93.9491 124.986 93.9491 124.986C93.9491 126.228 93.9491 126.228 93.9491 126.228C94.2751 125.405 95.0825 124.8 96.1228 124.8C97.3184 124.8 98.0637 125.39 98.3587 126.29ZM109.054 128.666C109.054 128.247 109.054 128.247 109.054 128.247C107.408 128.604 107.408 128.604 107.408 128.604C106.181 128.868 105.42 129.116 105.42 130.017C105.42 130.653 105.84 131.181 106.725 131.181C108.045 131.181 109.054 130.172 109.054 128.666ZM109.954 127.346C109.954 130.591 109.954 130.591 109.954 130.591C109.954 130.948 110.172 131.119 110.513 131.119C110.669 131.119 110.933 131.057 111.119 130.948C111.119 131.461 111.119 131.461 111.119 131.461C110.917 131.694 110.7 131.864 110.234 131.864C109.566 131.864 109.085 131.29 109.054 130.436C108.697 131.228 107.703 131.911 106.554 131.911C105.296 131.911 104.458 131.212 104.458 130.048C104.458 128.775 105.576 128.262 107.253 127.921C109.054 127.548 109.054 127.548 109.054 127.548C109.054 127.206 109.054 127.206 109.054 127.206C109.054 126.182 108.448 125.545 107.392 125.545C106.306 125.545 105.7 126.182 105.467 127.051C104.66 126.896 104.66 126.896 104.66 126.896C104.924 125.685 105.917 124.8 107.377 124.8C109.054 124.8 109.954 125.685 109.954 127.346ZM112.34 130.234C112.34 125.685 112.34 125.685 112.34 125.685C111.3 125.685 111.3 125.685 111.3 125.685C111.3 125.219 111.3 125.219 111.3 125.219C111.704 125.141 111.704 125.141 111.704 125.141C112.325 125.017 112.449 124.722 112.589 124.07C112.79 123.107 112.79 123.107 112.79 123.107C113.272 123.107 113.272 123.107 113.272 123.107C113.272 124.986 113.272 124.986 113.272 124.986C115.228 124.986 115.228 124.986 115.228 124.986C115.228 125.685 115.228 125.685 115.228 125.685C113.272 125.685 113.272 125.685 113.272 125.685C113.272 130.25 113.272 130.25 113.272 130.25C113.272 130.855 113.52 131.15 114.141 131.15C114.607 131.15 115.073 130.917 115.461 130.684C115.461 131.352 115.461 131.352 115.461 131.352C114.98 131.725 114.498 131.911 113.815 131.911C112.915 131.911 112.34 131.461 112.34 130.234ZM116.1 128.355C116.1 126.213 117.497 124.8 119.5 124.8C121.456 124.8 122.512 126.119 122.636 127.75C121.767 127.812 121.767 127.812 121.767 127.812C121.674 126.523 120.882 125.592 119.469 125.592C118.056 125.592 117.093 126.694 117.093 128.355C117.093 130.017 118.056 131.119 119.469 131.119C120.882 131.119 121.674 130.156 121.767 128.868C122.636 128.961 122.636 128.961 122.636 128.961C122.512 130.591 121.456 131.911 119.5 131.911C117.497 131.911 116.1 130.498 116.1 128.355ZM125.003 127.688C125.003 131.725 125.003 131.725 125.003 131.725C124.056 131.725 124.056 131.725 124.056 131.725C124.056 121.943 124.056 121.943 124.056 121.943C125.003 121.943 125.003 121.943 125.003 121.943C125.003 126.228 125.003 126.228 125.003 126.228C125.329 125.405 126.26 124.8 127.27 124.8C129.009 124.8 129.738 125.933 129.738 127.548C129.738 131.725 129.738 131.725 129.738 131.725C128.791 131.725 128.791 131.725 128.791 131.725C128.791 127.517 128.791 127.517 128.791 127.517C128.791 126.321 128.17 125.545 127.021 125.545C125.95 125.545 125.003 126.383 125.003 127.688Z" calcMode="spline" keyTimes="0; 0.50; 1" keySplines="0.25 0.1 0.25 1;0.25 0.1 0.25 1"></animate></path>
</g>
</g>
</g>
</svg>