<svg width="36" height="36" viewBox="0 0 36 36" fill="none" xmlns="http://www.w3.org/2000/svg">
<rect width="36" height="36" rx="18" fill="#F5F5F5"/>
<path d="M27.3536 19.3536C27.5488 19.1583 27.5488 18.8417 27.3536 18.6464L24.1716 15.4645C23.9763 15.2692 23.6597 15.2692 23.4645 15.4645C23.2692 15.6597 23.2692 15.9763 23.4645 16.1716L26.2929 19L23.4645 21.8284C23.2692 22.0237 23.2692 22.3403 23.4645 22.5355C23.6597 22.7308 23.9763 22.7308 24.1716 22.5355L27.3536 19.3536ZM9.5 12L9.5 15L10.5 15L10.5 12L9.5 12ZM14 19.5L27 19.5L27 18.5L14 18.5L14 19.5ZM9.5 15C9.5 17.4853 11.5147 19.5 14 19.5L14 18.5C12.067 18.5 10.5 16.933 10.5 15L9.5 15Z" fill="#878787"/>
</svg>
