<svg width="70" height="78" viewBox="0 0 70 78" fill="none" xmlns="http://www.w3.org/2000/svg">
<g clip-path="url(#clip0_127_2885)">
<path d="M0.902344 10.2816C0.902344 5.55486 4.92562 1.72459 9.72705 1.72459C12.3761 1.72459 14.2636 2.75143 15.6875 4.08795L13.9987 5.73415C12.9887 4.78881 11.6145 4.05535 9.72705 4.05535C6.23359 4.05535 3.50174 6.82619 3.50174 10.2653C3.50174 13.7044 6.23359 16.4752 9.72705 16.4752C11.9953 16.4752 13.2867 15.5788 14.1146 14.7638C14.7934 14.0955 15.2404 13.1339 15.406 11.83H9.72705V9.49923H17.7239C17.8067 9.923 17.8564 10.412 17.8564 10.9661C17.8564 12.7264 17.3762 14.8942 15.8034 16.4263C14.2636 17.991 12.3099 18.8223 9.72705 18.8223C4.92562 18.8223 0.902344 14.992 0.902344 10.2816Z" fill="#4285F4"/>
<path d="M24.2963 7.82171C21.2002 7.82171 18.6836 10.1362 18.6836 13.3308C18.6836 16.5091 21.2002 18.8398 24.2963 18.8398C27.3924 18.8398 29.909 16.5091 29.909 13.3308C29.909 10.1362 27.3924 7.82171 24.2963 7.82171ZM24.2963 16.6558C22.6075 16.6558 21.134 15.2867 21.134 13.3145C21.134 11.326 22.591 9.97318 24.2963 9.97318C25.9851 9.97318 27.4586 11.326 27.4586 13.3145C27.4586 15.2867 25.9851 16.6558 24.2963 16.6558Z" fill="#EA4335"/>
<path d="M36.5463 7.82171C33.4502 7.82171 30.9336 10.1362 30.9336 13.3308C30.9336 16.5091 33.4502 18.8398 36.5463 18.8398C39.6424 18.8398 42.159 16.5091 42.159 13.3308C42.159 10.1362 39.6424 7.82171 36.5463 7.82171ZM36.5463 16.6558C34.8575 16.6558 33.384 15.2867 33.384 13.3145C33.384 11.326 34.841 9.97318 36.5463 9.97318C38.2516 9.97318 39.7086 11.326 39.7086 13.3145C39.7086 15.2867 38.2351 16.6558 36.5463 16.6558Z" fill="#FBBC05"/>
<path d="M51.5817 8.14658V9.04303H51.499C50.9526 8.39107 49.893 7.80431 48.5519 7.80431C45.7538 7.80431 43.1875 10.2166 43.1875 13.3297C43.1875 16.4102 45.7538 18.8224 48.5519 18.8224C49.893 18.8224 50.9526 18.2357 51.499 17.5674H51.5817V18.3661C51.5817 20.4686 50.4393 21.5933 48.6015 21.5933C47.0949 21.5933 46.1677 20.5338 45.7869 19.6374L43.6511 20.5175C44.2637 21.9845 45.9028 23.7773 48.6181 23.7773C51.499 23.7773 53.9328 22.1148 53.9328 18.0401V8.14658H51.5817ZM48.7671 16.6547C47.0783 16.6547 45.6544 15.253 45.6544 13.3297C45.6544 11.3901 47.0783 9.97207 48.7671 9.97207C50.4393 9.97207 51.7473 11.3901 51.7473 13.3297C51.7639 15.2693 50.4393 16.6547 48.7671 16.6547Z" fill="#4285F4"/>
<path d="M58.0715 18.498H55.6211V2.31312H58.0715V18.498Z" fill="#34A853"/>
<path d="M64.8082 16.6558C63.5499 16.6558 62.6724 16.0853 62.0929 14.9933L69.5765 11.9454L69.3282 11.326C68.8646 10.0873 67.4407 7.82171 64.5433 7.82171C61.6624 7.82171 59.2617 10.0547 59.2617 13.3308C59.2617 16.4113 61.6293 18.8398 64.8082 18.8398C67.3745 18.8398 68.848 17.2914 69.4772 16.395L67.5732 15.14C66.9275 16.0527 66.0665 16.6558 64.8082 16.6558ZM64.6261 9.94058C65.6029 9.94058 66.4308 10.4133 66.6957 11.1141L61.6955 13.1515C61.6293 11.0326 63.3678 9.94058 64.6261 9.94058Z" fill="#EA4335"/>
<path d="M7.01006 26.123C7.6291 26.123 8.1367 26.2266 8.53288 26.4338L8.06861 27.9147C7.77147 27.7684 7.4372 27.6953 7.06578 27.6953C6.64484 27.6953 6.29818 27.8416 6.0258 28.1341C5.76581 28.4144 5.63581 28.7922 5.63581 29.2676V30.401H8.0129V31.9367H5.63581V39.3593H3.92728V31.9367H2.21875V30.401H3.92728V29.103C3.92728 28.2133 4.21204 27.4942 4.78155 26.9457C5.36344 26.3973 6.10628 26.123 7.01006 26.123Z" fill="white"/>
<path d="M8.56641 34.879C8.56641 33.5018 9.00592 32.3622 9.88494 31.4603C10.7764 30.5584 11.8968 30.1074 13.2463 30.1074C14.5958 30.1074 15.71 30.5584 16.5891 31.4603C17.4805 32.3622 17.9262 33.5018 17.9262 34.879C17.9262 36.2685 17.4805 37.4081 16.5891 38.2978C15.71 39.1997 14.5958 39.6507 13.2463 39.6507C11.8968 39.6507 10.7764 39.1997 9.88494 38.2978C9.00592 37.3959 8.56641 36.2563 8.56641 34.879ZM10.2749 34.879C10.2749 35.8419 10.5597 36.6219 11.1292 37.2191C11.6987 37.8164 12.4044 38.115 13.2463 38.115C14.0882 38.115 14.7939 37.8164 15.3634 37.2191C15.9329 36.6219 16.2176 35.8419 16.2176 34.879C16.2176 33.9284 15.9329 33.1544 15.3634 32.5572C14.7815 31.9478 14.0758 31.6431 13.2463 31.6431C12.4168 31.6431 11.7111 31.9478 11.1292 32.5572C10.5597 33.1544 10.2749 33.9284 10.2749 34.879Z" fill="white"/>
<path d="M21.0249 39.3606H19.3164V30.4024H20.9507V31.865H21.0249C21.1983 31.3897 21.5511 30.9875 22.0835 30.6584C22.6282 30.3171 23.1606 30.1465 23.6806 30.1465C24.1758 30.1465 24.5968 30.2196 24.9434 30.3659L24.4234 31.993C24.213 31.9077 23.8787 31.865 23.4206 31.865C22.7768 31.865 22.2135 32.1209 21.7306 32.6328C21.2602 33.1447 21.0249 33.742 21.0249 34.4245V39.3606Z" fill="white"/>
<path d="M11.3185 56.0644C11.3185 57.2101 10.8914 58.1303 10.0371 58.825C9.17049 59.5076 8.11813 59.8488 6.88007 59.8488C5.77819 59.8488 4.80631 59.5319 3.96442 58.8982C3.12254 58.2644 2.54065 57.399 2.21875 56.3021L3.853 55.6439C3.96442 56.034 4.11918 56.3874 4.31727 56.7043C4.51536 57.0212 4.7444 57.2954 5.0044 57.527C5.27677 57.7464 5.57391 57.9231 5.8958 58.0572C6.2177 58.1791 6.55817 58.24 6.91721 58.24C7.69719 58.24 8.33479 58.045 8.83002 57.655C9.32525 57.2528 9.57286 56.7226 9.57286 56.0644C9.57286 55.516 9.36858 55.0467 8.96002 54.6567C8.57622 54.2789 7.85814 53.9132 6.80579 53.5598C5.74105 53.182 5.07868 52.926 4.81869 52.7919C3.40729 52.085 2.7016 51.043 2.7016 49.6657C2.7016 48.7028 3.09159 47.8802 3.87157 47.1976C4.66393 46.5151 5.63581 46.1738 6.78721 46.1738C7.80243 46.1738 8.68145 46.4298 9.42429 46.9417C10.1671 47.4414 10.6624 48.0691 10.91 48.8247L9.31287 49.4829C9.1643 48.9954 8.86717 48.5932 8.42146 48.2763C7.98814 47.9472 7.45577 47.7827 6.82435 47.7827C6.1558 47.7827 5.59248 47.9655 5.13439 48.3311C4.67631 48.6724 4.44727 49.1172 4.44727 49.6657C4.44727 50.1167 4.62679 50.5067 4.98583 50.8358C5.38201 51.1648 6.24247 51.5549 7.5672 52.0058C8.91669 52.4568 9.87619 53.0113 10.4457 53.6695C11.0276 54.3154 11.3185 55.1138 11.3185 56.0644Z" fill="white"/>
<path d="M16.2088 59.7022C15.4659 59.7022 14.8469 59.4768 14.3517 59.0258C13.8688 58.5749 13.6212 57.9472 13.6088 57.1428V52.1335H12.0117V50.5978H13.6088V47.8555H15.3174V50.5978H17.5459V52.1335H15.3174V56.5943C15.3174 57.1915 15.435 57.5998 15.6702 57.8192C15.9054 58.0264 16.1716 58.13 16.4688 58.13C16.6049 58.13 16.7349 58.1178 16.8587 58.0934C16.9949 58.0569 17.1187 58.0142 17.2302 57.9655L17.7687 59.4646C17.323 59.623 16.803 59.7022 16.2088 59.7022Z" fill="white"/>
<path d="M20.233 56.8131C20.233 57.2519 20.4187 57.6175 20.7901 57.91C21.1739 58.2025 21.6196 58.3488 22.1272 58.3488C22.8453 58.3488 23.4829 58.0868 24.04 57.5627C24.6096 57.0386 24.8943 56.4231 24.8943 55.7162C24.3619 55.3018 23.6191 55.0946 22.6658 55.0946C21.9725 55.0946 21.3906 55.2591 20.9201 55.5882C20.462 55.9173 20.233 56.3256 20.233 56.8131ZM22.4429 50.3047C23.7058 50.3047 24.7024 50.6399 25.4329 51.3102C26.1633 51.9684 26.5286 52.8764 26.5286 54.0342V59.5554H24.8943V58.3122H24.82C24.1143 59.336 23.1734 59.8479 21.9972 59.8479C20.9944 59.8479 20.1525 59.5554 19.4716 58.9704C18.803 58.3854 18.4688 57.6541 18.4688 56.7765C18.4688 55.8502 18.8216 55.1129 19.5273 54.5644C20.2454 54.0159 21.1987 53.7417 22.3872 53.7417C23.4024 53.7417 24.2381 53.9245 24.8943 54.2902V53.9063C24.8943 53.3212 24.6591 52.8276 24.1886 52.4254C23.7182 52.011 23.1672 51.8038 22.5358 51.8038C21.5825 51.8038 20.8273 52.1999 20.2701 52.9922L18.7659 52.0598C19.5954 50.8897 20.8211 50.3047 22.4429 50.3047Z" fill="white"/>
<path d="M39.1168 59.7022C38.3739 59.7022 37.7549 59.4768 37.2597 59.0258C36.7768 58.5749 36.5292 57.9472 36.5168 57.1428V52.1335H34.9197V50.5978H36.5168V47.8555H38.2254V50.5978H40.4539V52.1335H38.2254V56.5943C38.2254 57.1915 38.343 57.5998 38.5782 57.8192C38.8135 58.0264 39.0796 58.13 39.3768 58.13C39.513 58.13 39.643 58.1178 39.7668 58.0934C39.9029 58.0569 40.0268 58.0142 40.1382 57.9655L40.6767 59.4646C40.231 59.623 39.7111 59.7022 39.1168 59.7022ZM28.457 50.5978H30.0913V52.0603H30.1656C30.6732 50.9147 31.7193 50.3418 33.3041 50.3418L33.6569 50.3784V52.1335L32.8955 52.0603C32.1031 52.0603 31.447 52.3041 30.927 52.7916C30.4194 53.267 30.1656 53.8764 30.1656 54.6198V59.556H28.457V50.5978Z" fill="white"/>
<path d="M50.0793 59.5578H48.4451V58.3146H48.3708C48.1108 58.7534 47.7084 59.1191 47.1637 59.4116C46.6313 59.7041 46.0742 59.8503 45.4923 59.8503C44.378 59.8503 43.5176 59.5395 42.9109 58.918C42.3167 58.2842 42.0195 57.3884 42.0195 56.2305V50.5996H43.7281V56.1208C43.7652 57.5834 44.5142 58.3146 45.9751 58.3146C46.6561 58.3146 47.2256 58.0465 47.6837 57.5102C48.1418 56.9618 48.3708 56.3097 48.3708 55.554V50.5996H50.0793V59.5578Z" fill="white"/>
<path d="M56.6368 58.3122C57.4539 58.3122 58.141 58.0075 58.6982 57.3981C59.2553 56.8009 59.5339 56.027 59.5339 55.0763C59.5339 54.1378 59.2553 53.3639 58.6982 52.7545C58.141 52.1451 57.4539 51.8404 56.6368 51.8404C55.8073 51.8404 55.114 52.1451 54.5568 52.7545C54.0121 53.3639 53.7397 54.1378 53.7397 55.0763C53.7397 56.027 54.0121 56.807 54.5568 57.4164C55.114 58.0136 55.8073 58.3122 56.6368 58.3122ZM56.9154 59.8479C56.2468 59.8479 55.634 59.7078 55.0768 59.4274C54.5321 59.1471 54.1111 58.7754 53.814 58.3122H53.7397L53.814 59.5554V63.5043H52.1055V50.5972H53.7397V51.8404H53.814C54.1111 51.3772 54.5321 51.0055 55.0768 50.7252C55.634 50.4448 56.2468 50.3047 56.9154 50.3047C58.1163 50.3047 59.1315 50.7678 59.961 51.6941C60.8153 52.6326 61.2424 53.76 61.2424 55.0763C61.2424 56.4048 60.8153 57.5322 59.961 58.4585C59.1315 59.3848 58.1163 59.8479 56.9154 59.8479Z" fill="white"/>
<path d="M69.66 57.0691C69.66 57.8491 69.3133 58.5072 68.62 59.0435C67.9267 59.5798 67.0538 59.8479 66.0015 59.8479C65.0853 59.8479 64.2806 59.6164 63.5872 59.1532C62.8939 58.6779 62.3987 58.0563 62.1016 57.2884L63.6244 56.6486C63.8472 57.1848 64.1691 57.6053 64.5901 57.91C65.0234 58.2025 65.4939 58.3488 66.0015 58.3488C66.5462 58.3488 66.9981 58.233 67.3572 58.0014C67.7286 57.7699 67.9143 57.4956 67.9143 57.1787C67.9143 56.6059 67.4686 56.1854 66.5772 55.9173L65.0172 55.5334C63.2468 55.0946 62.3616 54.2536 62.3616 53.0104C62.3616 52.1938 62.6958 51.5418 63.3644 51.0543C64.0453 50.5545 64.912 50.3047 65.9643 50.3047C66.7691 50.3047 67.4933 50.4936 68.1371 50.8714C68.7933 51.2493 69.2514 51.7551 69.5114 52.3888L67.9886 53.0104C67.8152 52.6326 67.5305 52.3401 67.1343 52.1329C66.7505 51.9135 66.3172 51.8038 65.8343 51.8038C65.3886 51.8038 64.9863 51.9135 64.6272 52.1329C64.2806 52.3523 64.1072 52.6204 64.1072 52.9373C64.1072 53.4492 64.5963 53.8148 65.5743 54.0342L66.9486 54.3816C68.7562 54.8204 69.66 55.7162 69.66 57.0691Z" fill="white"/>
</g>
<defs>
<clipPath id="clip0_127_2885">
<rect width="69" height="77" fill="white" transform="translate(0.546875 0.712891)"/>
</clipPath>
</defs>
</svg>
