<svg width="57" height="61" viewBox="0 0 57 61" fill="none" xmlns="http://www.w3.org/2000/svg">
<g clip-path="url(#clip0_130_3307)">
<path d="M14.1339 14.7164C14.1339 16.6595 13.5695 18.2074 12.4406 19.3603C11.1723 20.7334 9.50435 21.4199 7.4369 21.4199C5.45824 21.4199 3.78398 20.7204 2.41414 19.3214C1.0443 17.9225 0.359375 16.1996 0.359375 14.153C0.359375 12.1063 1.0443 10.3835 2.41414 8.98447C3.78398 7.58548 5.45824 6.88599 7.4369 6.88599C8.43892 6.88599 9.38385 7.06734 10.2717 7.43004C11.1596 7.79274 11.8889 8.30441 12.4597 8.96504L11.204 10.2474C10.7854 9.7293 10.2432 9.3245 9.57728 9.03305C8.91138 8.74159 8.19792 8.59586 7.4369 8.59586C5.9529 8.59586 4.69721 9.12048 3.66983 10.1697C2.65513 11.2319 2.14778 12.5597 2.14778 14.153C2.14778 15.7463 2.65513 17.074 3.66983 18.1362C4.69721 19.1854 5.9529 19.7101 7.4369 19.7101C8.79406 19.7101 9.92291 19.3214 10.8235 18.5442C11.724 17.767 12.244 16.6983 12.3836 15.3382H7.4369V13.6672H14.0388C14.1022 14.0299 14.1339 14.3796 14.1339 14.7164Z" fill="white"/>
<path d="M19.6273 11.3167C21.0238 11.3167 22.1353 11.7779 22.9616 12.7003C23.788 13.6228 24.2012 14.9149 24.2012 16.5767L24.182 16.7729H16.7831C16.8087 17.715 17.1162 18.4739 17.7055 19.0496C18.2949 19.6254 18.9995 19.9132 19.8195 19.9132C20.947 19.9132 21.831 19.3375 22.4716 18.1861L24.0475 18.9711C23.6247 19.7824 23.0385 20.417 22.289 20.8749C21.5395 21.3329 20.6907 21.5619 19.7426 21.5619C18.3589 21.5619 17.2187 21.0778 16.3218 20.1095C15.425 19.1412 14.9766 17.9178 14.9766 16.4393C14.9766 14.9738 15.4122 13.7537 16.2834 12.7789C17.1546 11.8041 18.2692 11.3167 19.6273 11.3167ZM19.5889 12.9653C18.9227 12.9653 18.3493 13.1747 17.8689 13.5934C17.3884 14.0121 17.0713 14.5747 16.9176 15.2813H22.3178C22.2666 14.614 22.0007 14.0611 21.5203 13.6228C21.0398 13.1845 20.396 12.9653 19.5889 12.9653Z" fill="white"/>
<path d="M27.1025 21.2177H25.3398V11.6297H27.0259V12.9603H27.1025C27.3708 12.4907 27.7827 12.0993 28.3383 11.7863C28.894 11.4732 29.4464 11.3167 29.9957 11.3167C30.6854 11.3167 31.2921 11.4797 31.8158 11.8058C32.3395 12.132 32.7227 12.582 32.9654 13.156C33.7446 11.9298 34.8239 11.3167 36.2034 11.3167C37.2891 11.3167 38.1258 11.6558 38.7133 12.3342C39.3009 13.0125 39.5947 13.9778 39.5947 15.2301V21.2177H37.832V15.5041C37.832 14.604 37.6723 13.955 37.353 13.5571C37.0337 13.1592 36.4972 12.9603 35.7436 12.9603C35.0666 12.9603 34.4982 13.2538 34.0384 13.8408C33.5785 14.4279 33.3486 15.1192 33.3486 15.915V21.2177H31.5859V15.5041C31.5859 14.604 31.4262 13.955 31.1069 13.5571C30.7876 13.1592 30.2511 12.9603 29.4975 12.9603C28.8205 12.9603 28.2521 13.2538 27.7923 13.8408C27.3325 14.4279 27.1025 15.1192 27.1025 15.915V21.2177Z" fill="white"/>
<path d="M43.3737 8.30178C43.3737 8.65456 43.2522 8.95508 43.0091 9.20334C42.766 9.45159 42.4717 9.57572 42.1263 9.57572C41.7809 9.57572 41.4866 9.45159 41.2435 9.20334C41.0004 8.95508 40.8789 8.65456 40.8789 8.30178C40.8789 7.94899 41.0004 7.64847 41.2435 7.40022C41.4866 7.15196 41.7809 7.02783 42.1263 7.02783C42.4717 7.02783 42.766 7.15196 43.0091 7.40022C43.2522 7.64847 43.3737 7.94899 43.3737 8.30178ZM43.0091 11.614V21.2176H41.2435V11.614H43.0091Z" fill="white"/>
<path d="M56.3581 8.30178C56.3581 8.65456 56.2366 8.95508 55.9935 9.20334C55.7504 9.45159 55.4561 9.57572 55.1107 9.57572C54.7653 9.57572 54.471 9.45159 54.2279 9.20334C53.9848 8.95508 53.8633 8.65456 53.8633 8.30178C53.8633 7.94899 53.9848 7.64847 54.2279 7.40022C54.471 7.15196 54.7653 7.02783 55.1107 7.02783C55.4561 7.02783 55.7504 7.15196 55.9935 7.40022C56.2366 7.64847 56.3581 7.94899 56.3581 8.30178ZM55.9935 11.614V21.2176H54.2279V11.614H55.9935Z" fill="white"/>
<path d="M44.5469 11.6297H46.2329V12.9603H46.3096C46.5778 12.4907 46.9897 12.0993 47.5454 11.7863C48.101 11.4732 48.679 11.3167 49.2793 11.3167C50.4289 11.3167 51.3134 11.6526 51.9329 12.3244C52.5524 12.9962 52.8622 13.9517 52.8622 15.191V21.2177H51.0995V15.3084C51.0612 13.743 50.2884 12.9603 48.7812 12.9603C48.0786 12.9603 47.4911 13.2506 47.0185 13.8311C46.5459 14.4116 46.3096 15.1062 46.3096 15.915V21.2177H44.5469V11.6297Z" fill="white"/>
<path d="M38.4634 8.69767C38.152 6.59912 36.5392 4.952 34.4844 4.63399C36.5392 4.31598 38.152 2.66886 38.4634 0.570313C38.7748 2.66886 40.3876 4.31598 42.4424 4.63399C40.3876 4.952 38.7748 6.59912 38.4634 8.69767Z" fill="white"/>
</g>
<defs>
<clipPath id="clip0_130_3307">
<rect width="56" height="21" fill="white" transform="translate(0.359375 0.570312)"/>
</clipPath>
</defs>
</svg>
