<svg width="144" height="144" viewBox="0 0 144 144" fill="none" xmlns="http://www.w3.org/2000/svg">
<path d="M5.64258 45.4117L16.1659 62.8843C17.4515 65.0189 19.1445 66.8798 21.1484 68.361L28.1833 73.5607C32.1385 76.4841 34.806 80.8273 35.6247 85.677L36.5023 90.8748C37.0937 94.3781 38.6557 97.6454 41.0107 100.306L47.0657 107.146C49.0684 109.408 50.5028 112.115 51.2496 115.043L55.0965 130.123C55.6371 132.242 57.437 133.803 59.6115 134.038V134.038C62.4416 134.344 64.9986 132.335 65.3707 129.512L66.9971 117.179C67.3447 114.543 68.2725 112.018 69.7137 109.784L76.846 98.7287C79.7561 94.218 79.6996 88.4073 76.7022 83.9541V83.9541C74.6025 80.8345 71.2908 78.7386 67.5727 78.1762L49.2393 75.4031C46.779 75.0309 44.5555 73.7283 43.0279 71.7642L38.2151 65.5763C36.1731 62.951 37.5048 59.0931 40.7314 58.2865V58.2865C41.1795 58.1745 41.6418 58.1306 42.1028 58.1562L42.9453 58.203C47.1267 58.4353 51.0234 56.0822 52.7646 52.2734L54.1701 49.1989C56.2016 44.7549 60.2542 41.5656 65.0511 40.6356L75.1473 38.6782C78.3533 38.0566 80.848 35.529 81.4276 32.315V32.315C82.2847 27.5618 78.7199 23.1564 73.8924 23.0031L70.5534 22.8971C69.0225 22.8485 67.5196 22.4748 66.1443 21.8006L62.9884 20.2536C58.6474 18.1257 53.6585 17.7325 49.0378 19.1543L48.1328 19.4327C43.5103 20.8551 38.5193 20.461 34.1771 18.3309L28.4661 15.5293" stroke="white" stroke-width="2"/>
<path d="M126.822 28.2349L123.103 30.331C117.81 33.3139 115.516 39.7334 117.717 45.3953V45.3953C118.442 47.2598 119.614 48.9175 121.13 50.2229L133.392 60.7814C134.917 62.095 135.897 63.9309 136.139 65.9292L136.432 68.3428C137.001 73.0352 132.535 76.7492 128.025 75.3343V75.3343C126.493 74.8537 124.837 74.9564 123.376 75.6227L117.799 78.167C114.259 79.7815 110.198 79.8044 106.64 78.2297L102.938 76.5912C99.9044 75.2483 96.3541 75.9552 94.0661 78.3577L93.7179 78.7233C90.8466 81.7382 91.0406 86.5312 94.1462 89.304V89.304C94.7493 89.8425 95.2597 90.4765 95.6569 91.1806L97.0049 93.5703C99.0965 97.2781 102.373 100.176 106.308 101.8L110.535 103.543C115.916 105.763 119.983 110.327 121.57 115.928L123.057 121.176" stroke="white" stroke-width="2"/>
<circle cx="71.998" cy="72" r="71" stroke="white" stroke-width="2"/>
</svg>
