<svg width="23" height="13" viewBox="0 0 23 13" fill="none" xmlns="http://www.w3.org/2000/svg">
<path fill-rule="evenodd" clip-rule="evenodd" d="M19.6209 0.160156C20.9529 0.160156 22.0328 1.23999 22.0328 2.57204V9.88484C22.0328 11.2169 20.9529 12.2967 19.6209 12.2967C18.2888 12.2967 17.209 11.2169 17.209 9.88484V2.57204C17.209 1.23999 18.2888 0.160156 19.6209 0.160156Z" fill="white"/>
<path fill-rule="evenodd" clip-rule="evenodd" d="M8.06035 0.180664C9.3924 0.180664 10.4722 1.2605 10.4722 2.59255C10.4722 3.31137 10.7578 4.00076 11.2661 4.50904L14.8287 8.07168C15.7706 9.01358 15.7706 10.5407 14.8287 11.4826C13.8868 12.4245 12.3597 12.4245 11.4178 11.4826L8.64006 8.70487C8.3199 8.3847 7.80081 8.3847 7.48064 8.70487L4.59488 11.5906C3.65298 12.5325 2.12586 12.5325 1.18396 11.5906C0.242064 10.6487 0.242064 9.12161 1.18396 8.17971L4.85463 4.50904C5.36292 4.00076 5.64847 3.31137 5.64847 2.59255C5.64847 1.2605 6.72831 0.180664 8.06035 0.180664Z" fill="white"/>
</svg>
