<svg width="64" height="40" viewBox="0 0 64 40" fill="none" xmlns="http://www.w3.org/2000/svg">
<path d="M57.8275 35.282L56.8853 32.2838H52.5422L51.5999 35.282H48.9443L53.236 22.9209H56.2771L60.5773 35.282H57.8275ZM54.6837 25.2852L53.099 30.3479H56.3285L54.7437 25.2852H54.6837Z" fill="white"/>
<path d="M47.6781 35.282H45.3738V26.9385H45.3053L41.9473 35.1621H40.3197L36.9617 26.9385H36.8932V35.282H34.5889V22.9209H37.5871L41.0992 31.6842H41.1678L44.6799 22.9209H47.6781V35.282Z" fill="white"/>
<path d="M30.5717 35.282L29.6294 32.2838H25.2863L24.344 35.282H21.6885L25.9802 22.9209H29.0212L33.3215 35.282H30.5717ZM27.4279 25.2852L25.8431 30.3479H29.0726L27.4878 25.2852H27.4279Z" fill="white"/>
<path d="M20.9376 33.1405V35.282H12.9453V22.9209H15.5323V33.1405H20.9376Z" fill="white"/>
<path d="M11.4142 33.1405V35.282H3.42188V22.9209H6.00889V33.1405H11.4142Z" fill="white"/>
<path d="M20.1727 13.3392C20.2095 14.3292 20.4662 15.1812 20.9343 15.8332L20.9344 15.8333C21.5499 16.692 22.5484 17.2797 24.1835 17.2797C24.868 17.2797 25.4607 17.1517 26.0337 16.8586C26.6099 16.5638 27.1789 16.0956 27.8054 15.397C28.5219 14.5972 28.8832 14.1165 30.3396 11.9541L30.3397 11.954L31.065 10.8781C31.7226 9.90206 32.3153 9.02622 32.8946 8.30542L20.1727 13.3392ZM20.1727 13.3392L22.1747 13.3991C22.2113 14.0639 22.401 14.598 22.661 14.9503L22.661 14.9504C23.046 15.4718 23.6188 15.6868 24.1835 15.6868C24.531 15.6868 24.8854 15.6498 25.3053 15.4251C25.7155 15.2056 26.1726 14.8156 26.7528 14.1437L26.7528 14.1436C27.4038 13.3893 28.1397 12.4165 28.7685 11.5851C29.0293 11.2402 29.2718 10.9197 29.4821 10.6492L29.4822 10.6492L30.7119 9.06705C30.7119 9.06704 30.712 9.06704 30.712 9.06703C31.568 7.96603 32.5378 6.77107 33.6402 5.96598C34.5336 5.31363 35.4829 4.96159 36.4254 4.96159C38.0281 4.96159 39.5686 5.73795 40.7592 7.22413C42.0661 8.85685 42.705 10.9191 42.705 13.0568C42.705 14.315 42.4098 15.2195 41.9218 15.9267L41.9217 15.9268C41.4875 16.5567 40.652 17.2069 39.2341 17.274V15.6762C39.8815 15.6183 40.3289 15.325 40.6088 14.8732C40.9095 14.388 40.9979 13.7501 40.9979 13.1144C40.9979 11.3059 40.4957 9.28283 39.3674 7.82421L39.3673 7.82416C38.5652 6.78775 37.5014 6.1248 36.3054 6.1248C34.9973 6.1248 33.9771 6.9576 32.8947 8.30536L20.1727 13.3392Z" fill="white" stroke="white" stroke-width="0.486661"/>
<path d="M22.2654 7.13592C23.3595 5.83483 24.8637 4.96159 26.5584 4.96159C27.6053 4.96159 28.6433 5.21933 29.7349 5.96564L29.735 5.96567C30.9415 6.79019 32.2446 8.16003 33.8883 10.4526L34.48 11.2785L34.48 11.2785C35.9069 13.269 36.73 14.3093 37.2209 14.8083L37.2211 14.8084C37.537 15.129 37.8191 15.3513 38.1064 15.4919C38.3983 15.6347 38.6823 15.6868 38.9909 15.6868C39.7712 15.6868 40.2952 15.3796 40.609 14.8732C40.8722 14.4484 40.9728 13.9065 40.9937 13.3516L42.7012 13.3067C42.6645 14.4362 42.377 15.2672 41.922 15.9267L41.9219 15.9268C41.4634 16.5919 40.5575 17.2797 38.9909 17.2797C38.0063 17.2797 37.1559 17.1038 36.2049 16.3526L36.2048 16.3525C35.4605 15.7655 34.5741 14.7067 33.8838 13.74L33.8837 13.7399L31.8188 10.8518C30.7781 9.39579 29.8156 8.29863 29.2462 7.79197L29.2461 7.79195C28.6499 7.26165 27.8294 6.56861 26.5183 6.56861C25.4926 6.56861 24.6365 7.13843 23.9378 7.96769L22.2654 7.13592Z" fill="white" stroke="white" stroke-width="0.486661"/>
<path d="M26.3101 4.96785L26.2793 6.57904C25.2983 6.66518 24.4799 7.27714 23.8125 8.1211C22.7871 9.41697 22.1683 11.3304 22.1683 13.1627C22.1683 13.7986 22.3047 14.3297 22.5139 14.7171L20.8144 15.6544C20.3863 14.971 20.1681 14.0954 20.1681 13.0883C20.1681 11.0766 20.8284 8.98138 22.078 7.36791C23.1332 6.00593 24.6191 5.05329 26.3101 4.96785Z" fill="white" stroke="white" stroke-width="0.486661"/>
</svg>
