<svg width="64" height="40" viewBox="0 0 64 40" fill="none" xmlns="http://www.w3.org/2000/svg">
<path d="M45.8643 17.3252C46.5994 15.1083 46.3463 12.6797 45.1706 10.6632C43.4027 7.57026 39.8485 5.97902 36.3773 6.72784C34.8331 4.97992 32.6146 3.98591 30.2886 4.00015C26.7405 3.99201 23.5924 6.2873 22.5008 9.67937C20.2215 10.1484 18.254 11.5819 17.1027 13.6137C15.3216 16.6985 15.7276 20.5871 18.1072 23.2324C17.3721 25.4493 17.6252 27.8779 18.8008 29.8944C20.5688 32.9873 24.123 34.5786 27.5941 33.8298C29.1373 35.5777 31.3569 36.5717 33.6828 36.5564C37.233 36.5656 40.3821 34.2683 41.4737 30.8732C43.753 30.4041 45.7205 28.9706 46.8718 26.9388C48.6509 23.854 48.2439 19.9685 45.8653 17.3232L45.8643 17.3252ZM33.6849 34.429C32.2642 34.4311 30.8881 33.9315 29.7975 33.0169C29.8472 32.9904 29.9332 32.9426 29.9889 32.908L36.4411 29.1639C36.7712 28.9757 36.9738 28.6226 36.9717 28.2411V19.1017L39.6986 20.6837C39.728 20.698 39.7472 20.7265 39.7513 20.759V28.3276C39.7472 31.6932 37.0345 34.4219 33.6849 34.429ZM20.6387 28.8302C19.9268 27.595 19.6707 26.1473 19.9147 24.7422C19.9623 24.7707 20.0463 24.8226 20.1061 24.8572L26.5583 28.6013C26.8853 28.7936 27.2904 28.7936 27.6185 28.6013L35.4954 24.031V27.1952C35.4974 27.2278 35.4822 27.2593 35.4569 27.2796L28.9348 31.0634C26.0297 32.7442 22.3196 31.7451 20.6397 28.8302H20.6387ZM18.9406 14.6789C19.6494 13.4418 20.7683 12.4956 22.1009 12.0042C22.1009 12.0601 22.0978 12.1588 22.0978 12.228V19.7172C22.0958 20.0977 22.2983 20.4507 22.6274 20.639L30.5043 25.2082L27.7774 26.7903C27.7501 26.8086 27.7157 26.8116 27.6853 26.7984L21.1622 23.0116C18.2632 21.3247 17.2688 17.5979 18.9396 14.68L18.9406 14.6789ZM41.3451 19.9176L33.4682 15.3474L36.1951 13.7663C36.2224 13.748 36.2568 13.745 36.2872 13.7582L42.8103 17.542C45.7144 19.2278 46.7098 22.9607 45.0319 25.8787C44.3221 27.1138 43.2042 28.06 41.8727 28.5524V20.8394C41.8757 20.4589 41.6742 20.1069 41.3461 19.9176H41.3451ZM44.0588 15.8134C44.0112 15.7839 43.9272 15.733 43.8674 15.6984L37.4152 11.9543C37.0882 11.762 36.6831 11.762 36.3551 11.9543L28.4781 16.5245V13.3604C28.4761 13.3278 28.4913 13.2963 28.5166 13.2759L35.0387 9.49521C37.9438 7.81139 41.658 8.81355 43.3328 11.7335C44.0406 12.9666 44.2968 14.4104 44.0568 15.8134H44.0588ZM26.9957 21.4529L24.2678 19.8708C24.2384 19.8566 24.2192 19.8281 24.2151 19.7955V12.227C24.2172 8.8573 26.938 6.12655 30.2917 6.12859C31.7103 6.12859 33.0834 6.62915 34.1739 7.54076C34.1243 7.56721 34.0393 7.61503 33.9826 7.64962L27.5304 11.3937C27.2003 11.5819 26.9977 11.934 26.9998 12.3155L26.9957 21.4509V21.4529ZM28.4771 18.244L31.9857 16.2081L35.4944 18.243V22.3136L31.9857 24.3485L28.4771 22.3136V18.244Z" fill="white"/>
</svg>
