<svg width="235" height="178" viewBox="0 0 235 178" fill="none" xmlns="http://www.w3.org/2000/svg">
<path d="M7.92969 23.1972H21.0781V26.291H4.625V1.45306H20.9023V4.54681H7.92969V12.246H19.707V15.3398H7.92969V23.1972ZM42.3477 26.291H38.5332L33.1016 19.1191L27.6875 26.291H23.9082L31.0098 17.08L24.0137 7.93939H27.8105L33.1367 14.9882L38.4629 7.93939H42.2422L35.2461 17.08L42.3477 26.291ZM56.2168 7.49994C58.8418 7.49994 61.0332 8.41986 62.791 10.2597C64.5488 12.0995 65.4277 14.3847 65.4277 17.1152C65.4277 19.8456 64.5488 22.1308 62.791 23.9706C61.0332 25.8105 58.8418 26.7304 56.2168 26.7304C54.7168 26.7304 53.3516 26.4023 52.1211 25.746C50.8906 25.0781 49.8828 24.1581 49.0977 22.9863V33.1288H46.0039V7.93939H49.0977V11.2441C49.8828 10.0722 50.8906 9.15814 52.1211 8.50189C53.3516 7.83392 54.7168 7.49994 56.2168 7.49994ZM55.6367 23.7421C57.5234 23.7421 59.0938 23.1093 60.3477 21.8437C61.6016 20.5781 62.2285 19.0019 62.2285 17.1152C62.2285 15.2285 61.6016 13.6523 60.3477 12.3867C59.0938 11.121 57.5234 10.4882 55.6367 10.4882C53.7617 10.4882 52.2031 11.121 50.9609 12.3867C49.7188 13.6523 49.0977 15.2285 49.0977 17.1152C49.0977 19.0019 49.7188 20.5781 50.9609 21.8437C52.2031 23.1093 53.7617 23.7421 55.6367 23.7421ZM69.5586 26.291V0.36322H72.6523V26.291H69.5586ZM86.4863 26.7304C84.6582 26.7304 82.9941 26.3144 81.4941 25.4824C79.9941 24.6386 78.8164 23.4843 77.9609 22.0195C77.1172 20.5429 76.6953 18.9081 76.6953 17.1152C76.6953 15.3222 77.1172 13.6933 77.9609 12.2285C78.8164 10.7519 79.9941 9.5976 81.4941 8.76556C82.9941 7.92181 84.6582 7.49994 86.4863 7.49994C89.252 7.49994 91.5664 8.41986 93.4297 10.2597C95.3047 12.0995 96.2422 14.3847 96.2422 17.1152C96.2422 19.8456 95.3047 22.1308 93.4297 23.9706C91.5664 25.8105 89.252 26.7304 86.4863 26.7304ZM86.4863 23.7421C88.3613 23.7421 89.9199 23.1093 91.1621 21.8437C92.416 20.5781 93.043 19.0019 93.043 17.1152C93.043 15.2285 92.416 13.6523 91.1621 12.3867C89.9199 11.121 88.3613 10.4882 86.4863 10.4882C84.5996 10.4882 83.0293 11.121 81.7754 12.3867C80.5215 13.6523 79.8945 15.2285 79.8945 17.1152C79.8945 19.0019 80.5215 20.5781 81.7754 21.8437C83.0293 23.1093 84.5996 23.7421 86.4863 23.7421ZM109.672 7.64056H110.287V10.8398H109.672C107.738 10.8398 106.209 11.4081 105.084 12.5449C103.971 13.6699 103.414 15.1933 103.414 17.1152V26.291H100.32V7.93939H103.414V11.1035C104.855 8.79486 106.941 7.64056 109.672 7.64056ZM130.836 17.1152C130.836 17.291 130.807 17.748 130.748 18.4863H114.945C115.262 20.1035 116.029 21.4101 117.248 22.4062C118.479 23.3906 119.979 23.8828 121.748 23.8828C123.061 23.8828 124.268 23.6074 125.369 23.0566C126.471 22.4941 127.332 21.7734 127.953 20.8945L130.08 22.7226C129.154 23.9648 127.953 24.9433 126.477 25.6581C125.012 26.373 123.4 26.7304 121.643 26.7304C118.771 26.7304 116.381 25.8046 114.471 23.9531C112.561 22.1015 111.605 19.7988 111.605 17.0449C111.605 15.2636 112.021 13.6464 112.854 12.1933C113.697 10.7285 114.857 9.58002 116.334 8.74799C117.811 7.91595 119.451 7.49994 121.256 7.49994C123.049 7.49994 124.678 7.91595 126.143 8.74799C127.607 9.58002 128.756 10.7343 129.588 12.2109C130.42 13.6757 130.836 15.3105 130.836 17.1152ZM121.221 10.3476C119.627 10.3476 118.25 10.8456 117.09 11.8417C115.93 12.8261 115.203 14.1035 114.91 15.6738H127.549C127.256 14.08 126.529 12.7968 125.369 11.8242C124.209 10.8398 122.826 10.3476 121.221 10.3476ZM132.189 31.5117L134.703 22.5468H138.377L134.896 31.5117H132.189ZM22.3789 53.1152C22.3789 53.291 22.3496 53.748 22.291 54.4863H6.48828C6.80469 56.1035 7.57227 57.4101 8.79102 58.4062C10.0215 59.3906 11.5215 59.8828 13.291 59.8828C14.6035 59.8828 15.8105 59.6074 16.9121 59.0566C18.0137 58.4941 18.875 57.7734 19.4961 56.8945L21.623 58.7226C20.6973 59.9648 19.4961 60.9433 18.0195 61.6581C16.5547 62.373 14.9434 62.7304 13.1855 62.7304C10.3145 62.7304 7.92383 61.8046 6.01367 59.9531C4.10352 58.1015 3.14844 55.7988 3.14844 53.0449C3.14844 51.2636 3.56445 49.6464 4.39648 48.1933C5.24023 46.7285 6.40039 45.58 7.87695 44.748C9.35352 43.916 10.9941 43.4999 12.7988 43.4999C14.5918 43.4999 16.2207 43.916 17.6855 44.748C19.1504 45.58 20.2988 46.7343 21.1309 48.2109C21.9629 49.6757 22.3789 51.3105 22.3789 53.1152ZM12.7637 46.3476C11.1699 46.3476 9.79297 46.8456 8.63281 47.8417C7.47266 48.8261 6.74609 50.1035 6.45312 51.6738H19.0918C18.7988 50.08 18.0723 48.7968 16.9121 47.8242C15.752 46.8398 14.3691 46.3476 12.7637 46.3476ZM41.5391 43.9394H44.6328V62.291H41.5391V58.9863C40.7539 60.1581 39.7402 61.0781 38.498 61.746C37.2676 62.4023 35.9023 62.7304 34.4023 62.7304C32.6797 62.7304 31.1152 62.3144 29.709 61.4824C28.3027 60.6386 27.2012 59.4843 26.4043 58.0195C25.6191 56.5429 25.2266 54.9081 25.2266 53.1152C25.2266 51.3222 25.6191 49.6933 26.4043 48.2285C27.2012 46.7519 28.3027 45.5976 29.709 44.7656C31.1152 43.9218 32.6797 43.4999 34.4023 43.4999C35.9023 43.4999 37.2676 43.8339 38.498 44.5019C39.7402 45.1581 40.7539 46.0722 41.5391 47.2441V43.9394ZM34.9824 59.7421C36.8574 59.7421 38.416 59.1093 39.6582 57.8437C40.9121 56.5781 41.5391 55.0019 41.5391 53.1152C41.5391 51.2285 40.9121 49.6523 39.6582 48.3867C38.416 47.121 36.8574 46.4882 34.9824 46.4882C33.0957 46.4882 31.5254 47.121 30.2715 48.3867C29.0176 49.6523 28.3906 51.2285 28.3906 53.1152C28.3906 55.0019 29.0176 56.5781 30.2715 57.8437C31.5254 59.1093 33.0957 59.7421 34.9824 59.7421ZM59.2578 43.6406H59.873V46.8398H59.2578C57.3242 46.8398 55.7949 47.4081 54.6699 48.5449C53.5566 49.6699 53 51.1933 53 53.1152V62.291H49.9062V43.9394H53V47.1035C54.4414 44.7949 56.5273 43.6406 59.2578 43.6406ZM72.9336 43.4999C75.1719 43.4999 76.9707 44.1796 78.3301 45.539C79.7012 46.8984 80.3867 48.7031 80.3867 50.9531V62.291H77.293V51.9199C77.293 50.2792 76.8066 48.9667 75.834 47.9824C74.8613 46.9863 73.5605 46.4882 71.9316 46.4882C70.2324 46.4882 68.873 46.9921 67.8535 47.9999C66.834 49.0078 66.3242 50.3378 66.3242 51.9902V62.291H63.2305V43.9394H66.3242V46.7343C67.8125 44.5781 70.0156 43.4999 72.9336 43.4999ZM83.498 67.5117L86.0117 58.5468H89.6855L86.2051 67.5117H83.498ZM118.145 43.9394H121.238V62.291H118.145V58.9863C117.359 60.1581 116.346 61.0781 115.104 61.746C113.873 62.4023 112.508 62.7304 111.008 62.7304C109.285 62.7304 107.721 62.3144 106.314 61.4824C104.908 60.6386 103.807 59.4843 103.01 58.0195C102.225 56.5429 101.832 54.9081 101.832 53.1152C101.832 51.3222 102.225 49.6933 103.01 48.2285C103.807 46.7519 104.908 45.5976 106.314 44.7656C107.721 43.9218 109.285 43.4999 111.008 43.4999C112.508 43.4999 113.873 43.8339 115.104 44.5019C116.346 45.1581 117.359 46.0722 118.145 47.2441V43.9394ZM111.588 59.7421C113.463 59.7421 115.021 59.1093 116.264 57.8437C117.518 56.5781 118.145 55.0019 118.145 53.1152C118.145 51.2285 117.518 49.6523 116.264 48.3867C115.021 47.121 113.463 46.4882 111.588 46.4882C109.701 46.4882 108.131 47.121 106.877 48.3867C105.623 49.6523 104.996 51.2285 104.996 53.1152C104.996 55.0019 105.623 56.5781 106.877 57.8437C108.131 59.1093 109.701 59.7421 111.588 59.7421ZM136.215 43.4999C138.453 43.4999 140.252 44.1796 141.611 45.539C142.982 46.8984 143.668 48.7031 143.668 50.9531V62.291H140.574V51.9199C140.574 50.2792 140.088 48.9667 139.115 47.9824C138.143 46.9863 136.842 46.4882 135.213 46.4882C133.514 46.4882 132.154 46.9921 131.135 47.9999C130.115 49.0078 129.605 50.3378 129.605 51.9902V62.291H126.512V43.9394H129.605V46.7343C131.094 44.5781 133.297 43.4999 136.215 43.4999ZM163.883 36.3632H166.977V62.291H163.883V58.9863C163.098 60.1581 162.084 61.0781 160.842 61.746C159.611 62.4023 158.246 62.7304 156.746 62.7304C155.023 62.7304 153.459 62.3144 152.053 61.4824C150.646 60.6386 149.545 59.4843 148.748 58.0195C147.963 56.5429 147.57 54.9081 147.57 53.1152C147.57 51.3222 147.963 49.6933 148.748 48.2285C149.545 46.7519 150.646 45.5976 152.053 44.7656C153.459 43.9218 155.023 43.4999 156.746 43.4999C158.246 43.4999 159.611 43.8339 160.842 44.5019C162.084 45.1581 163.098 46.0722 163.883 47.2441V36.3632ZM157.326 59.7421C159.201 59.7421 160.76 59.1093 162.002 57.8437C163.256 56.5781 163.883 55.0019 163.883 53.1152C163.883 51.2285 163.256 49.6523 162.002 48.3867C160.76 47.121 159.201 46.4882 157.326 46.4882C155.439 46.4882 153.869 47.121 152.615 48.3867C151.361 49.6523 150.734 51.2285 150.734 53.1152C150.734 55.0019 151.361 56.5781 152.615 57.8437C153.869 59.1093 155.439 59.7421 157.326 59.7421ZM123.418 76.2656C122.82 76.2656 122.322 76.0722 121.924 75.6855C121.525 75.287 121.326 74.7949 121.326 74.2089C121.326 73.6113 121.525 73.1191 121.924 72.7324C122.322 72.3456 122.82 72.1523 123.418 72.1523C124.004 72.1523 124.49 72.3456 124.877 72.7324C125.264 73.1191 125.457 73.6113 125.457 74.2089C125.457 74.7949 125.258 75.287 124.859 75.6855C124.473 76.0722 123.992 76.2656 123.418 76.2656ZM121.871 98.291V79.9394H124.965V98.291H121.871ZM139.906 79.4999C142.145 79.4999 143.943 80.1796 145.303 81.539C146.674 82.8984 147.359 84.7031 147.359 86.9531V98.291H144.266V87.9199C144.266 86.2792 143.779 84.9667 142.807 83.9824C141.834 82.9863 140.533 82.4882 138.904 82.4882C137.205 82.4882 135.846 82.9921 134.826 83.9999C133.807 85.0078 133.297 86.3378 133.297 87.9902V98.291H130.203V79.9394H133.297V82.7343C134.785 80.5781 136.988 79.4999 139.906 79.4999ZM175.098 79.9394H178.561L168.646 102.176C168.189 103.242 167.539 104.074 166.695 104.672C165.863 105.269 164.943 105.568 163.936 105.568C163.209 105.568 162.453 105.404 161.668 105.076C160.895 104.748 160.244 104.32 159.717 103.793L161.018 101.42C161.709 102.193 162.523 102.58 163.461 102.58C164.492 102.58 165.277 102.029 165.816 100.928L167.135 98.1855L159.154 79.9394H162.705L168.91 94.582L175.098 79.9394ZM189.248 98.7304C187.42 98.7304 185.756 98.3144 184.256 97.4824C182.756 96.6386 181.578 95.4843 180.723 94.0195C179.879 92.5429 179.457 90.9081 179.457 89.1152C179.457 87.3222 179.879 85.6933 180.723 84.2285C181.578 82.7519 182.756 81.5976 184.256 80.7656C185.756 79.9218 187.42 79.4999 189.248 79.4999C192.014 79.4999 194.328 80.4199 196.191 82.2597C198.066 84.0995 199.004 86.3847 199.004 89.1152C199.004 91.8456 198.066 94.1308 196.191 95.9706C194.328 97.8105 192.014 98.7304 189.248 98.7304ZM189.248 95.7421C191.123 95.7421 192.682 95.1093 193.924 93.8437C195.178 92.5781 195.805 91.0019 195.805 89.1152C195.805 87.2285 195.178 85.6523 193.924 84.3867C192.682 83.121 191.123 82.4882 189.248 82.4882C187.361 82.4882 185.791 83.121 184.537 84.3867C183.283 85.6523 182.656 87.2285 182.656 89.1152C182.656 91.0019 183.283 92.5781 184.537 93.8437C185.791 95.1093 187.361 95.7421 189.248 95.7421ZM217.127 96.621C215.615 98.0273 213.605 98.7304 211.098 98.7304C208.59 98.7304 206.574 98.0273 205.051 96.621C203.539 95.2031 202.783 93.3339 202.783 91.0136V79.9394H205.877V90.5917C205.877 92.1386 206.352 93.3867 207.301 94.3359C208.262 95.2734 209.527 95.7421 211.098 95.7421C212.668 95.7421 213.928 95.2734 214.877 94.3359C215.838 93.3867 216.318 92.1386 216.318 90.5917V79.9394H219.412V91.0136C219.412 93.3339 218.65 95.2031 217.127 96.621ZM233.738 79.6406H234.354V82.8398H233.738C231.805 82.8398 230.275 83.4081 229.15 84.5449C228.037 85.6699 227.48 87.1933 227.48 89.1152V98.291H224.387V79.9394H227.48V83.1035C228.922 80.7949 231.008 79.6406 233.738 79.6406ZM14.9258 118.734H9.40625V128.894C9.40625 130.793 10.3906 131.742 12.3594 131.742C13.2148 131.742 14.0703 131.514 14.9258 131.057V133.975C14 134.478 12.9277 134.73 11.709 134.73C9.93945 134.73 8.59766 134.268 7.68359 133.342C6.76953 132.416 6.3125 131.098 6.3125 129.387V118.734H3.00781V115.939H6.3125V111H9.40625V115.939H14.9258V118.734ZM28.25 115.641H28.8652V118.84H28.25C26.3164 118.84 24.7871 119.408 23.6621 120.545C22.5488 121.67 21.9922 123.193 21.9922 125.115V134.291H18.8984V115.939H21.9922V119.103C23.4336 116.795 25.5195 115.641 28.25 115.641ZM46.5664 115.939H49.6602V134.291H46.5664V130.986C45.7812 132.158 44.7676 133.078 43.5254 133.746C42.2949 134.402 40.9297 134.73 39.4297 134.73C37.707 134.73 36.1426 134.314 34.7363 133.482C33.3301 132.639 32.2285 131.484 31.4316 130.019C30.6465 128.543 30.2539 126.908 30.2539 125.115C30.2539 123.322 30.6465 121.693 31.4316 120.228C32.2285 118.752 33.3301 117.598 34.7363 116.766C36.1426 115.922 37.707 115.5 39.4297 115.5C40.9297 115.5 42.2949 115.834 43.5254 116.502C44.7676 117.158 45.7812 118.072 46.5664 119.244V115.939ZM40.0098 131.742C41.8848 131.742 43.4434 131.109 44.6855 129.844C45.9395 128.578 46.5664 127.002 46.5664 125.115C46.5664 123.228 45.9395 121.652 44.6855 120.387C43.4434 119.121 41.8848 118.488 40.0098 118.488C38.123 118.488 36.5527 119.121 35.2988 120.387C34.0449 121.652 33.418 123.228 33.418 125.115C33.418 127.002 34.0449 128.578 35.2988 129.844C36.5527 131.109 38.123 131.742 40.0098 131.742ZM68.75 115.939H72.2129L64.1445 134.291H60.8574L52.8066 115.939H56.3574L62.5625 130.582L68.75 115.939ZM92.3398 125.115C92.3398 125.291 92.3105 125.748 92.252 126.486H76.4492C76.7656 128.103 77.5332 129.41 78.752 130.406C79.9824 131.391 81.4824 131.883 83.252 131.883C84.5645 131.883 85.7715 131.607 86.873 131.057C87.9746 130.494 88.8359 129.773 89.457 128.894L91.584 130.723C90.6582 131.965 89.457 132.943 87.9805 133.658C86.5156 134.373 84.9043 134.73 83.1465 134.73C80.2754 134.73 77.8848 133.805 75.9746 131.953C74.0645 130.102 73.1094 127.799 73.1094 125.045C73.1094 123.264 73.5254 121.646 74.3574 120.193C75.2012 118.728 76.3613 117.58 77.8379 116.748C79.3145 115.916 80.9551 115.5 82.7598 115.5C84.5527 115.5 86.1816 115.916 87.6465 116.748C89.1113 117.58 90.2598 118.734 91.0918 120.211C91.9238 121.676 92.3398 123.31 92.3398 125.115ZM82.7246 118.348C81.1309 118.348 79.7539 118.846 78.5938 119.842C77.4336 120.826 76.707 122.103 76.4141 123.674H89.0527C88.7598 122.08 88.0332 120.797 86.873 119.824C85.7129 118.84 84.3301 118.348 82.7246 118.348ZM96.3125 134.291V108.363H99.4062V134.291H96.3125ZM6.06641 148.266C5.48047 148.266 4.98828 148.072 4.58984 147.685C4.20312 147.287 4.00977 146.795 4.00977 146.209C4.00977 145.611 4.20312 145.119 4.58984 144.732C4.98828 144.346 5.48047 144.152 6.06641 144.152C6.66406 144.152 7.16211 144.346 7.56055 144.732C7.95898 145.119 8.1582 145.611 8.1582 146.209C8.1582 146.795 7.95898 147.287 7.56055 147.685C7.16211 148.072 6.66406 148.266 6.06641 148.266ZM2.63867 177.568C1.83008 177.568 1.0625 177.41 0.335938 177.094V174.316C0.898438 174.586 1.49023 174.721 2.11133 174.721C3.7168 174.721 4.51953 173.894 4.51953 172.242V151.939H7.61328V172.559C7.61328 174.152 7.18555 175.383 6.33008 176.25C5.47461 177.129 4.24414 177.568 2.63867 177.568ZM21.4824 170.73C19.6543 170.73 17.9902 170.314 16.4902 169.482C14.9902 168.639 13.8125 167.484 12.957 166.019C12.1133 164.543 11.6914 162.908 11.6914 161.115C11.6914 159.322 12.1133 157.693 12.957 156.228C13.8125 154.752 14.9902 153.598 16.4902 152.766C17.9902 151.922 19.6543 151.5 21.4824 151.5C24.248 151.5 26.5625 152.42 28.4258 154.26C30.3008 156.1 31.2383 158.385 31.2383 161.115C31.2383 163.846 30.3008 166.131 28.4258 167.971C26.5625 169.81 24.248 170.73 21.4824 170.73ZM21.4824 167.742C23.3574 167.742 24.916 167.109 26.1582 165.844C27.4121 164.578 28.0391 163.002 28.0391 161.115C28.0391 159.228 27.4121 157.652 26.1582 156.387C24.916 155.121 23.3574 154.488 21.4824 154.488C19.5957 154.488 18.0254 155.121 16.7715 156.387C15.5176 157.652 14.8906 159.228 14.8906 161.115C14.8906 163.002 15.5176 164.578 16.7715 165.844C18.0254 167.109 19.5957 167.742 21.4824 167.742ZM49.3613 168.621C47.8496 170.027 45.8398 170.73 43.332 170.73C40.8242 170.73 38.8086 170.027 37.2852 168.621C35.7734 167.203 35.0176 165.334 35.0176 163.014V151.939H38.1113V162.592C38.1113 164.139 38.5859 165.387 39.5352 166.336C40.4961 167.273 41.7617 167.742 43.332 167.742C44.9023 167.742 46.1621 167.273 47.1113 166.336C48.0723 165.387 48.5527 164.139 48.5527 162.592V151.939H51.6465V163.014C51.6465 165.334 50.8848 167.203 49.3613 168.621ZM65.9727 151.641H66.5879V154.84H65.9727C64.0391 154.84 62.5098 155.408 61.3848 156.545C60.2715 157.67 59.7148 159.193 59.7148 161.115V170.291H56.6211V151.939H59.7148V155.103C61.1562 152.795 63.2422 151.641 65.9727 151.641ZM79.6484 151.5C81.8867 151.5 83.6855 152.18 85.0449 153.539C86.416 154.898 87.1016 156.703 87.1016 158.953V170.291H84.0078V159.92C84.0078 158.279 83.5215 156.967 82.5488 155.982C81.5762 154.986 80.2754 154.488 78.6465 154.488C76.9473 154.488 75.5879 154.992 74.5684 156C73.5488 157.008 73.0391 158.338 73.0391 159.99V170.291H69.9453V151.939H73.0391V154.734C74.5273 152.578 76.7305 151.5 79.6484 151.5ZM110.164 161.115C110.164 161.291 110.135 161.748 110.076 162.486H94.2734C94.5898 164.103 95.3574 165.41 96.5762 166.406C97.8066 167.391 99.3066 167.883 101.076 167.883C102.389 167.883 103.596 167.607 104.697 167.057C105.799 166.494 106.66 165.773 107.281 164.894L109.408 166.723C108.482 167.965 107.281 168.943 105.805 169.658C104.34 170.373 102.729 170.73 100.971 170.73C98.0996 170.73 95.709 169.805 93.7988 167.953C91.8887 166.102 90.9336 163.799 90.9336 161.045C90.9336 159.264 91.3496 157.646 92.1816 156.193C93.0254 154.728 94.1855 153.58 95.6621 152.748C97.1387 151.916 98.7793 151.5 100.584 151.5C102.377 151.5 104.006 151.916 105.471 152.748C106.936 153.58 108.084 154.734 108.916 156.211C109.748 157.676 110.164 159.31 110.164 161.115ZM100.549 154.348C98.9551 154.348 97.5781 154.846 96.418 155.842C95.2578 156.826 94.5312 158.103 94.2383 159.674H106.877C106.584 158.08 105.857 156.797 104.697 155.824C103.537 154.84 102.154 154.348 100.549 154.348ZM126.898 151.939H130.361L120.447 174.176C119.99 175.242 119.34 176.074 118.496 176.672C117.664 177.269 116.744 177.568 115.736 177.568C115.01 177.568 114.254 177.404 113.469 177.076C112.695 176.748 112.045 176.32 111.518 175.793L112.818 173.42C113.51 174.193 114.324 174.58 115.262 174.58C116.293 174.58 117.078 174.029 117.617 172.928L118.936 170.185L110.955 151.939H114.506L120.711 166.582L126.898 151.939ZM132.172 170.537C131.516 170.537 130.965 170.314 130.52 169.869C130.086 169.424 129.869 168.879 129.869 168.234C129.869 167.59 130.086 167.045 130.52 166.6C130.965 166.154 131.516 165.932 132.172 165.932C132.84 165.932 133.396 166.154 133.842 166.6C134.287 167.033 134.51 167.578 134.51 168.234C134.51 168.891 134.287 169.441 133.842 169.887C133.396 170.32 132.84 170.537 132.172 170.537Z" fill="white"/>
<path d="M10.3555 98.7304C7.39062 98.7304 4.90625 97.7695 2.90234 95.8476L4.625 93.6152C6.125 95.1503 8.01758 95.9179 10.3027 95.9179C11.5449 95.9179 12.5645 95.6894 13.3613 95.2324C14.1582 94.7636 14.5566 94.1249 14.5566 93.3163C14.5566 92.9765 14.4688 92.6718 14.293 92.4023C14.1289 92.121 13.9297 91.8925 13.6953 91.7167C13.4727 91.541 13.1328 91.371 12.6758 91.207C12.2305 91.0312 11.8379 90.9023 11.498 90.8203C11.1699 90.7265 10.7012 90.6035 10.0918 90.4511C9.5293 90.3105 9.08398 90.1992 8.75586 90.1171C8.42773 90.0234 8 89.8828 7.47266 89.6953C6.95703 89.5078 6.53516 89.3261 6.20703 89.1503C5.89062 88.9745 5.53906 88.746 5.15234 88.4648C4.77734 88.1718 4.47852 87.8671 4.25586 87.5507C4.04492 87.2226 3.86328 86.8359 3.71094 86.3906C3.57031 85.9335 3.5 85.4355 3.5 84.8964C3.5 83.748 3.82812 82.7578 4.48438 81.9257C5.14062 81.0937 5.99023 80.4843 7.0332 80.0976C8.07617 79.6992 9.24219 79.4999 10.5312 79.4999C13.1797 79.4999 15.4238 80.3378 17.2637 82.0136L15.5234 84.2812C14.1758 82.9687 12.5234 82.3124 10.5664 82.3124C9.45312 82.3124 8.52734 82.5234 7.78906 82.9453C7.05078 83.3671 6.68164 83.9589 6.68164 84.7206C6.68164 85.0722 6.76953 85.3886 6.94531 85.6699C7.12109 85.9394 7.32031 86.162 7.54297 86.3378C7.77734 86.5136 8.12891 86.6894 8.59766 86.8652C9.06641 87.0292 9.45898 87.1581 9.77539 87.2519C10.1035 87.3339 10.584 87.4511 11.2168 87.6035C11.7676 87.7324 12.207 87.8437 12.5352 87.9374C12.875 88.0195 13.3027 88.1484 13.8184 88.3242C14.334 88.4999 14.75 88.6757 15.0664 88.8515C15.3945 89.0156 15.7461 89.2382 16.1211 89.5195C16.4961 89.8007 16.7891 90.0995 17 90.416C17.2109 90.7324 17.3867 91.1191 17.5273 91.5761C17.6797 92.0214 17.7559 92.5078 17.7559 93.0351C17.7559 94.8046 17.0586 96.1992 15.6641 97.2187C14.2695 98.2265 12.5 98.7304 10.3555 98.7304ZM31.8887 79.4999C34.5137 79.4999 36.7051 80.4199 38.4629 82.2597C40.2207 84.0995 41.0996 86.3847 41.0996 89.1152C41.0996 91.8456 40.2207 94.1308 38.4629 95.9706C36.7051 97.8105 34.5137 98.7304 31.8887 98.7304C30.3887 98.7304 29.0234 98.4023 27.793 97.746C26.5625 97.0781 25.5547 96.1581 24.7695 94.9863V105.129H21.6758V79.9394H24.7695V83.2441C25.5547 82.0722 26.5625 81.1581 27.793 80.5019C29.0234 79.8339 30.3887 79.4999 31.8887 79.4999ZM31.3086 95.7421C33.1953 95.7421 34.7656 95.1093 36.0195 93.8437C37.2734 92.5781 37.9004 91.0019 37.9004 89.1152C37.9004 87.2285 37.2734 85.6523 36.0195 84.3867C34.7656 83.121 33.1953 82.4882 31.3086 82.4882C29.4336 82.4882 27.875 83.121 26.6328 84.3867C25.3906 85.6523 24.7695 87.2285 24.7695 89.1152C24.7695 91.0019 25.3906 92.5781 26.6328 93.8437C27.875 95.1093 29.4336 95.7421 31.3086 95.7421ZM63.2656 89.1152C63.2656 89.291 63.2363 89.748 63.1777 90.4863H47.375C47.6914 92.1035 48.459 93.4101 49.6777 94.4062C50.9082 95.3906 52.4082 95.8828 54.1777 95.8828C55.4902 95.8828 56.6973 95.6074 57.7988 95.0566C58.9004 94.4941 59.7617 93.7734 60.3828 92.8945L62.5098 94.7226C61.584 95.9648 60.3828 96.9433 58.9062 97.6581C57.4414 98.373 55.8301 98.7304 54.0723 98.7304C51.2012 98.7304 48.8105 97.8046 46.9004 95.9531C44.9902 94.1015 44.0352 91.7988 44.0352 89.0449C44.0352 87.2636 44.4512 85.6464 45.2832 84.1933C46.127 82.7285 47.2871 81.58 48.7637 80.748C50.2402 79.916 51.8809 79.4999 53.6855 79.4999C55.4785 79.4999 57.1074 79.916 58.5723 80.748C60.0371 81.58 61.1855 82.7343 62.0176 84.2109C62.8496 85.6757 63.2656 87.3105 63.2656 89.1152ZM53.6504 82.3476C52.0566 82.3476 50.6797 82.8456 49.5195 83.8417C48.3594 84.8261 47.6328 86.1035 47.3398 87.6738H59.9785C59.6855 86.08 58.959 84.7968 57.7988 83.8242C56.6387 82.8398 55.2559 82.3476 53.6504 82.3476ZM76.9414 79.4999C79.1797 79.4999 80.9785 80.1796 82.3379 81.539C83.709 82.8984 84.3945 84.7031 84.3945 86.9531V98.291H81.3008V87.9199C81.3008 86.2792 80.8145 84.9667 79.8418 83.9824C78.8691 82.9863 77.5684 82.4882 75.9395 82.4882C74.2402 82.4882 72.8809 82.9921 71.8613 83.9999C70.8418 85.0078 70.332 86.3378 70.332 87.9902V98.291H67.2383V79.9394H70.332V82.7343C71.8203 80.5781 74.0234 79.4999 76.9414 79.4999ZM104.609 72.3632H107.703V98.291H104.609V94.9863C103.824 96.1581 102.811 97.0781 101.568 97.746C100.338 98.4023 98.9727 98.7304 97.4727 98.7304C95.75 98.7304 94.1855 98.3144 92.7793 97.4824C91.373 96.6386 90.2715 95.4843 89.4746 94.0195C88.6895 92.5429 88.2969 90.9081 88.2969 89.1152C88.2969 87.3222 88.6895 85.6933 89.4746 84.2285C90.2715 82.7519 91.373 81.5976 92.7793 80.7656C94.1855 79.9218 95.75 79.4999 97.4727 79.4999C98.9727 79.4999 100.338 79.8339 101.568 80.5019C102.811 81.1581 103.824 82.0722 104.609 83.2441V72.3632ZM98.0527 95.7421C99.9277 95.7421 101.486 95.1093 102.729 93.8437C103.982 92.5781 104.609 91.0019 104.609 89.1152C104.609 87.2285 103.982 85.6523 102.729 84.3867C101.486 83.121 99.9277 82.4882 98.0527 82.4882C96.166 82.4882 94.5957 83.121 93.3418 84.3867C92.0879 85.6523 91.4609 87.2285 91.4609 89.1152C91.4609 91.0019 92.0879 92.5781 93.3418 93.8437C94.5957 95.1093 96.166 95.7421 98.0527 95.7421Z" fill="#A7F9C3"/>
</svg>
