<svg width="24" height="24" viewBox="0 0 24 24" fill="none" xmlns="http://www.w3.org/2000/svg">
<path d="M6.49805 23C6.49805 23.2761 6.7219 23.5 6.99805 23.5C7.27419 23.5 7.49805 23.2761 7.49805 23L6.49805 23ZM7.3516 8.64645C7.15634 8.45118 6.83976 8.45118 6.64449 8.64645L3.46251 11.8284C3.26725 12.0237 3.26725 12.3403 3.46251 12.5355C3.65777 12.7308 3.97436 12.7308 4.16962 12.5355L6.99805 9.70711L9.82647 12.5355C10.0217 12.7308 10.3383 12.7308 10.5336 12.5355C10.7288 12.3403 10.7288 12.0237 10.5336 11.8284L7.3516 8.64645ZM7.49805 23L7.49805 9L6.49805 9L6.49805 23L7.49805 23Z" fill="white"/>
<path d="M18.498 23C18.498 23.2761 18.7219 23.5 18.998 23.5C19.2742 23.5 19.498 23.2761 19.498 23L18.498 23ZM19.3516 12.6464C19.1563 12.4512 18.8398 12.4512 18.6445 12.6464L15.4625 15.8284C15.2673 16.0237 15.2673 16.3403 15.4625 16.5355C15.6578 16.7308 15.9744 16.7308 16.1696 16.5355L18.998 13.7071L21.8265 16.5355C22.0217 16.7308 22.3383 16.7308 22.5336 16.5355C22.7288 16.3403 22.7288 16.0237 22.5336 15.8284L19.3516 12.6464ZM19.498 23L19.498 13L18.498 13L18.498 23L19.498 23Z" fill="white"/>
<path d="M12.498 23C12.498 23.2761 12.7219 23.5 12.998 23.5C13.2742 23.5 13.498 23.2761 13.498 23L12.498 23ZM13.3516 2.64645C13.1563 2.45119 12.8398 2.45119 12.6445 2.64645L9.46251 5.82843C9.26725 6.02369 9.26725 6.34027 9.46251 6.53553C9.65777 6.7308 9.97436 6.7308 10.1696 6.53553L12.998 3.70711L15.8265 6.53553C16.0217 6.7308 16.3383 6.7308 16.5336 6.53553C16.7288 6.34027 16.7288 6.02369 16.5336 5.82843L13.3516 2.64645ZM13.498 23L13.498 3L12.498 3L12.498 23L13.498 23Z" fill="white"/>
</svg>
