<svg width="460" height="121" viewBox="0 0 460 121" fill="none" xmlns="http://www.w3.org/2000/svg">
<path d="M3.59766 22.3955H12.9141V23.79H2.13281V7.23145H12.7969V8.62598H3.59766V14.7666H12V16.1611H3.59766V22.3955ZM26.5664 11.5557H27.9609V23.79H26.5664V20.9541C26.0508 21.9229 25.332 22.6885 24.4102 23.251C23.4883 23.8057 22.4492 24.083 21.293 24.083C19.5195 24.083 18.0391 23.4697 16.8516 22.2432C15.6641 21.0166 15.0703 19.4932 15.0703 17.6729C15.0703 15.8525 15.6641 14.3291 16.8516 13.1025C18.0391 11.876 19.5195 11.2627 21.293 11.2627C22.4492 11.2627 23.4883 11.54 24.4102 12.0947C25.332 12.6494 26.0508 13.4111 26.5664 14.3799V11.5557ZM21.5273 22.7354C22.9648 22.7354 24.1641 22.2549 25.125 21.2939C26.0859 20.3252 26.5664 19.1182 26.5664 17.6729C26.5664 16.2275 26.0859 15.0244 25.125 14.0635C24.1641 13.0947 22.9648 12.6104 21.5273 12.6104C20.0977 12.6104 18.9023 13.0947 17.9414 14.0635C16.9883 15.0244 16.5117 16.2275 16.5117 17.6729C16.5117 19.1182 16.9883 20.3252 17.9414 21.2939C18.9023 22.2549 20.0977 22.7354 21.5273 22.7354ZM37.7578 11.3564H38.1211V12.7979H37.7578C36.3516 12.7979 35.2305 13.2197 34.3945 14.0635C33.5664 14.9072 33.1523 16.0439 33.1523 17.4736V23.79H31.7578V11.5557H33.1523V14.1221C33.6055 13.2471 34.2266 12.5674 35.0156 12.083C35.8125 11.5986 36.7266 11.3564 37.7578 11.3564ZM46.6875 11.2627C48.2266 11.2627 49.4648 11.7314 50.4023 12.6689C51.3477 13.5986 51.8203 14.833 51.8203 16.3721V23.79H50.4375V16.7822C50.4375 15.5244 50.0547 14.5166 49.2891 13.7588C48.5312 12.9932 47.5273 12.6104 46.2773 12.6104C44.9805 12.6104 43.9336 12.9971 43.1367 13.7705C42.3398 14.5439 41.9414 15.5635 41.9414 16.8291V23.79H40.5469V11.5557H41.9414V13.8525C42.4023 13.0244 43.0391 12.3877 43.8516 11.9424C44.6719 11.4893 45.6172 11.2627 46.6875 11.2627ZM102.961 23.79L97.2773 16.7822H94.582V23.79H93.1172V7.23145H99.5977C100.988 7.23145 102.148 7.68848 103.078 8.60254C104.008 9.5166 104.473 10.6572 104.473 12.0244C104.473 13.376 104.008 14.5088 103.078 15.4229C102.156 16.3291 101.004 16.7822 99.6211 16.7822H99.0703L104.789 23.79H102.961ZM94.582 8.62598V15.4814H99.5742C100.535 15.4814 101.34 15.1572 101.988 14.5088C102.637 13.8604 102.961 13.0439 102.961 12.0596C102.961 11.0752 102.637 10.2588 101.988 9.61035C101.34 8.9541 100.535 8.62598 99.5742 8.62598H94.582ZM109.277 22.3955H117.867V23.79H107.812V7.23145H109.277V22.3955ZM130.488 7.23145H132.117L125.109 23.79H123.527L116.52 7.23145H118.207L124.348 21.915L130.488 7.23145ZM151.629 11.5557H153.023V23.79H151.629V20.9541C151.113 21.9229 150.395 22.6885 149.473 23.251C148.551 23.8057 147.512 24.083 146.355 24.083C144.582 24.083 143.102 23.4697 141.914 22.2432C140.727 21.0166 140.133 19.4932 140.133 17.6729C140.133 15.8525 140.727 14.3291 141.914 13.1025C143.102 11.876 144.582 11.2627 146.355 11.2627C147.512 11.2627 148.551 11.54 149.473 12.0947C150.395 12.6494 151.113 13.4111 151.629 14.3799V11.5557ZM146.59 22.7354C148.027 22.7354 149.227 22.2549 150.188 21.2939C151.148 20.3252 151.629 19.1182 151.629 17.6729C151.629 16.2275 151.148 15.0244 150.188 14.0635C149.227 13.0947 148.027 12.6104 146.59 12.6104C145.16 12.6104 143.965 13.0947 143.004 14.0635C142.051 15.0244 141.574 16.2275 141.574 17.6729C141.574 19.1182 142.051 20.3252 143.004 21.2939C143.965 22.2549 145.16 22.7354 146.59 22.7354ZM160.711 24.083C159.719 24.083 158.809 23.9072 157.98 23.5557C157.152 23.2041 156.453 22.7314 155.883 22.1377L156.68 21.1299C157.148 21.6533 157.727 22.0635 158.414 22.3604C159.109 22.6572 159.867 22.8057 160.688 22.8057C161.664 22.8057 162.465 22.6064 163.09 22.208C163.723 21.8018 164.039 21.2666 164.039 20.6025C164.039 20.3604 164 20.1416 163.922 19.9463C163.844 19.751 163.719 19.5791 163.547 19.4307C163.375 19.2744 163.199 19.1416 163.02 19.0322C162.848 18.9229 162.609 18.8174 162.305 18.7158C162.008 18.6143 161.75 18.5322 161.531 18.4697C161.312 18.4072 161.02 18.333 160.652 18.2471C160.309 18.1611 160.043 18.0947 159.855 18.0479C159.676 17.9932 159.426 17.915 159.105 17.8135C158.793 17.7119 158.543 17.6182 158.355 17.5322C158.176 17.4385 157.961 17.3252 157.711 17.1924C157.461 17.0518 157.262 16.9033 157.113 16.7471C156.973 16.583 156.832 16.4033 156.691 16.208C156.551 16.0049 156.449 15.7783 156.387 15.5283C156.324 15.2705 156.293 14.9932 156.293 14.6963C156.293 13.9775 156.5 13.3564 156.914 12.833C157.336 12.3018 157.879 11.9072 158.543 11.6494C159.215 11.3916 159.961 11.2627 160.781 11.2627C162.523 11.2627 163.961 11.8291 165.094 12.9619L164.309 13.9932C163.887 13.54 163.371 13.1846 162.762 12.9268C162.16 12.6611 161.508 12.5283 160.805 12.5283C159.93 12.5283 159.199 12.7197 158.613 13.1025C158.027 13.4775 157.734 13.9775 157.734 14.6025C157.734 14.8916 157.801 15.1533 157.934 15.3877C158.066 15.6221 158.223 15.8135 158.402 15.9619C158.59 16.1104 158.855 16.2549 159.199 16.3955C159.551 16.5283 159.855 16.6299 160.113 16.7002C160.371 16.7705 160.73 16.8604 161.191 16.9697C161.488 17.04 161.719 17.0986 161.883 17.1455C162.047 17.1846 162.27 17.2471 162.551 17.333C162.832 17.4189 163.055 17.4971 163.219 17.5674C163.383 17.6299 163.578 17.7197 163.805 17.8369C164.039 17.9463 164.227 18.0596 164.367 18.1768C164.508 18.2939 164.656 18.4346 164.812 18.5986C164.977 18.7549 165.098 18.9229 165.176 19.1025C165.262 19.2822 165.332 19.4893 165.387 19.7236C165.449 19.9502 165.48 20.1924 165.48 20.4502C165.48 21.5674 165.031 22.4541 164.133 23.1104C163.234 23.7588 162.094 24.083 160.711 24.083ZM180.316 24.083C178.473 24.083 176.93 23.4697 175.688 22.2432C174.453 21.0166 173.836 19.4932 173.836 17.6729C173.836 15.8525 174.453 14.3291 175.688 13.1025C176.93 11.876 178.473 11.2627 180.316 11.2627C181.512 11.2627 182.598 11.5361 183.574 12.083C184.559 12.6299 185.328 13.3799 185.883 14.333L184.664 15.083C184.234 14.3252 183.637 13.7236 182.871 13.2783C182.105 12.833 181.254 12.6104 180.316 12.6104C178.879 12.6104 177.68 13.0947 176.719 14.0635C175.758 15.0244 175.277 16.2275 175.277 17.6729C175.277 19.1182 175.758 20.3252 176.719 21.2939C177.68 22.2549 178.879 22.7354 180.316 22.7354C181.254 22.7354 182.105 22.5127 182.871 22.0674C183.637 21.6221 184.234 21.0205 184.664 20.2627L185.883 21.001C185.32 21.9541 184.551 22.708 183.574 23.2627C182.598 23.8096 181.512 24.083 180.316 24.083ZM199.395 11.5557H200.789V23.79H199.395V20.9541C198.879 21.9229 198.16 22.6885 197.238 23.251C196.316 23.8057 195.277 24.083 194.121 24.083C192.348 24.083 190.867 23.4697 189.68 22.2432C188.492 21.0166 187.898 19.4932 187.898 17.6729C187.898 15.8525 188.492 14.3291 189.68 13.1025C190.867 11.876 192.348 11.2627 194.121 11.2627C195.277 11.2627 196.316 11.54 197.238 12.0947C198.16 12.6494 198.879 13.4111 199.395 14.3799V11.5557ZM194.355 22.7354C195.793 22.7354 196.992 22.2549 197.953 21.2939C198.914 20.3252 199.395 19.1182 199.395 17.6729C199.395 16.2275 198.914 15.0244 197.953 14.0635C196.992 13.0947 195.793 12.6104 194.355 12.6104C192.926 12.6104 191.73 13.0947 190.77 14.0635C189.816 15.0244 189.34 16.2275 189.34 17.6729C189.34 19.1182 189.816 20.3252 190.77 21.2939C191.73 22.2549 192.926 22.7354 194.355 22.7354ZM208.477 24.083C207.484 24.083 206.574 23.9072 205.746 23.5557C204.918 23.2041 204.219 22.7314 203.648 22.1377L204.445 21.1299C204.914 21.6533 205.492 22.0635 206.18 22.3604C206.875 22.6572 207.633 22.8057 208.453 22.8057C209.43 22.8057 210.23 22.6064 210.855 22.208C211.488 21.8018 211.805 21.2666 211.805 20.6025C211.805 20.3604 211.766 20.1416 211.688 19.9463C211.609 19.751 211.484 19.5791 211.312 19.4307C211.141 19.2744 210.965 19.1416 210.785 19.0322C210.613 18.9229 210.375 18.8174 210.07 18.7158C209.773 18.6143 209.516 18.5322 209.297 18.4697C209.078 18.4072 208.785 18.333 208.418 18.2471C208.074 18.1611 207.809 18.0947 207.621 18.0479C207.441 17.9932 207.191 17.915 206.871 17.8135C206.559 17.7119 206.309 17.6182 206.121 17.5322C205.941 17.4385 205.727 17.3252 205.477 17.1924C205.227 17.0518 205.027 16.9033 204.879 16.7471C204.738 16.583 204.598 16.4033 204.457 16.208C204.316 16.0049 204.215 15.7783 204.152 15.5283C204.09 15.2705 204.059 14.9932 204.059 14.6963C204.059 13.9775 204.266 13.3564 204.68 12.833C205.102 12.3018 205.645 11.9072 206.309 11.6494C206.98 11.3916 207.727 11.2627 208.547 11.2627C210.289 11.2627 211.727 11.8291 212.859 12.9619L212.074 13.9932C211.652 13.54 211.137 13.1846 210.527 12.9268C209.926 12.6611 209.273 12.5283 208.57 12.5283C207.695 12.5283 206.965 12.7197 206.379 13.1025C205.793 13.4775 205.5 13.9775 205.5 14.6025C205.5 14.8916 205.566 15.1533 205.699 15.3877C205.832 15.6221 205.988 15.8135 206.168 15.9619C206.355 16.1104 206.621 16.2549 206.965 16.3955C207.316 16.5283 207.621 16.6299 207.879 16.7002C208.137 16.7705 208.496 16.8604 208.957 16.9697C209.254 17.04 209.484 17.0986 209.648 17.1455C209.812 17.1846 210.035 17.2471 210.316 17.333C210.598 17.4189 210.82 17.4971 210.984 17.5674C211.148 17.6299 211.344 17.7197 211.57 17.8369C211.805 17.9463 211.992 18.0596 212.133 18.1768C212.273 18.2939 212.422 18.4346 212.578 18.5986C212.742 18.7549 212.863 18.9229 212.941 19.1025C213.027 19.2822 213.098 19.4893 213.152 19.7236C213.215 19.9502 213.246 20.1924 213.246 20.4502C213.246 21.5674 212.797 22.4541 211.898 23.1104C211 23.7588 209.859 24.083 208.477 24.083ZM222.305 11.2627C223.844 11.2627 225.082 11.7314 226.02 12.6689C226.965 13.5986 227.438 14.833 227.438 16.3721V23.79H226.055V16.7822C226.055 15.5244 225.672 14.5166 224.906 13.7588C224.148 12.9932 223.145 12.6104 221.895 12.6104C220.598 12.6104 219.551 12.9971 218.754 13.7705C217.957 14.5439 217.559 15.5635 217.559 16.8291V23.79H216.164V6.50488H217.559V13.8994C218.02 13.0557 218.656 12.4072 219.469 11.9541C220.289 11.4932 221.234 11.2627 222.305 11.2627ZM237.762 11.2627C239.543 11.2627 241.027 11.876 242.215 13.1025C243.41 14.3213 244.008 15.8447 244.008 17.6729C244.008 19.501 243.41 21.0283 242.215 22.2549C241.027 23.4736 239.543 24.083 237.762 24.083C236.613 24.083 235.574 23.8018 234.645 23.2393C233.723 22.6768 233.004 21.915 232.488 20.9541V23.79H231.094V6.50488H232.488V14.3799C232.996 13.4189 233.715 12.6611 234.645 12.1064C235.574 11.5439 236.613 11.2627 237.762 11.2627ZM233.93 21.2939C234.891 22.2549 236.09 22.7354 237.527 22.7354C238.965 22.7354 240.164 22.2549 241.125 21.2939C242.086 20.3252 242.566 19.1182 242.566 17.6729C242.566 16.2275 242.086 15.0244 241.125 14.0635C240.164 13.0947 238.965 12.6104 237.527 12.6104C236.09 12.6104 234.891 13.0947 233.93 14.0635C232.969 15.0244 232.488 16.2275 232.488 17.6729C232.488 19.1182 232.969 20.3252 233.93 21.2939ZM257.73 11.5557H259.125V23.79H257.73V20.9541C257.215 21.9229 256.496 22.6885 255.574 23.251C254.652 23.8057 253.613 24.083 252.457 24.083C250.684 24.083 249.203 23.4697 248.016 22.2432C246.828 21.0166 246.234 19.4932 246.234 17.6729C246.234 15.8525 246.828 14.3291 248.016 13.1025C249.203 11.876 250.684 11.2627 252.457 11.2627C253.613 11.2627 254.652 11.54 255.574 12.0947C256.496 12.6494 257.215 13.4111 257.73 14.3799V11.5557ZM252.691 22.7354C254.129 22.7354 255.328 22.2549 256.289 21.2939C257.25 20.3252 257.73 19.1182 257.73 17.6729C257.73 16.2275 257.25 15.0244 256.289 14.0635C255.328 13.0947 254.129 12.6104 252.691 12.6104C251.262 12.6104 250.066 13.0947 249.105 14.0635C248.152 15.0244 247.676 16.2275 247.676 17.6729C247.676 19.1182 248.152 20.3252 249.105 21.2939C250.066 22.2549 251.262 22.7354 252.691 22.7354ZM268.605 24.083C266.762 24.083 265.219 23.4697 263.977 22.2432C262.742 21.0166 262.125 19.4932 262.125 17.6729C262.125 15.8525 262.742 14.3291 263.977 13.1025C265.219 11.876 266.762 11.2627 268.605 11.2627C269.801 11.2627 270.887 11.5361 271.863 12.083C272.848 12.6299 273.617 13.3799 274.172 14.333L272.953 15.083C272.523 14.3252 271.926 13.7236 271.16 13.2783C270.395 12.833 269.543 12.6104 268.605 12.6104C267.168 12.6104 265.969 13.0947 265.008 14.0635C264.047 15.0244 263.566 16.2275 263.566 17.6729C263.566 19.1182 264.047 20.3252 265.008 21.2939C265.969 22.2549 267.168 22.7354 268.605 22.7354C269.543 22.7354 270.395 22.5127 271.16 22.0674C271.926 21.6221 272.523 21.0205 272.953 20.2627L274.172 21.001C273.609 21.9541 272.84 22.708 271.863 23.2627C270.887 23.8096 269.801 24.083 268.605 24.083ZM285.281 23.79L280.336 18.4111L278.426 20.4033V23.79H277.031V6.50488H278.426V18.5283L285.141 11.5557H286.969L281.32 17.4033L287.133 23.79H285.281ZM300.469 7.5127C299.023 7.5127 298.301 8.2041 298.301 9.58691V11.5557H302.145V12.8213H298.301V23.79H296.918V12.8213H294.516V11.5557H296.918V9.48145C296.918 8.41113 297.195 7.60254 297.75 7.05566C298.312 6.50098 299.121 6.22363 300.176 6.22363C300.91 6.22363 301.59 6.38379 302.215 6.7041V7.94629C301.691 7.65723 301.109 7.5127 300.469 7.5127ZM309.457 24.083C307.613 24.083 306.07 23.4697 304.828 22.2432C303.594 21.0166 302.977 19.4932 302.977 17.6729C302.977 15.8525 303.594 14.3291 304.828 13.1025C306.07 11.876 307.613 11.2627 309.457 11.2627C310.66 11.2627 311.754 11.5439 312.738 12.1064C313.73 12.6611 314.508 13.4307 315.07 14.415C315.633 15.3916 315.914 16.4775 315.914 17.6729C315.914 18.8682 315.633 19.958 315.07 20.9424C314.508 21.9189 313.73 22.6885 312.738 23.251C311.754 23.8057 310.66 24.083 309.457 24.083ZM305.859 21.2939C306.82 22.2549 308.02 22.7354 309.457 22.7354C310.895 22.7354 312.09 22.2549 313.043 21.2939C313.996 20.3252 314.473 19.1182 314.473 17.6729C314.473 16.2275 313.996 15.0244 313.043 14.0635C312.09 13.0947 310.895 12.6104 309.457 12.6104C308.02 12.6104 306.82 13.0947 305.859 14.0635C304.898 15.0244 304.418 16.2275 304.418 17.6729C304.418 19.1182 304.898 20.3252 305.859 21.2939ZM324.914 11.3564H325.277V12.7979H324.914C323.508 12.7979 322.387 13.2197 321.551 14.0635C320.723 14.9072 320.309 16.0439 320.309 17.4736V23.79H318.914V11.5557H320.309V14.1221C320.762 13.2471 321.383 12.5674 322.172 12.083C322.969 11.5986 323.883 11.3564 324.914 11.3564ZM340.605 11.2627C342.387 11.2627 343.871 11.876 345.059 13.1025C346.254 14.3213 346.852 15.8447 346.852 17.6729C346.852 19.501 346.254 21.0283 345.059 22.2549C343.871 23.4736 342.387 24.083 340.605 24.083C339.457 24.083 338.418 23.8018 337.488 23.2393C336.566 22.6768 335.848 21.915 335.332 20.9541V23.79H333.938V6.50488H335.332V14.3799C335.84 13.4189 336.559 12.6611 337.488 12.1064C338.418 11.5439 339.457 11.2627 340.605 11.2627ZM336.773 21.2939C337.734 22.2549 338.934 22.7354 340.371 22.7354C341.809 22.7354 343.008 22.2549 343.969 21.2939C344.93 20.3252 345.41 19.1182 345.41 17.6729C345.41 16.2275 344.93 15.0244 343.969 14.0635C343.008 13.0947 341.809 12.6104 340.371 12.6104C338.934 12.6104 337.734 13.0947 336.773 14.0635C335.812 15.0244 335.332 16.2275 335.332 17.6729C335.332 19.1182 335.812 20.3252 336.773 21.2939ZM355.535 24.083C353.691 24.083 352.148 23.4697 350.906 22.2432C349.672 21.0166 349.055 19.4932 349.055 17.6729C349.055 15.8525 349.672 14.3291 350.906 13.1025C352.148 11.876 353.691 11.2627 355.535 11.2627C356.738 11.2627 357.832 11.5439 358.816 12.1064C359.809 12.6611 360.586 13.4307 361.148 14.415C361.711 15.3916 361.992 16.4775 361.992 17.6729C361.992 18.8682 361.711 19.958 361.148 20.9424C360.586 21.9189 359.809 22.6885 358.816 23.251C357.832 23.8057 356.738 24.083 355.535 24.083ZM351.938 21.2939C352.898 22.2549 354.098 22.7354 355.535 22.7354C356.973 22.7354 358.168 22.2549 359.121 21.2939C360.074 20.3252 360.551 19.1182 360.551 17.6729C360.551 16.2275 360.074 15.0244 359.121 14.0635C358.168 13.0947 356.973 12.6104 355.535 12.6104C354.098 12.6104 352.898 13.0947 351.938 14.0635C350.977 15.0244 350.496 16.2275 350.496 17.6729C350.496 19.1182 350.977 20.3252 351.938 21.2939ZM370.676 24.083C368.832 24.083 367.289 23.4697 366.047 22.2432C364.812 21.0166 364.195 19.4932 364.195 17.6729C364.195 15.8525 364.812 14.3291 366.047 13.1025C367.289 11.876 368.832 11.2627 370.676 11.2627C371.879 11.2627 372.973 11.5439 373.957 12.1064C374.949 12.6611 375.727 13.4307 376.289 14.415C376.852 15.3916 377.133 16.4775 377.133 17.6729C377.133 18.8682 376.852 19.958 376.289 20.9424C375.727 21.9189 374.949 22.6885 373.957 23.251C372.973 23.8057 371.879 24.083 370.676 24.083ZM367.078 21.2939C368.039 22.2549 369.238 22.7354 370.676 22.7354C372.113 22.7354 373.309 22.2549 374.262 21.2939C375.215 20.3252 375.691 19.1182 375.691 17.6729C375.691 16.2275 375.215 15.0244 374.262 14.0635C373.309 13.0947 372.113 12.6104 370.676 12.6104C369.238 12.6104 368.039 13.0947 367.078 14.0635C366.117 15.0244 365.637 16.2275 365.637 17.6729C365.637 19.1182 366.117 20.3252 367.078 21.2939ZM388.383 23.79L383.438 18.4111L381.527 20.4033V23.79H380.133V6.50488H381.527V18.5283L388.242 11.5557H390.07L384.422 17.4033L390.234 23.79H388.383ZM393.059 8.67285C392.777 8.67285 392.539 8.5752 392.344 8.37988C392.148 8.18457 392.051 7.94629 392.051 7.66504C392.051 7.3916 392.148 7.16113 392.344 6.97363C392.547 6.77832 392.785 6.68066 393.059 6.68066C393.348 6.68066 393.59 6.77832 393.785 6.97363C393.988 7.16113 394.09 7.3916 394.09 7.66504C394.09 7.9541 393.988 8.19629 393.785 8.3916C393.59 8.5791 393.348 8.67285 393.059 8.67285ZM392.367 23.79V11.5557H393.762V23.79H392.367ZM403.711 11.2627C405.25 11.2627 406.488 11.7314 407.426 12.6689C408.371 13.5986 408.844 14.833 408.844 16.3721V23.79H407.461V16.7822C407.461 15.5244 407.078 14.5166 406.312 13.7588C405.555 12.9932 404.551 12.6104 403.301 12.6104C402.004 12.6104 400.957 12.9971 400.16 13.7705C399.363 14.5439 398.965 15.5635 398.965 16.8291V23.79H397.57V11.5557H398.965V13.8525C399.426 13.0244 400.062 12.3877 400.875 11.9424C401.695 11.4893 402.641 11.2627 403.711 11.2627ZM420.199 24.3174C421.316 24.3174 422.23 24.5908 422.941 25.1377C423.652 25.6924 424.043 26.4424 424.113 27.3877L422.672 27.7275C422.656 27.1182 422.402 26.626 421.91 26.251C421.418 25.876 420.77 25.6885 419.965 25.6885H415.137C414.191 25.6885 413.426 25.4385 412.84 24.9385C412.262 24.4463 411.973 23.7979 411.973 22.9932C411.973 22.4541 412.102 21.9541 412.359 21.4932C412.617 21.0244 412.969 20.6689 413.414 20.4268C412.273 19.3877 411.703 18.0947 411.703 16.5479C411.703 15.0479 412.227 13.7939 413.273 12.7861C414.32 11.7705 415.629 11.2627 417.199 11.2627C418.402 11.2627 419.469 11.5752 420.398 12.2002C420.484 11.5596 420.754 11.0518 421.207 10.6768C421.668 10.3018 422.254 10.1143 422.965 10.1143H423.879V11.4033H423.035C422.543 11.4033 422.145 11.5479 421.84 11.8369C421.535 12.126 421.383 12.5088 421.383 12.9854V13.0674C422.242 14.0283 422.672 15.1885 422.672 16.5479C422.672 18.0479 422.148 19.2979 421.102 20.2979C420.062 21.2979 418.762 21.7979 417.199 21.7979C416.105 21.7979 415.137 21.5518 414.293 21.0596C413.996 21.2236 413.766 21.4502 413.602 21.7393C413.445 22.0283 413.367 22.3369 413.367 22.665C413.367 23.165 413.551 23.5635 413.918 23.8604C414.293 24.165 414.781 24.3174 415.383 24.3174H420.199ZM413.145 16.5479C413.145 17.665 413.531 18.5986 414.305 19.3486C415.078 20.0986 416.043 20.4736 417.199 20.4736C418.348 20.4736 419.305 20.0986 420.07 19.3486C420.844 18.5986 421.23 17.665 421.23 16.5479C421.23 15.415 420.848 14.4736 420.082 13.7236C419.316 12.9658 418.355 12.5869 417.199 12.5869C416.035 12.5869 415.066 12.9658 414.293 13.7236C413.527 14.4736 413.145 15.415 413.145 16.5479ZM429.844 24.083C428.852 24.083 427.941 23.9072 427.113 23.5557C426.285 23.2041 425.586 22.7314 425.016 22.1377L425.812 21.1299C426.281 21.6533 426.859 22.0635 427.547 22.3604C428.242 22.6572 429 22.8057 429.82 22.8057C430.797 22.8057 431.598 22.6064 432.223 22.208C432.855 21.8018 433.172 21.2666 433.172 20.6025C433.172 20.3604 433.133 20.1416 433.055 19.9463C432.977 19.751 432.852 19.5791 432.68 19.4307C432.508 19.2744 432.332 19.1416 432.152 19.0322C431.98 18.9229 431.742 18.8174 431.438 18.7158C431.141 18.6143 430.883 18.5322 430.664 18.4697C430.445 18.4072 430.152 18.333 429.785 18.2471C429.441 18.1611 429.176 18.0947 428.988 18.0479C428.809 17.9932 428.559 17.915 428.238 17.8135C427.926 17.7119 427.676 17.6182 427.488 17.5322C427.309 17.4385 427.094 17.3252 426.844 17.1924C426.594 17.0518 426.395 16.9033 426.246 16.7471C426.105 16.583 425.965 16.4033 425.824 16.208C425.684 16.0049 425.582 15.7783 425.52 15.5283C425.457 15.2705 425.426 14.9932 425.426 14.6963C425.426 13.9775 425.633 13.3564 426.047 12.833C426.469 12.3018 427.012 11.9072 427.676 11.6494C428.348 11.3916 429.094 11.2627 429.914 11.2627C431.656 11.2627 433.094 11.8291 434.227 12.9619L433.441 13.9932C433.02 13.54 432.504 13.1846 431.895 12.9268C431.293 12.6611 430.641 12.5283 429.938 12.5283C429.062 12.5283 428.332 12.7197 427.746 13.1025C427.16 13.4775 426.867 13.9775 426.867 14.6025C426.867 14.8916 426.934 15.1533 427.066 15.3877C427.199 15.6221 427.355 15.8135 427.535 15.9619C427.723 16.1104 427.988 16.2549 428.332 16.3955C428.684 16.5283 428.988 16.6299 429.246 16.7002C429.504 16.7705 429.863 16.8604 430.324 16.9697C430.621 17.04 430.852 17.0986 431.016 17.1455C431.18 17.1846 431.402 17.2471 431.684 17.333C431.965 17.4189 432.188 17.4971 432.352 17.5674C432.516 17.6299 432.711 17.7197 432.938 17.8369C433.172 17.9463 433.359 18.0596 433.5 18.1768C433.641 18.2939 433.789 18.4346 433.945 18.5986C434.109 18.7549 434.23 18.9229 434.309 19.1025C434.395 19.2822 434.465 19.4893 434.52 19.7236C434.582 19.9502 434.613 20.1924 434.613 20.4502C434.613 21.5674 434.164 22.4541 433.266 23.1104C432.367 23.7588 431.227 24.083 429.844 24.083ZM436.371 27.2705L438.035 21.7744H439.711L437.602 27.2705H436.371ZM1.89844 53.79V36.5049H3.29297V53.79H1.89844ZM19.0547 47.6729C19.0547 47.8213 19.0391 48.0205 19.0078 48.2705H7.76953C7.91797 49.5986 8.47266 50.6846 9.43359 51.5283C10.4023 52.3643 11.5859 52.7822 12.9844 52.7822C13.9609 52.7822 14.8555 52.5713 15.668 52.1494C16.4805 51.7197 17.1133 51.1533 17.5664 50.4502L18.5508 51.2705C17.957 52.1455 17.168 52.833 16.1836 53.333C15.1992 53.833 14.1133 54.083 12.9258 54.083C11.0352 54.083 9.45703 53.4697 8.19141 52.2432C6.93359 51.0088 6.30469 49.4775 6.30469 47.6494C6.30469 45.8291 6.91406 44.3096 8.13281 43.0908C9.35156 41.8721 10.8711 41.2627 12.6914 41.2627C14.5039 41.2627 16.0156 41.876 17.2266 43.1025C18.4453 44.3213 19.0547 45.8447 19.0547 47.6729ZM15.9961 43.8057C15.082 42.9775 13.9727 42.5635 12.668 42.5635C11.3633 42.5635 10.2578 42.9775 9.35156 43.8057C8.44531 44.6338 7.91797 45.7041 7.76953 47.0166H17.5898C17.4414 45.7041 16.9102 44.6338 15.9961 43.8057ZM30.9492 41.5557H32.5078L26.9414 53.79H25.4297L19.8633 41.5557H21.4688L26.2266 52.1846L30.9492 41.5557ZM46.1484 47.6729C46.1484 47.8213 46.1328 48.0205 46.1016 48.2705H34.8633C35.0117 49.5986 35.5664 50.6846 36.5273 51.5283C37.4961 52.3643 38.6797 52.7822 40.0781 52.7822C41.0547 52.7822 41.9492 52.5713 42.7617 52.1494C43.5742 51.7197 44.207 51.1533 44.6602 50.4502L45.6445 51.2705C45.0508 52.1455 44.2617 52.833 43.2773 53.333C42.293 53.833 41.207 54.083 40.0195 54.083C38.1289 54.083 36.5508 53.4697 35.2852 52.2432C34.0273 51.0088 33.3984 49.4775 33.3984 47.6494C33.3984 45.8291 34.0078 44.3096 35.2266 43.0908C36.4453 41.8721 37.9648 41.2627 39.7852 41.2627C41.5977 41.2627 43.1094 41.876 44.3203 43.1025C45.5391 44.3213 46.1484 45.8447 46.1484 47.6729ZM43.0898 43.8057C42.1758 42.9775 41.0664 42.5635 39.7617 42.5635C38.457 42.5635 37.3516 42.9775 36.4453 43.8057C35.5391 44.6338 35.0117 45.7041 34.8633 47.0166H44.6836C44.5352 45.7041 44.0039 44.6338 43.0898 43.8057ZM49.0781 53.79V36.5049H50.4727V53.79H49.0781ZM53.9883 47.8838V46.5713H60.5625V47.8838H53.9883ZM73.2773 52.6768C72.293 53.6143 70.9844 54.083 69.3516 54.083C67.7188 54.083 66.4062 53.6143 65.4141 52.6768C64.4297 51.7393 63.9375 50.501 63.9375 48.9619V41.5557H65.3203V48.7744C65.3203 49.9619 65.6875 50.9189 66.4219 51.6455C67.1641 52.3721 68.1406 52.7354 69.3516 52.7354C70.5625 52.7354 71.5312 52.376 72.2578 51.6572C72.9922 50.9307 73.3594 49.9697 73.3594 48.7744V41.5557H74.7539V48.9619C74.7539 50.501 74.2617 51.7393 73.2773 52.6768ZM85.0898 41.2627C86.8711 41.2627 88.3555 41.876 89.543 43.1025C90.7383 44.3213 91.3359 45.8447 91.3359 47.6729C91.3359 49.501 90.7383 51.0283 89.543 52.2549C88.3555 53.4736 86.8711 54.083 85.0898 54.083C83.9414 54.083 82.9023 53.8018 81.9727 53.2393C81.0508 52.6768 80.332 51.915 79.8164 50.9541V58.3486H78.4219V41.5557H79.8164V44.3799C80.3242 43.4189 81.043 42.6611 81.9727 42.1064C82.9023 41.5439 83.9414 41.2627 85.0898 41.2627ZM81.2578 51.2939C82.2188 52.2549 83.418 52.7354 84.8555 52.7354C86.293 52.7354 87.4922 52.2549 88.4531 51.2939C89.4141 50.3252 89.8945 49.1182 89.8945 47.6729C89.8945 46.2275 89.4141 45.0244 88.4531 44.0635C87.4922 43.0947 86.293 42.6104 84.8555 42.6104C83.418 42.6104 82.2188 43.0947 81.2578 44.0635C80.2969 45.0244 79.8164 46.2275 79.8164 47.6729C79.8164 49.1182 80.2969 50.3252 81.2578 51.2939ZM98.2266 54.083C97.2344 54.083 96.3242 53.9072 95.4961 53.5557C94.668 53.2041 93.9688 52.7314 93.3984 52.1377L94.1953 51.1299C94.6641 51.6533 95.2422 52.0635 95.9297 52.3604C96.625 52.6572 97.3828 52.8057 98.2031 52.8057C99.1797 52.8057 99.9805 52.6064 100.605 52.208C101.238 51.8018 101.555 51.2666 101.555 50.6025C101.555 50.3604 101.516 50.1416 101.438 49.9463C101.359 49.751 101.234 49.5791 101.062 49.4307C100.891 49.2744 100.715 49.1416 100.535 49.0322C100.363 48.9229 100.125 48.8174 99.8203 48.7158C99.5234 48.6143 99.2656 48.5322 99.0469 48.4697C98.8281 48.4072 98.5352 48.333 98.168 48.2471C97.8242 48.1611 97.5586 48.0947 97.3711 48.0479C97.1914 47.9932 96.9414 47.915 96.6211 47.8135C96.3086 47.7119 96.0586 47.6182 95.8711 47.5322C95.6914 47.4385 95.4766 47.3252 95.2266 47.1924C94.9766 47.0518 94.7773 46.9033 94.6289 46.7471C94.4883 46.583 94.3477 46.4033 94.207 46.208C94.0664 46.0049 93.9648 45.7783 93.9023 45.5283C93.8398 45.2705 93.8086 44.9932 93.8086 44.6963C93.8086 43.9775 94.0156 43.3564 94.4297 42.833C94.8516 42.3018 95.3945 41.9072 96.0586 41.6494C96.7305 41.3916 97.4766 41.2627 98.2969 41.2627C100.039 41.2627 101.477 41.8291 102.609 42.9619L101.824 43.9932C101.402 43.54 100.887 43.1846 100.277 42.9268C99.6758 42.6611 99.0234 42.5283 98.3203 42.5283C97.4453 42.5283 96.7148 42.7197 96.1289 43.1025C95.543 43.4775 95.25 43.9775 95.25 44.6025C95.25 44.8916 95.3164 45.1533 95.4492 45.3877C95.582 45.6221 95.7383 45.8135 95.918 45.9619C96.1055 46.1104 96.3711 46.2549 96.7148 46.3955C97.0664 46.5283 97.3711 46.6299 97.6289 46.7002C97.8867 46.7705 98.2461 46.8604 98.707 46.9697C99.0039 47.04 99.2344 47.0986 99.3984 47.1455C99.5625 47.1846 99.7852 47.2471 100.066 47.333C100.348 47.4189 100.57 47.4971 100.734 47.5674C100.898 47.6299 101.094 47.7197 101.32 47.8369C101.555 47.9463 101.742 48.0596 101.883 48.1768C102.023 48.2939 102.172 48.4346 102.328 48.5986C102.492 48.7549 102.613 48.9229 102.691 49.1025C102.777 49.2822 102.848 49.4893 102.902 49.7236C102.965 49.9502 102.996 50.1924 102.996 50.4502C102.996 51.5674 102.547 52.4541 101.648 53.1104C100.75 53.7588 99.6094 54.083 98.2266 54.083ZM104.754 57.2705L106.418 51.7744H108.094L105.984 57.2705H104.754ZM124.371 42.8213H120.469V50.6494C120.469 52.04 121.188 52.7354 122.625 52.7354C123.219 52.7354 123.801 52.583 124.371 52.2783V53.6025C123.77 53.9229 123.098 54.083 122.355 54.083C121.293 54.083 120.48 53.8135 119.918 53.2744C119.355 52.7275 119.074 51.9229 119.074 50.8604V42.8213H116.695V41.5557H119.074V38.1455H120.469V41.5557H124.371V42.8213ZM137.355 41.5557H138.75V53.79H137.355V50.9541C136.84 51.9229 136.121 52.6885 135.199 53.251C134.277 53.8057 133.238 54.083 132.082 54.083C130.309 54.083 128.828 53.4697 127.641 52.2432C126.453 51.0166 125.859 49.4932 125.859 47.6729C125.859 45.8525 126.453 44.3291 127.641 43.1025C128.828 41.876 130.309 41.2627 132.082 41.2627C133.238 41.2627 134.277 41.54 135.199 42.0947C136.121 42.6494 136.84 43.4111 137.355 44.3799V41.5557ZM132.316 52.7354C133.754 52.7354 134.953 52.2549 135.914 51.2939C136.875 50.3252 137.355 49.1182 137.355 47.6729C137.355 46.2275 136.875 45.0244 135.914 44.0635C134.953 43.0947 133.754 42.6104 132.316 42.6104C130.887 42.6104 129.691 43.0947 128.73 44.0635C127.777 45.0244 127.301 46.2275 127.301 47.6729C127.301 49.1182 127.777 50.3252 128.73 51.2939C129.691 52.2549 130.887 52.7354 132.316 52.7354ZM146.438 54.083C145.445 54.083 144.535 53.9072 143.707 53.5557C142.879 53.2041 142.18 52.7314 141.609 52.1377L142.406 51.1299C142.875 51.6533 143.453 52.0635 144.141 52.3604C144.836 52.6572 145.594 52.8057 146.414 52.8057C147.391 52.8057 148.191 52.6064 148.816 52.208C149.449 51.8018 149.766 51.2666 149.766 50.6025C149.766 50.3604 149.727 50.1416 149.648 49.9463C149.57 49.751 149.445 49.5791 149.273 49.4307C149.102 49.2744 148.926 49.1416 148.746 49.0322C148.574 48.9229 148.336 48.8174 148.031 48.7158C147.734 48.6143 147.477 48.5322 147.258 48.4697C147.039 48.4072 146.746 48.333 146.379 48.2471C146.035 48.1611 145.77 48.0947 145.582 48.0479C145.402 47.9932 145.152 47.915 144.832 47.8135C144.52 47.7119 144.27 47.6182 144.082 47.5322C143.902 47.4385 143.688 47.3252 143.438 47.1924C143.188 47.0518 142.988 46.9033 142.84 46.7471C142.699 46.583 142.559 46.4033 142.418 46.208C142.277 46.0049 142.176 45.7783 142.113 45.5283C142.051 45.2705 142.02 44.9932 142.02 44.6963C142.02 43.9775 142.227 43.3564 142.641 42.833C143.062 42.3018 143.605 41.9072 144.27 41.6494C144.941 41.3916 145.688 41.2627 146.508 41.2627C148.25 41.2627 149.688 41.8291 150.82 42.9619L150.035 43.9932C149.613 43.54 149.098 43.1846 148.488 42.9268C147.887 42.6611 147.234 42.5283 146.531 42.5283C145.656 42.5283 144.926 42.7197 144.34 43.1025C143.754 43.4775 143.461 43.9775 143.461 44.6025C143.461 44.8916 143.527 45.1533 143.66 45.3877C143.793 45.6221 143.949 45.8135 144.129 45.9619C144.316 46.1104 144.582 46.2549 144.926 46.3955C145.277 46.5283 145.582 46.6299 145.84 46.7002C146.098 46.7705 146.457 46.8604 146.918 46.9697C147.215 47.04 147.445 47.0986 147.609 47.1455C147.773 47.1846 147.996 47.2471 148.277 47.333C148.559 47.4189 148.781 47.4971 148.945 47.5674C149.109 47.6299 149.305 47.7197 149.531 47.8369C149.766 47.9463 149.953 48.0596 150.094 48.1768C150.234 48.2939 150.383 48.4346 150.539 48.5986C150.703 48.7549 150.824 48.9229 150.902 49.1025C150.988 49.2822 151.059 49.4893 151.113 49.7236C151.176 49.9502 151.207 50.1924 151.207 50.4502C151.207 51.5674 150.758 52.4541 149.859 53.1104C148.961 53.7588 147.82 54.083 146.438 54.083ZM162.375 53.79L157.43 48.4111L155.52 50.4033V53.79H154.125V36.5049H155.52V48.5283L162.234 41.5557H164.062L158.414 47.4033L164.227 53.79H162.375ZM169.898 54.083C168.906 54.083 167.996 53.9072 167.168 53.5557C166.34 53.2041 165.641 52.7314 165.07 52.1377L165.867 51.1299C166.336 51.6533 166.914 52.0635 167.602 52.3604C168.297 52.6572 169.055 52.8057 169.875 52.8057C170.852 52.8057 171.652 52.6064 172.277 52.208C172.91 51.8018 173.227 51.2666 173.227 50.6025C173.227 50.3604 173.188 50.1416 173.109 49.9463C173.031 49.751 172.906 49.5791 172.734 49.4307C172.562 49.2744 172.387 49.1416 172.207 49.0322C172.035 48.9229 171.797 48.8174 171.492 48.7158C171.195 48.6143 170.938 48.5322 170.719 48.4697C170.5 48.4072 170.207 48.333 169.84 48.2471C169.496 48.1611 169.23 48.0947 169.043 48.0479C168.863 47.9932 168.613 47.915 168.293 47.8135C167.98 47.7119 167.73 47.6182 167.543 47.5322C167.363 47.4385 167.148 47.3252 166.898 47.1924C166.648 47.0518 166.449 46.9033 166.301 46.7471C166.16 46.583 166.02 46.4033 165.879 46.208C165.738 46.0049 165.637 45.7783 165.574 45.5283C165.512 45.2705 165.48 44.9932 165.48 44.6963C165.48 43.9775 165.688 43.3564 166.102 42.833C166.523 42.3018 167.066 41.9072 167.73 41.6494C168.402 41.3916 169.148 41.2627 169.969 41.2627C171.711 41.2627 173.148 41.8291 174.281 42.9619L173.496 43.9932C173.074 43.54 172.559 43.1846 171.949 42.9268C171.348 42.6611 170.695 42.5283 169.992 42.5283C169.117 42.5283 168.387 42.7197 167.801 43.1025C167.215 43.4775 166.922 43.9775 166.922 44.6025C166.922 44.8916 166.988 45.1533 167.121 45.3877C167.254 45.6221 167.41 45.8135 167.59 45.9619C167.777 46.1104 168.043 46.2549 168.387 46.3955C168.738 46.5283 169.043 46.6299 169.301 46.7002C169.559 46.7705 169.918 46.8604 170.379 46.9697C170.676 47.04 170.906 47.0986 171.07 47.1455C171.234 47.1846 171.457 47.2471 171.738 47.333C172.02 47.4189 172.242 47.4971 172.406 47.5674C172.57 47.6299 172.766 47.7197 172.992 47.8369C173.227 47.9463 173.414 48.0596 173.555 48.1768C173.695 48.2939 173.844 48.4346 174 48.5986C174.164 48.7549 174.285 48.9229 174.363 49.1025C174.449 49.2822 174.52 49.4893 174.574 49.7236C174.637 49.9502 174.668 50.1924 174.668 50.4502C174.668 51.5674 174.219 52.4541 173.32 53.1104C172.422 53.7588 171.281 54.083 169.898 54.083ZM197.742 53.79H195.844L193.992 51.7744C192.555 53.3135 190.828 54.083 188.812 54.083C187.125 54.083 185.723 53.5908 184.605 52.6064C183.488 51.6143 182.93 50.3604 182.93 48.8447C182.93 48.3447 183 47.8721 183.141 47.4268C183.281 46.9814 183.461 46.5908 183.68 46.2549C183.898 45.9189 184.176 45.5947 184.512 45.2822C184.848 44.9697 185.176 44.7041 185.496 44.4854C185.824 44.2666 186.199 44.04 186.621 43.8057C185.457 42.4072 184.875 41.1924 184.875 40.1611C184.875 39.2471 185.23 38.4814 185.941 37.8643C186.66 37.2471 187.543 36.9385 188.59 36.9385C189.637 36.9385 190.52 37.2471 191.238 37.8643C191.957 38.4736 192.316 39.2393 192.316 40.1611C192.316 40.6064 192.223 41.0244 192.035 41.415C191.848 41.8057 191.57 42.1611 191.203 42.4814C190.836 42.8018 190.465 43.0791 190.09 43.3135C189.723 43.5479 189.273 43.8018 188.742 44.0752L193.969 49.7354C194.711 48.6416 195.281 47.4268 195.68 46.0908L196.922 46.4893C196.344 48.2861 195.656 49.6885 194.859 50.6963L197.742 53.79ZM190.207 38.7197C189.77 38.3213 189.23 38.1221 188.59 38.1221C187.949 38.1221 187.41 38.3174 186.973 38.708C186.535 39.0908 186.316 39.5752 186.316 40.1611C186.316 40.9189 186.844 41.9189 187.898 43.1611C188.375 42.9189 188.766 42.7041 189.07 42.5166C189.383 42.3291 189.688 42.1104 189.984 41.8604C190.289 41.6104 190.512 41.3486 190.652 41.0752C190.801 40.7939 190.875 40.4893 190.875 40.1611C190.875 39.5908 190.652 39.1104 190.207 38.7197ZM188.859 52.7588C190.43 52.7588 191.836 52.1104 193.078 50.8135L187.465 44.7197C186.504 45.2588 185.754 45.8408 185.215 46.4658C184.684 47.0908 184.418 47.8525 184.418 48.751C184.418 49.9072 184.844 50.8643 185.695 51.6221C186.555 52.3799 187.609 52.7588 188.859 52.7588ZM216.152 41.5557H217.547V53.79H216.152V50.9541C215.637 51.9229 214.918 52.6885 213.996 53.251C213.074 53.8057 212.035 54.083 210.879 54.083C209.105 54.083 207.625 53.4697 206.438 52.2432C205.25 51.0166 204.656 49.4932 204.656 47.6729C204.656 45.8525 205.25 44.3291 206.438 43.1025C207.625 41.876 209.105 41.2627 210.879 41.2627C212.035 41.2627 213.074 41.54 213.996 42.0947C214.918 42.6494 215.637 43.4111 216.152 44.3799V41.5557ZM211.113 52.7354C212.551 52.7354 213.75 52.2549 214.711 51.2939C215.672 50.3252 216.152 49.1182 216.152 47.6729C216.152 46.2275 215.672 45.0244 214.711 44.0635C213.75 43.0947 212.551 42.6104 211.113 42.6104C209.684 42.6104 208.488 43.0947 207.527 44.0635C206.574 45.0244 206.098 46.2275 206.098 47.6729C206.098 49.1182 206.574 50.3252 207.527 51.2939C208.488 52.2549 209.684 52.7354 211.113 52.7354ZM227.027 54.083C225.184 54.083 223.641 53.4697 222.398 52.2432C221.164 51.0166 220.547 49.4932 220.547 47.6729C220.547 45.8525 221.164 44.3291 222.398 43.1025C223.641 41.876 225.184 41.2627 227.027 41.2627C228.223 41.2627 229.309 41.5361 230.285 42.083C231.27 42.6299 232.039 43.3799 232.594 44.333L231.375 45.083C230.945 44.3252 230.348 43.7236 229.582 43.2783C228.816 42.833 227.965 42.6104 227.027 42.6104C225.59 42.6104 224.391 43.0947 223.43 44.0635C222.469 45.0244 221.988 46.2275 221.988 47.6729C221.988 49.1182 222.469 50.3252 223.43 51.2939C224.391 52.2549 225.59 52.7354 227.027 52.7354C227.965 52.7354 228.816 52.5127 229.582 52.0674C230.348 51.6221 230.945 51.0205 231.375 50.2627L232.594 51.001C232.031 51.9541 231.262 52.708 230.285 53.2627C229.309 53.8096 228.223 54.083 227.027 54.083ZM241.594 41.2627C243.133 41.2627 244.371 41.7314 245.309 42.6689C246.254 43.5986 246.727 44.833 246.727 46.3721V53.79H245.344V46.7822C245.344 45.5244 244.961 44.5166 244.195 43.7588C243.438 42.9932 242.434 42.6104 241.184 42.6104C239.887 42.6104 238.84 42.9971 238.043 43.7705C237.246 44.5439 236.848 45.5635 236.848 46.8291V53.79H235.453V36.5049H236.848V43.8994C237.309 43.0557 237.945 42.4072 238.758 41.9541C239.578 41.4932 240.523 41.2627 241.594 41.2627ZM251.074 38.6729C250.793 38.6729 250.555 38.5752 250.359 38.3799C250.164 38.1846 250.066 37.9463 250.066 37.665C250.066 37.3916 250.164 37.1611 250.359 36.9736C250.562 36.7783 250.801 36.6807 251.074 36.6807C251.363 36.6807 251.605 36.7783 251.801 36.9736C252.004 37.1611 252.105 37.3916 252.105 37.665C252.105 37.9541 252.004 38.1963 251.801 38.3916C251.605 38.5791 251.363 38.6729 251.074 38.6729ZM250.383 53.79V41.5557H251.777V53.79H250.383ZM267.539 47.6729C267.539 47.8213 267.523 48.0205 267.492 48.2705H256.254C256.402 49.5986 256.957 50.6846 257.918 51.5283C258.887 52.3643 260.07 52.7822 261.469 52.7822C262.445 52.7822 263.34 52.5713 264.152 52.1494C264.965 51.7197 265.598 51.1533 266.051 50.4502L267.035 51.2705C266.441 52.1455 265.652 52.833 264.668 53.333C263.684 53.833 262.598 54.083 261.41 54.083C259.52 54.083 257.941 53.4697 256.676 52.2432C255.418 51.0088 254.789 49.4775 254.789 47.6494C254.789 45.8291 255.398 44.3096 256.617 43.0908C257.836 41.8721 259.355 41.2627 261.176 41.2627C262.988 41.2627 264.5 41.876 265.711 43.1025C266.93 44.3213 267.539 45.8447 267.539 47.6729ZM264.48 43.8057C263.566 42.9775 262.457 42.5635 261.152 42.5635C259.848 42.5635 258.742 42.9775 257.836 43.8057C256.93 44.6338 256.402 45.7041 256.254 47.0166H266.074C265.926 45.7041 265.395 44.6338 264.48 43.8057ZM279.434 41.5557H280.992L275.426 53.79H273.914L268.348 41.5557H269.953L274.711 52.1846L279.434 41.5557ZM294.633 47.6729C294.633 47.8213 294.617 48.0205 294.586 48.2705H283.348C283.496 49.5986 284.051 50.6846 285.012 51.5283C285.98 52.3643 287.164 52.7822 288.562 52.7822C289.539 52.7822 290.434 52.5713 291.246 52.1494C292.059 51.7197 292.691 51.1533 293.145 50.4502L294.129 51.2705C293.535 52.1455 292.746 52.833 291.762 53.333C290.777 53.833 289.691 54.083 288.504 54.083C286.613 54.083 285.035 53.4697 283.77 52.2432C282.512 51.0088 281.883 49.4775 281.883 47.6494C281.883 45.8291 282.492 44.3096 283.711 43.0908C284.93 41.8721 286.449 41.2627 288.27 41.2627C290.082 41.2627 291.594 41.876 292.805 43.1025C294.023 44.3213 294.633 45.8447 294.633 47.6729ZM291.574 43.8057C290.66 42.9775 289.551 42.5635 288.246 42.5635C286.941 42.5635 285.836 42.9775 284.93 43.8057C284.023 44.6338 283.496 45.7041 283.348 47.0166H293.168C293.02 45.7041 292.488 44.6338 291.574 43.8057ZM312.105 41.2627C313.52 41.2627 314.652 41.6885 315.504 42.54C316.355 43.3838 316.781 44.5088 316.781 45.915V53.79H315.387V46.3018C315.387 45.1846 315.051 44.29 314.379 43.6182C313.715 42.9463 312.828 42.6104 311.719 42.6104C310.562 42.6104 309.633 42.9541 308.93 43.6416C308.227 44.3213 307.875 45.2236 307.875 46.3486V53.79H306.492V46.3018C306.492 45.1924 306.152 44.3018 305.473 43.6299C304.801 42.9502 303.914 42.6104 302.812 42.6104C301.656 42.6104 300.723 42.9541 300.012 43.6416C299.309 44.3213 298.957 45.2236 298.957 46.3486V53.79H297.562V41.5557H298.957V43.5713C299.395 42.8291 299.977 42.2588 300.703 41.8604C301.43 41.4619 302.27 41.2627 303.223 41.2627C304.246 41.2627 305.133 41.501 305.883 41.9775C306.641 42.4463 307.188 43.1025 307.523 43.9463C307.938 43.0947 308.539 42.4346 309.328 41.9658C310.117 41.4971 311.043 41.2627 312.105 41.2627ZM332.391 47.6729C332.391 47.8213 332.375 48.0205 332.344 48.2705H321.105C321.254 49.5986 321.809 50.6846 322.77 51.5283C323.738 52.3643 324.922 52.7822 326.32 52.7822C327.297 52.7822 328.191 52.5713 329.004 52.1494C329.816 51.7197 330.449 51.1533 330.902 50.4502L331.887 51.2705C331.293 52.1455 330.504 52.833 329.52 53.333C328.535 53.833 327.449 54.083 326.262 54.083C324.371 54.083 322.793 53.4697 321.527 52.2432C320.27 51.0088 319.641 49.4775 319.641 47.6494C319.641 45.8291 320.25 44.3096 321.469 43.0908C322.688 41.8721 324.207 41.2627 326.027 41.2627C327.84 41.2627 329.352 41.876 330.562 43.1025C331.781 44.3213 332.391 45.8447 332.391 47.6729ZM329.332 43.8057C328.418 42.9775 327.309 42.5635 326.004 42.5635C324.699 42.5635 323.594 42.9775 322.688 43.8057C321.781 44.6338 321.254 45.7041 321.105 47.0166H330.926C330.777 45.7041 330.246 44.6338 329.332 43.8057ZM341.461 41.2627C343 41.2627 344.238 41.7314 345.176 42.6689C346.121 43.5986 346.594 44.833 346.594 46.3721V53.79H345.211V46.7822C345.211 45.5244 344.828 44.5166 344.062 43.7588C343.305 42.9932 342.301 42.6104 341.051 42.6104C339.754 42.6104 338.707 42.9971 337.91 43.7705C337.113 44.5439 336.715 45.5635 336.715 46.8291V53.79H335.32V41.5557H336.715V43.8525C337.176 43.0244 337.812 42.3877 338.625 41.9424C339.445 41.4893 340.391 41.2627 341.461 41.2627ZM356.238 42.8213H352.336V50.6494C352.336 52.04 353.055 52.7354 354.492 52.7354C355.086 52.7354 355.668 52.583 356.238 52.2783V53.6025C355.637 53.9229 354.965 54.083 354.223 54.083C353.16 54.083 352.348 53.8135 351.785 53.2744C351.223 52.7275 350.941 51.9229 350.941 50.8604V42.8213H348.562V41.5557H350.941V38.1455H352.336V41.5557H356.238V42.8213ZM362.578 54.083C361.586 54.083 360.676 53.9072 359.848 53.5557C359.02 53.2041 358.32 52.7314 357.75 52.1377L358.547 51.1299C359.016 51.6533 359.594 52.0635 360.281 52.3604C360.977 52.6572 361.734 52.8057 362.555 52.8057C363.531 52.8057 364.332 52.6064 364.957 52.208C365.59 51.8018 365.906 51.2666 365.906 50.6025C365.906 50.3604 365.867 50.1416 365.789 49.9463C365.711 49.751 365.586 49.5791 365.414 49.4307C365.242 49.2744 365.066 49.1416 364.887 49.0322C364.715 48.9229 364.477 48.8174 364.172 48.7158C363.875 48.6143 363.617 48.5322 363.398 48.4697C363.18 48.4072 362.887 48.333 362.52 48.2471C362.176 48.1611 361.91 48.0947 361.723 48.0479C361.543 47.9932 361.293 47.915 360.973 47.8135C360.66 47.7119 360.41 47.6182 360.223 47.5322C360.043 47.4385 359.828 47.3252 359.578 47.1924C359.328 47.0518 359.129 46.9033 358.98 46.7471C358.84 46.583 358.699 46.4033 358.559 46.208C358.418 46.0049 358.316 45.7783 358.254 45.5283C358.191 45.2705 358.16 44.9932 358.16 44.6963C358.16 43.9775 358.367 43.3564 358.781 42.833C359.203 42.3018 359.746 41.9072 360.41 41.6494C361.082 41.3916 361.828 41.2627 362.648 41.2627C364.391 41.2627 365.828 41.8291 366.961 42.9619L366.176 43.9932C365.754 43.54 365.238 43.1846 364.629 42.9268C364.027 42.6611 363.375 42.5283 362.672 42.5283C361.797 42.5283 361.066 42.7197 360.48 43.1025C359.895 43.4775 359.602 43.9775 359.602 44.6025C359.602 44.8916 359.668 45.1533 359.801 45.3877C359.934 45.6221 360.09 45.8135 360.27 45.9619C360.457 46.1104 360.723 46.2549 361.066 46.3955C361.418 46.5283 361.723 46.6299 361.98 46.7002C362.238 46.7705 362.598 46.8604 363.059 46.9697C363.355 47.04 363.586 47.0986 363.75 47.1455C363.914 47.1846 364.137 47.2471 364.418 47.333C364.699 47.4189 364.922 47.4971 365.086 47.5674C365.25 47.6299 365.445 47.7197 365.672 47.8369C365.906 47.9463 366.094 48.0596 366.234 48.1768C366.375 48.2939 366.523 48.4346 366.68 48.5986C366.844 48.7549 366.965 48.9229 367.043 49.1025C367.129 49.2822 367.199 49.4893 367.254 49.7236C367.316 49.9502 367.348 50.1924 367.348 50.4502C367.348 51.5674 366.898 52.4541 366 53.1104C365.102 53.7588 363.961 54.083 362.578 54.083ZM371.051 53.9072C370.73 53.9072 370.461 53.8018 370.242 53.5908C370.031 53.3721 369.926 53.1025 369.926 52.7822C369.926 52.4619 370.031 52.1963 370.242 51.9854C370.461 51.7666 370.73 51.6572 371.051 51.6572C371.379 51.6572 371.652 51.7666 371.871 51.9854C372.098 52.1963 372.211 52.4619 372.211 52.7822C372.211 53.1025 372.098 53.3721 371.871 53.5908C371.652 53.8018 371.379 53.9072 371.051 53.9072ZM383.543 52.3955H392.859V53.79H382.078V37.2314H392.742V38.626H383.543V44.7666H391.945V46.1611H383.543V52.3955ZM402.164 41.2627C403.703 41.2627 404.941 41.7314 405.879 42.6689C406.824 43.5986 407.297 44.833 407.297 46.3721V53.79H405.914V46.7822C405.914 45.5244 405.531 44.5166 404.766 43.7588C404.008 42.9932 403.004 42.6104 401.754 42.6104C400.457 42.6104 399.41 42.9971 398.613 43.7705C397.816 44.5439 397.418 45.5635 397.418 46.8291V53.79H396.023V41.5557H397.418V43.8525C397.879 43.0244 398.516 42.3877 399.328 41.9424C400.148 41.4893 401.094 41.2627 402.164 41.2627ZM411.82 38.6729C411.531 38.6729 411.285 38.5752 411.082 38.3799C410.879 38.1846 410.777 37.9463 410.777 37.665C410.777 37.3916 410.879 37.1611 411.082 36.9736C411.285 36.7783 411.531 36.6807 411.82 36.6807C412.094 36.6807 412.328 36.7783 412.523 36.9736C412.727 37.1611 412.828 37.3916 412.828 37.665C412.828 37.9463 412.73 38.1846 412.535 38.3799C412.34 38.5752 412.102 38.6729 411.82 38.6729ZM409.535 58.6416C409.02 58.6416 408.531 58.5361 408.07 58.3252V57.0596C408.406 57.2471 408.812 57.3408 409.289 57.3408C410.508 57.3408 411.117 56.708 411.117 55.4424V41.5557H412.512V55.6182C412.512 56.6025 412.25 57.3525 411.727 57.8682C411.203 58.3838 410.473 58.6416 409.535 58.6416ZM421.98 54.083C420.137 54.083 418.594 53.4697 417.352 52.2432C416.117 51.0166 415.5 49.4932 415.5 47.6729C415.5 45.8525 416.117 44.3291 417.352 43.1025C418.594 41.876 420.137 41.2627 421.98 41.2627C423.184 41.2627 424.277 41.5439 425.262 42.1064C426.254 42.6611 427.031 43.4307 427.594 44.415C428.156 45.3916 428.438 46.4775 428.438 47.6729C428.438 48.8682 428.156 49.958 427.594 50.9424C427.031 51.9189 426.254 52.6885 425.262 53.251C424.277 53.8057 423.184 54.083 421.98 54.083ZM418.383 51.2939C419.344 52.2549 420.543 52.7354 421.98 52.7354C423.418 52.7354 424.613 52.2549 425.566 51.2939C426.52 50.3252 426.996 49.1182 426.996 47.6729C426.996 46.2275 426.52 45.0244 425.566 44.0635C424.613 43.0947 423.418 42.6104 421.98 42.6104C420.543 42.6104 419.344 43.0947 418.383 44.0635C417.422 45.0244 416.941 46.2275 416.941 47.6729C416.941 49.1182 417.422 50.3252 418.383 51.2939ZM440.402 41.5557H441.961L435 56.6494C434.719 57.29 434.332 57.7822 433.84 58.126C433.355 58.4697 432.824 58.6416 432.246 58.6416C431.793 58.6416 431.332 58.5361 430.863 58.3252C430.402 58.1143 430.016 57.8408 429.703 57.5049L430.324 56.4502C430.785 57.0127 431.359 57.2939 432.047 57.2939C432.773 57.2939 433.336 56.8955 433.734 56.0986L434.859 53.7666L429.316 41.5557H430.922L435.68 52.1846L440.402 41.5557ZM16.4414 71.2627C17.8555 71.2627 18.9883 71.6885 19.8398 72.54C20.6914 73.3838 21.1172 74.5088 21.1172 75.915V83.79H19.7227V76.3018C19.7227 75.1846 19.3867 74.29 18.7148 73.6182C18.0508 72.9463 17.1641 72.6104 16.0547 72.6104C14.8984 72.6104 13.9688 72.9541 13.2656 73.6416C12.5625 74.3213 12.2109 75.2236 12.2109 76.3486V83.79H10.8281V76.3018C10.8281 75.1924 10.4883 74.3018 9.80859 73.6299C9.13672 72.9502 8.25 72.6104 7.14844 72.6104C5.99219 72.6104 5.05859 72.9541 4.34766 73.6416C3.64453 74.3213 3.29297 75.2236 3.29297 76.3486V83.79H1.89844V71.5557H3.29297V73.5713C3.73047 72.8291 4.3125 72.2588 5.03906 71.8604C5.76562 71.4619 6.60547 71.2627 7.55859 71.2627C8.58203 71.2627 9.46875 71.501 10.2188 71.9775C10.9766 72.4463 11.5234 73.1025 11.8594 73.9463C12.2734 73.0947 12.875 72.4346 13.6641 71.9658C14.4531 71.4971 15.3789 71.2627 16.4414 71.2627ZM36.7266 77.6729C36.7266 77.8213 36.7109 78.0205 36.6797 78.2705H25.4414C25.5898 79.5986 26.1445 80.6846 27.1055 81.5283C28.0742 82.3643 29.2578 82.7822 30.6562 82.7822C31.6328 82.7822 32.5273 82.5713 33.3398 82.1494C34.1523 81.7197 34.7852 81.1533 35.2383 80.4502L36.2227 81.2705C35.6289 82.1455 34.8398 82.833 33.8555 83.333C32.8711 83.833 31.7852 84.083 30.5977 84.083C28.707 84.083 27.1289 83.4697 25.8633 82.2432C24.6055 81.0088 23.9766 79.4775 23.9766 77.6494C23.9766 75.8291 24.5859 74.3096 25.8047 73.0908C27.0234 71.8721 28.543 71.2627 30.3633 71.2627C32.1758 71.2627 33.6875 71.876 34.8984 73.1025C36.1172 74.3213 36.7266 75.8447 36.7266 77.6729ZM33.668 73.8057C32.7539 72.9775 31.6445 72.5635 30.3398 72.5635C29.0352 72.5635 27.9297 72.9775 27.0234 73.8057C26.1172 74.6338 25.5898 75.7041 25.4414 77.0166H35.2617C35.1133 75.7041 34.582 74.6338 33.668 73.8057ZM51.6094 77.6729C51.6094 77.8213 51.5938 78.0205 51.5625 78.2705H40.3242C40.4727 79.5986 41.0273 80.6846 41.9883 81.5283C42.957 82.3643 44.1406 82.7822 45.5391 82.7822C46.5156 82.7822 47.4102 82.5713 48.2227 82.1494C49.0352 81.7197 49.668 81.1533 50.1211 80.4502L51.1055 81.2705C50.5117 82.1455 49.7227 82.833 48.7383 83.333C47.7539 83.833 46.668 84.083 45.4805 84.083C43.5898 84.083 42.0117 83.4697 40.7461 82.2432C39.4883 81.0088 38.8594 79.4775 38.8594 77.6494C38.8594 75.8291 39.4688 74.3096 40.6875 73.0908C41.9062 71.8721 43.4258 71.2627 45.2461 71.2627C47.0586 71.2627 48.5703 71.876 49.7812 73.1025C51 74.3213 51.6094 75.8447 51.6094 77.6729ZM48.5508 73.8057C47.6367 72.9775 46.5273 72.5635 45.2227 72.5635C43.918 72.5635 42.8125 72.9775 41.9062 73.8057C41 74.6338 40.4727 75.7041 40.3242 77.0166H50.1445C49.9961 75.7041 49.4648 74.6338 48.5508 73.8057ZM60.4336 72.8213H56.5312V80.6494C56.5312 82.04 57.25 82.7354 58.6875 82.7354C59.2812 82.7354 59.8633 82.583 60.4336 82.2783V83.6025C59.832 83.9229 59.1602 84.083 58.418 84.083C57.3555 84.083 56.543 83.8135 55.9805 83.2744C55.418 82.7275 55.1367 81.9229 55.1367 80.8604V72.8213H52.7578V71.5557H55.1367V68.1455H56.5312V71.5557H60.4336V72.8213ZM62.332 77.8838V76.5713H68.9062V77.8838H62.332ZM72.832 82.3955H81.375V83.79H70.7344V82.6182L77.4609 75.2939C78.0859 74.583 78.5625 73.9424 78.8906 73.3721C79.2188 72.7939 79.3828 72.1963 79.3828 71.5791C79.3828 70.6416 79.0508 69.8838 78.3867 69.3057C77.7227 68.7197 76.8867 68.4268 75.8789 68.4268C75.0039 68.4268 74.207 68.6494 73.4883 69.0947C72.7773 69.5322 72.1875 70.1416 71.7188 70.9229L70.6406 70.0088C71.1797 69.0713 71.918 68.3252 72.8555 67.7705C73.793 67.2158 74.8242 66.9385 75.9492 66.9385C77.3867 66.9385 78.5742 67.3643 79.5117 68.2158C80.4492 69.0674 80.918 70.1611 80.918 71.4971C80.918 72.3174 80.7305 73.0791 80.3555 73.7822C79.9883 74.4854 79.4453 75.2275 78.7266 76.0088L72.832 82.3955ZM83.6133 77.8838V76.5713H90.1875V77.8838H83.6133ZM99.7852 72.8213H95.8828V80.6494C95.8828 82.04 96.6016 82.7354 98.0391 82.7354C98.6328 82.7354 99.2148 82.583 99.7852 82.2783V83.6025C99.1836 83.9229 98.5117 84.083 97.7695 84.083C96.707 84.083 95.8945 83.8135 95.332 83.2744C94.7695 82.7275 94.4883 81.9229 94.4883 80.8604V72.8213H92.1094V71.5557H94.4883V68.1455H95.8828V71.5557H99.7852V72.8213ZM108.633 71.3564H108.996V72.7979H108.633C107.227 72.7979 106.105 73.2197 105.27 74.0635C104.441 74.9072 104.027 76.0439 104.027 77.4736V83.79H102.633V71.5557H104.027V74.1221C104.48 73.2471 105.102 72.5674 105.891 72.083C106.688 71.5986 107.602 71.3564 108.633 71.3564ZM121.418 71.5557H122.812V83.79H121.418V80.9541C120.902 81.9229 120.184 82.6885 119.262 83.251C118.34 83.8057 117.301 84.083 116.145 84.083C114.371 84.083 112.891 83.4697 111.703 82.2432C110.516 81.0166 109.922 79.4932 109.922 77.6729C109.922 75.8525 110.516 74.3291 111.703 73.1025C112.891 71.876 114.371 71.2627 116.145 71.2627C117.301 71.2627 118.34 71.54 119.262 72.0947C120.184 72.6494 120.902 73.4111 121.418 74.3799V71.5557ZM116.379 82.7354C117.816 82.7354 119.016 82.2549 119.977 81.2939C120.938 80.3252 121.418 79.1182 121.418 77.6729C121.418 76.2275 120.938 75.0244 119.977 74.0635C119.016 73.0947 117.816 72.6104 116.379 72.6104C114.949 72.6104 113.754 73.0947 112.793 74.0635C111.84 75.0244 111.363 76.2275 111.363 77.6729C111.363 79.1182 111.84 80.3252 112.793 81.2939C113.754 82.2549 114.949 82.7354 116.379 82.7354ZM127.301 68.6729C127.02 68.6729 126.781 68.5752 126.586 68.3799C126.391 68.1846 126.293 67.9463 126.293 67.665C126.293 67.3916 126.391 67.1611 126.586 66.9736C126.789 66.7783 127.027 66.6807 127.301 66.6807C127.59 66.6807 127.832 66.7783 128.027 66.9736C128.23 67.1611 128.332 67.3916 128.332 67.665C128.332 67.9541 128.23 68.1963 128.027 68.3916C127.832 68.5791 127.59 68.6729 127.301 68.6729ZM126.609 83.79V71.5557H128.004V83.79H126.609ZM137.953 71.2627C139.492 71.2627 140.73 71.7314 141.668 72.6689C142.613 73.5986 143.086 74.833 143.086 76.3721V83.79H141.703V76.7822C141.703 75.5244 141.32 74.5166 140.555 73.7588C139.797 72.9932 138.793 72.6104 137.543 72.6104C136.246 72.6104 135.199 72.9971 134.402 73.7705C133.605 74.5439 133.207 75.5635 133.207 76.8291V83.79H131.812V71.5557H133.207V73.8525C133.668 73.0244 134.305 72.3877 135.117 71.9424C135.938 71.4893 136.883 71.2627 137.953 71.2627ZM166.898 83.79H165L163.148 81.7744C161.711 83.3135 159.984 84.083 157.969 84.083C156.281 84.083 154.879 83.5908 153.762 82.6064C152.645 81.6143 152.086 80.3604 152.086 78.8447C152.086 78.3447 152.156 77.8721 152.297 77.4268C152.438 76.9814 152.617 76.5908 152.836 76.2549C153.055 75.9189 153.332 75.5947 153.668 75.2822C154.004 74.9697 154.332 74.7041 154.652 74.4854C154.98 74.2666 155.355 74.04 155.777 73.8057C154.613 72.4072 154.031 71.1924 154.031 70.1611C154.031 69.2471 154.387 68.4814 155.098 67.8643C155.816 67.2471 156.699 66.9385 157.746 66.9385C158.793 66.9385 159.676 67.2471 160.395 67.8643C161.113 68.4736 161.473 69.2393 161.473 70.1611C161.473 70.6064 161.379 71.0244 161.191 71.415C161.004 71.8057 160.727 72.1611 160.359 72.4814C159.992 72.8018 159.621 73.0791 159.246 73.3135C158.879 73.5479 158.43 73.8018 157.898 74.0752L163.125 79.7354C163.867 78.6416 164.438 77.4268 164.836 76.0908L166.078 76.4893C165.5 78.2861 164.812 79.6885 164.016 80.6963L166.898 83.79ZM159.363 68.7197C158.926 68.3213 158.387 68.1221 157.746 68.1221C157.105 68.1221 156.566 68.3174 156.129 68.708C155.691 69.0908 155.473 69.5752 155.473 70.1611C155.473 70.9189 156 71.9189 157.055 73.1611C157.531 72.9189 157.922 72.7041 158.227 72.5166C158.539 72.3291 158.844 72.1104 159.141 71.8604C159.445 71.6104 159.668 71.3486 159.809 71.0752C159.957 70.7939 160.031 70.4893 160.031 70.1611C160.031 69.5908 159.809 69.1104 159.363 68.7197ZM158.016 82.7588C159.586 82.7588 160.992 82.1104 162.234 80.8135L156.621 74.7197C155.66 75.2588 154.91 75.8408 154.371 76.4658C153.84 77.0908 153.574 77.8525 153.574 78.751C153.574 79.9072 154 80.8643 154.852 81.6221C155.711 82.3799 156.766 82.7588 158.016 82.7588ZM181.348 72.8213H177.445V80.6494C177.445 82.04 178.164 82.7354 179.602 82.7354C180.195 82.7354 180.777 82.583 181.348 82.2783V83.6025C180.746 83.9229 180.074 84.083 179.332 84.083C178.27 84.083 177.457 83.8135 176.895 83.2744C176.332 82.7275 176.051 81.9229 176.051 80.8604V72.8213H173.672V71.5557H176.051V68.1455H177.445V71.5557H181.348V72.8213ZM190.195 71.3564H190.559V72.7979H190.195C188.789 72.7979 187.668 73.2197 186.832 74.0635C186.004 74.9072 185.59 76.0439 185.59 77.4736V83.79H184.195V71.5557H185.59V74.1221C186.043 73.2471 186.664 72.5674 187.453 72.083C188.25 71.5986 189.164 71.3564 190.195 71.3564ZM202.98 71.5557H204.375V83.79H202.98V80.9541C202.465 81.9229 201.746 82.6885 200.824 83.251C199.902 83.8057 198.863 84.083 197.707 84.083C195.934 84.083 194.453 83.4697 193.266 82.2432C192.078 81.0166 191.484 79.4932 191.484 77.6729C191.484 75.8525 192.078 74.3291 193.266 73.1025C194.453 71.876 195.934 71.2627 197.707 71.2627C198.863 71.2627 199.902 71.54 200.824 72.0947C201.746 72.6494 202.465 73.4111 202.98 74.3799V71.5557ZM197.941 82.7354C199.379 82.7354 200.578 82.2549 201.539 81.2939C202.5 80.3252 202.98 79.1182 202.98 77.6729C202.98 76.2275 202.5 75.0244 201.539 74.0635C200.578 73.0947 199.379 72.6104 197.941 72.6104C196.512 72.6104 195.316 73.0947 194.355 74.0635C193.402 75.0244 192.926 76.2275 192.926 77.6729C192.926 79.1182 193.402 80.3252 194.355 81.2939C195.316 82.2549 196.512 82.7354 197.941 82.7354ZM217.84 71.5557H219.398L213.832 83.79H212.32L206.754 71.5557H208.359L213.117 82.1846L217.84 71.5557ZM233.039 77.6729C233.039 77.8213 233.023 78.0205 232.992 78.2705H221.754C221.902 79.5986 222.457 80.6846 223.418 81.5283C224.387 82.3643 225.57 82.7822 226.969 82.7822C227.945 82.7822 228.84 82.5713 229.652 82.1494C230.465 81.7197 231.098 81.1533 231.551 80.4502L232.535 81.2705C231.941 82.1455 231.152 82.833 230.168 83.333C229.184 83.833 228.098 84.083 226.91 84.083C225.02 84.083 223.441 83.4697 222.176 82.2432C220.918 81.0088 220.289 79.4775 220.289 77.6494C220.289 75.8291 220.898 74.3096 222.117 73.0908C223.336 71.8721 224.855 71.2627 226.676 71.2627C228.488 71.2627 230 71.876 231.211 73.1025C232.43 74.3213 233.039 75.8447 233.039 77.6729ZM229.98 73.8057C229.066 72.9775 227.957 72.5635 226.652 72.5635C225.348 72.5635 224.242 72.9775 223.336 73.8057C222.43 74.6338 221.902 75.7041 221.754 77.0166H231.574C231.426 75.7041 230.895 74.6338 229.98 73.8057ZM235.969 83.79V66.5049H237.363V83.79H235.969ZM240.879 77.8838V76.5713H247.453V77.8838H240.879ZM251.379 82.3955H259.922V83.79H249.281V82.6182L256.008 75.2939C256.633 74.583 257.109 73.9424 257.438 73.3721C257.766 72.7939 257.93 72.1963 257.93 71.5791C257.93 70.6416 257.598 69.8838 256.934 69.3057C256.27 68.7197 255.434 68.4268 254.426 68.4268C253.551 68.4268 252.754 68.6494 252.035 69.0947C251.324 69.5322 250.734 70.1416 250.266 70.9229L249.188 70.0088C249.727 69.0713 250.465 68.3252 251.402 67.7705C252.34 67.2158 253.371 66.9385 254.496 66.9385C255.934 66.9385 257.121 67.3643 258.059 68.2158C258.996 69.0674 259.465 70.1611 259.465 71.4971C259.465 72.3174 259.277 73.0791 258.902 73.7822C258.535 74.4854 257.992 75.2275 257.273 76.0088L251.379 82.3955ZM262.16 77.8838V76.5713H268.734V77.8838H262.16ZM284.203 77.6729C284.203 77.8213 284.188 78.0205 284.156 78.2705H272.918C273.066 79.5986 273.621 80.6846 274.582 81.5283C275.551 82.3643 276.734 82.7822 278.133 82.7822C279.109 82.7822 280.004 82.5713 280.816 82.1494C281.629 81.7197 282.262 81.1533 282.715 80.4502L283.699 81.2705C283.105 82.1455 282.316 82.833 281.332 83.333C280.348 83.833 279.262 84.083 278.074 84.083C276.184 84.083 274.605 83.4697 273.34 82.2432C272.082 81.0088 271.453 79.4775 271.453 77.6494C271.453 75.8291 272.062 74.3096 273.281 73.0908C274.5 71.8721 276.02 71.2627 277.84 71.2627C279.652 71.2627 281.164 71.876 282.375 73.1025C283.594 74.3213 284.203 75.8447 284.203 77.6729ZM281.145 73.8057C280.23 72.9775 279.121 72.5635 277.816 72.5635C276.512 72.5635 275.406 72.9775 274.5 73.8057C273.594 74.6338 273.066 75.7041 272.918 77.0166H282.738C282.59 75.7041 282.059 74.6338 281.145 73.8057ZM297.855 71.5557H299.25V83.79H297.855V80.9541C297.34 81.9229 296.621 82.6885 295.699 83.251C294.777 83.8057 293.738 84.083 292.582 84.083C290.809 84.083 289.328 83.4697 288.141 82.2432C286.953 81.0166 286.359 79.4932 286.359 77.6729C286.359 75.8525 286.953 74.3291 288.141 73.1025C289.328 71.876 290.809 71.2627 292.582 71.2627C293.738 71.2627 294.777 71.54 295.699 72.0947C296.621 72.6494 297.34 73.4111 297.855 74.3799V71.5557ZM292.816 82.7354C294.254 82.7354 295.453 82.2549 296.414 81.2939C297.375 80.3252 297.855 79.1182 297.855 77.6729C297.855 76.2275 297.375 75.0244 296.414 74.0635C295.453 73.0947 294.254 72.6104 292.816 72.6104C291.387 72.6104 290.191 73.0947 289.23 74.0635C288.277 75.0244 287.801 76.2275 287.801 77.6729C287.801 79.1182 288.277 80.3252 289.23 81.2939C290.191 82.2549 291.387 82.7354 292.816 82.7354ZM309.047 71.3564H309.41V72.7979H309.047C307.641 72.7979 306.52 73.2197 305.684 74.0635C304.855 74.9072 304.441 76.0439 304.441 77.4736V83.79H303.047V71.5557H304.441V74.1221C304.895 73.2471 305.516 72.5674 306.305 72.083C307.102 71.5986 308.016 71.3564 309.047 71.3564ZM317.977 71.2627C319.516 71.2627 320.754 71.7314 321.691 72.6689C322.637 73.5986 323.109 74.833 323.109 76.3721V83.79H321.727V76.7822C321.727 75.5244 321.344 74.5166 320.578 73.7588C319.82 72.9932 318.816 72.6104 317.566 72.6104C316.27 72.6104 315.223 72.9971 314.426 73.7705C313.629 74.5439 313.23 75.5635 313.23 76.8291V83.79H311.836V71.5557H313.23V73.8525C313.691 73.0244 314.328 72.3877 315.141 71.9424C315.961 71.4893 316.906 71.2627 317.977 71.2627ZM339 71.3564H339.363V72.7979H339C337.594 72.7979 336.473 73.2197 335.637 74.0635C334.809 74.9072 334.395 76.0439 334.395 77.4736V83.79H333V71.5557H334.395V74.1221C334.848 73.2471 335.469 72.5674 336.258 72.083C337.055 71.5986 337.969 71.3564 339 71.3564ZM353.016 77.6729C353.016 77.8213 353 78.0205 352.969 78.2705H341.73C341.879 79.5986 342.434 80.6846 343.395 81.5283C344.363 82.3643 345.547 82.7822 346.945 82.7822C347.922 82.7822 348.816 82.5713 349.629 82.1494C350.441 81.7197 351.074 81.1533 351.527 80.4502L352.512 81.2705C351.918 82.1455 351.129 82.833 350.145 83.333C349.16 83.833 348.074 84.083 346.887 84.083C344.996 84.083 343.418 83.4697 342.152 82.2432C340.895 81.0088 340.266 79.4775 340.266 77.6494C340.266 75.8291 340.875 74.3096 342.094 73.0908C343.312 71.8721 344.832 71.2627 346.652 71.2627C348.465 71.2627 349.977 71.876 351.188 73.1025C352.406 74.3213 353.016 75.8447 353.016 77.6729ZM349.957 73.8057C349.043 72.9775 347.934 72.5635 346.629 72.5635C345.324 72.5635 344.219 72.9775 343.312 73.8057C342.406 74.6338 341.879 75.7041 341.73 77.0166H351.551C351.402 75.7041 350.871 74.6338 349.957 73.8057ZM372.281 71.5557H373.793L369.211 83.79H367.723L363.855 73.1846L359.965 83.79H358.477L353.895 71.5557H355.453L359.273 82.1611L363.141 71.5557H364.605L368.461 82.1611L372.281 71.5557ZM386.285 71.5557H387.68V83.79H386.285V80.9541C385.77 81.9229 385.051 82.6885 384.129 83.251C383.207 83.8057 382.168 84.083 381.012 84.083C379.238 84.083 377.758 83.4697 376.57 82.2432C375.383 81.0166 374.789 79.4932 374.789 77.6729C374.789 75.8525 375.383 74.3291 376.57 73.1025C377.758 71.876 379.238 71.2627 381.012 71.2627C382.168 71.2627 383.207 71.54 384.129 72.0947C385.051 72.6494 385.77 73.4111 386.285 74.3799V71.5557ZM381.246 82.7354C382.684 82.7354 383.883 82.2549 384.844 81.2939C385.805 80.3252 386.285 79.1182 386.285 77.6729C386.285 76.2275 385.805 75.0244 384.844 74.0635C383.883 73.0947 382.684 72.6104 381.246 72.6104C379.816 72.6104 378.621 73.0947 377.66 74.0635C376.707 75.0244 376.23 76.2275 376.23 77.6729C376.23 79.1182 376.707 80.3252 377.66 81.2939C378.621 82.2549 379.816 82.7354 381.246 82.7354ZM397.477 71.3564H397.84V72.7979H397.477C396.07 72.7979 394.949 73.2197 394.113 74.0635C393.285 74.9072 392.871 76.0439 392.871 77.4736V83.79H391.477V71.5557H392.871V74.1221C393.324 73.2471 393.945 72.5674 394.734 72.083C395.531 71.5986 396.445 71.3564 397.477 71.3564ZM410.262 66.5049H411.656V83.79H410.262V80.9541C409.746 81.9229 409.027 82.6885 408.105 83.251C407.184 83.8057 406.145 84.083 404.988 84.083C403.215 84.083 401.734 83.4697 400.547 82.2432C399.359 81.0166 398.766 79.4932 398.766 77.6729C398.766 75.8525 399.359 74.3291 400.547 73.1025C401.734 71.876 403.215 71.2627 404.988 71.2627C406.145 71.2627 407.184 71.54 408.105 72.0947C409.027 72.6494 409.746 73.4111 410.262 74.3799V66.5049ZM405.223 82.7354C406.66 82.7354 407.859 82.2549 408.82 81.2939C409.781 80.3252 410.262 79.1182 410.262 77.6729C410.262 76.2275 409.781 75.0244 408.82 74.0635C407.859 73.0947 406.66 72.6104 405.223 72.6104C403.793 72.6104 402.598 73.0947 401.637 74.0635C400.684 75.0244 400.207 76.2275 400.207 77.6729C400.207 79.1182 400.684 80.3252 401.637 81.2939C402.598 82.2549 403.793 82.7354 405.223 82.7354ZM419.344 84.083C418.352 84.083 417.441 83.9072 416.613 83.5557C415.785 83.2041 415.086 82.7314 414.516 82.1377L415.312 81.1299C415.781 81.6533 416.359 82.0635 417.047 82.3604C417.742 82.6572 418.5 82.8057 419.32 82.8057C420.297 82.8057 421.098 82.6064 421.723 82.208C422.355 81.8018 422.672 81.2666 422.672 80.6025C422.672 80.3604 422.633 80.1416 422.555 79.9463C422.477 79.751 422.352 79.5791 422.18 79.4307C422.008 79.2744 421.832 79.1416 421.652 79.0322C421.48 78.9229 421.242 78.8174 420.938 78.7158C420.641 78.6143 420.383 78.5322 420.164 78.4697C419.945 78.4072 419.652 78.333 419.285 78.2471C418.941 78.1611 418.676 78.0947 418.488 78.0479C418.309 77.9932 418.059 77.915 417.738 77.8135C417.426 77.7119 417.176 77.6182 416.988 77.5322C416.809 77.4385 416.594 77.3252 416.344 77.1924C416.094 77.0518 415.895 76.9033 415.746 76.7471C415.605 76.583 415.465 76.4033 415.324 76.208C415.184 76.0049 415.082 75.7783 415.02 75.5283C414.957 75.2705 414.926 74.9932 414.926 74.6963C414.926 73.9775 415.133 73.3564 415.547 72.833C415.969 72.3018 416.512 71.9072 417.176 71.6494C417.848 71.3916 418.594 71.2627 419.414 71.2627C421.156 71.2627 422.594 71.8291 423.727 72.9619L422.941 73.9932C422.52 73.54 422.004 73.1846 421.395 72.9268C420.793 72.6611 420.141 72.5283 419.438 72.5283C418.562 72.5283 417.832 72.7197 417.246 73.1025C416.66 73.4775 416.367 73.9775 416.367 74.6025C416.367 74.8916 416.434 75.1533 416.566 75.3877C416.699 75.6221 416.855 75.8135 417.035 75.9619C417.223 76.1104 417.488 76.2549 417.832 76.3955C418.184 76.5283 418.488 76.6299 418.746 76.7002C419.004 76.7705 419.363 76.8604 419.824 76.9697C420.121 77.04 420.352 77.0986 420.516 77.1455C420.68 77.1846 420.902 77.2471 421.184 77.333C421.465 77.4189 421.688 77.4971 421.852 77.5674C422.016 77.6299 422.211 77.7197 422.438 77.8369C422.672 77.9463 422.859 78.0596 423 78.1768C423.141 78.2939 423.289 78.4346 423.445 78.5986C423.609 78.7549 423.73 78.9229 423.809 79.1025C423.895 79.2822 423.965 79.4893 424.02 79.7236C424.082 79.9502 424.113 80.1924 424.113 80.4502C424.113 81.5674 423.664 82.4541 422.766 83.1104C421.867 83.7588 420.727 84.083 419.344 84.083ZM427.816 83.9072C427.496 83.9072 427.227 83.8018 427.008 83.5908C426.797 83.3721 426.691 83.1025 426.691 82.7822C426.691 82.4619 426.797 82.1963 427.008 81.9854C427.227 81.7666 427.496 81.6572 427.816 81.6572C428.145 81.6572 428.418 81.7666 428.637 81.9854C428.863 82.1963 428.977 82.4619 428.977 82.7822C428.977 83.1025 428.863 83.3721 428.637 83.5908C428.418 83.8018 428.145 83.9072 427.816 83.9072ZM3.59766 112.396H12.1875V113.79H2.13281V97.2314H3.59766V112.396ZM19.7695 114.083C17.9258 114.083 16.3828 113.47 15.1406 112.243C13.9062 111.017 13.2891 109.493 13.2891 107.673C13.2891 105.853 13.9062 104.329 15.1406 103.103C16.3828 101.876 17.9258 101.263 19.7695 101.263C20.9727 101.263 22.0664 101.544 23.0508 102.106C24.043 102.661 24.8203 103.431 25.3828 104.415C25.9453 105.392 26.2266 106.478 26.2266 107.673C26.2266 108.868 25.9453 109.958 25.3828 110.942C24.8203 111.919 24.043 112.688 23.0508 113.251C22.0664 113.806 20.9727 114.083 19.7695 114.083ZM16.1719 111.294C17.1328 112.255 18.332 112.735 19.7695 112.735C21.207 112.735 22.4023 112.255 23.3555 111.294C24.3086 110.325 24.7852 109.118 24.7852 107.673C24.7852 106.228 24.3086 105.024 23.3555 104.063C22.4023 103.095 21.207 102.61 19.7695 102.61C18.332 102.61 17.1328 103.095 16.1719 104.063C15.2109 105.024 14.7305 106.228 14.7305 107.673C14.7305 109.118 15.2109 110.325 16.1719 111.294ZM39.9492 101.556H41.3438V113.79H39.9492V110.954C39.4336 111.923 38.7148 112.688 37.793 113.251C36.8711 113.806 35.832 114.083 34.6758 114.083C32.9023 114.083 31.4219 113.47 30.2344 112.243C29.0469 111.017 28.4531 109.493 28.4531 107.673C28.4531 105.853 29.0469 104.329 30.2344 103.103C31.4219 101.876 32.9023 101.263 34.6758 101.263C35.832 101.263 36.8711 101.54 37.793 102.095C38.7148 102.649 39.4336 103.411 39.9492 104.38V101.556ZM34.9102 112.735C36.3477 112.735 37.5469 112.255 38.5078 111.294C39.4688 110.325 39.9492 109.118 39.9492 107.673C39.9492 106.228 39.4688 105.024 38.5078 104.063C37.5469 103.095 36.3477 102.61 34.9102 102.61C33.4805 102.61 32.2852 103.095 31.3242 104.063C30.3711 105.024 29.8945 106.228 29.8945 107.673C29.8945 109.118 30.3711 110.325 31.3242 111.294C32.2852 112.255 33.4805 112.735 34.9102 112.735ZM55.8633 96.5049H57.2578V113.79H55.8633V110.954C55.3477 111.923 54.6289 112.688 53.707 113.251C52.7852 113.806 51.7461 114.083 50.5898 114.083C48.8164 114.083 47.3359 113.47 46.1484 112.243C44.9609 111.017 44.3672 109.493 44.3672 107.673C44.3672 105.853 44.9609 104.329 46.1484 103.103C47.3359 101.876 48.8164 101.263 50.5898 101.263C51.7461 101.263 52.7852 101.54 53.707 102.095C54.6289 102.649 55.3477 103.411 55.8633 104.38V96.5049ZM50.8242 112.735C52.2617 112.735 53.4609 112.255 54.4219 111.294C55.3828 110.325 55.8633 109.118 55.8633 107.673C55.8633 106.228 55.3828 105.024 54.4219 104.063C53.4609 103.095 52.2617 102.61 50.8242 102.61C49.3945 102.61 48.1992 103.095 47.2383 104.063C46.2852 105.024 45.8086 106.228 45.8086 107.673C45.8086 109.118 46.2852 110.325 47.2383 111.294C48.1992 112.255 49.3945 112.735 50.8242 112.735ZM76.4883 112.677C75.5039 113.614 74.1953 114.083 72.5625 114.083C70.9297 114.083 69.6172 113.614 68.625 112.677C67.6406 111.739 67.1484 110.501 67.1484 108.962V101.556H68.5312V108.774C68.5312 109.962 68.8984 110.919 69.6328 111.646C70.375 112.372 71.3516 112.735 72.5625 112.735C73.7734 112.735 74.7422 112.376 75.4688 111.657C76.2031 110.931 76.5703 109.97 76.5703 108.774V101.556H77.9648V108.962C77.9648 110.501 77.4727 111.739 76.4883 112.677ZM88.3008 101.263C90.082 101.263 91.5664 101.876 92.7539 103.103C93.9492 104.321 94.5469 105.845 94.5469 107.673C94.5469 109.501 93.9492 111.028 92.7539 112.255C91.5664 113.474 90.082 114.083 88.3008 114.083C87.1523 114.083 86.1133 113.802 85.1836 113.239C84.2617 112.677 83.543 111.915 83.0273 110.954V118.349H81.6328V101.556H83.0273V104.38C83.5352 103.419 84.2539 102.661 85.1836 102.106C86.1133 101.544 87.1523 101.263 88.3008 101.263ZM84.4688 111.294C85.4297 112.255 86.6289 112.735 88.0664 112.735C89.5039 112.735 90.7031 112.255 91.6641 111.294C92.625 110.325 93.1055 109.118 93.1055 107.673C93.1055 106.228 92.625 105.024 91.6641 104.063C90.7031 103.095 89.5039 102.61 88.0664 102.61C86.6289 102.61 85.4297 103.095 84.4688 104.063C83.5078 105.024 83.0273 106.228 83.0273 107.673C83.0273 109.118 83.5078 110.325 84.4688 111.294ZM109.465 114.083C107.621 114.083 106.078 113.47 104.836 112.243C103.602 111.017 102.984 109.493 102.984 107.673C102.984 105.853 103.602 104.329 104.836 103.103C106.078 101.876 107.621 101.263 109.465 101.263C110.668 101.263 111.762 101.544 112.746 102.106C113.738 102.661 114.516 103.431 115.078 104.415C115.641 105.392 115.922 106.478 115.922 107.673C115.922 108.868 115.641 109.958 115.078 110.942C114.516 111.919 113.738 112.688 112.746 113.251C111.762 113.806 110.668 114.083 109.465 114.083ZM105.867 111.294C106.828 112.255 108.027 112.735 109.465 112.735C110.902 112.735 112.098 112.255 113.051 111.294C114.004 110.325 114.48 109.118 114.48 107.673C114.48 106.228 114.004 105.024 113.051 104.063C112.098 103.095 110.902 102.61 109.465 102.61C108.027 102.61 106.828 103.095 105.867 104.063C104.906 105.024 104.426 106.228 104.426 107.673C104.426 109.118 104.906 110.325 105.867 111.294ZM125.062 101.263C126.602 101.263 127.84 101.731 128.777 102.669C129.723 103.599 130.195 104.833 130.195 106.372V113.79H128.812V106.782C128.812 105.524 128.43 104.517 127.664 103.759C126.906 102.993 125.902 102.61 124.652 102.61C123.355 102.61 122.309 102.997 121.512 103.771C120.715 104.544 120.316 105.563 120.316 106.829V113.79H118.922V101.556H120.316V103.853C120.777 103.024 121.414 102.388 122.227 101.942C123.047 101.489 123.992 101.263 125.062 101.263ZM150.164 113.79L144.48 106.782H141.785V113.79H140.32V97.2314H146.801C148.191 97.2314 149.352 97.6885 150.281 98.6025C151.211 99.5166 151.676 100.657 151.676 102.024C151.676 103.376 151.211 104.509 150.281 105.423C149.359 106.329 148.207 106.782 146.824 106.782H146.273L151.992 113.79H150.164ZM141.785 98.626V105.481H146.777C147.738 105.481 148.543 105.157 149.191 104.509C149.84 103.86 150.164 103.044 150.164 102.06C150.164 101.075 149.84 100.259 149.191 99.6104C148.543 98.9541 147.738 98.626 146.777 98.626H141.785ZM156.48 112.396H165.07V113.79H155.016V97.2314H156.48V112.396ZM177.691 97.2314H179.32L172.312 113.79H170.73L163.723 97.2314H165.41L171.551 111.915L177.691 97.2314ZM194.871 102.821H190.969V110.649C190.969 112.04 191.688 112.735 193.125 112.735C193.719 112.735 194.301 112.583 194.871 112.278V113.603C194.27 113.923 193.598 114.083 192.855 114.083C191.793 114.083 190.98 113.813 190.418 113.274C189.855 112.728 189.574 111.923 189.574 110.86V102.821H187.195V101.556H189.574V98.1455H190.969V101.556H194.871V102.821ZM202.816 114.083C200.973 114.083 199.43 113.47 198.188 112.243C196.953 111.017 196.336 109.493 196.336 107.673C196.336 105.853 196.953 104.329 198.188 103.103C199.43 101.876 200.973 101.263 202.816 101.263C204.02 101.263 205.113 101.544 206.098 102.106C207.09 102.661 207.867 103.431 208.43 104.415C208.992 105.392 209.273 106.478 209.273 107.673C209.273 108.868 208.992 109.958 208.43 110.942C207.867 111.919 207.09 112.688 206.098 113.251C205.113 113.806 204.02 114.083 202.816 114.083ZM199.219 111.294C200.18 112.255 201.379 112.735 202.816 112.735C204.254 112.735 205.449 112.255 206.402 111.294C207.355 110.325 207.832 109.118 207.832 107.673C207.832 106.228 207.355 105.024 206.402 104.063C205.449 103.095 204.254 102.61 202.816 102.61C201.379 102.61 200.18 103.095 199.219 104.063C198.258 105.024 197.777 106.228 197.777 107.673C197.777 109.118 198.258 110.325 199.219 111.294ZM222.996 96.5049H224.391V113.79H222.996V110.954C222.48 111.923 221.762 112.688 220.84 113.251C219.918 113.806 218.879 114.083 217.723 114.083C215.949 114.083 214.469 113.47 213.281 112.243C212.094 111.017 211.5 109.493 211.5 107.673C211.5 105.853 212.094 104.329 213.281 103.103C214.469 101.876 215.949 101.263 217.723 101.263C218.879 101.263 219.918 101.54 220.84 102.095C221.762 102.649 222.48 103.411 222.996 104.38V96.5049ZM217.957 112.735C219.395 112.735 220.594 112.255 221.555 111.294C222.516 110.325 222.996 109.118 222.996 107.673C222.996 106.228 222.516 105.024 221.555 104.063C220.594 103.095 219.395 102.61 217.957 102.61C216.527 102.61 215.332 103.095 214.371 104.063C213.418 105.024 212.941 106.228 212.941 107.673C212.941 109.118 213.418 110.325 214.371 111.294C215.332 112.255 216.527 112.735 217.957 112.735ZM238.91 101.556H240.305V113.79H238.91V110.954C238.395 111.923 237.676 112.688 236.754 113.251C235.832 113.806 234.793 114.083 233.637 114.083C231.863 114.083 230.383 113.47 229.195 112.243C228.008 111.017 227.414 109.493 227.414 107.673C227.414 105.853 228.008 104.329 229.195 103.103C230.383 101.876 231.863 101.263 233.637 101.263C234.793 101.263 235.832 101.54 236.754 102.095C237.676 102.649 238.395 103.411 238.91 104.38V101.556ZM233.871 112.735C235.309 112.735 236.508 112.255 237.469 111.294C238.43 110.325 238.91 109.118 238.91 107.673C238.91 106.228 238.43 105.024 237.469 104.063C236.508 103.095 235.309 102.61 233.871 102.61C232.441 102.61 231.246 103.095 230.285 104.063C229.332 105.024 228.855 106.228 228.855 107.673C228.855 109.118 229.332 110.325 230.285 111.294C231.246 112.255 232.441 112.735 233.871 112.735ZM253.77 101.556H255.328L248.367 116.649C248.086 117.29 247.699 117.782 247.207 118.126C246.723 118.47 246.191 118.642 245.613 118.642C245.16 118.642 244.699 118.536 244.23 118.325C243.77 118.114 243.383 117.841 243.07 117.505L243.691 116.45C244.152 117.013 244.727 117.294 245.414 117.294C246.141 117.294 246.703 116.896 247.102 116.099L248.227 113.767L242.684 101.556H244.289L249.047 112.185L253.77 101.556ZM258.047 109.548L257.977 101.31V97.2314H259.441V101.31L259.371 109.548H258.047ZM258.727 113.907C258.406 113.907 258.137 113.806 257.918 113.603C257.707 113.392 257.602 113.126 257.602 112.806C257.602 112.493 257.707 112.231 257.918 112.021C258.137 111.81 258.406 111.704 258.727 111.704C259.039 111.704 259.301 111.81 259.512 112.021C259.723 112.231 259.828 112.493 259.828 112.806C259.828 113.126 259.723 113.392 259.512 113.603C259.301 113.806 259.039 113.907 258.727 113.907Z" fill="white"/>
<circle cx="74.6424" cy="14.6424" r="11.6424" stroke="white" stroke-width="1.86069" stroke-linecap="square"/>
<path d="M68.9688 14.9504H71.5457H75.846C77.1714 14.9504 78.2458 13.876 78.2458 12.5507V12.5507C78.2458 11.2253 77.1714 10.1509 75.846 10.1509H74.3803H71.5457V19.4832H74.1226M74.638 14.9504V14.9504C75.5716 14.9504 76.4107 15.5196 76.7559 16.387L77.6069 18.5254C77.837 19.1037 78.3965 19.4832 79.0188 19.4832V19.4832" stroke="white" stroke-width="1.86069" stroke-linecap="square"/>
</svg>
