<svg width="33" height="25" viewBox="0 0 33 25" fill="none" xmlns="http://www.w3.org/2000/svg">
<g id="Frame 1948759981">
<g id="Vector">
<path fill-rule="evenodd" clip-rule="evenodd" d="M11.9693 22.2575C12.245 22.4157 12.5588 22.4949 12.9106 22.4949C13.3099 22.4949 13.6451 22.409 13.9161 22.2372C14.1871 22.0654 14.3939 21.8484 14.5365 21.5861L13.9946 21.342C13.8947 21.5138 13.7568 21.6585 13.581 21.776C13.4098 21.8936 13.1959 21.9523 12.9391 21.9523C12.7394 21.9523 12.5469 21.9049 12.3615 21.8099C12.1761 21.715 12.024 21.5725 11.9051 21.3827C11.8024 21.2186 11.7441 21.0174 11.7301 20.7791H14.5936C14.5984 20.7565 14.6007 20.7271 14.6007 20.6909C14.6055 20.6548 14.6078 20.6209 14.6078 20.5892C14.6078 20.2456 14.5365 19.9404 14.3939 19.6737C14.256 19.4069 14.0563 19.199 13.7949 19.0498C13.5334 18.8961 13.222 18.8192 12.8607 18.8192C12.5041 18.8192 12.1928 18.9051 11.9265 19.0769C11.6603 19.2442 11.4535 19.468 11.3061 19.7483C11.1635 20.0286 11.0921 20.3338 11.0921 20.6638C11.0921 21.0165 11.1682 21.3307 11.3203 21.6065C11.4772 21.8823 11.6936 22.0993 11.9693 22.2575ZM11.7665 20.284C11.7889 20.1834 11.8209 20.0884 11.8623 19.9992C11.9527 19.8048 12.0834 19.6511 12.2545 19.5381C12.4304 19.4205 12.6349 19.3617 12.8678 19.3617C13.0627 19.3617 13.2267 19.3934 13.3599 19.4567C13.493 19.5154 13.6023 19.5923 13.6879 19.6872C13.7735 19.7822 13.8353 19.8839 13.8733 19.9924C13.9114 20.0964 13.9327 20.1936 13.9375 20.284H11.7665ZM15.1532 18.9277V22.3864H15.795V20.4604C15.795 20.2705 15.8354 20.0919 15.9163 19.9246C15.9971 19.7573 16.1088 19.624 16.2514 19.5245C16.394 19.4205 16.5557 19.3685 16.7363 19.3685C16.9883 19.3685 17.1832 19.4386 17.3211 19.5787C17.4637 19.7144 17.535 19.9472 17.535 20.2773V22.3864H18.1697V20.4468C18.1697 20.2569 18.2101 20.0806 18.291 19.9178C18.3717 19.7505 18.4835 19.6172 18.6261 19.5177C18.7687 19.4182 18.9304 19.3685 19.111 19.3685C19.3678 19.3685 19.565 19.4363 19.7029 19.572C19.8455 19.7076 19.9169 19.9404 19.9169 20.2705V22.3864H20.5515V20.1688C20.5515 19.7664 20.4469 19.4408 20.2378 19.1922C20.0333 18.9435 19.7124 18.8192 19.275 18.8192C18.9851 18.8192 18.7354 18.8825 18.5263 19.0091C18.3171 19.1357 18.1507 19.2962 18.0271 19.4906C17.9415 19.2916 17.8012 19.1311 17.6063 19.0091C17.4162 18.8825 17.1856 18.8192 16.9146 18.8192C16.7625 18.8192 16.6104 18.8486 16.4582 18.9074C16.3108 18.9616 16.1801 19.0362 16.066 19.1311C15.9519 19.2216 15.8616 19.3233 15.795 19.4363H15.7665V18.9277H15.1532ZM21.1292 18.9277V22.3864H21.7638V18.9277H21.1292ZM22.3599 18.9277V22.3864H23.0017V20.4604C23.0017 20.275 23.0421 20.1009 23.123 19.9382C23.2086 19.7709 23.325 19.6353 23.4724 19.5313C23.6197 19.4228 23.7933 19.3685 23.993 19.3685C24.2592 19.3685 24.4732 19.4386 24.6348 19.5787C24.7964 19.7144 24.8772 19.9472 24.8772 20.2773V22.3864H25.519V20.1688C25.519 19.7619 25.4049 19.4363 25.1767 19.1922C24.9485 18.9435 24.6133 18.8192 24.1712 18.8192C23.9098 18.8192 23.672 18.8802 23.4581 19.0023C23.2442 19.1244 23.0897 19.269 22.9946 19.4363H22.966V18.9277H22.3599ZM26.0578 18.9277V22.3864H26.6924V18.9277H26.0578Z" fill="white"/>
<path d="M21.4918 18.0749C21.3682 18.0749 21.2612 18.0342 21.1708 17.9529C21.0852 17.867 21.0425 17.7652 21.0425 17.6477C21.0425 17.5256 21.0852 17.4239 21.1708 17.3425C21.2612 17.2566 21.3682 17.2137 21.4918 17.2137C21.6201 17.2137 21.7271 17.2566 21.8126 17.3425C21.8983 17.4239 21.941 17.5256 21.941 17.6477C21.941 17.7652 21.8983 17.867 21.8126 17.9529C21.7271 18.0342 21.6201 18.0749 21.4918 18.0749Z" fill="white"/>
<path d="M26.4204 18.0749C26.2968 18.0749 26.1898 18.0342 26.0995 17.9529C26.0139 17.867 25.9711 17.7652 25.9711 17.6477C25.9711 17.5256 26.0139 17.4239 26.0995 17.3425C26.1898 17.2566 26.2968 17.2137 26.4204 17.2137C26.5487 17.2137 26.6557 17.2566 26.7413 17.3425C26.8269 17.4239 26.8696 17.5256 26.8696 17.6477C26.8696 17.7652 26.8269 17.867 26.7413 17.9529C26.6557 18.0342 26.5487 18.0749 26.4204 18.0749Z" fill="white"/>
<path d="M8.24065 22.4949C7.86477 22.4949 7.51087 22.4282 7.17893 22.2946C6.85187 22.1611 6.56386 21.9727 6.31491 21.7295C6.06595 21.4862 5.87069 21.2024 5.72913 20.8781C5.58757 20.5538 5.51678 20.2008 5.51678 19.8193C5.51678 19.4377 5.58757 19.0848 5.72913 18.7605C5.87069 18.4361 6.06595 18.1524 6.31491 17.9091C6.56874 17.6659 6.85919 17.4775 7.18625 17.3439C7.51819 17.2104 7.86966 17.1436 8.24065 17.1436C8.62628 17.1436 8.98751 17.2104 9.32434 17.3439C9.66603 17.4775 9.94672 17.6659 10.1664 17.9091L9.71241 18.367C9.60014 18.2382 9.4659 18.1285 9.30969 18.0379C9.15837 17.9473 8.99239 17.8781 8.81178 17.8304C8.63117 17.778 8.44079 17.7517 8.24065 17.7517C7.97217 17.7517 7.71101 17.7994 7.45717 17.8948C7.20822 17.9902 6.98855 18.1285 6.79817 18.3098C6.6078 18.4862 6.45647 18.7032 6.34419 18.9608C6.2368 19.2136 6.1831 19.4997 6.1831 19.8193C6.1831 20.1388 6.23924 20.4274 6.35152 20.6849C6.46379 20.9377 6.61512 21.1547 6.80549 21.336C7.00075 21.5172 7.22286 21.6555 7.47181 21.7509C7.72077 21.8463 7.97705 21.894 8.24065 21.894C8.47984 21.894 8.70927 21.863 8.92894 21.801C9.15348 21.7342 9.35118 21.634 9.52203 21.5005C9.69777 21.3669 9.84177 21.1977 9.95404 20.9926C10.0712 20.7827 10.1395 20.5347 10.1591 20.2485H8.25529V19.6547H10.7815C10.7912 19.7167 10.7985 19.7764 10.8034 19.8336C10.8132 19.8908 10.8181 19.9528 10.8181 20.0196V20.0268C10.8181 20.3892 10.7546 20.7231 10.6277 21.0283C10.5008 21.3288 10.3226 21.5887 10.0932 21.8081C9.86374 22.0275 9.59281 22.1968 9.2804 22.3161C8.96799 22.4353 8.6214 22.4949 8.24065 22.4949Z" fill="white"/>
<path d="M16.4798 13.1036C16.4798 12.3948 16.3361 11.7287 16.0486 11.1053C15.7704 10.4819 15.3887 9.93963 14.9038 9.4785C14.419 9.01734 13.8487 8.65441 13.1931 8.38969C12.5376 8.11641 11.8373 7.97979 11.0919 7.97979C11.8373 7.97979 12.5376 7.84742 13.1931 7.58268C13.8487 7.30942 14.419 6.94221 14.9038 6.48108C15.3887 6.01993 15.7704 5.47767 16.0486 4.85427C16.3361 4.23087 16.4798 3.56478 16.4798 2.85599C16.4798 3.56478 16.6189 4.23087 16.8973 4.85427C17.1846 5.47767 17.5707 6.01993 18.0556 6.48108C18.5406 6.94221 19.1107 7.30942 19.7662 7.58268C20.4218 7.84742 21.1223 7.97979 21.8675 7.97979C21.1223 7.97979 20.4218 8.11641 19.7662 8.38969C19.1107 8.65441 18.5406 9.01734 18.0556 9.4785C17.5707 9.93963 17.1846 10.4819 16.8973 11.1053C16.6189 11.7287 16.4798 12.3948 16.4798 13.1036Z" fill="white"/>
</g>
</g>
</svg>
